<svg width="81" height="82" viewBox="0 0 81 82" fill="none" xmlns="http://www.w3.org/2000/svg">
<path d="M4.53652 17.0577C4.30567 15.4087 4.55489 13.1699 5.08014 11.4666C5.24308 10.9342 5.47332 11.2626 5.6042 10.9028C5.86441 10.2052 5.91008 9.48248 6.27968 8.79638C6.40421 8.5712 6.73276 9.01353 6.8528 8.77946C7.50904 7.51664 8.02257 6.20009 9.03379 4.99597C10.3577 3.41336 12.1301 2.14087 13.9907 1.41058C18.2524 -0.302529 23.602 -0.706629 28.0978 1.62344C30.1413 2.63482 31.949 4.65682 33.4205 6.2498C33.5964 6.43644 33.8145 6.07058 33.8708 6.08865C34.7514 6.40836 33.9478 6.68484 34.149 7.14963C34.6129 8.25017 35.0989 9.35389 35.5598 10.4216C35.9321 11.2775 36.1982 12.1124 36.4124 12.8859C36.6227 13.6953 37.2695 12.7408 36.9564 13.6521C36.9341 13.7127 36.4875 13.5637 36.4717 13.7905C36.4423 14.305 36.5723 15.2286 36.5401 15.6014C36.4806 16.321 36.4799 16.436 36.4441 17.1007C36.3862 18.0101 36.0569 19.0315 36.0004 19.9695C35.9893 20.1714 36.4615 19.9774 36.4807 20.3096C36.5018 20.6422 36.3033 21.4765 36.1421 21.7321C35.9825 21.9898 35.6744 21.7984 35.5875 21.831C34.8603 22.0862 35.5248 23.221 35.5126 23.352C35.3743 25.0405 34.7291 26.4037 34.1205 27.7703C33.9723 28.0573 33.8673 28.3749 33.8404 28.712C33.7541 29.701 34.2574 30.7153 34.7758 31.4084C35.3535 32.1988 36.0093 32.8157 36.9881 32.9078C37.0739 32.9151 37.1603 32.9218 37.2474 32.9278C37.4245 32.9405 37.2646 32.4132 37.481 32.4277C39.78 32.582 42.0525 32.8492 44.3042 33.4046C44.53 33.4607 44.1933 33.8793 44.4164 33.962C45.7832 34.4589 47.9179 35.5456 48.9305 33.6811C49.8724 33.8452 51.0171 34.0307 51.8296 34.5011C52.3536 34.804 51.7768 35.2404 52.4684 35.0956C52.6244 35.0635 52.4667 34.6197 52.6976 34.6037C53.6696 34.537 54.7028 34.7727 55.6705 34.6409C55.8674 34.6131 55.8503 34.227 55.9112 34.1634C56.4217 33.65 57.1 34.6402 57.2603 34.7225C58.4818 35.3385 59.4259 35.2286 60.6059 35.3507C60.8797 35.3792 60.6033 34.8369 60.8685 34.846C62.2432 34.8998 63.656 35.0756 64.9743 35.4275C65.2674 35.507 64.9528 35.9177 65.0908 35.978C65.6997 36.2387 65.9155 35.4276 66.501 35.6617C66.6245 35.71 66.5183 36.0768 66.5376 36.1199C66.8401 36.7975 67.2398 35.9145 67.3349 35.903C68.5394 35.7375 69.2044 36.76 70.3558 36.731C70.4937 36.7266 70.2304 36.2255 70.6152 36.242C71.6811 36.2864 72.7682 36.3782 73.8537 36.5144C75.8802 36.7108 77.8965 38.004 78.8116 39.7177C79.0555 40.1699 78.5512 40.0689 78.5358 40.123C78.2255 40.8867 79.145 40.6858 79.2583 40.8335C80.0653 41.95 79.4661 43.1611 80.5427 44.0372C80.3878 46.7646 78.598 49.4356 76.1539 50.458C74.096 51.381 72.0161 52.2437 69.7569 52.7004C69.7029 52.7124 69.6041 52.2596 69.4971 52.2854C68.2068 52.5914 68.7254 53.1295 68.297 54.2697C68.1888 54.5562 67.1582 53.8819 67.0736 53.8366C66.7638 53.6687 66.6862 52.9636 66.5988 52.9435C65.8856 52.798 66.8942 54.7886 66.1703 55.1178C66.1461 55.1247 66.0717 54.7079 65.9941 54.6983C65.7524 54.6673 65.6325 54.9007 65.3894 54.8559C64.8314 54.7501 64.2332 53.8319 63.8478 54.6991C63.7999 54.8107 64.4472 55.9057 63.776 56.1447C63.508 56.2389 62.376 56.7763 62.0224 56.8467C61.6692 56.9171 61.7201 56.4465 61.6901 56.4408C60.6069 56.3404 60.8409 55.989 60.0802 55.458C59.3207 54.9298 60.2235 56.6019 60.1352 56.8743C60.0463 57.1463 59.2317 57.0277 59.0128 56.9573C58.794 56.8868 58.8802 56.5633 58.7063 56.5461C57.5565 56.44 58.6941 57.5849 58.5173 57.9955C58.1019 58.9663 56.9683 57.9368 56.2616 58.1061C56.0705 58.152 56.3462 58.3785 56.202 58.4768C55.6293 58.8623 55.0751 58.632 54.5359 59.3183C54.4476 59.4303 54.2266 60.4588 53.6012 60.0614C53.5119 60.0036 53.5157 59.6172 53.219 59.6656C52.7757 59.7375 52.0328 59.9904 51.6568 60.2896C51.3793 60.5106 51.9769 60.8734 51.5085 60.889C51.3002 60.8956 51.4854 60.4407 51.1057 60.4788C50.7277 60.516 49.8964 60.9095 49.5826 61.0646C49.2695 61.2198 49.6245 61.5396 49.611 61.5781C49.5252 61.8026 49.002 62.2718 48.9479 62.2958C46.2491 63.5789 43.4351 64.0451 40.887 65.4694C40.6867 65.5806 41.016 65.9383 40.9874 65.9596C40.3557 66.4587 40.4095 65.0861 39.7426 64.9374C40.2016 65.7582 39.838 65.7368 39.3791 66.0578C39.1584 66.2132 39.4398 66.484 39.4331 66.5278C39.3026 67.1922 38.759 66.6572 38.6346 66.5537C38.176 66.1736 38.1793 66.8671 37.8699 66.6143C37.5617 66.3639 37.7154 65.7156 37.2374 65.9399C37.2412 66.3065 37.9603 66.9429 37.654 67.2379C36.4987 68.3521 33.6436 68.8922 32.5066 69.3296C31.3719 69.766 31.0405 69.9843 30.3464 70.1661C29.0926 70.4943 29.7876 70.8931 29.1883 71.4919C28.5868 72.0917 28.2779 70.4747 28.0316 70.2087C27.7873 69.9419 27.8219 70.3149 27.6167 70.2004C27.4119 70.0858 27.5896 69.7484 27.2622 69.819C26.9346 69.8897 26.3719 70.8168 26.4148 71.1923C26.5062 71.9876 27.2041 72.5492 26.2988 72.6514C26.2465 72.6568 26.22 72.2068 26.0286 72.2469C24.5144 72.5782 23.072 73.2105 21.575 73.5752C21.3688 73.6247 21.345 73.1215 21.2228 73.1455C19.95 73.3942 20.6868 73.9266 20.4193 75.0108C20.0786 73.8841 19.4354 73.392 18.5604 73.7815C18.0342 74.0152 18.3351 74.4383 18.1444 74.9192C18.0874 75.0639 17.5718 74.9136 17.6036 75.1624C17.7056 75.9763 18.4174 76.6164 17.3739 76.7064C17.3276 76.7091 17.276 76.2617 17.129 76.2998C16.1776 76.5448 16.4107 77.3389 15.4993 77.8614C14.7849 78.271 13.2507 78.4184 12.367 78.73C11.8429 77.5273 11.1641 78.1652 11.2121 79.1366C10.6451 79.3532 10.0703 79.6701 9.48546 79.7981C9.28435 79.8426 9.24799 79.442 9.2079 79.4151C8.58706 78.9899 8.71079 79.9 8.60597 79.9855C8.53628 80.0394 8.46594 80.0895 8.3951 80.1365C7.05485 80.9422 5.74881 80.5664 4.17926 80.7936C4.12932 80.8023 3.75156 81.6567 3.52152 80.8699C3.51968 80.8187 4.14416 80.6109 3.45772 80.317C2.73074 80.004 1.94152 78.8875 1.02364 78.3876C0.803018 78.291 -0.221643 78.1373 0.043506 77.3814C0.0820901 77.285 0.347057 77.2292 0.434711 77.0807C0.727721 76.6288 -0.191531 76.8252 0.425969 76.2285C1.05273 75.6226 1.47448 75.0798 0.946483 74.3236C0.931728 74.3047 0.202835 74.0748 0.250634 73.7747C0.320237 73.3125 0.640445 72.7324 0.831101 72.3122C0.921412 72.1095 0.45245 72.0448 0.461326 72.0057C0.605454 71.5236 0.838612 71.1312 1.12514 70.7934C1.72948 70.0885 2.44193 69.553 3.228 68.7419C3.4354 68.5291 3.46862 67.4799 4.20533 67.3289C5.01297 67.1621 6.37322 69.0377 6.84072 67.5735C7.03069 66.9841 5.25486 64.6689 7.05146 64.7419C8.0108 62.9187 9.75338 61.8983 10.5938 59.9755C10.6319 59.8892 10.1876 59.1771 10.3281 59.014C10.5379 58.7728 10.9361 58.8607 11.0952 58.6957C11.7692 58.0101 12.0572 57.1269 12.6613 56.4303C12.8901 56.1653 13.1155 56.4956 13.3884 56.1797C13.6608 55.8636 13.4357 55.3364 13.9736 55.0395C14.3812 54.8163 15.4519 55.1092 15.8938 54.7358C15.1092 54.0979 15.3643 53.8039 15.5781 53.0947C15.6188 52.958 15.2536 52.8544 15.2585 52.7786C15.2724 52.4654 15.6479 52.4577 15.6412 52.1449C15.64 52.0691 15.3693 51.8549 15.353 51.781C15.2038 51.1447 16.2321 51.0878 16.4102 51.0791C17.089 51.0431 16.8623 50.6031 17.2317 50.4577C17.6006 50.3128 17.4871 50.8704 17.8285 50.6314C18.5358 50.1357 19.1432 49.2642 19.6707 48.6122C19.8795 48.3507 19.3756 48.2479 19.397 48.2039C19.7296 47.5861 20.5461 47.335 20.0572 46.4685C22.225 47.5476 20.1316 45.9979 21.1139 45.5092C21.1921 45.4714 22.1388 46.0825 22.0852 46.4197C22.0315 46.7568 21.4761 46.8992 21.4241 47.3844C21.4113 47.499 21.8958 48.5891 21.8989 48.6889C21.9225 49.4694 20.5463 48.5066 20.4541 48.4752C19.4478 48.1494 19.9197 49.3881 19.8702 49.5792C19.6445 50.4534 19.026 50.8642 18.8026 51.5684C18.6548 52.0278 19.4947 52.7375 19.2496 52.9978C18.4353 53.8633 16.972 53.248 17.3362 54.9441C17.4131 55.3068 18.5067 55.8568 17.2354 55.953C17.1554 55.9589 16.083 55.9304 16.2886 56.5559C16.3146 56.6347 16.5917 56.8484 16.5776 56.9145C16.4772 57.3532 16.0901 57.3967 15.9226 57.8294C15.7551 58.2621 15.5841 58.806 15.1789 59.1335C14.9351 59.3312 14.1796 59.2403 13.9637 59.2578C13.347 59.3015 13.67 60.1143 13.0733 59.9743C12.473 59.8344 12.1121 58.9141 11.4109 59.2263C12.1132 59.8045 12.8144 60.4231 13.5113 61.0164C12.5749 62.1677 11.4464 63.1392 10.564 64.3387C10.4553 64.488 10.957 64.6392 10.8505 64.807C10.3992 65.5134 9.67642 65.8748 9.25436 66.6432C8.92914 67.2391 8.88642 68.1369 8.55907 68.7699C7.4751 68.4687 7.1154 69.5061 6.57655 70.0438C6.38816 70.2324 6.1797 70.0478 5.9926 70.1406C5.29209 70.4949 6.222 70.7971 6.21671 71.0395C6.1914 72.0776 4.50502 70.856 3.94114 71.6644C3.91071 71.7068 4.39479 72.8911 4.39539 73.0028C4.3989 73.1969 4.37403 73.2738 4.33037 73.2874C4.24542 73.2825 3.93504 72.9277 3.80637 72.9998C3.49956 73.1675 3.1272 73.2969 3.32439 73.7364C3.37824 73.8888 4.01906 74.1686 3.47812 74.2611C3.40666 74.2776 3.0418 74.2391 3.01896 74.2589C2.64777 74.67 3.82312 74.6293 4.22263 74.6697C4.42593 74.6948 4.34248 74.7784 4.20044 74.9153C4.05668 75.0479 3.85694 75.2303 3.76645 75.3074C3.30551 75.7214 3.47639 75.2842 3.42433 75.2989C2.73201 75.4247 2.94111 75.6592 3.00703 75.8973C2.02115 76.4608 2.32335 76.8196 3.08636 76.1426C3.17065 76.0727 2.98398 75.9662 3.00703 75.8973C4.09918 75.5718 4.23031 75.5457 3.75013 76.5401C3.54788 77.0089 3.00679 77.3286 3.68458 77.5853C3.99225 77.6796 4.31553 76.9608 4.58796 76.8721C4.89314 76.7608 5.05308 76.8878 5.26086 77.0431C5.46057 77.1971 5.71731 77.3661 5.94702 77.2906C6.10545 77.2345 5.91149 76.8255 6.00351 76.7724C6.21816 76.6304 6.54531 76.8716 6.77717 76.5901C6.79108 76.5716 6.66798 76.3703 6.62857 76.2428C6.61941 76.1905 6.62932 76.1463 6.67632 76.1233C7.94526 75.4907 9.18672 75.241 10.5372 74.6369C11.1896 74.3449 12.2518 73.5931 12.9465 73.3321C14.1495 72.8775 15.855 72.8155 16.7883 72.2191C17.3978 71.8319 17.0708 71.4908 17.2243 71.0876C17.5195 70.3071 18.9082 70.8352 19.104 70.9256C19.1102 70.9288 18.5933 71.2787 18.9868 71.3515C19.3576 71.7068 19.0985 70.9304 19.104 70.9256C19.2319 70.9835 20.393 70.5678 20.5801 70.3894C20.6816 70.2922 20.4395 69.9382 20.4958 69.8948C21.8363 68.8715 23.2913 68.0935 24.8909 67.5846C24.9212 67.5802 25.0761 68.0287 25.1448 68.0131C26.1104 67.8057 26.4344 67.0241 27.0174 66.3828C27.6004 65.7416 28.2226 65.5855 28.9867 66.1295C29.4913 65.7884 30.4239 65.759 30.9652 65.7523C31.5066 65.7456 31.1896 64.8795 31.2218 64.845C32.2202 63.753 33.1539 63.9074 34.473 63.3989C35.1009 63.1585 36.2579 62.4871 36.8779 62.0954C37.3673 61.7844 37.7714 61.8377 38.1963 61.4936C38.2538 61.4473 38.0188 61.1043 38.0322 61.0809C38.3675 60.3908 38.5227 61.4196 38.7075 61.5321C39.3787 61.9415 39.7704 62.144 40.3326 61.5531C40.4625 61.4172 40.3297 59.8948 40.5844 59.6866C40.9166 59.4184 40.988 59.9534 41.3304 59.6606C41.3599 59.636 41.2212 59.3489 41.4703 59.2513C42.6247 58.7946 43.9324 58.405 45.0927 57.8435C45.2516 57.7679 44.8373 57.4008 45.0635 57.284C46.1255 56.7364 47.3243 56.213 48.4808 55.9482C48.766 55.8845 48.7489 56.2809 48.8489 56.351C49.459 56.7725 49.5697 55.7076 49.6437 55.6547C51.3986 54.3709 53.2276 54.4594 55.0387 53.2005C55.1366 53.1304 55.5552 51.8528 56.2755 52.4589C56.3241 52.4989 57.0486 53.1246 57.1262 52.4368C57.1309 52.3939 56.7183 52.0897 57.1345 51.951C57.5507 51.8121 58.0667 51.2499 58.816 51.4498C59.0529 51.5124 59.8198 52.1165 60.05 51.2531C60.0637 51.1939 60.2143 49.4095 60.944 50.2625C61.0634 50.4032 61.4866 51.4642 61.8605 50.6521C61.9313 50.4955 61.6126 50.3606 61.8568 50.0753C62.2304 49.6368 62.9857 49.6297 63.3593 48.902C63.4239 48.7739 63.5372 47.8721 64.1276 48.2497C64.2201 48.3088 64.2741 48.7027 64.4752 48.6582C65.4325 48.4484 66.2411 47.8018 67.2362 47.6397C67.5883 47.5817 67.6823 48.2153 68.0776 48.2171C68.473 48.2189 69.1979 48.0643 69.424 47.6527C69.6502 47.2409 68.8705 46.5169 69.3511 46.2126C70.6185 45.4104 72.0176 44.9188 73.4271 44.4479C73.6755 44.4421 73.8221 44.4494 73.9134 44.3831C73.9455 44.3582 73.6393 44.1849 73.6457 44.161C73.6559 44.1173 73.613 43.9768 73.5905 43.807C73.5627 43.6297 73.6165 43.5213 73.807 43.1821C73.9466 42.9035 74.0846 42.6815 74.2566 42.5378C74.4184 42.3888 74.5948 42.303 74.5152 42.0866C74.3938 41.8549 73.7142 42.8003 73.7077 42.8379C73.5136 42.9821 73.4422 42.8865 73.2695 42.7938C72.8584 42.6996 72.4503 42.6064 71.9861 42.63C71.7626 42.6416 71.9361 43.1222 71.7463 43.1269C71.0979 43.1471 70.4433 42.8789 69.8272 42.8595C69.5508 42.8519 69.5687 43.2083 69.3183 43.1576C68.719 43.0404 68.1977 42.8428 67.6385 42.4583C67.5876 42.4233 67.9907 42.0195 67.5446 41.9616C66.8225 41.8691 65.9534 41.4603 65.0886 41.7185C64.8319 41.7966 64.7475 42.5995 64.2675 41.9949C64.1667 41.8686 64.3988 40.9166 63.7019 41.693C63.5849 41.8219 62.44 42.85 61.9969 42.0774C61.88 41.874 61.6097 41.0522 61.3007 41.1487C61.2586 41.1648 61.38 41.6115 61.1296 41.6307C60.2479 41.6908 59.3419 41.5601 58.4371 41.6123C58.1953 41.6271 58.5087 42.1069 58.1497 42.1147C57.1626 42.1368 55.9539 41.9096 55.0119 41.6809C54.6647 41.5958 54.9425 41.2483 54.9206 41.2057C54.5696 40.5122 54.2437 41.3738 54.1022 41.4126C53.2231 41.6423 52.6141 41.1667 51.82 41.2037C51.601 41.2128 51.7152 41.6486 51.6686 41.6822C51.1878 42.008 51.5909 41.2818 51.316 41.172C50.5461 40.862 49.6601 40.8138 48.8542 40.7932C48.5582 40.7862 48.8433 41.3058 48.5782 41.294C47.0078 41.2328 45.3878 41.035 43.888 40.6236C43.6057 40.5453 43.8213 40.1856 43.7695 40.0941C43.413 39.4542 42.7322 40.2184 42.5858 40.2837C41.9202 40.5817 41.7055 40.226 41.1413 40.2361C39.6405 40.2664 37.9645 40.122 36.3355 39.9235C33.7506 39.672 31.39 38.2618 29.9878 36.6956C26.9614 33.27 26.6303 29.1961 27.8982 25.6123C28.1466 24.9656 28.3709 24.2963 28.5608 23.5881C28.6097 23.4069 28.0738 23.4427 28.1091 23.2859C28.5798 21.2835 29.2184 19.3734 29.2612 17.5299C29.2647 17.3816 28.77 17.5442 28.7584 17.3102C28.7311 16.8293 28.7834 16.266 28.9299 15.8382C29.0003 15.6265 29.4139 15.9059 29.4756 15.6878C29.6188 15.1787 29.6032 14.6552 29.4483 14.2575C29.3818 14.0945 28.9532 14.4358 28.9058 14.2328C28.831 13.9355 28.7389 13.704 28.6599 13.5449C28.0006 12.153 27.284 11.0139 26.5814 9.73869C26.5217 9.62943 27.0732 8.7938 26.7256 8.76306C26.5403 8.96739 26.3436 9.22436 26.1574 9.45198C24.132 8.0813 21.7608 7.34674 18.9009 8.12121C18.7843 8.15407 19.1313 8.59744 18.9145 8.66219C18.445 8.80531 17.9889 8.99996 17.5207 9.20864C17.0314 9.43152 16.6692 9.60493 16.0513 9.80449C15.9553 9.83972 15.2808 9.19539 15.1862 9.54546C15.1672 9.60333 14.9869 10.0934 15.1024 10.3087C15.1209 10.3377 15.5362 10.4784 15.4741 10.6148C15.1084 11.4031 14.688 12.4392 14.2659 13.6127C14.1972 13.8019 13.7694 13.5319 13.7162 13.6716C13.3413 14.6826 13.6669 15.8824 13.3199 16.9512C13.0911 17.6769 12.2821 17.4838 11.5444 17.9652C11.4397 18.0374 11.4804 18.5032 11.0364 18.5974C9.91519 18.8337 8.63777 18.7352 7.44637 19.0148C7.31817 19.0468 7.35263 19.2573 7.33563 19.4098C7.33351 19.4616 7.32627 19.4982 7.31133 19.5236C7.29889 19.5637 7.28074 19.6022 7.24781 19.6077C7.1855 19.6374 7.0726 19.5875 6.89253 19.466C6.84297 19.4415 6.54952 18.8659 6.32073 18.7398C6.16157 18.6585 5.72317 18.8936 5.51025 18.7071C5.29619 18.5026 5.65845 18.239 5.40744 17.9126C5.15564 17.5761 4.63726 17.7776 4.53652 17.0577ZM33.3997 65.7157C34.0001 65.9282 33.3935 64.4272 33.1013 64.9847C33.0879 65.0134 33.3692 65.7057 33.3997 65.7157ZM10.4886 62.3833C9.55698 62.4188 10.1328 63.3871 10.8276 63.3914C11.522 63.3954 10.7716 62.3719 10.4886 62.3833ZM13.8988 57.1524C13.0241 57.3605 14.7667 58.8563 14.862 57.9787C14.8681 57.9281 13.9498 57.1401 13.8988 57.1524ZM11.2052 16.0608C11.1832 16.0698 11.1705 16.4114 11.1929 16.4234C11.7109 16.5874 11.7354 15.9084 11.2052 16.0608ZM17.2432 51.9308C16.8639 51.913 16.7594 52.6305 17.231 52.6528C17.6105 52.6706 17.7153 51.9526 17.2432 51.9308ZM55.9179 57.3951C55.9344 57.414 56.1857 57.3238 56.1245 57.202C55.9268 56.8098 55.6407 57.0756 55.9179 57.3951ZM23.6673 43.6318C22.647 44.8025 20.5742 44.3808 21.7799 43.1795C21.9982 42.9619 21.852 44.0707 22.2259 43.8684C22.9088 43.4975 22.2603 42.3937 23.2097 42.2116C23.3826 42.1795 23.7288 43.5675 23.6677 43.6355C23.6676 43.6343 23.6674 43.633 23.6673 43.6318ZM34.4431 67.3759C34.4603 67.3916 34.8042 67.2578 34.8035 67.2349C34.773 66.6848 34.0801 66.9539 34.4431 67.3759ZM70.4718 51.8903C70.5092 51.9234 71.3053 51.609 71.3133 51.5593C71.3725 50.6102 69.7619 51.2436 70.4718 51.8903ZM12.3392 78.7042C12.1866 79.3408 11.7738 79.5948 11.214 79.1364C11.592 79.0028 11.9603 78.8412 12.3392 78.7042Z" fill="#5C49FF"/>
</svg>

