<svg xmlns="http://www.w3.org/2000/svg" width="1206" height="1206" fill="none" viewBox="0 0 1206 1206"><path fill="#ff86ce" d="M603 206c-219.257 0-397 177.743-397 397h151.091c0-135.812 110.097-245.909 245.909-245.909v-67.773s-40 26.682-40-7.773 40-7.772 40-7.772z"/><path fill="#caf264" d="M1000 603c0-219.257-177.743-397-397-397v67.773s-40-26.682-40 7.772 40 7.773 40 7.773v67.773c135.812 0 245.909 110.097 245.909 245.909z"/><path fill="#5c49ff" d="M603 1000c219.257 0 397-177.743 397-397H848.909c0 135.812-110.097 245.909-245.909 245.909v67.773s39-22.773 40 7.773-40 7.772-40 7.772z"/><path fill="#fbe667" d="M206 603c0 219.257 177.743 397 397 397v-67.773s41 22.773 40-7.772-40-7.773-40-7.773v-67.773c-135.812 0-245.909-110.097-245.909-245.909z"/><path stroke="#000" stroke-width="3" d="M355.596 604.5C356.4 739.951 466.05 849.6 601.5 850.404v68.891l2.257-1.317.004-.003q.005-.004.017-.01l.077-.045.314-.176c.276-.154.685-.379 1.208-.654a79 79 0 0 1 4.35-2.122c3.62-1.635 8.405-3.474 13.178-4.38 4.819-.915 9.35-.826 12.681 1.069 3.203 1.823 5.676 5.548 5.915 12.847s-2.018 10.966-5.085 12.756c-3.226 1.882-7.805 1.979-12.768 1.06-4.904-.908-9.882-2.752-13.662-4.388a89 89 0 0 1-4.552-2.125 60 60 0 0 1-1.27-.657l-.33-.176-.082-.045-.019-.01-.004-.003-2.229-1.237v68.816c-217.239-.806-393.188-176.756-393.995-393.995zm642.899 0c-.806 217.239-176.756 393.188-393.995 393.995v-63.804a91 91 0 0 0 4.295 1.994c3.876 1.678 9.086 3.619 14.307 4.586 5.162.956 10.645 1.019 14.826-1.42 4.338-2.532 6.832-7.472 6.571-15.446s-3.039-12.857-7.429-15.355c-4.263-2.426-9.669-2.369-14.725-1.409-5.102.968-10.13 2.913-13.853 4.593a85 85 0 0 0-3.992 1.932v-63.762C739.951 849.6 849.6 739.951 850.404 604.5zM561.5 281.545c0 8.873 2.585 14.291 6.955 17.022 4.268 2.668 9.769 2.455 14.89 1.245 5.174-1.224 10.301-3.546 14.1-5.535a87 87 0 0 0 4.055-2.264v63.582c-135.45.804-245.1 110.455-245.904 245.905H207.505c.806-217.239 176.756-393.189 393.995-393.996v63.573a88 88 0 0 0-4.055-2.264c-3.799-1.988-8.926-4.312-14.1-5.535-5.121-1.21-10.622-1.422-14.89 1.245-4.37 2.732-6.955 8.149-6.955 17.022Zm3 0c0-8.354 2.415-12.521 5.545-14.478 3.232-2.019 7.731-2.022 12.61-.869 4.825 1.141 9.699 3.335 13.4 5.273a82 82 0 0 1 4.449 2.506c.536.324.956.588 1.24.769q.214.137.321.207l.08.052.018.013.004.003h.001l2.332 1.555v-69.072c217.239.806 393.188 176.757 393.995 393.996H850.404C849.6 466.05 739.951 356.399 604.5 355.595v-69.08l-2.332 1.555h-.001l-.004.003-.018.012-.08.053-.321.207c-.284.181-.704.445-1.24.769a82 82 0 0 1-4.449 2.506c-3.701 1.937-8.575 4.132-13.4 5.273-4.879 1.153-9.378 1.15-12.61-.87-3.13-1.956-5.545-6.123-5.545-14.478Z"/><path fill="#fbe667" stroke="#000" stroke-linecap="round" d="M803.926 193.136c16.788-9.302 34.975-3.876 41.971 0 6.271-4.555 29.187-5.993 41.127 0s44.72 19.42 40.764 72.645c-3.955 53.226 10.493 73.085 18.212 76.362-22.674 25.773-52.464 17.022-60.785 13.786-8.322-3.237-32.283-14.306-39.318-21.458 0 2.557-7.84 10.429-39.197 21.458s-52.866-4.596-59.7-13.786c12.784-11.508 18.814-37.402 17.126-76.362-1.689-38.959 18.814-61.017 39.8-72.645Z"/><mask id="a" width="823" height="172" x="188" y="536" fill="#000" maskUnits="userSpaceOnUse"><path fill="#fff" d="M188 536h823v172H188z"/><path d="M229.535 669.449h18.845q11.707 0 20.559-1.998 9.137-1.999 15.418-7.139 6.568-5.425 9.709-14.847 3.426-9.423 3.426-24.271 0-15.132-5.996-25.126-5.71-10.28-16.847-15.419-10.85-5.14-26.269-5.14h-18.845zm110.501-47.969q0 31.694-12.849 49.397-12.563 17.418-35.977 24.27T236.103 702h-45.971V541.246h45.971q31.694 0 55.107 9.137 23.414 8.851 35.977 26.554 12.849 17.703 12.849 44.543m99.936 84.517q-35.976 0-54.536-18.845-18.274-19.13-18.274-53.68v-92.226h42.83v91.941q0 11.993 3.14 19.13 3.141 6.853 7.71 10.28 4.854 3.426 9.993 4.568 5.14.857 9.137.857 6.568 0 13.42-1.999 7.139-1.999 11.993-9.423t4.854-23.413v-91.941h42.83v92.226q0 35.12-18.275 53.966-17.988 18.56-54.822 18.559m143.411-36.548h18.845q11.707 0 20.558-1.998 9.138-1.999 15.419-7.139 6.567-5.425 9.708-14.847 3.426-9.423 3.427-24.271 0-15.132-5.997-25.126-5.71-10.28-16.846-15.419-10.85-5.14-26.269-5.14h-18.845zm110.501-47.969q0 31.694-12.849 49.397-12.564 17.418-35.977 24.27T589.95 702h-45.97V541.246h45.97q31.695 0 55.108 9.137 23.413 8.851 35.977 26.554 12.849 17.703 12.849 44.543M719.582 702V541.246h121.636v33.978H758.7v29.41h61.389v31.979H758.7v33.693h85.659V702zm215.701 2.855q-13.705 0-26.84-3.141t-23.699-9.993q-10.565-7.138-17.132-18.274-6.282-11.136-6.282-26.84h39.975q0 1.428.571 3.997.857 2.57 3.141 5.711t6.282 5.996 10.564 4.854q6.853 1.713 16.561 1.713 3.997 0 8.281-.285 4.567-.572 8.28-1.713 3.712-1.428 5.996-3.998t2.284-6.853q0-5.996-5.71-9.422-5.425-3.427-14.562-5.425-8.852-2.285-19.702-4.569a218 218 0 0 1-21.129-5.71q-10.566-3.427-19.417-9.137-8.566-5.997-13.42-15.134-4.568-9.422-3.712-23.413 1.143-13.992 9.709-23.985t24.27-15.419q15.704-5.424 37.69-5.425 17.703 0 33.122 6.282 15.704 6.282 25.412 19.131 9.995 12.849 9.994 32.55h-38.547q0-6.567-3.427-10.564-3.426-4.284-8.851-6.282a38.7 38.7 0 0 0-11.421-2.856q-5.997-.856-10.851-.856-10.565 0-17.703 2.57-6.852 2.57-6.852 9.993 0 6.567 5.71 10.279 5.711 3.427 14.848 5.711 9.137 1.999 19.987 4.283a217 217 0 0 1 21.986 5.14q10.851 3.14 19.416 8.851c5.901 3.617 10.465 8.471 13.705 14.562 3.43 6.092 4.76 13.896 4 23.414-.57 9.327-4 17.322-10.281 23.985q-9.137 9.708-25.127 15.133-15.703 5.139-37.119 5.139"/></mask><path fill="#222" d="M229.535 669.449h18.845q11.707 0 20.559-1.998 9.137-1.999 15.418-7.139 6.568-5.425 9.709-14.847 3.426-9.423 3.426-24.271 0-15.132-5.996-25.126-5.71-10.28-16.847-15.419-10.85-5.14-26.269-5.14h-18.845zm110.501-47.969q0 31.694-12.849 49.397-12.563 17.418-35.977 24.27T236.103 702h-45.971V541.246h45.971q31.694 0 55.107 9.137 23.414 8.851 35.977 26.554 12.849 17.703 12.849 44.543m99.936 84.517q-35.976 0-54.536-18.845-18.274-19.13-18.274-53.68v-92.226h42.83v91.941q0 11.993 3.14 19.13 3.141 6.853 7.71 10.28 4.854 3.426 9.993 4.568 5.14.857 9.137.857 6.568 0 13.42-1.999 7.139-1.999 11.993-9.423t4.854-23.413v-91.941h42.83v92.226q0 35.12-18.275 53.966-17.988 18.56-54.822 18.559m143.411-36.548h18.845q11.707 0 20.558-1.998 9.138-1.999 15.419-7.139 6.567-5.425 9.708-14.847 3.426-9.423 3.427-24.271 0-15.132-5.997-25.126-5.71-10.28-16.846-15.419-10.85-5.14-26.269-5.14h-18.845zm110.501-47.969q0 31.694-12.849 49.397-12.564 17.418-35.977 24.27T589.95 702h-45.97V541.246h45.97q31.695 0 55.108 9.137 23.413 8.851 35.977 26.554 12.849 17.703 12.849 44.543M719.582 702V541.246h121.636v33.978H758.7v29.41h61.389v31.979H758.7v33.693h85.659V702zm215.701 2.855q-13.705 0-26.84-3.141t-23.699-9.993q-10.565-7.138-17.132-18.274-6.282-11.136-6.282-26.84h39.975q0 1.428.571 3.997.857 2.57 3.141 5.711t6.282 5.996 10.564 4.854q6.853 1.713 16.561 1.713 3.997 0 8.281-.285 4.567-.572 8.28-1.713 3.712-1.428 5.996-3.998t2.284-6.853q0-5.996-5.71-9.422-5.425-3.427-14.562-5.425-8.852-2.285-19.702-4.569a218 218 0 0 1-21.129-5.71q-10.566-3.427-19.417-9.137-8.566-5.997-13.42-15.134-4.568-9.422-3.712-23.413 1.143-13.992 9.709-23.985t24.27-15.419q15.704-5.424 37.69-5.425 17.703 0 33.122 6.282 15.704 6.282 25.412 19.131 9.995 12.849 9.994 32.55h-38.547q0-6.567-3.427-10.564-3.426-4.284-8.851-6.282a38.7 38.7 0 0 0-11.421-2.856q-5.997-.856-10.851-.856-10.565 0-17.703 2.57-6.852 2.57-6.852 9.993 0 6.567 5.71 10.279 5.711 3.427 14.848 5.711 9.137 1.999 19.987 4.283a217 217 0 0 1 21.986 5.14q10.851 3.14 19.416 8.851c5.901 3.617 10.465 8.471 13.705 14.562 3.43 6.092 4.76 13.896 4 23.414-.57 9.327-4 17.322-10.281 23.985q-9.137 9.708-25.127 15.133-15.703 5.139-37.119 5.139"/><path fill="#000" d="M229.535 669.449h-2v2h2zm39.404-1.998-.428-1.954-.013.003zm15.418-7.139 1.267 1.548.007-.006zm9.709-14.847-1.88-.684-.009.026-.009.025zm-2.57-49.397-1.749.971.017.029.017.029zm-16.847-15.419-.856 1.807.009.005.009.004zm-45.114-5.14v-2h-2v2zm97.652 95.368-1.618-1.175-.004.005zm-35.977 24.27.562 1.92zM190.132 702h-2v2h2zm0-160.754v-2h-2v2zm101.078 9.137-.727 1.863.01.004.01.003zm35.977 26.554-1.631 1.158.006.008.007.009zm-97.652 92.512v2h12.564v-4h-12.564zm12.564 0v2h6.281v-4h-6.281zm6.281 0v2c7.913 0 14.919-.675 20.999-2.047l-.44-1.951-.441-1.951c-5.722 1.292-12.421 1.949-20.118 1.949zm20.559-1.998.427 1.953c6.352-1.389 11.792-3.889 16.258-7.544l-1.267-1.548-1.266-1.548c-3.909 3.199-8.749 5.457-14.58 6.733zm15.418-7.139 1.274 1.542c4.713-3.893 8.139-9.18 10.332-15.757l-1.897-.632-1.898-.633c-1.995 5.986-5.04 10.598-9.084 13.938zm9.709-14.847 1.879.683c2.393-6.579 3.547-14.923 3.547-24.954h-4c0 9.767-1.13 17.603-3.306 23.587zm3.426-24.271h2c0-10.345-2.049-19.102-6.281-26.155l-1.715 1.029-1.715 1.029c3.763 6.271 5.711 14.265 5.711 24.097zm-5.996-25.126 1.748-.972c-4.022-7.24-9.965-12.667-17.757-16.263l-.838 1.816-.838 1.816c7.056 3.257 12.345 8.109 15.936 14.574zm-16.847-15.419.857-1.808c-7.566-3.583-16.632-5.332-27.126-5.332v4c10.065 0 18.512 1.678 25.413 4.947zm-26.269-5.14v-2h-18.845v4h18.845zm-18.845 0h-2v93.94h4v-93.94zm110.501 45.971h-2c0 20.889-4.238 36.884-12.467 48.222l1.618 1.175 1.619 1.175c8.903-12.266 13.23-29.202 13.23-50.572zm-12.849 49.397-1.622-1.17c-8.08 11.203-19.673 19.059-34.917 23.521l.562 1.919.562 1.92c15.975-4.676 28.367-12.999 37.037-25.02zm-35.977 24.27-.562-1.919C275.267 697.73 257.095 700 236.103 700v4c21.266 0 39.832-2.298 55.669-6.933zM236.103 702v-2h-15.705v4h15.705zm-15.705 0v-2h-30.266v4h30.266zm-30.266 0h2V541.246h-4V702zm0-160.754v2h31.123v-4h-31.123zm31.123 0v2h14.848v-4h-14.848zm14.848 0v2c20.943 0 39.055 3.019 54.38 9l.727-1.863.727-1.864c-15.892-6.202-34.519-9.273-55.834-9.273zm55.107 9.137-.707 1.87c15.296 5.783 26.942 14.411 35.053 25.842l1.631-1.158 1.631-1.157c-8.639-12.174-20.978-21.249-36.901-27.268zm35.977 26.554-1.618 1.175c8.266 11.389 12.467 25.799 12.467 43.368h4c0-18.218-4.365-33.503-13.23-45.718zm58.249 110.215-1.446 1.382.01.011.011.011zm-18.274-145.906v-2h-2v2zm42.83 0h2v-2h-2zm3.14 111.071-1.83.806.006.014.006.014zm7.71 10.28-1.2 1.6.023.017.023.017zm9.993 4.568-.434 1.952.053.012.053.009zm22.557-1.142-.539-1.926-.01.003-.011.003zm11.993-9.423-1.674-1.094zm4.854-115.354v-2h-2v2zm42.83 0h2v-2h-2zm-18.275 146.192-1.435-1.392h-.001zm-54.822 18.559v-2c-23.647 0-41.234-6.188-53.111-18.248l-1.425 1.403-1.425 1.404c12.868 13.066 31.639 19.441 55.961 19.441zm-54.536-18.845 1.446-1.381c-11.729-12.279-17.72-29.618-17.72-52.299h-4c0 23.385 6.191 41.833 18.828 55.062zm-18.274-53.68h2v-92.226h-4v92.226zm0-92.226v2h42.83v-4h-42.83zm42.83 0h-2v91.941h4v-91.941zm0 91.941h-2c0 8.138 1.06 14.824 3.31 19.936l1.83-.806 1.831-.805c-1.939-4.406-2.971-10.474-2.971-18.325zm3.14 19.13-1.818.834c2.19 4.778 4.944 8.507 8.328 11.046l1.2-1.6 1.2-1.6c-2.707-2.031-5.094-5.154-7.092-9.513zm7.71 10.28-1.154 1.634c3.425 2.417 6.997 4.061 10.713 4.886l.434-1.952.434-1.952c-3.136-.697-6.227-2.099-9.274-4.25zm9.993 4.568-.328 1.973c3.504.584 6.663.884 9.465.884v-4c-2.527 0-5.459-.272-8.808-.83zm9.137.857v2c4.584 0 9.246-.698 13.98-2.079l-.56-1.92-.56-1.92c-4.402 1.284-8.687 1.919-12.86 1.919zm13.42-1.999.54 1.926c5.313-1.488 9.68-4.983 13.127-10.254l-1.674-1.095-1.674-1.094c-3.026 4.627-6.654 7.414-10.858 8.591zm11.993-9.423 1.674 1.095c3.559-5.444 5.18-13.73 5.18-24.508h-4c0 10.541-1.616 17.865-4.528 22.319zm4.854-23.413h2v-91.941h-4v91.941zm0-91.941v2h42.83v-4h-42.83zm42.83 0h-2v92.226h4v-92.226zm0 92.226h-2c0 23.075-5.998 40.495-17.71 52.574l1.435 1.392 1.436 1.392c12.653-13.048 18.839-31.605 18.839-55.358zm-18.275 53.966-1.436-1.392c-11.479 11.844-29.138 17.951-53.386 17.951v4c24.864 0 43.753-6.265 56.259-19.167zm88.589-17.989h-2v2h2zm39.403-1.998-.427-1.954-.013.003zm15.419-7.139 1.267 1.548.007-.006zm9.708-14.847-1.879-.684-.01.026-.008.025zm-2.57-49.397-1.748.971.016.029.017.029zm-16.846-15.419-.856 1.807.009.005.009.004zm-45.114-5.14v-2h-2v2zm97.652 95.368-1.619-1.175-.003.005zm-35.977 24.27.562 1.92zM543.98 702h-2v2h2zm0-160.754v-2h-2v2zm101.078 9.137-.727 1.863.01.004.01.003zm35.977 26.554-1.631 1.158.006.008.006.009zm-97.652 92.512v2h12.563v-4h-12.563zm12.563 0v2h6.282v-4h-6.282zm6.282 0v2c7.913 0 14.919-.675 20.999-2.047l-.441-1.951-.44-1.951c-5.722 1.292-12.421 1.949-20.118 1.949zm20.558-1.998.428 1.953c6.352-1.389 11.791-3.889 16.258-7.544l-1.267-1.548-1.266-1.548c-3.91 3.199-8.749 5.457-14.58 6.733zm15.419-7.139 1.274 1.542c4.712-3.893 8.139-9.18 10.332-15.757l-1.898-.632-1.897-.633c-1.996 5.986-5.041 10.598-9.085 13.938zm9.708-14.847 1.88.683c2.392-6.579 3.547-14.923 3.547-24.954h-4c0 9.767-1.13 17.603-3.306 23.587zm3.427-24.271h2c0-10.345-2.05-19.102-6.282-26.155l-1.715 1.029-1.715 1.029c3.764 6.271 5.712 14.265 5.712 24.097zm-5.997-25.126 1.749-.972c-4.023-7.24-9.965-12.667-17.757-16.263l-.838 1.816-.838 1.816c7.056 3.257 12.344 8.109 15.936 14.574zm-16.846-15.419.856-1.808c-7.566-3.583-16.631-5.332-27.125-5.332v4c10.064 0 18.512 1.678 25.413 4.947zm-26.269-5.14v-2h-18.845v4h18.845zm-18.845 0h-2v93.94h4v-93.94zm110.501 45.971h-2c0 20.889-4.238 36.884-12.468 48.222l1.619 1.175 1.619 1.175c8.902-12.266 13.23-29.202 13.23-50.572zm-12.849 49.397-1.622-1.17c-8.081 11.203-19.674 19.059-34.917 23.521l.562 1.919.562 1.92c15.975-4.676 28.366-12.999 37.037-25.02zm-35.977 24.27-.562-1.919C629.115 697.73 610.943 700 589.95 700v4c21.266 0 39.833-2.298 55.67-6.933zM589.95 702v-2h-15.704v4h15.704zm-15.704 0v-2H543.98v4h30.266zm-30.266 0h2V541.246h-4V702zm0-160.754v2h31.123v-4H543.98zm31.123 0v2h14.847v-4h-14.847zm14.847 0v2c20.943 0 39.055 3.019 54.381 9l.727-1.863.727-1.864c-15.893-6.202-34.519-9.273-55.835-9.273zm55.108 9.137-.707 1.87c15.295 5.783 26.941 14.411 35.053 25.842l1.631-1.158 1.631-1.157c-8.64-12.174-20.978-21.249-36.901-27.268zm35.977 26.554-1.619 1.175c8.267 11.389 12.468 25.799 12.468 43.368h4c0-18.218-4.365-33.503-13.23-45.718zM719.582 702h-2v2h2zm0-160.754v-2h-2v2zm121.636 0h2v-2h-2zm0 33.978v2h2v-2zm-82.518 0v-2h-2v2zm0 29.41h-2v2h2zm61.389 0h2v-2h-2zm0 31.979v2h2v-2zm-61.389 0v-2h-2v2zm0 33.693h-2v2h2zm85.659 0h2v-2h-2zm0 31.694v2h2v-2zm-124.777 0h2V541.246h-4V702zm0-160.754v2h121.636v-4H719.582zm121.636 0h-2v33.978h4v-33.978zm0 33.978v-2H758.7v4h82.518zm-82.518 0h-2v29.41h4v-29.41zm0 29.41v2h61.389v-4H758.7zm61.389 0h-2v31.979h4v-31.979zm0 31.979v-2H758.7v4h61.389zm-61.389 0h-2v33.693h4v-33.693zm0 33.693v2h85.659v-4H758.7zm85.659 0h-2V702h4v-31.694zm0 31.694v-2H719.582v4h124.777zm64.084-.286.465-1.945zm-23.699-9.993-1.12 1.657.016.011.016.01zm-17.132-18.274-1.742.982.01.017.009.017zm-6.281-26.84v-2h-2v2zm39.974 0h2v-2h-2zm.571 3.997-1.952.434.022.101.033.098zm3.141 5.711 1.617-1.176zm6.282 5.996 1.162-1.627zm10.564 4.854-.582 1.913.048.015.049.012zm24.842 1.428.133 1.995.057-.004.058-.007zm8.28-1.713.588 1.911.066-.02.064-.025zm5.996-3.998-1.495-1.329zm-3.426-16.275-1.068 1.691.019.012.02.012zm-14.562-5.425-.5 1.936.036.01.036.007zm-19.702-4.569-.423 1.955.011.002zm-40.546-14.847-1.147 1.638.031.022.032.02zm-13.42-15.134-1.799.873.016.033.017.033zm-3.712-23.413-1.993-.163-.002.02-.001.02zm9.709-23.985 1.518 1.302zm24.27-15.419-.653-1.89zm70.812.857-.755 1.852.012.005zm25.412 19.131-1.596 1.205.009.011.008.011zm9.994 32.55v2h2v-2zm-38.547 0h-2v2h2zm-3.427-10.564-1.561 1.249.021.026.022.026zm-8.851-6.282-.776 1.843.042.018.043.015zm-11.421-2.856-.283 1.98.046.007.047.004zm-28.554 1.714-.677-1.882-.012.004-.013.005zm-1.142 20.272-1.09 1.677.031.02.03.018zm14.848 5.711-.485 1.94.029.008.029.006zm19.987 4.283-.412 1.957.029.006.03.006zm21.986 5.14-.556 1.921zm19.416 8.851-1.109 1.664.032.021.032.02zm13.705 14.562-1.77.939.02.021.01.021zm4 23.414-2-.16v.038zm-10.281 23.985-1.455-1.372-.001.001zm-25.127 15.133.622 1.901.011-.004.01-.003zm-37.119 5.139v-2q-13.472 0-26.375-3.086l-.465 1.945-.465 1.946q13.367 3.195 27.305 3.195zm-26.84-3.141.465-1.945c-8.551-2.044-16.237-5.29-23.076-9.726l-1.088 1.678-1.088 1.678c7.247 4.701 15.36 8.118 24.322 10.261zm-23.699-9.993 1.12-1.657c-6.794-4.591-12.3-10.462-16.529-17.633l-1.723 1.016-1.723 1.016c4.527 7.676 10.443 13.987 17.735 18.915zm-17.132-18.274 1.742-.983c-3.984-7.063-6.023-15.654-6.023-25.857h-4c0 10.736 2.148 20.037 6.539 27.822zm-6.281-26.84v2h39.974v-4h-39.974zm39.974 0h-2c0 1.172.228 2.673.619 4.431l1.952-.434 1.952-.434c-.37-1.668-.523-2.832-.523-3.563zm.571 3.997-1.897.633c.657 1.972 1.825 4.06 3.42 6.254l1.618-1.176 1.617-1.176c-1.449-1.994-2.376-3.713-2.861-5.167zm3.141 5.711-1.618 1.176c1.678 2.307 3.941 4.451 6.737 6.448l1.163-1.628 1.162-1.627c-2.534-1.811-4.459-3.664-5.827-5.545zm6.282 5.996-1.163 1.628c2.896 2.068 6.635 3.767 11.145 5.139l.582-1.913.583-1.913c-4.247-1.293-7.551-2.83-9.985-4.568zm10.564 4.854-.485 1.94c4.774 1.194 10.467 1.773 17.046 1.773v-4c-6.365 0-11.712-.562-16.076-1.653zm16.561 1.713v2q4.069 0 8.414-.29l-.133-1.995-.134-1.996q-4.22.282-8.147.281zm8.281-.285.248 1.984q4.712-.586 8.62-1.786l-.588-1.911-.588-1.912c-2.346.722-4.99 1.271-7.941 1.64zm8.28-1.713.718 1.866c2.726-1.048 5.007-2.548 6.773-4.535l-1.495-1.329-1.495-1.329c-1.279 1.44-2.996 2.605-5.219 3.46zm5.996-3.998 1.495 1.329c1.923-2.163 2.789-4.962 2.789-8.182h-4c0 2.491-.656 4.261-1.779 5.524zm2.284-6.853h2c0-4.788-2.352-8.539-6.681-11.137l-1.029 1.715-1.029 1.715c3.284 1.971 4.739 4.501 4.739 7.707zm-5.71-9.422 1.068-1.691c-3.882-2.452-8.979-4.327-15.203-5.688l-.427 1.954-.428 1.953c5.959 1.304 10.57 3.046 13.922 5.163zm-14.562-5.425.499-1.937q-8.903-2.298-19.789-4.589l-.412 1.957-.412 1.957q10.814 2.277 19.614 4.548zm-19.702-4.569.423-1.955A215 215 0 0 1 902.779 629l-.617 1.903-.617 1.902a219 219 0 0 0 21.323 5.763zm-21.129-5.71.617-1.903q-10.33-3.352-18.949-8.915l-1.085 1.681-1.084 1.68c6.054 3.906 12.685 7.024 19.884 9.359zm-19.417-9.137 1.147-1.639c-5.454-3.818-9.714-8.624-12.8-14.433l-1.767.938-1.766.939c3.386 6.373 8.073 11.656 14.039 15.833zm-13.42-15.134 1.8-.872c-2.853-5.885-4.072-13.323-3.515-22.419l-1.997-.122-1.996-.123c-.585 9.559.671 17.731 3.909 24.409zm-3.712-23.413 1.994.162c.729-8.936 3.815-16.525 9.233-22.845l-1.518-1.302-1.519-1.302c-6.004 7.005-9.39 15.406-10.183 25.124zm9.709-23.985 1.518 1.302c5.426-6.331 13.184-11.3 23.405-14.83l-.653-1.891-.653-1.89c-10.719 3.703-19.141 9.013-25.136 16.007zm24.27-15.419.653 1.891c10.204-3.525 22.534-5.316 37.037-5.316v-4c-14.812 0-27.608 1.826-38.343 5.535zm37.69-5.425v2c11.56 0 22.342 2.05 32.367 6.134l.755-1.852.754-1.852c-10.533-4.292-21.832-6.43-33.876-6.43zm33.122 6.282-.743 1.857c10.149 4.059 18.318 10.219 24.559 18.479l1.596-1.205 1.596-1.206c-6.703-8.872-15.475-15.466-26.266-19.782zm25.412 19.131-1.579 1.227c6.333 8.146 9.573 18.537 9.573 31.323h4c0-13.483-3.43-24.792-10.415-33.778zm9.994 32.55v-2h-38.547v4h38.547zm-38.547 0h2c0-4.733-1.242-8.756-3.908-11.866l-1.519 1.302-1.518 1.301c1.902 2.22 2.945 5.24 2.945 9.263zm-3.427-10.564 1.562-1.25c-2.524-3.155-5.782-5.458-9.722-6.909l-.691 1.877-.691 1.876c3.294 1.214 5.937 3.1 7.981 5.655zm-8.851-6.282.776-1.843q-5.714-2.405-12.008-3.004l-.189 1.991-.19 1.991q5.698.544 10.835 2.708zm-11.421-2.856.282-1.979q-6.105-.875-11.133-.877v4q4.681-.002 10.568.836zm-10.851-.856v-2c-7.19 0-13.337.872-18.38 2.688l.677 1.882.678 1.881c4.475-1.61 10.129-2.451 17.025-2.451zm-17.703 2.57-.702-1.873c-2.587.97-4.668 2.456-6.087 4.525-1.417 2.067-2.063 4.555-2.063 7.341h4c0-2.163.496-3.815 1.362-5.079.866-1.262 2.211-2.299 4.193-3.042zm-6.852 9.993h-2c0 5.085 2.271 9.129 6.62 11.956l1.09-1.677 1.09-1.676c-3.265-2.123-4.8-4.931-4.8-8.603zm5.71 10.279-1.029 1.715c4.031 2.419 9.182 4.384 15.392 5.936l.485-1.94.485-1.94c-5.972-1.493-10.72-3.335-14.304-5.486zm14.848 5.711-.427 1.954a2624 2624 0 0 0 20.002 4.286l.412-1.957.412-1.957a2632 2632 0 0 1-19.972-4.28zm19.987 4.283-.353 1.969a215 215 0 0 1 21.783 5.092l.556-1.921.556-1.921a218 218 0 0 0-22.188-5.187zm21.986 5.14-.556 1.921c7.056 2.042 13.338 4.911 18.863 8.594l1.109-1.664 1.11-1.664c-5.897-3.931-12.559-6.963-19.97-9.108zm19.416 8.851-1.045 1.705c5.598 3.431 9.917 8.021 12.98 13.796l1.77-.939 1.77-.938c-3.41-6.408-8.225-11.526-14.429-15.329zm13.705 14.562-1.74.981c3.17 5.639 4.49 13.011 3.74 22.273l2 .16 1.99.159c.78-9.773-.57-18.01-4.25-24.553zm4 23.414-2-.122c-.54 8.87-3.78 16.42-9.736 22.735l1.455 1.372 1.455 1.372c6.606-7.011 10.226-15.451 10.816-25.235zm-10.281 23.985-1.456-1.371c-5.815 6.178-13.883 11.071-24.313 14.61l.642 1.894.643 1.894c10.889-3.695 19.573-8.891 25.941-15.657zm-25.127 15.133-.622-1.901c-10.219 3.344-22.372 5.04-36.497 5.04v4c14.429 0 27.022-1.73 37.741-5.238z" mask="url(#a)"/><mask id="b" width="823" height="172" x="198" y="517" fill="#000" maskUnits="userSpaceOnUse"><path fill="#fff" d="M198 517h823v172H198z"/><path d="M239.535 650.449h18.845q11.707 0 20.559-1.998 9.137-1.999 15.418-7.139 6.568-5.425 9.709-14.847 3.426-9.423 3.426-24.271 0-15.132-5.996-25.126-5.71-10.28-16.847-15.419-10.85-5.14-26.269-5.14h-18.845zm110.501-47.969q0 31.694-12.849 49.397-12.563 17.418-35.977 24.27T246.103 683h-45.971V522.246h45.971q31.694 0 55.107 9.137 23.414 8.851 35.977 26.554 12.849 17.703 12.849 44.543m99.936 84.517q-35.976 0-54.536-18.845-18.274-19.13-18.274-53.68v-92.226h42.83v91.941q0 11.993 3.14 19.13 3.141 6.853 7.71 10.28 4.854 3.426 9.993 4.568 5.14.857 9.137.857 6.568 0 13.42-1.999 7.139-1.999 11.993-9.423t4.854-23.413v-91.941h42.83v92.226q0 35.12-18.275 53.966-17.988 18.56-54.822 18.559m143.411-36.548h18.845q11.707 0 20.558-1.998 9.138-1.999 15.419-7.139 6.567-5.425 9.708-14.847 3.426-9.423 3.427-24.271 0-15.132-5.997-25.126-5.71-10.28-16.846-15.419-10.85-5.14-26.269-5.14h-18.845zm110.501-47.969q0 31.694-12.849 49.397-12.564 17.418-35.977 24.27T599.95 683h-45.97V522.246h45.97q31.695 0 55.108 9.137 23.413 8.851 35.977 26.554 12.849 17.703 12.849 44.543M729.582 683V522.246h121.636v33.978H768.7v29.41h61.389v31.979H768.7v33.693h85.659V683zm215.701 2.855q-13.705 0-26.84-3.141t-23.699-9.993q-10.565-7.138-17.132-18.274-6.282-11.136-6.282-26.84h39.975q0 1.428.571 3.997.857 2.57 3.141 5.711t6.282 5.996 10.564 4.854q6.853 1.713 16.561 1.713 3.997 0 8.281-.285 4.567-.572 8.28-1.713 3.712-1.428 5.996-3.998t2.284-6.853q0-5.996-5.71-9.422-5.425-3.427-14.562-5.425-8.852-2.285-19.702-4.569a218 218 0 0 1-21.129-5.71q-10.566-3.427-19.417-9.137-8.566-5.997-13.42-15.134-4.568-9.422-3.712-23.413 1.143-13.992 9.709-23.985t24.27-15.419q15.704-5.424 37.69-5.425 17.703 0 33.122 6.282 15.703 6.282 25.416 19.131 9.99 12.849 9.99 32.55h-38.547q0-6.567-3.427-10.564-3.426-4.284-8.851-6.282a38.7 38.7 0 0 0-11.421-2.856q-5.997-.856-10.851-.856-10.565 0-17.703 2.57-6.852 2.57-6.852 9.993 0 6.567 5.71 10.279 5.711 3.427 14.848 5.711 9.137 1.999 19.987 4.283a217 217 0 0 1 21.986 5.14q10.85 3.14 19.421 8.851c5.9 3.617 10.46 8.471 13.7 14.562 3.43 6.092 4.76 13.896 4 23.414-.57 9.327-4 17.322-10.28 23.985q-9.137 9.708-25.128 15.133-15.703 5.139-37.119 5.139"/></mask><path fill="#fff" d="M239.535 650.449h18.845q11.707 0 20.559-1.998 9.137-1.999 15.418-7.139 6.568-5.425 9.709-14.847 3.426-9.423 3.426-24.271 0-15.132-5.996-25.126-5.71-10.28-16.847-15.419-10.85-5.14-26.269-5.14h-18.845zm110.501-47.969q0 31.694-12.849 49.397-12.563 17.418-35.977 24.27T246.103 683h-45.971V522.246h45.971q31.694 0 55.107 9.137 23.414 8.851 35.977 26.554 12.849 17.703 12.849 44.543m99.936 84.517q-35.976 0-54.536-18.845-18.274-19.13-18.274-53.68v-92.226h42.83v91.941q0 11.993 3.14 19.13 3.141 6.853 7.71 10.28 4.854 3.426 9.993 4.568 5.14.857 9.137.857 6.568 0 13.42-1.999 7.139-1.999 11.993-9.423t4.854-23.413v-91.941h42.83v92.226q0 35.12-18.275 53.966-17.988 18.56-54.822 18.559m143.411-36.548h18.845q11.707 0 20.558-1.998 9.138-1.999 15.419-7.139 6.567-5.425 9.708-14.847 3.426-9.423 3.427-24.271 0-15.132-5.997-25.126-5.71-10.28-16.846-15.419-10.85-5.14-26.269-5.14h-18.845zm110.501-47.969q0 31.694-12.849 49.397-12.564 17.418-35.977 24.27T599.95 683h-45.97V522.246h45.97q31.695 0 55.108 9.137 23.413 8.851 35.977 26.554 12.849 17.703 12.849 44.543M729.582 683V522.246h121.636v33.978H768.7v29.41h61.389v31.979H768.7v33.693h85.659V683zm215.701 2.855q-13.705 0-26.84-3.141t-23.699-9.993q-10.565-7.138-17.132-18.274-6.282-11.136-6.282-26.84h39.975q0 1.428.571 3.997.857 2.57 3.141 5.711t6.282 5.996 10.564 4.854q6.853 1.713 16.561 1.713 3.997 0 8.281-.285 4.567-.572 8.28-1.713 3.712-1.428 5.996-3.998t2.284-6.853q0-5.996-5.71-9.422-5.425-3.427-14.562-5.425-8.852-2.285-19.702-4.569a218 218 0 0 1-21.129-5.71q-10.566-3.427-19.417-9.137-8.566-5.997-13.42-15.134-4.568-9.422-3.712-23.413 1.143-13.992 9.709-23.985t24.27-15.419q15.704-5.424 37.69-5.425 17.703 0 33.122 6.282 15.703 6.282 25.416 19.131 9.99 12.849 9.99 32.55h-38.547q0-6.567-3.427-10.564-3.426-4.284-8.851-6.282a38.7 38.7 0 0 0-11.421-2.856q-5.997-.856-10.851-.856-10.565 0-17.703 2.57-6.852 2.57-6.852 9.993 0 6.567 5.71 10.279 5.711 3.427 14.848 5.711 9.137 1.999 19.987 4.283a217 217 0 0 1 21.986 5.14q10.85 3.14 19.421 8.851c5.9 3.617 10.46 8.471 13.7 14.562 3.43 6.092 4.76 13.896 4 23.414-.57 9.327-4 17.322-10.28 23.985q-9.137 9.708-25.128 15.133-15.703 5.139-37.119 5.139"/><path fill="#000" d="M239.535 650.449h-2v2h2zm39.404-1.998-.428-1.954-.013.003zm15.418-7.139 1.267 1.548.007-.006zm9.709-14.847-1.88-.684-.009.026-.009.025zm-2.57-49.397-1.749.971.017.029.017.029zm-16.847-15.419-.856 1.807.009.005.009.004zm-45.114-5.14v-2h-2v2zm97.652 95.368-1.618-1.175-.004.005zm-35.977 24.27.562 1.92zM200.132 683h-2v2h2zm0-160.754v-2h-2v2zm101.078 9.137-.727 1.863.01.004.01.003zm35.977 26.554-1.631 1.158.006.008.007.009zm-97.652 92.512v2h12.564v-4h-12.564zm12.564 0v2h6.281v-4h-6.281zm6.281 0v2c7.913 0 14.919-.675 20.999-2.047l-.44-1.951-.441-1.951c-5.722 1.292-12.421 1.949-20.118 1.949zm20.559-1.998.427 1.953c6.352-1.389 11.792-3.889 16.258-7.544l-1.267-1.548-1.266-1.548c-3.909 3.199-8.749 5.457-14.58 6.733zm15.418-7.139 1.274 1.542c4.713-3.893 8.139-9.18 10.332-15.757l-1.897-.632-1.898-.633c-1.995 5.986-5.04 10.598-9.084 13.938zm9.709-14.847 1.879.683c2.393-6.579 3.547-14.923 3.547-24.954h-4c0 9.767-1.13 17.603-3.306 23.587zm3.426-24.271h2c0-10.345-2.049-19.102-6.281-26.155l-1.715 1.029-1.715 1.029c3.763 6.271 5.711 14.265 5.711 24.097zm-5.996-25.126 1.748-.972c-4.022-7.24-9.965-12.667-17.757-16.263l-.838 1.816-.838 1.816c7.056 3.257 12.345 8.109 15.936 14.574zm-16.847-15.419.857-1.808c-7.566-3.583-16.632-5.332-27.126-5.332v4c10.065 0 18.512 1.678 25.413 4.947zm-26.269-5.14v-2h-18.845v4h18.845zm-18.845 0h-2v93.94h4v-93.94zm110.501 45.971h-2c0 20.889-4.238 36.884-12.467 48.222l1.618 1.175 1.619 1.175c8.903-12.266 13.23-29.202 13.23-50.572zm-12.849 49.397-1.622-1.17c-8.08 11.203-19.673 19.059-34.917 23.521l.562 1.919.562 1.92c15.975-4.676 28.367-12.999 37.037-25.02zm-35.977 24.27-.562-1.919C285.267 678.73 267.095 681 246.103 681v4c21.266 0 39.832-2.298 55.669-6.933zM246.103 683v-2h-15.705v4h15.705zm-15.705 0v-2h-30.266v4h30.266zm-30.266 0h2V522.246h-4V683zm0-160.754v2h31.123v-4h-31.123zm31.123 0v2h14.848v-4h-14.848zm14.848 0v2c20.943 0 39.055 3.019 54.38 9l.727-1.863.727-1.864c-15.892-6.202-34.519-9.273-55.834-9.273zm55.107 9.137-.707 1.87c15.296 5.783 26.942 14.411 35.053 25.842l1.631-1.158 1.631-1.157c-8.639-12.174-20.978-21.249-36.901-27.268zm35.977 26.554-1.618 1.175c8.266 11.389 12.467 25.799 12.467 43.368h4c0-18.218-4.365-33.503-13.23-45.718zm58.249 110.215-1.446 1.382.01.011.011.011zm-18.274-145.906v-2h-2v2zm42.83 0h2v-2h-2zm3.14 111.071-1.83.806.006.014.006.014zm7.71 10.28-1.2 1.6.023.017.023.017zm9.993 4.568-.434 1.952.053.012.053.009zm22.557-1.142-.539-1.926-.01.003-.011.003zm11.993-9.423-1.674-1.094zm4.854-115.354v-2h-2v2zm42.83 0h2v-2h-2zm-18.275 146.192-1.435-1.392h-.001zm-54.822 18.559v-2c-23.647 0-41.234-6.188-53.111-18.248l-1.425 1.403-1.425 1.404c12.868 13.066 31.639 19.441 55.961 19.441zm-54.536-18.845 1.446-1.381c-11.729-12.279-17.72-29.618-17.72-52.299h-4c0 23.385 6.191 41.833 18.828 55.062zm-18.274-53.68h2v-92.226h-4v92.226zm0-92.226v2h42.83v-4h-42.83zm42.83 0h-2v91.941h4v-91.941zm0 91.941h-2c0 8.138 1.06 14.824 3.31 19.936l1.83-.806 1.831-.805c-1.939-4.406-2.971-10.474-2.971-18.325zm3.14 19.13-1.818.834c2.19 4.778 4.944 8.507 8.328 11.046l1.2-1.6 1.2-1.6c-2.707-2.031-5.094-5.154-7.092-9.513zm7.71 10.28-1.154 1.634c3.425 2.417 6.997 4.061 10.713 4.886l.434-1.952.434-1.952c-3.136-.697-6.227-2.099-9.274-4.25zm9.993 4.568-.328 1.973c3.504.584 6.663.884 9.465.884v-4c-2.527 0-5.459-.272-8.808-.83zm9.137.857v2c4.584 0 9.246-.698 13.98-2.079l-.56-1.92-.56-1.92c-4.402 1.284-8.687 1.919-12.86 1.919zm13.42-1.999.54 1.926c5.313-1.488 9.68-4.983 13.127-10.254l-1.674-1.095-1.674-1.094c-3.026 4.627-6.654 7.414-10.858 8.591zm11.993-9.423 1.674 1.095c3.559-5.444 5.18-13.73 5.18-24.508h-4c0 10.541-1.616 17.865-4.528 22.319zm4.854-23.413h2v-91.941h-4v91.941zm0-91.941v2h42.83v-4h-42.83zm42.83 0h-2v92.226h4v-92.226zm0 92.226h-2c0 23.075-5.998 40.495-17.71 52.574l1.435 1.392 1.436 1.392c12.653-13.048 18.839-31.605 18.839-55.358zm-18.275 53.966-1.436-1.392c-11.479 11.844-29.138 17.951-53.386 17.951v4c24.864 0 43.753-6.265 56.259-19.167zm88.589-17.989h-2v2h2zm39.403-1.998-.427-1.954-.013.003zm15.419-7.139 1.267 1.548.007-.006zm9.708-14.847-1.879-.684-.01.026-.008.025zm-2.57-49.397-1.748.971.016.029.017.029zm-16.846-15.419-.856 1.807.009.005.009.004zm-45.114-5.14v-2h-2v2zm97.652 95.368-1.619-1.175-.003.005zm-35.977 24.27.562 1.92zM553.98 683h-2v2h2zm0-160.754v-2h-2v2zm101.078 9.137-.727 1.863.01.004.01.003zm35.977 26.554-1.631 1.158.006.008.006.009zm-97.652 92.512v2h12.563v-4h-12.563zm12.563 0v2h6.282v-4h-6.282zm6.282 0v2c7.913 0 14.919-.675 20.999-2.047l-.441-1.951-.44-1.951c-5.722 1.292-12.421 1.949-20.118 1.949zm20.558-1.998.428 1.953c6.352-1.389 11.791-3.889 16.258-7.544l-1.267-1.548-1.266-1.548c-3.91 3.199-8.749 5.457-14.58 6.733zm15.419-7.139 1.274 1.542c4.712-3.893 8.139-9.18 10.332-15.757l-1.898-.632-1.897-.633c-1.996 5.986-5.041 10.598-9.085 13.938zm9.708-14.847 1.88.683c2.392-6.579 3.547-14.923 3.547-24.954h-4c0 9.767-1.13 17.603-3.306 23.587zm3.427-24.271h2c0-10.345-2.05-19.102-6.282-26.155l-1.715 1.029-1.715 1.029c3.764 6.271 5.712 14.265 5.712 24.097zm-5.997-25.126 1.749-.972c-4.023-7.24-9.965-12.667-17.757-16.263l-.838 1.816-.838 1.816c7.056 3.257 12.344 8.109 15.936 14.574zm-16.846-15.419.856-1.808c-7.566-3.583-16.631-5.332-27.125-5.332v4c10.064 0 18.512 1.678 25.413 4.947zm-26.269-5.14v-2h-18.845v4h18.845zm-18.845 0h-2v93.94h4v-93.94zm110.501 45.971h-2c0 20.889-4.238 36.884-12.468 48.222l1.619 1.175 1.619 1.175c8.902-12.266 13.23-29.202 13.23-50.572zm-12.849 49.397-1.622-1.17c-8.081 11.203-19.674 19.059-34.917 23.521l.562 1.919.562 1.92c15.975-4.676 28.366-12.999 37.037-25.02zm-35.977 24.27-.562-1.919C639.115 678.73 620.943 681 599.95 681v4c21.266 0 39.833-2.298 55.67-6.933zM599.95 683v-2h-15.704v4h15.704zm-15.704 0v-2H553.98v4h30.266zm-30.266 0h2V522.246h-4V683zm0-160.754v2h31.123v-4H553.98zm31.123 0v2h14.847v-4h-14.847zm14.847 0v2c20.943 0 39.055 3.019 54.381 9l.727-1.863.727-1.864c-15.893-6.202-34.519-9.273-55.835-9.273zm55.108 9.137-.707 1.87c15.295 5.783 26.941 14.411 35.053 25.842l1.631-1.158 1.631-1.157c-8.64-12.174-20.978-21.249-36.901-27.268zm35.977 26.554-1.619 1.175c8.267 11.389 12.468 25.799 12.468 43.368h4c0-18.218-4.365-33.503-13.23-45.718zM729.582 683h-2v2h2zm0-160.754v-2h-2v2zm121.636 0h2v-2h-2zm0 33.978v2h2v-2zm-82.518 0v-2h-2v2zm0 29.41h-2v2h2zm61.389 0h2v-2h-2zm0 31.979v2h2v-2zm-61.389 0v-2h-2v2zm0 33.693h-2v2h2zm85.659 0h2v-2h-2zm0 31.694v2h2v-2zm-124.777 0h2V522.246h-4V683zm0-160.754v2h121.636v-4H729.582zm121.636 0h-2v33.978h4v-33.978zm0 33.978v-2H768.7v4h82.518zm-82.518 0h-2v29.41h4v-29.41zm0 29.41v2h61.389v-4H768.7zm61.389 0h-2v31.979h4v-31.979zm0 31.979v-2H768.7v4h61.389zm-61.389 0h-2v33.693h4v-33.693zm0 33.693v2h85.659v-4H768.7zm85.659 0h-2V683h4v-31.694zm0 31.694v-2H729.582v4h124.777zm64.084-.286.465-1.945zm-23.699-9.993-1.12 1.657.016.011.016.01zm-17.132-18.274-1.742.982.01.017.009.017zm-6.281-26.84v-2h-2v2zm39.974 0h2v-2h-2zm.571 3.997-1.952.434.022.101.033.098zm3.141 5.711 1.617-1.176zm6.282 5.996 1.162-1.627zm10.564 4.854-.582 1.913.048.015.049.012zm24.842 1.428.133 1.995.057-.004.058-.007zm8.28-1.713.588 1.911.066-.02.064-.025zm5.996-3.998-1.495-1.329zm-3.426-16.275-1.068 1.691.019.012.02.012zm-14.562-5.425-.5 1.936.036.01.036.007zm-19.702-4.569-.423 1.955.011.002zm-40.546-14.847-1.147 1.638.031.022.032.02zm-13.42-15.134-1.799.873.016.033.017.033zm-3.712-23.413-1.993-.163-.002.02-.001.02zm9.709-23.985 1.518 1.302zm24.27-15.419-.653-1.89zm70.812.857-.755 1.852.012.005zm25.416 19.131-1.6 1.205.01.011.01.011zm9.99 32.55v2h2v-2zm-38.547 0h-2v2h2zm-3.427-10.564-1.561 1.249.021.026.022.026zm-8.851-6.282-.776 1.843.042.018.043.015zm-11.421-2.856-.283 1.98.046.007.047.004zm-28.554 1.714-.677-1.882-.012.004-.013.005zm-1.142 20.272-1.09 1.677.031.02.03.018zm14.848 5.711-.485 1.94.029.008.029.006zm19.987 4.283-.412 1.957.029.006.03.006zm21.986 5.14-.556 1.921zm19.421 8.851-1.114 1.664.032.021.032.02zm13.7 14.562-1.77.939.02.021.01.021zm4 23.414-2-.16v.038zm-10.28 23.985-1.46-1.372v.001zm-25.128 15.133.622 1.901.011-.004.01-.003zm-37.119 5.139v-2q-13.472 0-26.375-3.086l-.465 1.945-.465 1.946q13.367 3.195 27.305 3.195zm-26.84-3.141.465-1.945c-8.551-2.044-16.237-5.29-23.076-9.726l-1.088 1.678-1.088 1.678c7.247 4.701 15.36 8.118 24.322 10.261zm-23.699-9.993 1.12-1.657c-6.794-4.591-12.3-10.462-16.529-17.633l-1.723 1.016-1.723 1.016c4.527 7.676 10.443 13.987 17.735 18.915zm-17.132-18.274 1.742-.983c-3.984-7.063-6.023-15.654-6.023-25.857h-4c0 10.736 2.148 20.037 6.539 27.822zm-6.281-26.84v2h39.974v-4h-39.974zm39.974 0h-2c0 1.172.228 2.673.619 4.431l1.952-.434 1.952-.434c-.37-1.668-.523-2.832-.523-3.563zm.571 3.997-1.897.633c.657 1.972 1.825 4.06 3.42 6.254l1.618-1.176 1.617-1.176c-1.449-1.994-2.376-3.713-2.861-5.167zm3.141 5.711-1.618 1.176c1.678 2.307 3.941 4.451 6.737 6.448l1.163-1.628 1.162-1.627c-2.534-1.811-4.459-3.664-5.827-5.545zm6.282 5.996-1.163 1.628c2.896 2.068 6.635 3.767 11.145 5.139l.582-1.913.583-1.913c-4.247-1.293-7.551-2.83-9.985-4.568zm10.564 4.854-.485 1.94c4.774 1.194 10.467 1.773 17.046 1.773v-4c-6.365 0-11.712-.562-16.076-1.653zm16.561 1.713v2q4.069 0 8.414-.29l-.133-1.995-.134-1.996q-4.22.282-8.147.281zm8.281-.285.248 1.984q4.712-.586 8.62-1.786l-.588-1.911-.588-1.912c-2.346.722-4.99 1.271-7.941 1.64zm8.28-1.713.718 1.866c2.726-1.048 5.007-2.548 6.773-4.535l-1.495-1.329-1.495-1.329c-1.279 1.44-2.996 2.605-5.219 3.46zm5.996-3.998 1.495 1.329c1.923-2.163 2.789-4.962 2.789-8.182h-4c0 2.491-.656 4.261-1.779 5.524zm2.284-6.853h2c0-4.788-2.352-8.539-6.681-11.137l-1.029 1.715-1.029 1.715c3.284 1.971 4.739 4.501 4.739 7.707zm-5.71-9.422 1.068-1.691c-3.882-2.452-8.979-4.327-15.203-5.688l-.427 1.954-.428 1.953c5.959 1.304 10.57 3.046 13.922 5.163zm-14.562-5.425.499-1.937q-8.903-2.298-19.789-4.589l-.412 1.957-.412 1.957q10.814 2.277 19.614 4.548zm-19.702-4.569.423-1.955A215 215 0 0 1 912.779 610l-.617 1.903-.617 1.902a219 219 0 0 0 21.323 5.763zm-21.129-5.71.617-1.903q-10.33-3.352-18.949-8.915l-1.085 1.681-1.084 1.68c6.054 3.906 12.685 7.024 19.884 9.359zm-19.417-9.137 1.147-1.639c-5.454-3.818-9.714-8.624-12.8-14.433l-1.767.938-1.766.939c3.386 6.373 8.073 11.656 14.039 15.833zm-13.42-15.134 1.8-.872c-2.853-5.885-4.072-13.323-3.515-22.419l-1.997-.122-1.996-.123c-.585 9.559.671 17.731 3.909 24.409zm-3.712-23.413 1.994.162c.729-8.936 3.815-16.525 9.233-22.845l-1.518-1.302-1.519-1.302c-6.004 7.005-9.39 15.406-10.183 25.124zm9.709-23.985 1.518 1.302c5.426-6.331 13.184-11.3 23.405-14.83l-.653-1.891-.653-1.89c-10.719 3.703-19.141 9.013-25.136 16.007zm24.27-15.419.653 1.891c10.204-3.525 22.534-5.316 37.037-5.316v-4c-14.812 0-27.608 1.826-38.343 5.535zm37.69-5.425v2c11.56 0 22.342 2.05 32.367 6.134l.755-1.852.754-1.852c-10.533-4.292-21.832-6.43-33.876-6.43zm33.122 6.282-.743 1.857c10.149 4.059 18.318 10.219 24.559 18.479l1.6-1.205 1.59-1.206c-6.7-8.872-15.473-15.466-26.264-19.782zm25.416 19.131-1.58 1.227c6.33 8.146 9.57 18.537 9.57 31.323h4c0-13.483-3.43-24.792-10.42-33.778zm9.99 32.55v-2h-38.547v4h38.547zm-38.547 0h2c0-4.733-1.242-8.756-3.908-11.866l-1.519 1.302-1.518 1.301c1.902 2.22 2.945 5.24 2.945 9.263zm-3.427-10.564 1.562-1.25c-2.524-3.155-5.782-5.458-9.722-6.909l-.691 1.877-.691 1.876c3.294 1.214 5.937 3.1 7.981 5.655zm-8.851-6.282.776-1.843q-5.714-2.405-12.008-3.004l-.189 1.991-.19 1.991q5.698.544 10.835 2.708zm-11.421-2.856.282-1.979q-6.105-.875-11.133-.877v4q4.681-.002 10.568.836zm-10.851-.856v-2c-7.19 0-13.337.872-18.38 2.688l.677 1.882.678 1.881c4.475-1.61 10.129-2.451 17.025-2.451zm-17.703 2.57-.702-1.873c-2.587.97-4.668 2.456-6.087 4.525-1.417 2.067-2.063 4.555-2.063 7.341h4c0-2.163.496-3.815 1.362-5.079.866-1.262 2.211-2.299 4.193-3.042zm-6.852 9.993h-2c0 5.085 2.271 9.129 6.62 11.956l1.09-1.677 1.09-1.676c-3.265-2.123-4.8-4.931-4.8-8.603zm5.71 10.279-1.029 1.715c4.031 2.419 9.182 4.384 15.392 5.936l.485-1.94.485-1.94c-5.972-1.493-10.72-3.335-14.304-5.486zm14.848 5.711-.427 1.954a2624 2624 0 0 0 20.002 4.286l.412-1.957.412-1.957a2632 2632 0 0 1-19.972-4.28zm19.987 4.283-.353 1.969a215 215 0 0 1 21.783 5.092l.556-1.921.556-1.921a218 218 0 0 0-22.188-5.187zm21.986 5.14-.556 1.921c7.056 2.042 13.338 4.911 18.863 8.594l1.114-1.664 1.1-1.664c-5.892-3.931-12.554-6.963-19.965-9.108zm19.421 8.851-1.05 1.705c5.6 3.431 9.92 8.021 12.98 13.796l1.77-.939 1.77-.938c-3.41-6.408-8.23-11.526-14.43-15.329zm13.7 14.562-1.74.981c3.17 5.639 4.49 13.011 3.74 22.273l2 .16 1.99.159c.78-9.773-.57-18.01-4.25-24.553zm4 23.414-2-.122c-.54 8.87-3.78 16.42-9.74 22.735l1.46 1.372 1.45 1.372c6.61-7.011 10.23-15.451 10.82-25.235zm-10.28 23.985-1.46-1.371c-5.81 6.178-13.88 11.071-24.31 14.61l.642 1.894.643 1.894c10.889-3.695 19.575-8.891 25.945-15.657zm-25.128 15.133-.622-1.901c-10.219 3.344-22.372 5.04-36.497 5.04v4c14.429 0 27.022-1.73 37.741-5.238z" mask="url(#b)"/><path fill="#000" d="M239.535 650.449h-2v2h2zm39.404-1.998-.428-1.954-.013.003zm15.418-7.139 1.267 1.548.007-.006zm9.709-14.847-1.88-.684-.009.026-.009.025zm-2.57-49.397-1.749.971.017.029.017.029zm-16.847-15.419-.856 1.807.009.005.009.004zm-45.114-5.14v-2h-2v2zm97.652 95.368-1.618-1.175-.004.005zm-35.977 24.27.562 1.92zM200.132 683h-2v2h2zm0-160.754v-2h-2v2zm101.078 9.137-.727 1.863.01.004.01.003zm35.977 26.554-1.631 1.158.006.008.007.009zm-97.652 92.512v2h12.564v-4h-12.564zm12.564 0v2h6.281v-4h-6.281zm6.281 0v2c7.913 0 14.919-.675 20.999-2.047l-.44-1.951-.441-1.951c-5.722 1.292-12.421 1.949-20.118 1.949zm20.559-1.998.427 1.953c6.352-1.389 11.792-3.889 16.258-7.544l-1.267-1.548-1.266-1.548c-3.909 3.199-8.749 5.457-14.58 6.733zm15.418-7.139 1.274 1.542c4.713-3.893 8.139-9.18 10.332-15.757l-1.897-.632-1.898-.633c-1.995 5.986-5.04 10.598-9.084 13.938zm9.709-14.847 1.879.683c2.393-6.579 3.547-14.923 3.547-24.954h-4c0 9.767-1.13 17.603-3.306 23.587zm3.426-24.271h2c0-10.345-2.049-19.102-6.281-26.155l-1.715 1.029-1.715 1.029c3.763 6.271 5.711 14.265 5.711 24.097zm-5.996-25.126 1.748-.972c-4.022-7.24-9.965-12.667-17.757-16.263l-.838 1.816-.838 1.816c7.056 3.257 12.345 8.109 15.936 14.574zm-16.847-15.419.857-1.808c-7.566-3.583-16.632-5.332-27.126-5.332v4c10.065 0 18.512 1.678 25.413 4.947zm-26.269-5.14v-2h-18.845v4h18.845zm-18.845 0h-2v93.94h4v-93.94zm110.501 45.971h-2c0 20.889-4.238 36.884-12.467 48.222l1.618 1.175 1.619 1.175c8.903-12.266 13.23-29.202 13.23-50.572zm-12.849 49.397-1.622-1.17c-8.08 11.203-19.673 19.059-34.917 23.521l.562 1.919.562 1.92c15.975-4.676 28.367-12.999 37.037-25.02zm-35.977 24.27-.562-1.919C285.267 678.73 267.095 681 246.103 681v4c21.266 0 39.832-2.298 55.669-6.933zM246.103 683v-2h-15.705v4h15.705zm-15.705 0v-2h-30.266v4h30.266zm-30.266 0h2V522.246h-4V683zm0-160.754v2h31.123v-4h-31.123zm31.123 0v2h14.848v-4h-14.848zm14.848 0v2c20.943 0 39.055 3.019 54.38 9l.727-1.863.727-1.864c-15.892-6.202-34.519-9.273-55.834-9.273zm55.107 9.137-.707 1.87c15.296 5.783 26.942 14.411 35.053 25.842l1.631-1.158 1.631-1.157c-8.639-12.174-20.978-21.249-36.901-27.268zm35.977 26.554-1.618 1.175c8.266 11.389 12.467 25.799 12.467 43.368h4c0-18.218-4.365-33.503-13.23-45.718zm58.249 110.215-1.446 1.382.01.011.011.011zm-18.274-145.906v-2h-2v2zm42.83 0h2v-2h-2zm3.14 111.071-1.83.806.006.014.006.014zm7.71 10.28-1.2 1.6.023.017.023.017zm9.993 4.568-.434 1.952.053.012.053.009zm22.557-1.142-.539-1.926-.01.003-.011.003zm11.993-9.423-1.674-1.094zm4.854-115.354v-2h-2v2zm42.83 0h2v-2h-2zm-18.275 146.192-1.435-1.392h-.001zm-54.822 18.559v-2c-23.647 0-41.234-6.188-53.111-18.248l-1.425 1.403-1.425 1.404c12.868 13.066 31.639 19.441 55.961 19.441zm-54.536-18.845 1.446-1.381c-11.729-12.279-17.72-29.618-17.72-52.299h-4c0 23.385 6.191 41.833 18.828 55.062zm-18.274-53.68h2v-92.226h-4v92.226zm0-92.226v2h42.83v-4h-42.83zm42.83 0h-2v91.941h4v-91.941zm0 91.941h-2c0 8.138 1.06 14.824 3.31 19.936l1.83-.806 1.831-.805c-1.939-4.406-2.971-10.474-2.971-18.325zm3.14 19.13-1.818.834c2.19 4.778 4.944 8.507 8.328 11.046l1.2-1.6 1.2-1.6c-2.707-2.031-5.094-5.154-7.092-9.513zm7.71 10.28-1.154 1.634c3.425 2.417 6.997 4.061 10.713 4.886l.434-1.952.434-1.952c-3.136-.697-6.227-2.099-9.274-4.25zm9.993 4.568-.328 1.973c3.504.584 6.663.884 9.465.884v-4c-2.527 0-5.459-.272-8.808-.83zm9.137.857v2c4.584 0 9.246-.698 13.98-2.079l-.56-1.92-.56-1.92c-4.402 1.284-8.687 1.919-12.86 1.919zm13.42-1.999.54 1.926c5.313-1.488 9.68-4.983 13.127-10.254l-1.674-1.095-1.674-1.094c-3.026 4.627-6.654 7.414-10.858 8.591zm11.993-9.423 1.674 1.095c3.559-5.444 5.18-13.73 5.18-24.508h-4c0 10.541-1.616 17.865-4.528 22.319zm4.854-23.413h2v-91.941h-4v91.941zm0-91.941v2h42.83v-4h-42.83zm42.83 0h-2v92.226h4v-92.226zm0 92.226h-2c0 23.075-5.998 40.495-17.71 52.574l1.435 1.392 1.436 1.392c12.653-13.048 18.839-31.605 18.839-55.358zm-18.275 53.966-1.436-1.392c-11.479 11.844-29.138 17.951-53.386 17.951v4c24.864 0 43.753-6.265 56.259-19.167zm88.589-17.989h-2v2h2zm39.403-1.998-.427-1.954-.013.003zm15.419-7.139 1.267 1.548.007-.006zm9.708-14.847-1.879-.684-.01.026-.008.025zm-2.57-49.397-1.748.971.016.029.017.029zm-16.846-15.419-.856 1.807.009.005.009.004zm-45.114-5.14v-2h-2v2zm97.652 95.368-1.619-1.175-.003.005zm-35.977 24.27.562 1.92zM553.98 683h-2v2h2zm0-160.754v-2h-2v2zm101.078 9.137-.727 1.863.01.004.01.003zm35.977 26.554-1.631 1.158.006.008.006.009zm-97.652 92.512v2h12.563v-4h-12.563zm12.563 0v2h6.282v-4h-6.282zm6.282 0v2c7.913 0 14.919-.675 20.999-2.047l-.441-1.951-.44-1.951c-5.722 1.292-12.421 1.949-20.118 1.949zm20.558-1.998.428 1.953c6.352-1.389 11.791-3.889 16.258-7.544l-1.267-1.548-1.266-1.548c-3.91 3.199-8.749 5.457-14.58 6.733zm15.419-7.139 1.274 1.542c4.712-3.893 8.139-9.18 10.332-15.757l-1.898-.632-1.897-.633c-1.996 5.986-5.041 10.598-9.085 13.938zm9.708-14.847 1.88.683c2.392-6.579 3.547-14.923 3.547-24.954h-4c0 9.767-1.13 17.603-3.306 23.587zm3.427-24.271h2c0-10.345-2.05-19.102-6.282-26.155l-1.715 1.029-1.715 1.029c3.764 6.271 5.712 14.265 5.712 24.097zm-5.997-25.126 1.749-.972c-4.023-7.24-9.965-12.667-17.757-16.263l-.838 1.816-.838 1.816c7.056 3.257 12.344 8.109 15.936 14.574zm-16.846-15.419.856-1.808c-7.566-3.583-16.631-5.332-27.125-5.332v4c10.064 0 18.512 1.678 25.413 4.947zm-26.269-5.14v-2h-18.845v4h18.845zm-18.845 0h-2v93.94h4v-93.94zm110.501 45.971h-2c0 20.889-4.238 36.884-12.468 48.222l1.619 1.175 1.619 1.175c8.902-12.266 13.23-29.202 13.23-50.572zm-12.849 49.397-1.622-1.17c-8.081 11.203-19.674 19.059-34.917 23.521l.562 1.919.562 1.92c15.975-4.676 28.366-12.999 37.037-25.02zm-35.977 24.27-.562-1.919C639.115 678.73 620.943 681 599.95 681v4c21.266 0 39.833-2.298 55.67-6.933zM599.95 683v-2h-15.704v4h15.704zm-15.704 0v-2H553.98v4h30.266zm-30.266 0h2V522.246h-4V683zm0-160.754v2h31.123v-4H553.98zm31.123 0v2h14.847v-4h-14.847zm14.847 0v2c20.943 0 39.055 3.019 54.381 9l.727-1.863.727-1.864c-15.893-6.202-34.519-9.273-55.835-9.273zm55.108 9.137-.707 1.87c15.295 5.783 26.941 14.411 35.053 25.842l1.631-1.158 1.631-1.157c-8.64-12.174-20.978-21.249-36.901-27.268zm35.977 26.554-1.619 1.175c8.267 11.389 12.468 25.799 12.468 43.368h4c0-18.218-4.365-33.503-13.23-45.718zM729.582 683h-2v2h2zm0-160.754v-2h-2v2zm121.636 0h2v-2h-2zm0 33.978v2h2v-2zm-82.518 0v-2h-2v2zm0 29.41h-2v2h2zm61.389 0h2v-2h-2zm0 31.979v2h2v-2zm-61.389 0v-2h-2v2zm0 33.693h-2v2h2zm85.659 0h2v-2h-2zm0 31.694v2h2v-2zm-124.777 0h2V522.246h-4V683zm0-160.754v2h121.636v-4H729.582zm121.636 0h-2v33.978h4v-33.978zm0 33.978v-2H768.7v4h82.518zm-82.518 0h-2v29.41h4v-29.41zm0 29.41v2h61.389v-4H768.7zm61.389 0h-2v31.979h4v-31.979zm0 31.979v-2H768.7v4h61.389zm-61.389 0h-2v33.693h4v-33.693zm0 33.693v2h85.659v-4H768.7zm85.659 0h-2V683h4v-31.694zm0 31.694v-2H729.582v4h124.777zm64.084-.286.465-1.945zm-23.699-9.993-1.12 1.657.016.011.016.01zm-17.132-18.274-1.742.982.01.017.009.017zm-6.281-26.84v-2h-2v2zm39.974 0h2v-2h-2zm.571 3.997-1.952.434.022.101.033.098zm3.141 5.711 1.617-1.176zm6.282 5.996 1.162-1.627zm10.564 4.854-.582 1.913.048.015.049.012zm24.842 1.428.133 1.995.057-.004.058-.007zm8.28-1.713.588 1.911.066-.02.064-.025zm5.996-3.998-1.495-1.329zm-3.426-16.275-1.068 1.691.019.012.02.012zm-14.562-5.425-.5 1.936.036.01.036.007zm-19.702-4.569-.423 1.955.011.002zm-40.546-14.847-1.147 1.638.031.022.032.02zm-13.42-15.134-1.799.873.016.033.017.033zm-3.712-23.413-1.993-.163-.002.02-.001.02zm9.709-23.985 1.518 1.302zm24.27-15.419-.653-1.89zm70.812.857-.755 1.852.012.005zm25.416 19.131-1.6 1.205.01.011.01.011zm9.99 32.55v2h2v-2zm-38.547 0h-2v2h2zm-3.427-10.564-1.561 1.249.021.026.022.026zm-8.851-6.282-.776 1.843.042.018.043.015zm-11.421-2.856-.283 1.98.046.007.047.004zm-28.554 1.714-.677-1.882-.012.004-.013.005zm-1.142 20.272-1.09 1.677.031.02.03.018zm14.848 5.711-.485 1.94.029.008.029.006zm19.987 4.283-.412 1.957.029.006.03.006zm21.986 5.14-.556 1.921zm19.421 8.851-1.114 1.664.032.021.032.02zm13.7 14.562-1.77.939.02.021.01.021zm4 23.414-2-.16v.038zm-10.28 23.985-1.46-1.372v.001zm-25.128 15.133.622 1.901.011-.004.01-.003zm-37.119 5.139v-2q-13.472 0-26.375-3.086l-.465 1.945-.465 1.946q13.367 3.195 27.305 3.195zm-26.84-3.141.465-1.945c-8.551-2.044-16.237-5.29-23.076-9.726l-1.088 1.678-1.088 1.678c7.247 4.701 15.36 8.118 24.322 10.261zm-23.699-9.993 1.12-1.657c-6.794-4.591-12.3-10.462-16.529-17.633l-1.723 1.016-1.723 1.016c4.527 7.676 10.443 13.987 17.735 18.915zm-17.132-18.274 1.742-.983c-3.984-7.063-6.023-15.654-6.023-25.857h-4c0 10.736 2.148 20.037 6.539 27.822zm-6.281-26.84v2h39.974v-4h-39.974zm39.974 0h-2c0 1.172.228 2.673.619 4.431l1.952-.434 1.952-.434c-.37-1.668-.523-2.832-.523-3.563zm.571 3.997-1.897.633c.657 1.972 1.825 4.06 3.42 6.254l1.618-1.176 1.617-1.176c-1.449-1.994-2.376-3.713-2.861-5.167zm3.141 5.711-1.618 1.176c1.678 2.307 3.941 4.451 6.737 6.448l1.163-1.628 1.162-1.627c-2.534-1.811-4.459-3.664-5.827-5.545zm6.282 5.996-1.163 1.628c2.896 2.068 6.635 3.767 11.145 5.139l.582-1.913.583-1.913c-4.247-1.293-7.551-2.83-9.985-4.568zm10.564 4.854-.485 1.94c4.774 1.194 10.467 1.773 17.046 1.773v-4c-6.365 0-11.712-.562-16.076-1.653zm16.561 1.713v2q4.069 0 8.414-.29l-.133-1.995-.134-1.996q-4.22.282-8.147.281zm8.281-.285.248 1.984q4.712-.586 8.62-1.786l-.588-1.911-.588-1.912c-2.346.722-4.99 1.271-7.941 1.64zm8.28-1.713.718 1.866c2.726-1.048 5.007-2.548 6.773-4.535l-1.495-1.329-1.495-1.329c-1.279 1.44-2.996 2.605-5.219 3.46zm5.996-3.998 1.495 1.329c1.923-2.163 2.789-4.962 2.789-8.182h-4c0 2.491-.656 4.261-1.779 5.524zm2.284-6.853h2c0-4.788-2.352-8.539-6.681-11.137l-1.029 1.715-1.029 1.715c3.284 1.971 4.739 4.501 4.739 7.707zm-5.71-9.422 1.068-1.691c-3.882-2.452-8.979-4.327-15.203-5.688l-.427 1.954-.428 1.953c5.959 1.304 10.57 3.046 13.922 5.163zm-14.562-5.425.499-1.937q-8.903-2.298-19.789-4.589l-.412 1.957-.412 1.957q10.814 2.277 19.614 4.548zm-19.702-4.569.423-1.955A215 215 0 0 1 912.779 610l-.617 1.903-.617 1.902a219 219 0 0 0 21.323 5.763zm-21.129-5.71.617-1.903q-10.33-3.352-18.949-8.915l-1.085 1.681-1.084 1.68c6.054 3.906 12.685 7.024 19.884 9.359zm-19.417-9.137 1.147-1.639c-5.454-3.818-9.714-8.624-12.8-14.433l-1.767.938-1.766.939c3.386 6.373 8.073 11.656 14.039 15.833zm-13.42-15.134 1.8-.872c-2.853-5.885-4.072-13.323-3.515-22.419l-1.997-.122-1.996-.123c-.585 9.559.671 17.731 3.909 24.409zm-3.712-23.413 1.994.162c.729-8.936 3.815-16.525 9.233-22.845l-1.518-1.302-1.519-1.302c-6.004 7.005-9.39 15.406-10.183 25.124zm9.709-23.985 1.518 1.302c5.426-6.331 13.184-11.3 23.405-14.83l-.653-1.891-.653-1.89c-10.719 3.703-19.141 9.013-25.136 16.007zm24.27-15.419.653 1.891c10.204-3.525 22.534-5.316 37.037-5.316v-4c-14.812 0-27.608 1.826-38.343 5.535zm37.69-5.425v2c11.56 0 22.342 2.05 32.367 6.134l.755-1.852.754-1.852c-10.533-4.292-21.832-6.43-33.876-6.43zm33.122 6.282-.743 1.857c10.149 4.059 18.318 10.219 24.559 18.479l1.6-1.205 1.59-1.206c-6.7-8.872-15.473-15.466-26.264-19.782zm25.416 19.131-1.58 1.227c6.33 8.146 9.57 18.537 9.57 31.323h4c0-13.483-3.43-24.792-10.42-33.778zm9.99 32.55v-2h-38.547v4h38.547zm-38.547 0h2c0-4.733-1.242-8.756-3.908-11.866l-1.519 1.302-1.518 1.301c1.902 2.22 2.945 5.24 2.945 9.263zm-3.427-10.564 1.562-1.25c-2.524-3.155-5.782-5.458-9.722-6.909l-.691 1.877-.691 1.876c3.294 1.214 5.937 3.1 7.981 5.655zm-8.851-6.282.776-1.843q-5.714-2.405-12.008-3.004l-.189 1.991-.19 1.991q5.698.544 10.835 2.708zm-11.421-2.856.282-1.979q-6.105-.875-11.133-.877v4q4.681-.002 10.568.836zm-10.851-.856v-2c-7.19 0-13.337.872-18.38 2.688l.677 1.882.678 1.881c4.475-1.61 10.129-2.451 17.025-2.451zm-17.703 2.57-.702-1.873c-2.587.97-4.668 2.456-6.087 4.525-1.417 2.067-2.063 4.555-2.063 7.341h4c0-2.163.496-3.815 1.362-5.079.866-1.262 2.211-2.299 4.193-3.042zm-6.852 9.993h-2c0 5.085 2.271 9.129 6.62 11.956l1.09-1.677 1.09-1.676c-3.265-2.123-4.8-4.931-4.8-8.603zm5.71 10.279-1.029 1.715c4.031 2.419 9.182 4.384 15.392 5.936l.485-1.94.485-1.94c-5.972-1.493-10.72-3.335-14.304-5.486zm14.848 5.711-.427 1.954a2624 2624 0 0 0 20.002 4.286l.412-1.957.412-1.957a2632 2632 0 0 1-19.972-4.28zm19.987 4.283-.353 1.969a215 215 0 0 1 21.783 5.092l.556-1.921.556-1.921a218 218 0 0 0-22.188-5.187zm21.986 5.14-.556 1.921c7.056 2.042 13.338 4.911 18.863 8.594l1.114-1.664 1.1-1.664c-5.892-3.931-12.554-6.963-19.965-9.108zm19.421 8.851-1.05 1.705c5.6 3.431 9.92 8.021 12.98 13.796l1.77-.939 1.77-.938c-3.41-6.408-8.23-11.526-14.43-15.329zm13.7 14.562-1.74.981c3.17 5.639 4.49 13.011 3.74 22.273l2 .16 1.99.159c.78-9.773-.57-18.01-4.25-24.553zm4 23.414-2-.122c-.54 8.87-3.78 16.42-9.74 22.735l1.46 1.372 1.45 1.372c6.61-7.011 10.23-15.451 10.82-25.235zm-10.28 23.985-1.46-1.371c-5.81 6.178-13.88 11.071-24.31 14.61l.642 1.894.643 1.894c10.889-3.695 19.575-8.891 25.945-15.657zm-25.128 15.133-.622-1.901c-10.219 3.344-22.372 5.04-36.497 5.04v4c14.429 0 27.022-1.73 37.741-5.238z" mask="url(#b)"/><rect width="17" height="37" x="387.5" y="284.5" fill="#ec87c8" stroke="#000" rx="8.5"/><rect width="17" height="37" x="249.5" y="284.5" fill="#ec87c8" stroke="#000" rx="8.5"/><path fill="#f3badc" stroke="#000" d="M395.5 258.5V308c0 37.832-30.668 68.5-68.5 68.5s-68.5-30.668-68.5-68.5v-49.5z"/><mask id="c" fill="#fff"><path d="M327 183a69 69 0 0 1 48.79 20.21 69 69 0 0 1 14.958 22.385c1.856 4.48 3.228 11.996 4.105 19.405H427.5a8.5 8.5 0 0 1 0 17H258c0-9.061 1.784-28.034 5.252-36.405A69 69 0 0 1 327 183"/></mask><path fill="#5947f1" d="M327 183a69 69 0 0 1 48.79 20.21 69 69 0 0 1 14.958 22.385c1.856 4.48 3.228 11.996 4.105 19.405H427.5a8.5 8.5 0 0 1 0 17H258c0-9.061 1.784-28.034 5.252-36.405A69 69 0 0 1 327 183"/><path fill="#000" d="M327 183v1zm26.405 5.252.383-.924zm22.385 14.958.707-.707zm14.958 22.385.924-.383zM394.853 245l-.994.117.105.883h.889zm32.647 17v1zM258 262h-1v1h1zm5.252-36.405-.924-.383zm14.958-22.385-.707-.707zm22.385-14.958-.383-.924zM327 183v1c8.93 0 17.772 1.759 26.023 5.176l.382-.924.383-.924A70 70 0 0 0 327 182zm26.405 5.252-.382.924a68 68 0 0 1 22.06 14.741l.707-.707.707-.707a70 70 0 0 0-22.709-15.175zm22.385 14.958-.707.707a68 68 0 0 1 14.741 22.06l.924-.382.924-.383a70 70 0 0 0-15.175-22.709zm14.958 22.385-.924.382c1.798 4.341 3.16 11.736 4.035 19.14l.994-.117.993-.117c-.877-7.413-2.261-15.052-4.174-19.671zM394.853 245v1H427.5v-2h-32.647zm32.647 0v1a7.5 7.5 0 0 1 7.5 7.5h2a9.5 9.5 0 0 0-9.5-9.5zm8.5 8.5h-1a7.5 7.5 0 0 1-7.5 7.5v2a9.5 9.5 0 0 0 9.5-9.5zm-8.5 8.5v-1H258v2h169.5zM258 262h1c0-4.481.442-11.446 1.318-18.335.878-6.916 2.179-13.635 3.858-17.688l-.924-.382-.924-.383c-1.789 4.319-3.114 11.272-3.994 18.201C257.45 250.368 257 257.419 257 262zm5.252-36.405.924.382a68 68 0 0 1 14.741-22.06l-.707-.707-.707-.707a70 70 0 0 0-15.175 22.709zm14.958-22.385.707.707a68 68 0 0 1 22.06-14.741l-.382-.924-.383-.924a70 70 0 0 0-22.709 15.175zm22.385-14.958.382.924A68 68 0 0 1 327 184v-2a70 70 0 0 0-26.788 5.328z" mask="url(#c)"/><rect width="10" height="25" x="292" y="284" fill="#271b25" rx="5"/><rect width="10" height="25" x="340" y="284" fill="#271b25" rx="5"/><path stroke="#fff" stroke-linecap="round" stroke-width="10" d="M328 350c10 1.167 31.3-2 36.5-24"/><rect width="17" height="37" x="906.5" y="284.5" fill="#ec87c8" stroke="#000" rx="8.5"/><rect width="17" height="37" x="768.5" y="284.5" fill="#ec87c8" stroke="#000" rx="8.5"/><path fill="#f3badc" stroke="#000" d="M914.5 232.5V308c0 37.832-30.669 68.5-68.5 68.5s-68.5-30.668-68.5-68.5v-75.5z"/><rect width="10" height="25" x="811" y="284" fill="#271b25" rx="5"/><path stroke="#fff" stroke-linecap="round" stroke-width="10" d="M847 350c10 1.167 31.3-2 36.5-24"/><path fill="#f3badc" stroke="#000" d="M410.5 836.5V903c0 37.832-30.668 68.5-68.5 68.5s-68.5-30.668-68.5-68.5v-66.5z"/><mask id="d" fill="#fff"><path d="M322.5 767c11.587 0 21.756 6.065 27.511 15.192A22.44 22.44 0 0 1 366.5 775c12.271 0 22.246 9.823 22.493 22.035C406.249 797.816 420 812.051 420 829.5c0 17.949-14.551 32.5-32.5 32.5-12.876 0-24.002-7.488-29.264-18.347A26 26 0 0 1 354 844c-3.808 0-7.425-.819-10.685-2.29-4.662 5.094-11.365 8.29-18.815 8.29-1.562 0-3.091-.142-4.576-.411C314.079 858.848 303.759 865 292 865c-18.225 0-33-14.775-33-33 0-17.555 13.709-31.907 31.005-32.938C290.24 781.314 304.697 767 322.5 767"/></mask><path fill="#5c49ff" d="M322.5 767c11.587 0 21.756 6.065 27.511 15.192A22.44 22.44 0 0 1 366.5 775c12.271 0 22.246 9.823 22.493 22.035C406.249 797.816 420 812.051 420 829.5c0 17.949-14.551 32.5-32.5 32.5-12.876 0-24.002-7.488-29.264-18.347A26 26 0 0 1 354 844c-3.808 0-7.425-.819-10.685-2.29-4.662 5.094-11.365 8.29-18.815 8.29-1.562 0-3.091-.142-4.576-.411C314.079 858.848 303.759 865 292 865c-18.225 0-33-14.775-33-33 0-17.555 13.709-31.907 31.005-32.938C290.24 781.314 304.697 767 322.5 767"/><path fill="#000" d="m350.011 782.192-.846.534.693 1.1.885-.953zm38.982 14.843-1 .02.019.937.936.042zm-30.757 46.618.9-.436-.325-.671-.736.12zm-14.921-1.943.412-.911-.66-.298-.489.534zm-23.391 7.879.178-.984-.664-.12-.36.57zm-29.919-50.527.059.998.929-.056.012-.929zM322.5 767v1c11.229 0 21.086 5.876 26.665 14.726l.846-.534.846-.533C344.927 772.253 334.445 766 322.5 766zm27.511 15.192.732.681A21.44 21.44 0 0 1 366.5 776v-2c-6.803 0-12.932 2.893-17.222 7.512zM366.5 775v1c11.725 0 21.257 9.387 21.493 21.055l1-.02 1-.02C389.734 784.26 379.317 774 366.5 774zm22.493 22.035-.045.999C405.672 798.79 419 812.588 419 829.5h2c0-17.986-14.174-32.659-31.962-33.464zM420 829.5h-1c0 17.397-14.103 31.5-31.5 31.5v2c18.502 0 33.5-14.998 33.5-33.5zM387.5 862v-1c-12.478 0-23.263-7.256-28.364-17.783l-.9.436-.9.436C362.759 855.28 374.226 863 387.5 863zm-29.264-18.347-.161-.987A25 25 0 0 1 354 843v2c1.499 0 2.968-.125 4.398-.36zM354 844v-1c-3.664 0-7.141-.788-10.273-2.201l-.412.911-.411.911A26.9 26.9 0 0 0 354 845zm-10.685-2.29-.737-.675c-4.481 4.896-10.92 7.965-18.078 7.965v2c7.742 0 14.709-3.322 19.553-8.615zM324.5 850v-1c-1.502 0-2.971-.137-4.398-.395l-.178.984-.178.984c1.542.279 3.131.427 4.754.427zm-4.576-.411-.846-.534C313.409 858.037 303.401 864 292 864v2c12.117 0 22.749-6.34 28.769-15.877zM292 865v-1c-17.673 0-32-14.327-32-32h-2c0 18.778 15.222 34 34 34zm-33-33h1c0-17.023 13.293-30.94 30.064-31.94l-.059-.998-.06-.999C272.124 799.126 258 813.912 258 832zm31.005-32.938 1 .013C291.232 781.874 305.245 768 322.5 768v-2c-18.351 0-33.253 14.755-33.495 33.048z" mask="url(#d)"/><mask id="e" fill="#fff"><path d="M420 865.5a80.499 80.499 0 1 0-161 0h12.879a67.622 67.622 0 0 1 135.242 0z"/></mask><path fill="#caf264" stroke="#000" stroke-width="2" d="M420 865.5a80.499 80.499 0 1 0-161 0h12.879a67.622 67.622 0 0 1 135.242 0z" mask="url(#e)"/><rect width="10" height="25" x="307" y="862" fill="#271b25" rx="5"/><rect width="10" height="25" x="355" y="862" fill="#271b25" rx="5"/><path stroke="#fff" stroke-linecap="round" stroke-width="10" d="M343 940c10 1.167 31.3-2 36.5-24"/><mask id="f" fill="#fff"><path d="M414 905c6.63 0 12.989-2.634 17.678-7.322a25.004 25.004 0 0 0 0-35.356A25 25 0 0 0 414 855v50"/></mask><path fill="#caf264" stroke="#000" stroke-width="2" d="M414 905c6.63 0 12.989-2.634 17.678-7.322a25.004 25.004 0 0 0 0-35.356A25 25 0 0 0 414 855v50Z" mask="url(#f)"/><mask id="g" fill="#fff"><path d="M270 905a25 25 0 0 1-17.678-7.322 25.004 25.004 0 0 1 0-35.356A25 25 0 0 1 270 855v50"/></mask><path fill="#caf264" stroke="#000" stroke-width="2" d="M270 905a25 25 0 0 1-17.678-7.322 25.004 25.004 0 0 1 0-35.356A25 25 0 0 1 270 855v50Z" mask="url(#g)"/><rect width="17" height="55" x="402.5" y="852.5" fill="#caf264" stroke="#000" rx="8.5"/><rect width="17" height="55" x="-.5" y=".5" fill="#caf264" stroke="#000" rx="8.5" transform="matrix(-1 0 0 1 281 852)"/><path fill="#fbe667" d="M923.746 237.232c-1.706 4.587-8.007 15.283-11.394 18.847a37.2 37.2 0 0 1-12.026 8.428 38.5 38.5 0 0 1-14.507 3.225 39.5 39.5 0 0 1-14.781-2.469 39.5 39.5 0 0 1-12.803-7.787 38.6 38.6 0 0 1-8.876-11.919 37.2 37.2 0 0 1-3.599-14.237c-.235-4.912 2.316-16.133 4.021-20.72l39.72 6.9z"/><path fill="#fbe667" d="M767.793 237.232c1.706 4.587 8.007 15.283 11.394 18.847a37.2 37.2 0 0 0 12.026 8.428c4.553 2 9.482 3.096 14.507 3.225a39.5 39.5 0 0 0 14.781-2.469 39.5 39.5 0 0 0 12.803-7.787 38.6 38.6 0 0 0 8.876-11.919 37.2 37.2 0 0 0 3.599-14.237c.235-4.912-2.316-16.133-4.021-20.72l-39.72 6.9z"/><path fill="#000" d="M834.298 284c2.717 0 5.067 1.796 5.466 4.207.996.56 2.208 1.035 3.565 1.239 1.731.261 3.73.088 5.865-.952.253-2.554 2.682-4.494 5.507-4.494h38.768c3.381 0 6.194 2.779 5.391 6.062a25.514 25.514 0 0 1-15.015 17.502 25.5 25.5 0 0 1-27.795-5.529 25.5 25.5 0 0 1-6.608-11.456c-2.271.966-4.455 1.141-6.412.846a12.4 12.4 0 0 1-3.422-1.05 25.5 25.5 0 0 1-6.66 11.66 25.508 25.508 0 0 1-41.6-8.274 25.5 25.5 0 0 1-1.21-3.699c-.803-3.283 2.01-6.062 5.391-6.062z"/><path stroke="#fff" stroke-linecap="round" d="M797.523 289c-.166 1.833.5 5.9 4.5 7.5M857.523 289c-.166 1.833.5 5.9 4.5 7.5"/><path fill="#fff" d="M755.21 896.998q-2.47-2.388-6.15-6.239a3258 3258 0 0 0-7.559-7.881 831 831 0 0 0-7.248-7.744q-3.481-3.67-5.529-5.965a16 16 0 0 1-1.893-2.226q-.744-1.256-1.048-2.04-.885-2.616-.373-4.617.624-2.043 2.19-2.65 1.23-.477 2.422.605a28 28 0 0 1 2.359 2.432 244 244 0 0 0 5.832 6.749l6.74 7.426q3.481 3.67 6.565 6.979 3.04 3.198 4.872 4.933l3.751-35.816q.276-2.938 1.547-4.975 1.381-2.079 3.283-2.817 1.12-.434 2.243.804 1.079 1.127 1.556 2.357.52 1.342.258 2.989-.151 1.603-1.07 6.206-.544 2.913-1.618 7.448-.962 4.491-1.529 11.661a809 809 0 0 1-1.219 11.797q-.767 6.99-1.334 14.159a212 212 0 0 0-.457 13.433q.111 6.262 1.455 9.732.78 2.013.555 4.418-.116 2.361-1.793 3.011-.672.261-1.784.048a15 15 0 0 1-2.242-.804 8.6 8.6 0 0 1-2.036-1.27q-.907-.678-1.254-1.573-.52-1.343-.759-3.953a183 183 0 0 1-.342-5.53q.01-2.964.131-5.971t.504-5.343zm31.461-32.353q-4.736-5.893-6.454-11.286-1.718-5.394-1.13-10.024.514-4.724 2.885-8.477 2.297-3.848 5.663-6.554 7.763-6.24 16.802-3.807 8.964 2.34 16.933 12.254 3.76 4.677 5.345 9.714 1.512 4.944 1.335 9.705-.252 4.667-2.228 8.72-1.884 3.976-5.157 6.609-3.554 2.856-8.238 3.542-4.665.517-9.503-.521a33 33 0 0 1-9.079-3.633q-4.317-2.688-7.174-6.242m27.135-.72a15.7 15.7 0 0 0 3.813-4.451 15.5 15.5 0 0 0 1.823-5.776q.424-3.113-.502-6.371-.926-3.26-3.482-6.439-2.331-2.9-5.034-4.729t-5.366-2.461q-2.738-.725-5.267-.232a10.4 10.4 0 0 0-4.586 2.148q-2.432 1.955-4.28 4.826a16.7 16.7 0 0 0-2.516 5.872q-.762 3.075-.116 6.559.663 3.317 3.145 6.402 2.03 2.526 4.995 4.299a20.7 20.7 0 0 0 6.059 2.366q3.168.686 6.204.248 2.96-.532 5.11-2.261m53.033-38.4q-3.345 5.125-7.89 6.6-4.581 1.31-9.348.491a33.8 33.8 0 0 1-9.216-3.006q-4.482-2.353-7.698-4.452a151 151 0 0 1-6.702-4.661q-3.522-2.728-6.278-5.53-2.858-2.868-4.346-5.416-1.424-2.65-.309-4.358.918-1.406 2.15-1.319 1.299-.012 2.806.972t3.254 2.697a212 212 0 0 1 3.661 3.393 387 387 0 0 0 4.098 3.821 47 47 0 0 0 4.627 3.45q1.91 1.245 4.92 2.781a29.3 29.3 0 0 0 6.213 2.336q3.103.735 6.127.273 2.924-.528 4.826-3.442 1.509-2.312 1.785-4.71.241-2.566-.182-4.991a21.3 21.3 0 0 0-1.611-4.777 377 377 0 0 0-2.008-4.607 400 400 0 0 0-5.23-3.844 136 136 0 0 0-4.225-3.187l-12.731-8.596q-2.312-1.51-2.328-3.239-.018-1.73.573-2.635t2.085-1.219 3.304.867l36.385 24.608q2.547 1.806 2.993 3.1.444 1.293-.539 2.801-.59.904-1.351 1.411-.66.572-1.626.515-1.066-.123-2.604-.84-1.639-.783-4.05-2.357l-1.809-1.181q-1.005-.656-2.045-1.478a20.1 20.1 0 0 1 3.577 5.058q1.424 2.649 1.917 5.406.558 2.658.282 5.057t-1.457 4.208"/></svg>