<svg width="34" height="28" viewBox="0 0 34 28" fill="none" xmlns="http://www.w3.org/2000/svg">
<path d="M28.4737 0C28.1305 0 27.8013 0.13636 27.5586 0.379081C27.3158 0.621802 27.1795 0.951002 27.1795 1.29426C27.1795 1.63752 27.3158 1.96672 27.5586 2.20944C27.8013 2.45216 28.1305 2.58852 28.4737 2.58852C29.1603 2.58852 29.8187 2.86124 30.3041 3.34668C30.7896 3.83213 31.0623 4.49053 31.0623 5.17704V14.2369H2.58852V5.17704C2.58852 4.49053 2.86124 3.83213 3.34668 3.34668C3.83213 2.86124 4.49053 2.58852 5.17705 2.58852C5.5203 2.58852 5.8495 2.45216 6.09223 2.20944C6.33495 1.96672 6.47131 1.63752 6.47131 1.29426C6.47131 0.951002 6.33495 0.621802 6.09223 0.379081C5.8495 0.13636 5.5203 0 5.17705 0C3.80401 0 2.48721 0.545437 1.51632 1.51632C0.545437 2.48721 0 3.80401 0 5.17704V20.061C0 21.949 0.749976 23.7596 2.08494 25.0945C3.41991 26.4295 5.23051 27.1795 7.11844 27.1795C9.00636 27.1795 10.817 26.4295 12.1519 25.0945C13.4869 23.7596 14.2369 21.949 14.2369 20.061V16.8254H19.4139V20.061C19.4139 21.949 20.1639 23.7596 21.4989 25.0945C22.8338 26.4295 24.6444 27.1795 26.5324 27.1795C28.4203 27.1795 30.2309 26.4295 31.5659 25.0945C32.9008 23.7596 33.6508 21.949 33.6508 20.061V5.17704C33.6508 3.80401 33.1054 2.48721 32.1345 1.51632C31.1636 0.545437 29.8468 0 28.4737 0ZM30.5171 22.2144L25.1265 16.8254H31.0623V20.061C31.0634 20.8131 30.876 21.5535 30.5171 22.2144ZM2.58852 20.061V17.3609L9.27176 24.0458C8.58177 24.4186 7.8068 24.6058 7.02271 24.5893C6.23861 24.5727 5.47225 24.3528 4.79863 23.9512C4.125 23.5496 3.56719 22.9799 3.17978 22.298C2.79237 21.6161 2.58864 20.8453 2.58852 20.061ZM11.6484 20.061C11.6495 20.8131 11.4621 21.5535 11.1031 22.2144L5.71255 16.8254H11.6484V20.061ZM22.0024 20.061V17.3609L28.6857 24.0458C27.9957 24.4186 27.2207 24.6058 26.4366 24.5893C25.6525 24.5727 24.8862 24.3528 24.2125 23.9512C23.5389 23.5496 22.9811 22.9799 22.5937 22.298C22.2063 21.6161 22.0026 20.8453 22.0024 20.061Z" fill="#222222"/>
</svg>
