<svg xmlns="http://www.w3.org/2000/svg" width="1024" height="1024" viewBox="0 0 1024 1024">
<g>
<path d="M 271.59 890.50 L 270.91 1024.00 L 0.00 1024.00 L 0.00 0.00 L 1024.00 0.00 L 1024.00 1024.00 L 738.00 1024.00 L 737.99 963.25 C737.99,898.56 737.51,890.40 732.98,876.93 C724.42,851.52 704.41,829.26 681.68,819.86 C664.39,812.70 664.10,812.66 623.50,812.05 L 586.50 811.50 L 586.23 792.25 C586.08,781.66 585.57,773.00 585.10,773.00 C584.63,773.00 579.80,774.61 574.37,776.58 C568.94,778.55 558.82,782.11 551.88,784.50 L 539.26 788.83 L 538.64 783.66 C538.30,780.82 538.01,775.29 538.01,771.36 L 538.00 764.22 L 545.25 762.46 C576.96,754.79 608.95,736.40 631.57,712.83 C651.93,691.63 667.48,664.22 674.61,637.00 C677.52,625.89 679.96,609.91 679.98,601.77 C680.00,596.34 680.14,596.01 682.75,595.42 C692.73,593.17 699.35,590.53 704.28,586.82 C705.97,585.55 705.92,585.16 703.37,579.24 C701.88,575.81 700.25,573.00 699.74,573.00 C699.23,573.00 697.47,573.95 695.83,575.12 C692.75,577.32 685.05,580.00 681.84,580.00 C680.20,580.00 680.00,579.09 680.00,571.62 L 680.00 563.24 L 684.63 562.07 C702.87,557.48 712.39,543.02 705.75,530.02 C702.29,523.24 697.67,520.17 688.15,518.29 L 680.00 516.68 L 680.00 470.00 L 697.83 470.00 L 707.96 484.49 C713.52,492.45 718.93,499.43 719.97,499.99 C722.54,501.36 741.00,501.33 741.00,499.95 C741.00,499.37 738.43,495.43 735.29,491.20 C727.36,480.50 720.00,469.78 720.00,468.92 C720.00,468.52 722.44,466.81 725.43,465.13 C735.25,459.59 739.50,450.80 738.81,437.53 C738.32,428.30 735.69,422.45 729.77,417.45 C722.70,411.47 719.13,410.61 699.00,410.03 L 680.50 409.50 L 680.21 401.25 C679.97,394.36 680.17,393.00 681.46,393.00 C682.82,393.00 683.00,388.68 683.00,356.28 L 683.00 319.56 L 695.92 284.03 C730.18,189.83 741.83,157.21 742.37,154.00 C743.29,148.55 741.42,138.50 738.24,131.69 C723.66,100.57 668.13,75.62 619.50,78.36 C608.44,78.98 599.42,80.65 590.91,83.66 L 586.31 85.28 L 578.91 79.25 C574.83,75.94 569.03,71.85 566.00,70.16 C558.28,65.87 541.23,60.37 530.00,58.55 C519.11,56.78 491.33,56.50 480.50,58.03 C459.01,61.09 439.27,69.35 425.92,80.87 L 420.86 85.23 L 414.25 83.07 C400.35,78.50 382.13,77.03 364.54,79.04 C320.38,84.10 281.23,105.55 268.25,131.80 C265.20,137.98 264.57,140.40 264.22,147.31 L 263.81 155.50 L 275.49 187.50 C281.92,205.10 294.08,238.40 302.51,261.50 C310.94,284.60 319.22,307.24 320.92,311.82 L 324.00 320.14 L 324.00 356.57 C324.00,380.19 324.35,393.00 325.00,393.00 C325.59,393.00 326.00,396.50 326.00,401.50 L 326.00 410.00 L 309.00 410.00 L 309.02 436.75 C309.04,472.74 310.86,480.69 321.42,490.96 C323.94,493.41 326.00,495.73 326.00,496.12 C326.00,496.51 324.09,497.14 321.75,497.53 C312.32,499.11 300.82,507.56 295.24,517.00 C288.50,528.40 286.61,547.23 290.93,559.89 C296.35,575.76 308.02,586.81 321.26,588.62 L 325.71 589.23 L 326.29 602.37 C327.36,626.82 332.51,646.28 344.04,669.50 C353.16,687.88 361.76,699.75 377.00,715.01 C399.69,737.73 426.50,753.18 456.95,761.09 C463.25,762.73 468.65,764.32 468.95,764.62 C469.57,765.24 469.13,787.20 468.49,787.85 C468.26,788.08 458.34,784.83 446.45,780.63 C434.57,776.43 424.20,773.00 423.42,773.00 C422.24,773.00 422.00,776.31 422.00,792.43 L 422.00 811.87 L 385.25 812.23 C348.59,812.59 348.48,812.60 339.71,815.30 C323.56,820.29 312.02,827.03 300.14,838.44 C287.39,850.67 279.23,864.18 274.27,881.28 ZM 196.70 500.37 C197.09,500.75 201.47,500.94 206.45,500.78 L 215.50 500.50 L 215.57 462.50 L 241.76 462.23 L 267.96 461.97 L 268.23 481.23 L 268.50 500.50 L 277.75 500.79 L 287.00 501.08 L 287.00 410.00 L 268.00 410.00 L 268.00 445.00 L 216.00 445.00 L 216.00 410.00 L 196.00 410.00 L 196.00 454.83 C196.00,479.49 196.32,499.98 196.70,500.37 ZM 785.67 500.33 C786.03,500.70 790.30,501.00 795.15,501.00 C803.84,501.00 803.97,500.96 804.62,498.36 C804.99,496.91 805.04,489.51 804.74,481.91 L 804.19 468.10 L 823.59 440.80 C834.27,425.79 843.46,412.71 844.03,411.75 C845.00,410.12 844.25,410.00 833.50,410.00 C823.40,410.00 821.85,410.22 821.29,411.75 C820.70,413.33 800.15,443.64 796.38,448.50 C794.84,450.48 794.81,450.48 793.16,448.04 C792.25,446.68 787.52,439.93 782.66,433.04 C777.79,426.14 772.26,418.14 770.37,415.25 L 766.94 410.00 L 755.97 410.00 C749.94,410.00 745.00,410.21 745.00,410.46 C745.00,410.97 749.83,417.91 770.80,447.50 L 784.98 467.50 L 784.99 483.58 C784.99,492.43 785.30,499.97 785.67,500.33 ZM 711.93 452.25 C709.14,453.67 705.84,454.00 694.25,454.00 L 680.00 454.00 L 680.00 426.00 L 694.25 426.00 C705.84,426.00 709.14,426.33 711.93,427.75 C717.09,430.38 719.50,434.29 719.50,440.00 C719.50,445.71 717.09,449.62 711.93,452.25 ZM 685.90 545.47 C680.93,551.12 680.00,550.33 680.00,540.50 C680.00,532.27 680.07,532.00 682.33,532.00 C685.38,532.00 689.00,535.94 689.00,539.28 C689.00,540.82 687.70,543.41 685.90,545.47 Z" fill="rgb(36,97,146)"/>
<path d="M 545.27 686.05 C529.86,689.51 507.93,689.29 496.14,685.54 C491.14,683.96 489.09,675.78 492.69,671.78 C495.73,668.41 498.38,667.98 506.55,669.54 C525.53,673.17 547.39,669.48 563.73,659.88 C569.51,656.49 581.48,645.27 588.00,637.14 C591.04,633.36 592.01,632.79 595.33,632.79 C600.75,632.80 604.00,636.05 604.00,641.45 C604.00,644.92 603.15,646.63 598.46,652.53 C585.64,668.66 565.14,681.58 545.27,686.05 ZM 496.50 767.38 C507.23,768.29 533.00,765.52 547.18,761.94 C553.77,760.27 560.36,758.14 566.86,755.61 C559.72,758.41 552.48,760.71 545.25,762.46 L 538.00 764.22 L 538.01 771.36 C538.01,775.29 538.30,780.82 538.64,783.66 C538.30,780.82 538.01,777.00 538.01,775.17 C538.00,773.33 537.66,771.98 537.25,772.17 C536.84,772.35 533.12,774.14 529.00,776.14 C515.94,782.48 494.30,786.89 475.83,786.97 C472.72,786.99 470.02,787.42 469.83,787.93 C469.80,788.04 469.33,787.99 468.52,787.80 C469.15,786.52 469.56,765.23 468.95,764.62 C468.65,764.32 463.25,762.73 456.95,761.09 C449.98,759.28 443.20,757.08 436.62,754.48 C454.32,761.30 473.99,765.47 496.50,767.38 ZM 326.00 543.56 C326.00,545.16 326.00,546.68 326.00,548.11 C326.02,563.81 326.02,569.12 324.10,569.94 C323.13,570.36 321.65,569.61 319.41,568.48 C319.01,568.28 318.59,568.06 318.14,567.84 C303.22,560.46 300.78,534.17 313.85,521.64 C316.76,518.85 323.81,515.77 325.25,516.65 C325.66,516.91 326.00,529.02 326.00,543.56 ZM 459.74 785.21 C456.14,784.04 451.83,782.57 447.22,780.93 C442.35,779.20 437.74,777.59 433.89,776.28 C437.55,777.52 441.89,779.02 446.45,780.63 C451.41,782.38 456.03,783.97 459.74,785.21 ZM 423.44 773.00 C423.15,773.01 422.91,773.20 422.72,773.71 C422.91,773.19 423.14,773.00 423.42,773.00 C423.43,773.00 423.43,773.00 423.44,773.00 Z" fill="rgb(176,139,115)"/>
<path d="M 496.50 767.38 C473.99,765.47 454.32,761.30 436.62,754.48 C414.44,745.73 394.49,732.53 377.00,715.01 C361.76,699.75 353.16,687.88 344.04,669.50 C332.51,646.28 327.36,626.82 326.29,602.37 L 325.71 589.23 L 321.26 588.62 C308.02,586.81 296.35,575.76 290.93,559.89 C286.61,547.23 288.50,528.40 295.24,517.00 C300.82,507.56 312.32,499.11 321.75,497.53 C324.09,497.14 326.00,496.51 326.00,496.12 C326.00,495.73 323.94,493.41 321.42,490.96 C317.57,487.22 314.88,483.78 313.02,479.19 C314.78,483.37 317.29,486.62 320.85,490.30 C325.64,495.25 330.79,498.09 339.50,500.56 C347.01,502.70 366.89,501.94 373.72,499.26 C384.22,495.14 392.09,487.41 396.19,477.16 C398.35,471.78 398.48,469.95 398.79,440.75 L 399.13 410.00 L 380.14 410.00 L 379.75 438.25 C379.32,469.06 378.90,471.76 373.70,477.69 C368.99,483.05 363.58,485.08 353.95,485.11 C344.44,485.13 338.68,482.86 334.10,477.31 C328.83,470.91 328.00,465.31 328.00,436.18 L 328.00 410.00 L 326.00 410.00 L 326.00 401.50 C326.00,396.75 325.63,393.36 325.09,393.03 L 327.25 392.58 C395.02,378.70 472.61,372.67 540.50,376.01 C588.57,378.38 619.14,382.04 679.75,392.69 L 681.50 393.00 C681.49,393.00 681.47,393.00 681.46,393.00 C680.17,393.00 679.97,394.36 680.21,401.25 L 680.50 409.50 L 699.00 410.03 C704.98,410.20 709.50,410.40 713.08,410.75 C708.11,410.44 699.88,410.33 684.75,410.19 L 652.00 409.88 L 652.00 500.00 L 670.95 500.00 L 671.50 470.50 L 680.00 470.32 L 680.00 516.68 L 684.90 517.65 C680.90,517.15 676.80,517.14 673.29,517.74 C656.41,520.63 643.84,532.30 638.61,549.93 C637.73,552.92 637.00,556.79 637.00,558.53 C637.00,564.69 626.41,578.11 620.34,579.63 C617.13,580.43 612.61,577.24 612.21,573.88 C612.04,572.55 614.83,556.39 618.39,537.98 C621.96,519.57 626.96,493.48 629.51,480.00 C632.06,466.52 634.38,454.49 634.68,453.25 C635.21,451.04 635.05,451.00 626.08,451.00 C619.68,451.00 616.80,451.37 616.47,452.25 C616.22,452.94 612.60,469.69 608.44,489.48 C604.27,509.27 600.71,525.62 600.52,525.81 C600.33,526.00 597.91,524.60 595.14,522.69 C588.20,517.91 582.01,516.55 573.94,518.01 C570.46,518.64 565.82,520.07 563.64,521.19 C554.22,525.99 545.50,538.81 543.03,551.50 C540.88,562.53 539.99,564.81 535.48,570.81 C529.17,579.21 523.12,581.65 518.25,577.76 C517.56,577.21 517.00,574.87 517.00,572.56 C517.00,569.27 523.77,532.74 526.51,521.21 C527.05,518.94 527.02,518.93 517.28,519.21 L 507.50 519.50 L 502.94 542.00 C500.43,554.38 497.63,565.92 496.72,567.65 C494.59,571.66 487.65,577.63 483.51,579.00 C478.62,580.61 472.97,578.41 470.69,574.00 C468.43,569.62 468.70,566.90 473.98,540.21 C476.19,529.04 478.00,519.71 478.00,519.46 C478.00,519.21 473.76,519.00 468.57,519.00 C460.45,519.00 459.06,519.24 458.61,520.75 C458.32,521.71 456.46,530.60 454.49,540.50 C452.51,550.40 449.90,560.50 448.70,562.94 C447.49,565.38 443.79,570.22 440.48,573.69 C435.52,578.89 433.90,580.00 431.23,580.00 C427.23,580.00 423.99,576.97 424.02,573.25 C424.03,571.74 428.03,550.03 432.91,525.00 C437.80,499.98 441.61,479.31 441.38,479.07 C440.73,478.38 423.01,484.28 421.97,485.53 C421.25,486.41 413.00,524.03 413.00,526.46 C413.00,526.75 410.99,525.46 408.54,523.59 C402.67,519.10 397.89,517.56 390.00,517.59 C378.89,517.63 366.52,525.13 360.43,535.52 C355.29,544.29 353.70,550.72 353.59,563.00 C353.51,573.01 353.80,575.15 355.80,579.49 C359.51,587.54 365.07,592.47 372.94,594.70 C382.93,597.53 396.73,594.07 403.46,587.04 L 406.36 584.01 L 408.43 587.70 C411.58,593.30 416.13,595.51 424.50,595.47 C432.76,595.44 437.67,593.26 445.05,586.36 L 449.82 581.90 L 451.96 585.72 C459.21,598.62 480.40,599.29 494.19,587.06 L 498.38 583.34 L 500.44 587.40 C503.35,593.12 507.92,595.50 516.00,595.50 C524.48,595.50 531.84,591.97 538.87,584.55 L 544.01 579.11 L 545.95 582.90 C548.40,587.70 553.72,592.40 558.66,594.13 C560.77,594.87 565.88,595.45 570.00,595.43 C578.64,595.38 584.16,593.31 590.49,587.75 L 594.49 584.24 L 596.50 587.81 C599.51,593.19 604.21,595.51 612.00,595.47 C620.74,595.42 626.27,592.76 634.01,584.85 C639.84,578.91 640.31,578.63 641.37,580.50 C643.94,585.06 651.04,590.87 656.66,593.03 C665.72,596.50 679.47,596.49 690.28,593.45 C688.00,594.15 685.51,594.80 682.75,595.42 C680.14,596.01 680.00,596.34 679.98,601.77 C679.96,609.91 677.52,625.89 674.61,637.00 C667.48,664.22 651.93,691.63 631.57,712.83 C614.11,731.03 591.06,746.14 566.86,755.61 C560.36,758.14 553.77,760.27 547.18,761.94 C533.00,765.52 507.23,768.29 496.50,767.38 ZM 660.50 312.57 C670.09,315.66 670.97,316.70 662.50,314.94 C655.93,313.57 611.52,307.16 597.00,305.48 C558.75,301.06 502.68,299.07 467.81,300.88 C434.10,302.64 398.43,306.39 361.09,312.10 C350.42,313.73 341.24,314.91 340.68,314.73 C340.13,314.54 345.71,312.44 353.09,310.05 C360.47,307.66 366.62,305.61 366.76,305.50 C366.91,305.39 365.24,295.00 363.06,282.40 C356.28,243.19 341.92,154.75 342.28,154.38 C342.61,154.06 360.37,215.25 375.12,267.50 C382.98,295.33 384.01,299.96 386.04,300.45 C386.44,300.55 386.88,300.48 387.41,300.40 C387.75,300.35 388.13,300.29 388.57,300.27 C390.73,300.14 401.05,298.55 411.49,296.74 L 430.49 293.45 L 430.24 289.98 C426.54,238.96 421.32,162.13 420.51,147.00 C419.95,136.36 422.53,149.31 439.88,244.00 C447.93,287.92 448.74,291.49 450.54,291.31 C451.62,291.21 463.19,290.56 476.25,289.87 L 500.00 288.63 L 500.01 286.06 C500.02,284.65 500.89,268.42 501.93,250.00 C502.98,231.57 504.87,197.51 506.14,174.30 C507.40,151.09 508.60,132.26 508.79,132.46 C509.18,132.85 510.51,154.72 515.00,234.91 C516.64,264.29 518.12,288.46 518.29,288.62 C518.46,288.79 526.00,289.38 535.05,289.93 C544.10,290.48 555.39,291.23 560.14,291.60 L 568.78 292.28 L 569.38 289.39 C569.72,287.80 574.50,261.75 580.02,231.50 C594.32,153.05 596.00,143.98 597.02,139.50 L 597.94 135.50 L 597.48 140.00 C597.23,142.48 595.88,162.27 594.48,184.00 C593.08,205.73 590.82,239.02 589.47,258.00 C588.11,276.98 587.00,293.04 587.00,293.70 C587.00,294.37 588.69,295.18 590.75,295.52 C592.81,295.85 602.38,297.72 612.00,299.67 C621.62,301.62 630.15,303.28 630.95,303.36 C631.90,303.45 632.98,301.45 634.12,297.50 C635.07,294.20 644.76,260.14 655.65,221.81 C666.54,183.48 675.58,152.24 675.73,152.40 C675.88,152.55 670.32,186.83 663.37,228.59 C656.42,270.34 650.68,305.59 650.61,306.93 C650.51,309.14 651.37,309.63 660.50,312.57 ZM 468.45 469.35 L 494.39 500.07 L 503.95 499.78 L 513.50 499.50 L 513.78 457.00 C513.93,433.62 513.81,413.49 513.51,412.25 C512.99,410.12 512.47,410.00 503.98,410.00 L 495.00 410.00 L 494.88 437.75 C494.82,453.01 494.48,466.84 494.13,468.47 C493.50,471.42 493.43,471.37 484.96,461.47 C470.96,445.12 454.88,426.01 448.17,417.75 L 441.87 410.00 L 421.00 410.00 L 421.00 442.50 C421.00,460.38 421.31,475.00 421.70,475.00 C423.89,475.00 439.02,469.78 439.61,468.81 C440.01,468.18 440.26,460.95 440.18,452.75 C440.06,441.31 440.31,437.93 441.26,438.24 C441.94,438.46 454.18,452.46 468.45,469.35 ZM 459.74 785.21 C464.93,786.93 468.35,787.98 468.49,787.85 C468.50,787.84 468.51,787.82 468.52,787.80 C469.33,787.99 469.80,788.04 469.83,787.93 C470.02,787.42 472.72,786.99 475.83,786.97 C494.30,786.89 515.94,782.48 529.00,776.14 C533.12,774.14 536.84,772.35 537.25,772.17 C537.66,771.98 538.00,773.33 538.01,775.17 C538.01,777.00 538.30,780.82 538.64,783.66 L 539.25 788.80 C536.96,789.59 534.99,790.26 533.50,790.77 L 522.50 794.50 L 513.94 820.48 L 505.38 846.45 L 499.94 848.71 C496.95,849.94 480.10,856.99 462.50,864.37 L 430.50 877.79 L 430.24 950.90 L 429.99 1024.00 L 421.15 1024.00 L 420.57 981.25 C420.25,957.74 419.73,923.37 419.42,904.88 C418.96,877.54 419.10,871.17 420.18,870.73 C422.82,869.64 497.55,840.32 499.11,839.75 C500.49,839.25 499.68,836.07 493.43,817.45 C489.42,805.51 485.77,795.38 485.32,794.94 C484.34,793.98 435.28,776.53 425.20,773.46 C427.02,774.00 430.09,775.00 433.89,776.28 L 433.89 776.29 C437.74,777.59 442.36,779.20 447.22,780.93 C451.83,782.57 456.14,784.04 459.74,785.21 ZM 568.00 500.39 C573.45,501.85 590.53,502.50 594.63,501.40 C596.40,500.93 597.04,499.40 598.45,492.32 C599.38,487.64 599.90,483.57 599.60,483.27 C599.31,482.97 597.59,483.35 595.78,484.12 C591.04,486.12 577.71,485.81 571.05,483.56 C559.57,479.66 551.76,468.55 551.67,456.00 C551.58,442.19 558.49,431.59 570.56,427.05 C575.63,425.14 577.96,424.87 586.50,425.21 C597.74,425.66 603.57,427.91 611.06,434.67 L 615.04 438.27 L 622.02 433.63 C625.86,431.07 629.00,428.57 629.00,428.06 C629.00,425.95 618.89,416.97 613.41,414.21 C603.72,409.34 594.83,407.67 581.78,408.26 C568.88,408.85 560.68,411.21 552.24,416.75 C528.41,432.41 525.22,468.60 545.93,488.35 C552.21,494.34 558.74,497.91 568.00,500.39 ZM 545.27 686.05 C565.14,681.58 585.64,668.66 598.46,652.53 C603.15,646.63 604.00,644.92 604.00,641.45 C604.00,636.05 600.75,632.80 595.33,632.79 C592.01,632.79 591.04,633.36 588.00,637.14 C581.48,645.27 569.51,656.49 563.73,659.88 C547.39,669.48 525.53,673.17 506.55,669.54 C498.38,667.98 495.73,668.41 492.69,671.78 C489.09,675.78 491.14,683.96 496.14,685.54 C507.93,689.29 529.86,689.51 545.27,686.05 ZM 393.50 578.10 C391.30,579.12 388.38,579.97 387.00,579.98 C382.45,580.01 377.64,576.77 375.17,572.00 C373.16,568.11 372.91,566.48 373.33,560.00 C373.86,551.77 376.20,545.29 380.48,540.21 C384.22,535.77 387.98,534.00 393.70,534.00 C403.78,534.01 408.70,540.92 407.78,553.76 C406.96,565.36 401.70,574.31 393.50,578.10 ZM 580.04 579.00 C563.78,583.52 555.89,565.09 565.59,545.24 C569.02,538.22 573.65,534.78 580.41,534.22 C586.78,533.69 591.22,535.67 594.04,540.30 C596.78,544.79 596.75,556.93 593.98,564.33 C591.57,570.78 585.08,577.60 580.04,579.00 ZM 326.00 543.56 C326.00,529.02 325.66,516.91 325.25,516.65 C323.81,515.77 316.76,518.85 313.85,521.64 C300.78,534.17 303.22,560.46 318.14,567.84 C318.59,568.06 319.01,568.28 319.41,568.48 C321.65,569.61 323.13,570.36 324.10,569.94 C326.02,569.12 326.02,563.81 326.00,548.11 C326.00,546.68 326.00,545.16 326.00,543.56 ZM 592.25 466.26 C596.79,466.44 601.65,466.68 603.05,466.80 C606.99,467.11 608.00,465.27 608.00,457.80 L 608.00 451.00 L 584.00 451.00 L 584.00 465.92 ZM 676.64 550.88 C673.24,551.93 667.44,553.12 663.73,553.51 C655.98,554.34 655.77,554.04 658.91,546.70 C661.18,541.40 666.98,535.32 671.61,533.39 C674.65,532.12 678.27,531.70 681.31,532.07 C680.05,532.35 680.00,533.75 680.00,540.50 C680.00,545.86 680.28,548.54 681.34,548.94 C679.94,549.69 678.36,550.35 676.64,550.88 ZM 700.93 553.48 C696.95,557.31 691.39,560.37 684.63,562.07 L 680.00 563.24 L 680.00 571.62 C680.00,577.75 680.13,579.46 681.09,579.88 C675.51,580.38 669.88,579.72 666.02,577.75 C661.11,575.24 658.17,571.76 657.77,568.00 C657.50,565.54 657.65,565.49 666.64,564.80 C683.37,563.51 693.13,560.34 700.63,553.75 C700.73,553.66 700.83,553.57 700.93,553.48 ZM 671.00 426.00 L 680.00 426.00 L 680.00 453.88 C675.18,453.76 671.89,453.56 671.67,453.33 C671.30,452.97 671.00,446.67 671.00,439.33 ZM 721.43 412.33 C724.55,413.40 726.86,414.99 729.77,417.45 C732.67,419.90 734.78,422.55 736.23,425.70 C736.07,425.39 735.89,425.08 735.71,424.76 C732.53,419.35 728.14,415.45 722.00,412.59 C721.81,412.50 721.62,412.42 721.43,412.33 ZM 574.04 776.70 L 574.37 776.58 C579.80,774.61 584.63,773.00 585.10,773.00 C585.11,773.00 585.12,773.01 585.13,773.02 C584.40,773.18 580.05,774.63 574.04,776.70 ZM 706.96 532.92 C708.32,537.07 708.12,541.29 706.59,545.22 C708.06,541.23 708.18,536.93 706.96,532.92 ZM 685.90 545.47 C687.13,544.06 688.13,542.41 688.63,541.01 C688.16,542.82 686.98,544.62 685.21,546.23 C685.43,545.99 685.66,545.74 685.90,545.47 ZM 721.00 500.32 C725.84,501.29 741.00,501.18 741.00,499.95 C741.00,501.20 725.65,501.34 721.00,500.32 ZM 704.39 586.73 C704.78,586.35 705.03,585.97 705.17,585.56 C705.41,584.77 705.23,583.86 704.75,582.56 C705.81,585.31 705.59,585.82 704.39,586.73 ZM 696.05 591.41 C696.64,591.15 697.21,590.87 697.77,590.59 C699.61,589.64 701.06,588.91 702.17,588.28 C700.36,589.42 698.34,590.46 696.05,591.41 ZM 688.90 578.38 C691.60,577.43 694.29,576.22 695.83,575.12 C693.93,576.48 691.53,577.57 688.90,578.38 ZM 688.51 537.02 C687.99,535.76 687.11,534.57 686.06,533.66 C686.35,533.86 686.60,534.08 686.83,534.31 C687.62,535.16 688.18,536.07 688.51,537.02 ZM 695.12 470.00 L 697.79 469.94 L 697.83 470.00 ZM 700.67 523.39 C701.54,524.11 702.33,524.91 703.05,525.80 C702.34,524.96 701.54,524.15 700.67,523.39 Z" fill="rgb(225,189,156)"/>
<path d="M 271.25 957.25 L 271.59 890.50 L 274.27 881.28 C279.23,864.18 287.39,850.67 300.14,838.44 C312.02,827.03 323.56,820.29 339.71,815.30 C348.48,812.60 348.59,812.59 385.25,812.23 L 422.00 811.87 L 422.00 792.43 C422.00,776.10 422.23,773.00 423.45,773.00 C425.34,773.00 484.24,793.89 485.32,794.94 C485.77,795.38 489.42,805.51 493.43,817.45 C499.68,836.07 500.49,839.25 499.11,839.75 C497.55,840.32 422.82,869.64 420.18,870.73 C419.10,871.17 418.96,877.54 419.42,904.88 C419.73,923.37 420.25,957.74 420.57,981.25 L 421.15 1024.00 L 346.03 1024.00 L 270.91 1024.00 L 271.25 957.25 ZM 430.24 950.90 L 430.50 877.79 L 462.50 864.37 C480.10,856.99 496.95,849.94 499.94,848.71 L 505.38 846.45 L 513.94 820.48 L 522.50 794.50 L 533.50 790.77 C539.55,788.72 553.50,783.88 564.50,780.02 C575.50,776.16 584.83,773.00 585.23,773.00 C585.63,773.00 586.08,781.66 586.23,792.25 L 586.50 811.50 L 623.50 812.05 C664.10,812.66 664.39,812.70 681.68,819.86 C704.41,829.26 724.42,851.52 732.98,876.93 C737.51,890.40 737.99,898.56 737.99,963.25 L 738.00 1024.00 L 583.99 1024.00 L 429.99 1024.00 L 430.24 950.90 ZM 372.94 594.70 C365.07,592.47 359.51,587.54 355.80,579.49 C353.80,575.15 353.51,573.01 353.59,563.00 C353.70,550.72 355.29,544.29 360.43,535.52 C366.52,525.13 378.89,517.63 390.00,517.59 C397.89,517.56 402.67,519.10 408.54,523.59 C410.99,525.46 413.00,526.75 413.00,526.46 C413.00,524.03 421.25,486.41 421.97,485.53 C423.01,484.28 440.73,478.38 441.38,479.07 C441.61,479.31 437.80,499.98 432.91,525.00 C428.03,550.03 424.03,571.74 424.02,573.25 C423.99,576.97 427.23,580.00 431.23,580.00 C433.90,580.00 435.52,578.89 440.48,573.69 C443.79,570.22 447.49,565.38 448.70,562.94 C449.90,560.50 452.51,550.40 454.49,540.50 C456.46,530.60 458.32,521.71 458.61,520.75 C459.06,519.24 460.45,519.00 468.57,519.00 C473.76,519.00 478.00,519.21 478.00,519.46 C478.00,519.71 476.19,529.04 473.98,540.21 C468.70,566.90 468.43,569.62 470.69,574.00 C472.97,578.41 478.62,580.61 483.51,579.00 C487.65,577.63 494.59,571.66 496.72,567.65 C497.63,565.92 500.43,554.38 502.94,542.00 L 507.50 519.50 L 517.28 519.21 C527.02,518.93 527.05,518.94 526.51,521.21 C523.77,532.74 517.00,569.27 517.00,572.56 C517.00,574.87 517.56,577.21 518.25,577.76 C523.12,581.65 529.17,579.21 535.48,570.81 C539.99,564.81 540.88,562.53 543.03,551.50 C545.50,538.81 554.22,525.99 563.64,521.19 C565.82,520.07 570.46,518.64 573.94,518.01 C582.01,516.55 588.20,517.91 595.14,522.69 C597.91,524.60 600.33,526.00 600.52,525.81 C600.71,525.62 604.27,509.27 608.44,489.48 C612.60,469.69 616.22,452.94 616.47,452.25 C616.80,451.37 619.68,451.00 626.08,451.00 C635.05,451.00 635.21,451.04 634.68,453.25 C634.38,454.49 632.06,466.52 629.51,480.00 C626.96,493.48 621.96,519.57 618.39,537.98 C614.83,556.39 612.04,572.55 612.21,573.88 C612.61,577.24 617.13,580.43 620.34,579.63 C626.41,578.11 637.00,564.69 637.00,558.53 C637.00,556.79 637.73,552.92 638.61,549.93 C643.84,532.30 656.41,520.63 673.29,517.74 C682.11,516.23 694.67,518.60 699.90,522.76 C710.13,530.89 710.46,545.12 700.63,553.75 C693.13,560.34 683.37,563.51 666.64,564.80 C657.65,565.49 657.50,565.54 657.77,568.00 C658.17,571.76 661.11,575.24 666.02,577.75 C673.72,581.68 688.44,580.38 695.83,575.12 C697.47,573.95 699.23,573.00 699.74,573.00 C700.25,573.00 701.88,575.81 703.37,579.24 C706.44,586.37 706.60,586.06 697.77,590.59 C686.70,596.26 668.00,597.37 656.66,593.03 C651.04,590.87 643.94,585.06 641.37,580.50 C640.31,578.63 639.84,578.91 634.01,584.85 C626.27,592.76 620.74,595.42 612.00,595.47 C604.21,595.51 599.51,593.19 596.50,587.81 L 594.49 584.24 L 590.49 587.75 C584.16,593.31 578.64,595.38 570.00,595.43 C565.88,595.45 560.77,594.87 558.66,594.13 C553.72,592.40 548.40,587.70 545.95,582.90 L 544.01 579.11 L 538.87 584.55 C531.84,591.97 524.48,595.50 516.00,595.50 C507.92,595.50 503.35,593.12 500.44,587.40 L 498.38 583.34 L 494.19 587.06 C480.40,599.29 459.21,598.62 451.96,585.72 L 449.82 581.90 L 445.05 586.36 C437.67,593.26 432.76,595.44 424.50,595.47 C416.13,595.51 411.58,593.30 408.43,587.70 L 406.36 584.01 L 403.46 587.04 C396.73,594.07 382.93,597.53 372.94,594.70 ZM 393.50 578.10 C401.70,574.31 406.96,565.36 407.78,553.76 C408.70,540.92 403.78,534.01 393.70,534.00 C387.98,534.00 384.22,535.77 380.48,540.21 C376.20,545.29 373.86,551.77 373.33,560.00 C372.91,566.48 373.16,568.11 375.17,572.00 C377.64,576.77 382.45,580.01 387.00,579.98 C388.38,579.97 391.30,579.12 393.50,578.10 ZM 580.04 579.00 C585.08,577.60 591.57,570.78 593.98,564.33 C596.75,556.93 596.78,544.79 594.04,540.30 C591.22,535.67 586.78,533.69 580.41,534.22 C573.65,534.78 569.02,538.22 565.59,545.24 C555.89,565.09 563.78,583.52 580.04,579.00 ZM 676.64 550.88 C687.09,547.66 691.95,539.76 686.83,534.31 C684.25,531.57 677.01,531.13 671.61,533.39 C666.98,535.32 661.18,541.40 658.91,546.70 C655.77,554.04 655.98,554.34 663.73,553.51 C667.44,553.12 673.24,551.93 676.64,550.88 ZM 339.50 500.56 C330.79,498.09 325.64,495.25 320.85,490.30 C310.60,479.71 309.04,472.63 309.02,436.75 L 309.00 410.00 L 318.50 410.00 L 328.00 410.00 L 328.00 436.18 C328.00,465.31 328.83,470.91 334.10,477.31 C338.68,482.86 344.44,485.13 353.95,485.11 C363.58,485.08 368.99,483.05 373.70,477.69 C378.90,471.76 379.32,469.06 379.75,438.25 L 380.14 410.00 L 389.63 410.00 L 399.13 410.00 L 398.79 440.75 C398.48,469.95 398.35,471.78 396.19,477.16 C392.09,487.41 384.22,495.14 373.72,499.26 C366.89,501.94 347.01,502.70 339.50,500.56 ZM 568.00 500.39 C558.74,497.91 552.21,494.34 545.93,488.35 C525.22,468.60 528.41,432.41 552.24,416.75 C560.68,411.21 568.88,408.85 581.78,408.26 C594.83,407.67 603.72,409.34 613.41,414.21 C618.89,416.97 629.00,425.95 629.00,428.06 C629.00,428.57 625.86,431.07 622.02,433.63 L 615.04 438.27 L 611.06 434.67 C603.57,427.91 597.74,425.66 586.50,425.21 C577.96,424.87 575.63,425.14 570.56,427.05 C558.49,431.59 551.58,442.19 551.67,456.00 C551.76,468.55 559.57,479.66 571.05,483.56 C577.71,485.81 591.04,486.12 595.78,484.12 C597.59,483.35 599.31,482.97 599.60,483.27 C599.90,483.57 599.38,487.64 598.45,492.32 C597.04,499.40 596.40,500.93 594.63,501.40 C590.53,502.50 573.45,501.85 568.00,500.39 ZM 196.70 500.37 C196.32,499.98 196.00,479.49 196.00,454.83 L 196.00 410.00 L 206.00 410.00 L 216.00 410.00 L 216.00 427.50 L 216.00 445.00 L 242.00 445.00 L 268.00 445.00 L 268.00 427.50 L 268.00 410.00 L 277.50 410.00 L 287.00 410.00 L 287.00 455.54 L 287.00 501.08 L 277.75 500.79 L 268.50 500.50 L 268.23 481.23 L 267.96 461.97 L 241.76 462.23 L 215.57 462.50 L 215.53 481.50 L 215.50 500.50 L 206.45 500.78 C201.47,500.94 197.09,500.75 196.70,500.37 ZM 719.77 499.93 C718.82,499.38 713.49,492.41 707.92,484.44 L 697.79 469.94 L 684.65 470.22 L 671.50 470.50 L 671.22 485.25 L 670.95 500.00 L 661.47 500.00 L 652.00 500.00 L 652.00 454.94 L 652.00 409.88 L 684.75 410.19 C715.51,410.48 717.77,410.63 722.00,412.59 C728.14,415.45 732.53,419.35 735.71,424.76 C737.85,428.42 738.46,430.93 738.81,437.53 C739.50,450.80 735.25,459.59 725.43,465.13 C722.44,466.81 720.00,468.52 720.00,468.92 C720.00,469.78 727.36,480.50 735.29,491.20 C738.43,495.43 741.00,499.37 741.00,499.95 C741.00,501.32 722.13,501.31 719.77,499.93 ZM 711.93 452.25 C717.09,449.62 719.50,445.71 719.50,440.00 C719.50,434.29 717.09,430.38 711.93,427.75 C709.03,426.27 705.62,426.00 689.75,426.00 L 671.00 426.00 L 671.00 439.33 C671.00,446.67 671.30,452.97 671.67,453.33 C672.03,453.70 680.47,454.00 690.42,454.00 C705.66,454.00 709.04,453.72 711.93,452.25 ZM 785.67 500.33 C785.30,499.97 784.99,492.43 784.99,483.58 L 784.98 467.50 L 770.80 447.50 C749.83,417.91 745.00,410.97 745.00,410.46 C745.00,410.21 749.94,410.00 755.97,410.00 L 766.94 410.00 L 770.37 415.25 C772.26,418.14 777.79,426.14 782.66,433.04 C787.52,439.93 792.25,446.68 793.16,448.04 C794.81,450.48 794.84,450.48 796.38,448.50 C800.15,443.64 820.70,413.33 821.29,411.75 C821.85,410.22 823.40,410.00 833.50,410.00 C844.25,410.00 845.00,410.12 844.03,411.75 C843.46,412.71 834.27,425.79 823.59,440.80 L 804.19 468.10 L 804.74 481.91 C805.04,489.51 804.99,496.91 804.62,498.36 C803.97,500.96 803.84,501.00 795.15,501.00 C790.30,501.00 786.03,500.70 785.67,500.33 ZM 468.45 469.35 C454.18,452.46 441.94,438.46 441.26,438.24 C440.31,437.93 440.06,441.31 440.18,452.75 C440.26,460.95 440.01,468.18 439.61,468.81 C439.02,469.78 423.89,475.00 421.70,475.00 C421.31,475.00 421.00,460.38 421.00,442.50 L 421.00 410.00 L 431.44 410.00 L 441.87 410.00 L 448.17 417.75 C454.88,426.01 470.96,445.12 484.96,461.47 C493.43,471.37 493.50,471.42 494.13,468.47 C494.48,466.84 494.82,453.01 494.88,437.75 L 495.00 410.00 L 503.98 410.00 C512.47,410.00 512.99,410.12 513.51,412.25 C513.81,413.49 513.93,433.62 513.78,457.00 L 513.50 499.50 L 503.95 499.78 L 494.39 500.07 L 468.45 469.35 ZM 592.25 466.26 L 584.00 465.92 L 584.00 458.46 L 584.00 451.00 L 596.00 451.00 L 608.00 451.00 L 608.00 457.80 C608.00,465.27 606.99,467.11 603.05,466.80 C601.65,466.68 596.79,466.44 592.25,466.26 ZM 324.00 356.69 L 324.00 320.14 L 320.92 311.82 C319.22,307.24 310.94,284.60 302.51,261.50 C294.08,238.40 281.92,205.10 275.49,187.50 L 263.81 155.50 L 264.22 147.31 C264.57,140.40 265.20,137.98 268.25,131.80 C281.23,105.55 320.38,84.10 364.54,79.04 C382.13,77.03 400.35,78.50 414.25,83.07 L 420.86 85.23 L 425.92 80.87 C439.27,69.35 459.01,61.09 480.50,58.03 C491.33,56.50 519.11,56.78 530.00,58.55 C541.23,60.37 558.28,65.87 566.00,70.16 C569.03,71.85 574.83,75.94 578.91,79.25 L 586.31 85.28 L 590.91 83.66 C599.42,80.65 608.44,78.98 619.50,78.36 C668.13,75.62 723.66,100.57 738.24,131.69 C741.42,138.50 743.29,148.55 742.37,154.00 C741.83,157.21 730.18,189.83 695.92,284.03 L 683.00 319.56 L 683.00 356.41 L 683.00 393.26 L 679.75 392.69 C619.14,382.04 588.57,378.38 540.50,376.01 C472.61,372.67 395.02,378.70 327.25,392.58 L 324.00 393.25 L 324.00 356.69 ZM 660.50 312.57 C651.37,309.63 650.51,309.14 650.61,306.93 C650.68,305.59 656.42,270.34 663.37,228.59 C670.32,186.83 675.88,152.55 675.73,152.40 C675.58,152.24 666.54,183.48 655.65,221.81 C644.76,260.14 635.07,294.20 634.12,297.50 C632.98,301.45 631.90,303.45 630.95,303.36 C630.15,303.28 621.62,301.62 612.00,299.67 C602.38,297.72 592.81,295.85 590.75,295.52 C588.69,295.18 587.00,294.37 587.00,293.70 C587.00,293.04 588.11,276.98 589.47,258.00 C590.82,239.02 593.08,205.73 594.48,184.00 C595.88,162.27 597.23,142.48 597.48,140.00 L 597.94 135.50 L 597.02 139.50 C596.00,143.98 594.32,153.05 580.02,231.50 C574.50,261.75 569.72,287.80 569.38,289.39 L 568.78 292.28 L 560.14 291.60 C555.39,291.23 544.10,290.48 535.05,289.93 C526.00,289.38 518.46,288.79 518.29,288.62 C518.12,288.46 516.64,264.29 515.00,234.91 C510.51,154.72 509.18,132.85 508.79,132.46 C508.60,132.26 507.40,151.09 506.14,174.30 C504.87,197.51 502.98,231.57 501.93,250.00 C500.89,268.42 500.02,284.65 500.01,286.06 L 500.00 288.63 L 476.25 289.87 C463.19,290.56 451.62,291.21 450.54,291.31 C448.74,291.49 447.93,287.92 439.88,244.00 C422.53,149.31 419.95,136.36 420.51,147.00 C421.32,162.13 426.54,238.96 430.24,289.98 L 430.49 293.45 L 411.49 296.74 C401.05,298.55 390.73,300.14 388.57,300.27 C383.97,300.54 385.51,304.30 375.12,267.50 C360.37,215.25 342.61,154.06 342.28,154.38 C341.92,154.75 356.28,243.19 363.06,282.40 C365.24,295.00 366.91,305.39 366.76,305.50 C366.62,305.61 360.47,307.66 353.09,310.05 C345.71,312.44 340.13,314.54 340.68,314.73 C341.24,314.91 350.42,313.73 361.09,312.10 C398.43,306.39 434.10,302.64 467.81,300.88 C502.68,299.07 558.75,301.06 597.00,305.48 C611.52,307.16 655.93,313.57 662.50,314.94 C670.97,316.70 670.09,315.66 660.50,312.57 Z" fill="rgb(254,254,254)"/>
</g>
</svg>