<svg xmlns="http://www.w3.org/2000/svg" width="518" height="462" viewBox="0 0 518 462">
<g>
<path d="M 0.00 0.00 L 518.00 0.00 L 518.00 462.00 L 0.00 462.00 ZM 90.31 398.54 C98.39,402.05 102.88,399.79 110.70,388.30 C121.97,371.73 137.71,348.49 155.95,321.50 C165.98,306.65 175.18,293.47 176.40,292.22 C178.19,290.37 180.37,289.75 188.05,288.89 C202.36,287.28 214.50,288.01 220.16,290.80 C229.44,295.37 236.99,304.23 240.18,314.28 C240.74,316.05 241.51,322.77 241.88,329.22 C242.53,340.37 242.71,341.09 245.48,343.98 C248.99,347.65 253.66,349.09 258.48,348.00 C266.73,346.14 268.39,342.22 267.77,326.06 C267.38,315.90 266.77,311.97 264.57,305.50 C263.08,301.10 261.08,296.60 260.13,295.50 C259.18,294.40 257.11,291.57 255.54,289.21 C251.84,283.67 241.64,274.15 235.63,270.63 C223.66,263.62 211.26,261.44 192.81,263.13 C185.75,263.78 179.65,263.98 179.25,263.59 C178.19,262.53 178.68,248.26 179.98,242.55 C183.23,228.19 191.06,214.80 203.88,201.68 C210.97,194.42 213.98,191.28 217.61,190.20 C220.37,189.39 223.48,189.77 229.02,190.45 L 229.50 190.51 C260.59,194.33 276.81,196.00 282.87,196.00 C291.44,196.00 299.42,193.94 309.56,189.11 C318.12,185.04 318.69,184.55 351.49,153.56 C360.83,144.72 372.59,133.68 377.62,129.00 C391.60,116.02 393.97,109.12 386.89,102.04 C384.24,99.39 383.14,99.00 378.34,99.00 C372.99,99.00 372.64,99.18 366.66,104.82 C303.35,164.60 303.79,164.20 297.36,167.21 C288.15,171.52 283.12,171.61 253.00,168.03 C238.43,166.30 223.01,164.62 218.74,164.30 L 210.99 163.71 L 204.24 168.23 C194.83,174.54 182.19,186.62 174.87,196.31 C167.89,205.54 158.93,223.35 156.54,232.76 C153.49,244.70 152.76,254.68 154.03,266.67 L 155.22 277.83 L 138.44 302.67 C129.21,316.33 118.43,332.23 114.49,338.00 C85.53,380.40 84.00,382.86 84.00,387.05 C84.00,392.44 86.42,396.84 90.31,398.54 ZM 180.88 425.12 C186.83,431.07 188.03,430.83 222.00,416.92 C238.23,410.28 256.54,402.92 262.69,400.58 C276.41,395.35 283.41,391.20 290.60,384.01 C298.14,376.49 302.06,370.27 306.62,358.56 C311.37,346.36 317.08,339.54 326.33,335.04 C329.72,333.39 343.08,327.97 356.00,322.99 C368.92,318.01 381.93,312.49 384.90,310.72 C393.19,305.79 402.97,295.58 407.24,287.41 C411.43,279.38 441.19,201.92 443.50,193.02 C447.59,177.23 443.14,159.98 431.13,145.05 C425.19,137.67 422.52,130.25 423.23,123.10 C423.49,120.48 430.24,101.50 438.91,79.01 L 439.26 78.09 C452.18,44.58 454.94,37.43 452.59,32.96 C451.93,31.71 450.87,30.67 449.52,29.32 C446.85,26.65 445.40,26.00 442.15,26.00 C433.49,26.00 431.64,28.16 424.53,46.50 C408.11,88.87 400.16,110.10 399.15,114.19 C395.45,129.31 400.24,147.54 411.45,161.00 C417.59,168.37 420.36,175.80 419.67,183.00 C419.31,186.67 414.95,199.45 406.53,221.50 C384.25,279.82 385.23,277.64 378.15,284.26 C372.20,289.82 373.22,289.34 342.15,301.52 C314.32,312.43 311.48,313.75 304.19,319.19 C297.85,323.93 287.88,336.99 285.50,343.70 C284.56,346.34 282.25,351.74 280.36,355.70 C276.42,364.00 269.26,371.01 262.00,373.68 C257.53,375.33 227.68,387.45 198.00,399.67 C179.81,407.16 177.00,409.43 177.00,416.63 C177.00,420.65 177.50,421.73 180.88,425.12 ZM 264.50 154.30 C269.85,155.01 270.42,155.00 277.00,153.98 C292.86,151.52 306.74,140.99 313.91,126.00 C317.44,118.63 317.50,118.28 317.50,106.00 C317.50,93.62 317.46,93.42 313.76,85.67 C307.46,72.47 295.03,62.09 281.89,59.06 C275.39,57.56 263.23,57.79 256.53,59.53 C242.83,63.10 231.49,72.58 225.23,85.69 C221.54,93.43 221.50,93.62 221.50,106.08 L 221.50 118.65 L 225.75 127.22 C233.27,142.40 246.97,151.98 264.50,154.30 ZM 281.65 128.44 C278.82,129.82 274.70,131.16 272.50,131.43 C267.98,131.98 259.29,130.08 255.82,127.79 C241.79,118.53 239.54,99.73 251.06,88.18 C256.00,83.23 259.70,81.71 268.01,81.22 C279.74,80.52 287.86,84.94 292.58,94.56 C298.78,107.25 293.86,122.53 281.65,128.44 Z" fill="rgb(31,31,31)"/>
<path d="M 180.88 425.12 C177.50,421.73 177.00,420.65 177.00,416.63 C177.00,409.43 179.81,407.16 198.00,399.67 C227.68,387.45 257.53,375.33 262.00,373.68 C269.26,371.01 276.42,364.00 280.36,355.70 C282.25,351.74 284.56,346.34 285.50,343.70 C287.88,336.99 297.85,323.93 304.19,319.19 C311.48,313.75 314.32,312.43 342.15,301.52 C373.22,289.34 372.20,289.82 378.15,284.26 C385.23,277.64 384.25,279.82 406.53,221.50 C414.95,199.45 419.31,186.67 419.67,183.00 C420.36,175.80 417.59,168.37 411.45,161.00 C400.24,147.54 395.45,129.31 399.15,114.19 C400.16,110.10 408.11,88.87 424.53,46.50 C431.64,28.16 433.49,26.00 442.15,26.00 C445.40,26.00 446.85,26.65 449.52,29.32 C450.87,30.67 451.93,31.71 452.59,32.96 C454.94,37.43 452.18,44.58 439.26,78.09 L 438.91 79.01 C430.24,101.50 423.49,120.48 423.23,123.10 C422.52,130.25 425.19,137.67 431.13,145.05 C443.14,159.98 447.59,177.23 443.50,193.02 C441.19,201.92 411.43,279.38 407.24,287.41 C402.97,295.58 393.19,305.79 384.90,310.72 C381.93,312.49 368.92,318.01 356.00,322.99 C343.08,327.97 329.72,333.39 326.33,335.04 C317.08,339.54 311.37,346.36 306.62,358.56 C302.06,370.27 298.14,376.49 290.60,384.01 C283.41,391.20 276.41,395.35 262.69,400.58 C256.54,402.92 238.23,410.28 222.00,416.92 C188.03,430.83 186.83,431.07 180.88,425.12 Z" fill="rgb(180,159,249)"/>
<path d="M 90.31 398.54 C86.42,396.84 84.00,392.44 84.00,387.05 C84.00,382.86 85.53,380.40 114.49,338.00 C118.43,332.23 129.21,316.33 138.44,302.67 L 155.22 277.83 L 154.03 266.67 C152.76,254.68 153.49,244.70 156.54,232.76 C158.93,223.35 167.89,205.54 174.87,196.31 C182.19,186.62 194.83,174.54 204.24,168.23 L 210.99 163.71 L 218.74 164.30 C223.01,164.62 238.43,166.30 253.00,168.03 C283.12,171.61 288.15,171.52 297.36,167.21 C303.79,164.20 303.35,164.60 366.66,104.82 C372.64,99.18 372.99,99.00 378.34,99.00 C383.14,99.00 384.24,99.39 386.89,102.04 C393.97,109.12 391.60,116.02 377.62,129.00 C372.59,133.68 360.83,144.72 351.49,153.56 C318.69,184.55 318.12,185.04 309.56,189.11 C299.42,193.94 291.44,196.00 282.87,196.00 C276.81,196.00 260.59,194.33 229.50,190.51 C216.20,188.88 216.52,188.74 203.88,201.68 C191.06,214.80 183.23,228.19 179.98,242.55 C178.68,248.26 178.19,262.53 179.25,263.59 C179.65,263.98 185.75,263.78 192.81,263.13 C211.26,261.44 223.66,263.62 235.63,270.63 C241.64,274.15 251.84,283.67 255.54,289.21 C257.11,291.57 259.18,294.40 260.13,295.50 C261.08,296.60 263.08,301.10 264.57,305.50 C266.77,311.97 267.38,315.90 267.77,326.06 C268.39,342.22 266.73,346.14 258.48,348.00 C253.66,349.09 248.99,347.65 245.48,343.98 C242.71,341.09 242.53,340.37 241.88,329.22 C241.51,322.77 240.74,316.05 240.18,314.28 C236.99,304.23 229.44,295.37 220.16,290.80 C214.50,288.01 202.36,287.28 188.05,288.89 C180.37,289.75 178.19,290.37 176.40,292.22 C175.18,293.47 165.98,306.65 155.95,321.50 C137.71,348.49 121.97,371.73 110.70,388.30 C102.88,399.79 98.39,402.05 90.31,398.54 ZM 264.50 154.30 C246.97,151.98 233.27,142.40 225.75,127.22 L 221.50 118.65 L 221.50 106.08 C221.50,93.62 221.54,93.43 225.23,85.69 C231.49,72.58 242.83,63.10 256.53,59.53 C263.23,57.79 275.39,57.56 281.89,59.06 C295.03,62.09 307.46,72.47 313.76,85.67 C317.46,93.42 317.50,93.62 317.50,106.00 C317.50,118.28 317.44,118.63 313.91,126.00 C306.74,140.99 292.86,151.52 277.00,153.98 C270.42,155.00 269.85,155.01 264.50,154.30 ZM 281.65 128.44 C293.86,122.53 298.78,107.25 292.58,94.56 C287.86,84.94 279.74,80.52 268.01,81.22 C259.70,81.71 256.00,83.23 251.06,88.18 C239.54,99.73 241.79,118.53 255.82,127.79 C259.29,130.08 267.98,131.98 272.50,131.43 C274.70,131.16 278.82,129.82 281.65,128.44 Z" fill="rgb(226,241,103)"/>
</g>
</svg>