<svg width="123" height="142" viewBox="0 0 123 142" fill="none" xmlns="http://www.w3.org/2000/svg">
<path d="M9.58048 29.2976C9.99582 29.119 10.5818 29.048 11.0386 29.039C11.1816 29.0359 11.1487 29.1929 11.249 29.197C11.4453 29.2049 11.5978 29.0932 11.7946 29.112C11.8599 29.1189 11.8418 29.3589 11.909 29.3611C12.2772 29.3714 12.5876 29.2325 12.9474 29.1911C14.7193 28.9872 16.4243 28.642 18.1838 28.3017C18.764 28.1893 19.51 28.2132 20.0782 27.9752C20.1445 27.9473 20.054 27.7637 20.0631 27.7443C20.2065 27.4472 20.2378 27.8563 20.3853 27.8742C20.9707 27.9441 21.5681 27.8112 22.0621 27.6058C22.2721 27.5179 21.9552 27.1881 22.23 27.3486C22.249 27.3593 22.246 27.5795 22.3115 27.5862C22.4598 27.6011 22.7079 27.4988 22.8173 27.4883C23.0283 27.4693 23.0613 27.4587 23.2537 27.4123C23.5172 27.3506 23.855 27.3737 24.1244 27.2555C24.1818 27.2296 24.0486 27.0386 24.1352 26.9783C24.2219 26.918 24.48 26.8715 24.5781 26.8995C24.6763 26.9276 24.6821 27.1029 24.707 27.1371C24.9131 27.4266 25.0933 26.9072 25.1282 26.8866C25.7685 26.5241 26.423 26.6275 27.0686 26.4625C27.5586 26.3367 28.0616 26.1197 28.531 26.0125C29.0905 25.8857 29.5907 25.8803 30.1256 25.7233C30.1821 25.707 30.0522 25.4756 30.1211 25.4552C30.8532 25.2382 31.5943 25.0785 32.3732 25.059C32.4514 25.0572 32.4117 25.2995 32.4931 25.3108C32.9903 25.3751 33.8144 25.6239 33.8412 24.6062C34.1565 24.5655 34.5377 24.5093 34.8601 24.6311C35.0678 24.7094 34.9569 24.9905 35.1479 24.834C35.191 24.799 35.0745 24.6071 35.1432 24.5704C35.4325 24.4157 35.787 24.3975 36.065 24.2124C36.1215 24.1742 36.0571 23.9921 36.0662 23.9541C36.1449 23.6446 36.5055 24.0314 36.5674 24.0504C37.0381 24.1899 37.3122 24.0182 37.6945 23.9273C37.7833 23.9063 37.6151 23.6825 37.6982 23.6533C38.1301 23.5052 38.5924 23.4106 39.0525 23.4118C39.155 23.4127 39.1209 23.6485 39.1726 23.6598C39.4001 23.7072 39.3426 23.2929 39.5588 23.3306C39.6042 23.338 39.6276 23.5265 39.6402 23.5447C39.8371 23.8297 39.8251 23.3579 39.8527 23.3404C40.1985 23.1092 40.5599 23.513 40.9103 23.3537C40.9521 23.3342 40.7943 23.1283 40.9154 23.0876C41.7218 22.8146 42.608 22.6567 43.4692 22.6344C43.6031 22.6307 43.5568 22.8272 43.5702 22.8466C43.7851 23.1479 43.7552 22.6786 43.7922 22.6512C44.087 22.4469 44.4867 22.7452 44.5723 22.1554C45.9986 21.9898 47.2953 21.341 48.7847 21.4711C48.8035 21.4722 48.8285 21.7007 48.8657 21.702C49.315 21.7196 49.1476 21.3971 49.3173 20.9075C49.3602 20.7845 49.7008 21.2369 49.729 21.2692C49.832 21.3886 49.8447 21.7348 49.8743 21.7555C50.1164 21.9153 49.8095 20.8378 50.0647 20.7725C50.0731 20.7723 50.0904 20.9806 50.1169 20.995C50.1993 21.0405 50.2451 20.9443 50.3277 20.9965C50.5173 21.1177 50.7045 21.6316 50.8541 21.2667C50.8728 21.2196 50.6722 20.6151 50.9075 20.5862C51.0015 20.5752 51.4009 20.4624 51.5238 20.4736C51.6465 20.4848 51.6197 20.7029 51.6299 20.7094C52 20.8946 51.9126 21.0326 52.1633 21.3824C52.4137 21.7307 52.1368 20.8185 52.1726 20.6997C52.2085 20.5812 52.486 20.7411 52.5598 20.8025C52.6335 20.8639 52.5975 21.0073 52.6569 21.0375C53.0497 21.2339 52.6817 20.5435 52.7506 20.37C52.9126 19.9595 53.2815 20.5944 53.5276 20.6032C53.5942 20.6056 53.5039 20.4625 53.5554 20.4339C53.7598 20.3227 53.9456 20.5028 54.1444 20.2437C54.177 20.2015 54.2734 19.7389 54.4803 20.0078C54.5098 20.0466 54.5008 20.2305 54.6037 20.245C54.7574 20.2669 55.0176 20.2405 55.1527 20.1454C55.2524 20.0751 55.0543 19.8263 55.2155 19.8782C55.2872 19.9015 55.2146 20.095 55.3457 20.125C55.4763 20.1552 55.7697 20.0729 55.8805 20.0386C55.9912 20.0043 55.8756 19.8067 55.881 19.7901C55.9149 19.6939 56.1039 19.5364 56.123 19.5318C57.0755 19.2618 58.0513 19.3962 58.9549 19.0398C59.0259 19.0121 58.9199 18.7997 58.9302 18.7932C59.1571 18.6352 59.1113 19.2832 59.3374 19.4386C59.1961 18.9889 59.3205 19.0452 59.4845 18.9502C59.5635 18.9041 59.4722 18.7392 59.4753 18.7192C59.5334 18.4188 59.7095 18.7429 59.7501 18.8081C59.9001 19.0476 59.9127 18.7163 60.014 18.8761C60.1149 19.0347 60.0492 19.3244 60.2178 19.278C60.2238 19.1026 59.9895 18.7079 60.1006 18.606C60.5195 18.2209 61.511 18.3253 61.9102 18.2607C62.3086 18.1964 62.4268 18.1343 62.6688 18.1356C63.106 18.138 62.8752 17.8596 63.093 17.6499C63.3115 17.44 63.3855 18.2506 63.4648 18.4088C63.5434 18.567 63.5389 18.3847 63.6071 18.4653C63.6752 18.5459 63.6074 18.6844 63.7213 18.6922C63.8352 18.7 64.0469 18.3291 64.0396 18.1445C64.0241 17.7535 63.7955 17.3971 64.1085 17.4631C64.1266 17.4672 64.1267 17.6852 64.1933 17.6903C64.72 17.7243 65.228 17.6055 65.7494 17.6213C65.8212 17.6238 65.8194 17.8669 65.8619 17.871C66.304 17.9137 66.0615 17.5663 66.1749 17.083C66.2696 17.6637 66.4807 17.98 66.789 17.9051C66.9744 17.8603 66.8795 17.6204 66.9545 17.4151C66.977 17.3533 67.1511 17.4904 67.1451 17.3677C67.1262 16.9664 66.8945 16.5708 67.2547 16.6602C67.2706 16.6647 67.2795 16.8848 67.3307 16.8852C67.6624 16.8889 67.5981 16.4806 67.9215 16.3469C68.1751 16.242 68.705 16.3662 69.0147 16.3296C69.1708 16.9698 69.4167 16.7516 69.4195 16.2821C69.6185 16.2506 69.8222 16.1723 70.0257 16.1854C70.0957 16.1897 70.1002 16.3854 70.1134 16.4033C70.3182 16.6849 70.2938 16.235 70.3315 16.2075C70.7449 15.9286 71.1982 16.159 71.5516 15.7312C71.5642 15.7159 71.4763 15.2659 71.6747 15.5603C71.6879 15.5807 71.5959 15.819 71.8041 15.7827C72.0123 15.7464 72.4579 15.8862 72.6892 15.6085C72.7452 15.5416 72.8272 15.1373 73.0381 15.3833C73.0664 15.4168 73.0785 15.5491 73.1232 15.6131C73.2672 15.8167 73.2005 15.3563 73.3992 15.7113C73.5978 16.0663 73.8822 16.2977 74.1013 15.9622C74.1085 15.9522 74.0858 15.5796 74.1772 15.5624C74.3231 15.5351 74.5457 15.5573 74.6951 15.5169C74.7665 15.4974 74.6645 15.2884 74.6759 15.2812C75.1271 15.0348 75.5206 15.1442 76.0594 15.098C76.1582 15.09 76.3541 14.7198 76.5981 14.9111C76.8658 15.1203 76.9343 16.2563 77.3317 15.8804C77.4923 15.7296 77.3792 14.295 77.896 14.9218C78.5021 14.5797 79.1968 14.7911 79.7856 14.3731C79.8121 14.3545 79.8074 13.9472 79.8777 13.9349C79.9823 13.9173 80.0842 14.0823 80.1603 14.0755C80.4807 14.0516 80.7222 13.8268 81.0238 13.7755C81.1382 13.7556 81.1461 13.951 81.2826 13.9273C81.419 13.9035 81.4461 13.6367 81.6573 13.7085C81.8171 13.7635 82.0809 14.2277 82.2774 14.2396C82.1591 13.7457 82.2865 13.7241 82.4753 13.5377C82.5115 13.5017 82.4222 13.342 82.4371 13.3161C82.4967 13.207 82.6088 13.3296 82.6623 13.2137C82.6754 13.1858 82.6335 13.0175 82.6418 12.9852C82.7107 12.7041 83.024 13.027 83.078 13.0833C83.2845 13.297 83.2957 13.0614 83.4304 13.1319C83.5649 13.2025 83.4325 13.3672 83.5756 13.3944C83.872 13.4506 84.2056 13.3368 84.4768 13.2761C84.5847 13.2508 84.4544 13.0451 84.4685 13.0363C84.6761 12.9229 84.9614 13.1044 84.9708 12.6262C85.4187 13.7426 85.0763 12.4801 85.4525 12.6306C85.4823 12.643 85.6531 13.1813 85.5775 13.286C85.5019 13.3905 85.3129 13.2568 85.2115 13.4157C85.1874 13.4531 85.1369 14.0111 85.1202 14.0483C84.9887 14.3399 84.7537 13.5303 84.7321 13.488C84.4931 13.0334 84.4126 13.6412 84.3642 13.6941C84.1426 13.9365 83.8874 13.8791 83.6966 14.0603C83.5716 14.1779 83.6934 14.7164 83.575 14.7291C83.1814 14.7716 82.8591 14.0591 82.6657 14.7972C82.6241 14.9547 82.849 15.5199 82.4571 15.1301C82.4325 15.1055 82.1213 14.7369 82.071 15.0329C82.0648 15.0702 82.1086 15.2405 82.0927 15.2598C81.9853 15.3857 81.8634 15.2721 81.7373 15.3734C81.6112 15.4747 81.4644 15.6153 81.2868 15.5989C81.1799 15.5893 80.9732 15.3039 80.9065 15.2381C80.7169 15.048 80.668 15.4512 80.5169 15.201C80.3647 14.9496 80.4215 14.4946 80.1594 14.3738C80.2639 14.8185 80.361 15.2776 80.4613 15.726C79.981 15.8316 79.476 15.8076 79.0031 15.9487C78.9446 15.9667 79.0657 16.1892 79.0046 16.2146C78.7463 16.3205 78.4691 16.2104 78.2084 16.3487C78.0068 16.4566 77.835 16.7685 77.6263 16.8892C77.3601 16.4176 77.0701 16.6744 76.8158 16.6898C76.7268 16.6954 76.6981 16.5587 76.6265 16.5299C76.3571 16.4247 76.5777 16.8451 76.5332 16.9314C76.3417 17.3002 76.061 16.2929 75.7514 16.3983C75.7349 16.4036 75.6677 16.9957 75.6481 17.0365C75.5247 17.3013 75.5706 16.856 75.4484 16.8446C75.2252 16.8237 75.0502 16.7309 74.8504 16.9502C74.7923 17.0148 74.71 17.3942 74.5078 17.1684C74.4813 17.1388 74.4457 16.9578 74.4287 16.951C74.1238 16.843 74.2596 17.4057 74.1591 17.6335C74.0584 17.8613 73.73 17.5326 73.6548 17.4329C73.4589 17.1754 73.7172 17.2857 73.7167 17.2556C73.7088 16.8987 73.5558 16.9994 73.4204 17.0035C73.262 16.4583 73.0911 16.5369 73.2806 17.01C73.3016 17.0616 73.3883 16.9849 73.4204 17.0035C73.4451 17.5717 73.2657 17.6909 72.9199 17.242C72.7579 17.0316 72.7842 16.7316 72.5004 16.911C72.3716 16.9923 72.5221 17.3571 72.4245 17.4919C72.2013 17.7994 71.7436 17.5398 71.4659 17.6696C71.3651 17.7168 71.521 17.8978 71.454 17.9372C71.2762 18.0423 71.0672 17.9299 70.8945 18.0586C70.879 18.0705 70.9769 18.2767 70.9176 18.2947C70.4691 18.4356 70.0377 18.3973 69.5619 18.5143C69.332 18.5709 68.9522 18.7949 68.7084 18.8313C68.2861 18.8956 67.6991 18.709 67.3666 18.8751C67.1496 18.9826 67.2551 19.1868 67.1944 19.3597C67.0775 19.6946 66.611 19.2666 66.5455 19.1986C66.5435 19.1963 66.728 19.0949 66.5942 19.0103C66.4739 18.7938 66.5475 19.197 66.5455 19.1986C66.5028 19.1548 66.0956 19.2059 66.0279 19.2673C65.991 19.3008 66.0672 19.5004 66.047 19.514C65.5662 19.8322 65.051 20.0188 64.4914 20.0588C64.4809 20.057 64.4366 19.8234 64.4127 19.8222C64.0769 19.7987 63.9501 20.1305 63.7371 20.3625C63.5241 20.5945 63.3073 20.5901 63.0556 20.2337C62.8755 20.3324 62.5546 20.2282 62.3685 20.1628C62.1825 20.0973 62.2741 20.5507 62.2624 20.5631C61.8977 20.9575 61.5801 20.7654 61.1169 20.8408C60.8964 20.8758 60.4857 21.0494 60.2649 21.1577C60.0906 21.244 59.9529 21.1673 59.8001 21.2776C59.7794 21.2924 59.8533 21.4859 59.8483 21.4953C59.7194 21.782 59.6865 21.2715 59.6253 21.1945C59.4029 20.914 59.2724 20.7678 59.0675 20.9784C59.0202 21.0267 59.0356 21.7699 58.9439 21.8369C58.8245 21.9227 58.8106 21.6585 58.6872 21.7547C58.6765 21.7627 58.7185 21.9173 58.631 21.9322C58.2254 22.0038 57.7685 22.0238 57.3588 22.1446C57.3027 22.1605 57.4377 22.3882 57.3577 22.4152C56.982 22.5418 56.5598 22.6395 56.1573 22.6192C56.0581 22.6134 56.0718 22.4265 56.0389 22.3804C55.8377 22.1019 55.7785 22.5959 55.7521 22.6118C55.1237 23.0017 54.4973 22.7276 53.8501 23.0986C53.8151 23.1196 53.646 23.676 53.4106 23.2956C53.3947 23.2703 53.1583 22.8799 53.118 23.1982C53.1155 23.2181 53.2512 23.4155 53.1054 23.429C52.9597 23.4424 52.7713 23.6452 52.5179 23.4548C52.4378 23.395 52.1864 23.0095 52.0901 23.3922C52.0843 23.4187 51.9971 24.2509 51.7634 23.7515C51.7252 23.6692 51.6009 23.1094 51.4563 23.4494C51.4289 23.5151 51.5357 23.6199 51.4461 23.7251C51.3091 23.8869 51.0495 23.7945 50.9067 24.0943C50.882 24.1472 50.8251 24.563 50.6298 24.3081C50.5993 24.2681 50.5885 24.0734 50.5186 24.0691C50.1856 24.0478 49.895 24.2538 49.55 24.2049C49.4279 24.188 49.4082 23.8738 49.2724 23.8228C49.1366 23.7718 48.8846 23.7537 48.7988 23.9214C48.7129 24.0891 48.9663 24.5334 48.7952 24.6176C48.0512 24.9836 47.201 24.9014 46.4055 25.0601C46.2875 25.0836 46.4275 25.23 46.2567 25.2769C45.6273 25.4505 44.5759 25.8886 43.9345 25.665C43.4206 25.4859 43.9178 25.1236 43.5516 25.0906C43.375 25.0754 43.3408 25.6755 43.3061 25.703C42.9688 25.9779 42.6404 25.7994 42.3154 25.9625C42.2483 25.9962 42.3753 26.2036 42.3175 26.2299C42.1208 26.3215 41.878 26.2762 41.6852 26.3448C41.5988 26.3761 41.6589 26.5439 41.574 26.5514C41.3714 26.5712 41.1805 26.5428 40.9493 26.43C40.9283 26.4197 40.9907 26.1761 40.8444 26.2049C40.6077 26.252 40.2773 26.1667 40.0504 26.3993C39.9832 26.469 40.08 26.8628 39.8396 26.6349C39.7892 26.5874 39.7151 26.1038 39.6191 26.5623C39.6028 26.6386 39.4073 27.2739 39.1525 26.9613C39.0854 26.879 38.8763 26.521 38.7959 26.6061C38.7853 26.6191 38.8911 26.817 38.8169 26.8577C38.5544 26.9979 38.2552 27.05 37.9843 27.1893C37.9121 27.2269 38.0821 27.4162 37.9727 27.4653C37.6719 27.6006 37.2646 27.645 36.9393 27.6549C36.8193 27.6581 36.8518 27.4572 36.8385 27.4396C36.6242 27.1531 36.6556 27.6054 36.618 27.6418C36.3822 27.8625 36.1218 27.7125 35.8827 27.8306C35.8166 27.8626 35.9185 28.0561 35.9093 28.0781C35.811 28.2943 35.8241 27.8968 35.7225 27.8792C35.4378 27.8286 35.1574 27.9175 34.906 28.0095C34.8136 28.0436 34.981 28.2555 34.8975 28.2834C34.4042 28.4527 33.8747 28.563 33.3496 28.5563C33.2506 28.5546 33.262 28.3557 33.232 28.3186C33.0243 28.0583 32.9314 28.509 32.8963 28.5586C32.7368 28.785 32.6162 28.6424 32.4439 28.7185C31.6027 29.0935 30.4893 29.2619 29.6421 29.4065C28.5383 29.596 27.6542 29.6344 26.634 29.9423C26.5691 29.9616 26.6975 30.1897 26.6424 30.2095C25.9276 30.4541 25.1848 30.5412 24.4715 30.7979C24.4128 30.8185 24.5584 31.0286 24.4662 31.0695C24.2776 31.1551 24.0242 31.2061 23.8056 31.1828C23.6991 31.1719 23.7791 30.9395 23.6729 30.9325C23.4256 30.9159 23.1766 30.9617 22.9515 31.0585C22.8558 31.1003 23.0668 31.2994 22.9378 31.3351C22.06 31.5834 21.2025 31.8451 20.2312 31.7648C20.1646 31.7592 19.9882 31.2904 19.8815 31.4161C19.9058 31.5525 19.9464 31.7098 19.9785 31.854C18.7116 32.2584 17.3956 32.415 16.0989 32.7172C16.0442 32.73 16.2033 32.9618 16.0978 32.9879C15.4873 33.1391 14.9134 33.3605 14.2253 33.2649C14.1572 33.2558 14.0745 32.798 13.9095 32.9124C13.8805 32.933 13.6212 33.0628 13.5751 33.1785C13.5692 33.1956 13.6726 33.3928 13.5857 33.4214C13.0797 33.5841 12.5287 33.6732 11.9828 33.6755C11.8946 33.6754 11.926 33.4295 11.8627 33.4275C11.414 33.4153 11.002 33.701 10.5504 33.5997C10.248 33.5311 10.2488 33.1195 10.0098 32.7753C9.97607 32.7268 9.80815 32.7604 9.74329 32.5413C9.57975 31.9904 9.50505 31.3606 9.32124 30.7758C9.28179 30.6498 9.09479 30.8439 9.1477 30.5017C9.15163 30.4787 9.28651 30.3353 9.29951 30.2205C9.30869 30.1411 9.20171 29.9286 9.23445 29.8216C9.2672 29.7147 9.37706 29.8876 9.44272 29.755C9.50799 29.621 9.40183 29.3754 9.58048 29.2976ZM61.5316 19.8716C61.3296 19.694 61.5081 20.4871 61.6196 20.2581C61.6247 20.2461 61.5419 19.8802 61.5316 19.8716ZM79.3276 15.213C79.0466 14.9146 79.0447 15.4589 79.2488 15.6926C79.4529 15.926 79.4131 15.3033 79.3276 15.213ZM81.2606 14.4513C80.9659 14.2347 81.2144 15.3604 81.3981 15.0734C81.4089 15.057 81.2779 14.4639 81.2606 14.4513ZM10.6419 32.4992C10.6372 32.4893 10.5155 32.5094 10.5153 32.5205C10.5155 32.7867 10.7589 32.7463 10.6419 32.4992ZM83.1726 13.6711C83.0639 13.5379 82.9059 13.7638 83.041 13.9294C83.1497 14.0626 83.3079 13.8367 83.1726 13.6711ZM53.6315 20.986C53.6262 20.9749 53.5381 20.986 53.5567 21.0519C53.6168 21.2641 53.7204 21.1736 53.6315 20.986ZM86.5383 12.8014C86.0299 12.8859 85.4935 12.0403 86.062 12.0065C86.1649 12.0004 85.9252 12.3545 86.0713 12.4058C86.3385 12.4992 86.3429 11.8814 86.6552 12.1324C86.7119 12.1785 86.5678 12.7986 86.5377 12.8029C86.5379 12.8024 86.5381 12.8019 86.5383 12.8014ZM61.2062 18.9473C61.2006 18.9376 61.0798 18.9578 61.0796 18.9689C61.0792 19.2352 61.3225 19.1946 61.2062 18.9473ZM48.5231 21.7669C48.5109 21.7464 48.2312 21.7954 48.2274 21.8181C48.1883 22.2634 48.754 22.1654 48.5231 21.7669ZM69.0237 16.3454C69.0888 16.0611 69.2356 15.9922 69.4188 16.2819C69.2863 16.2977 69.1566 16.3281 69.0237 16.3454ZM55.7717 9.64992C55.8547 9.6892 55.8003 9.78221 55.714 9.86432C55.6873 9.88997 55.5454 9.9165 55.5207 9.9358C55.4725 9.97351 55.5466 9.97838 55.488 10.0185C55.4679 10.0319 55.2443 10.0784 55.2283 10.0912C55.142 10.161 55.2092 10.1893 55.1738 10.2468C54.999 10.5303 54.9721 10.7721 54.9292 11.025C54.9152 11.1083 54.7378 11.2504 54.8452 11.3055C54.8579 11.3119 55.0506 11.2571 55.0671 11.2548C55.3188 11.2195 54.9247 11.3101 54.8772 11.341C54.6894 11.4631 54.6913 11.5454 54.7833 11.5936C54.823 11.6139 55.2011 11.4872 54.9921 11.571C54.978 11.5767 54.7701 11.6219 54.7501 11.6353C54.7052 11.6657 54.7506 11.6901 54.7378 11.708C54.7121 11.7429 54.7153 11.7467 54.7193 11.7725C54.723 11.8081 54.631 11.875 54.6871 11.9C54.6997 11.9052 54.9082 11.841 54.9474 11.8445C54.9865 11.8479 54.977 11.8857 54.9301 11.9095C54.8831 11.9334 54.7158 11.9709 54.6783 11.9825C54.3612 12.0805 54.8159 12.0058 54.8281 12.008C55.0385 12.0505 54.8048 12.1923 54.827 12.2767C54.8445 12.3407 54.9456 12.3881 54.9497 12.4522C54.9537 12.5287 54.8549 12.6196 54.8926 12.6853C54.8964 12.6923 55.1425 12.6204 55.1476 12.6288C55.2011 12.7184 55.1985 12.8215 55.0554 12.9607C55.0408 12.9747 54.8196 13.0177 54.792 13.035C54.6278 13.1397 54.2211 13.3429 55.1795 13.1366C55.1526 13.1861 55.1267 13.2445 54.9445 13.3291C54.8272 13.3835 54.5839 13.4215 54.6925 13.4241C54.7167 13.4248 54.9226 13.3635 54.9432 13.3685C55.0296 13.3896 54.9733 13.451 55.0909 13.4637C55.1154 13.4661 55.3012 13.4165 55.3354 13.4103C55.6122 13.3605 55.171 13.5071 55.1401 13.5224C54.9102 13.6379 55.016 13.6527 55.0227 13.7041C55.0242 13.7161 55.2711 13.6387 55.2815 13.6479C55.3321 13.6966 55.3258 13.7619 55.2291 13.8468C55.207 13.8658 54.9907 13.9085 54.9693 13.9203C54.8771 13.972 55.2815 13.8754 55.2009 13.923C55.1844 13.9329 55.0011 13.9763 54.9813 13.9824C54.6704 14.0778 55.1198 13.9776 55.1306 13.9791C55.2779 13.9947 54.8203 14.1449 54.8985 14.1763C54.9083 14.1799 55.1361 14.1082 55.1495 14.122C55.2407 14.2136 55.2063 14.3437 55.0486 14.4975C55.0244 14.5213 54.8479 14.5536 54.8267 14.5601C54.4968 14.6621 54.9475 14.5592 54.9657 14.5603C55.098 14.5721 54.7325 14.7075 55.2734 14.6008C55.1342 14.8287 55.4796 14.9324 55.0472 15.2332C55.0423 15.2369 54.8206 15.289 54.8117 15.2961C54.7017 15.3823 55.0419 15.2846 55.4705 15.2142C55.5781 15.1965 55.0789 15.3531 55.0424 15.365C54.9079 15.4087 54.5774 15.4829 54.5516 15.4926C54.35 15.5703 55.4343 15.2902 55.4432 15.3236C55.4416 15.3251 55.2407 15.3715 55.2216 15.3794C55.1615 15.4039 55.243 15.3924 55.1764 15.4184C55.0223 15.4784 54.4967 15.6195 54.8112 15.5713C54.852 15.565 55.4662 15.4026 55.4447 15.4399C55.4356 15.4549 55.4596 15.5049 55.4234 15.5298C55.3873 15.5547 55.1864 15.595 55.178 15.5983C54.9258 15.7047 54.8132 15.7173 54.4299 15.836C54.048 15.9543 54.9695 15.7141 55.0746 15.696C55.1794 15.678 54.9703 15.7622 54.8969 15.7885C54.8234 15.8148 54.6951 15.838 54.6541 15.8552C54.3865 15.9682 55.1169 15.7572 55.2669 15.7338C55.6221 15.6784 54.9442 15.878 54.8848 15.9251C54.8687 15.9378 55.0229 15.8916 55.0393 15.8951C55.1023 15.9096 54.8931 15.9811 55.0972 15.9639C55.1305 15.9611 55.5486 15.8828 55.251 15.9767C55.2081 15.9902 55.0358 16.0267 55.0007 16.0486C54.948 16.0814 54.9191 16.1238 54.9811 16.1289C55.0269 16.1326 55.3037 16.0445 55.2211 16.085C55.1841 16.103 55.0159 16.1298 54.9603 16.1601C54.9046 16.1904 54.9217 16.2272 54.9311 16.2405C54.9406 16.2537 55.1518 16.1915 55.1664 16.189C55.2505 16.1753 55.3605 16.1773 55.3609 16.1799C55.4189 16.299 55.089 16.5063 55.2391 16.5984C55.2505 16.6057 55.4737 16.5422 55.4778 16.5427C55.5803 16.5516 54.9761 16.6777 54.7818 16.7515C55.2372 16.6322 55.158 16.6668 55.2139 16.6772C55.2413 16.6821 55.4163 16.6311 55.4347 16.6276C55.7072 16.5759 55.3636 16.6755 55.2935 16.6965C55.0355 16.7738 55.3466 16.7074 55.1742 16.7592C55.0031 16.8106 54.7423 16.8587 54.7512 16.8801C54.9161 16.8448 55.3386 16.7197 55.4121 16.719C55.6899 16.7161 55.3853 16.92 55.3635 16.9801C55.3417 17.04 55.3761 17.0488 55.3246 17.0935C55.2316 17.1744 55.5432 17.0742 55.6966 17.0707C55.85 17.0673 55.0669 17.2492 54.9006 17.2966C54.7344 17.3439 54.9081 17.3052 54.8175 17.3345C54.727 17.3638 54.6099 17.38 54.5789 17.4026C54.5479 17.4252 54.8553 17.3871 55.0316 17.3474C55.4052 17.2634 55.7902 17.1474 55.6627 17.2187C55.6551 17.2228 55.4486 17.2681 55.4299 17.2814C55.2884 17.3853 55.2955 17.454 55.1722 17.5532C55.155 17.5669 54.9251 17.617 54.9125 17.6257C54.7802 17.7158 55.1596 17.5991 55.5938 17.5197C55.0242 17.6576 54.6807 17.7621 54.6876 17.8032C54.6916 17.828 54.9386 17.7608 55.1174 17.732C55.1713 17.7232 55.0053 17.7837 55.1228 17.7571C55.5068 17.6704 55.9296 17.5457 55.7702 17.6304C55.7626 17.6343 55.5523 17.6816 55.5413 17.6911C55.4689 17.7529 55.869 17.6563 55.9285 17.688C55.9752 17.7129 55.7476 17.8361 55.718 17.8854C55.0792 18.047 55.2348 18.0469 55.679 17.95C55.6674 17.98 55.6993 18.0012 55.6447 18.0413C55.6261 18.0551 55.4398 18.0966 55.4201 18.1027C55.1109 18.1988 55.5421 18.1009 55.5603 18.1022C55.7387 18.1203 55.4264 18.2514 55.7582 18.2276C55.7701 18.2267 56.2145 18.1172 55.8945 18.2148C55.8724 18.2214 55.6658 18.254 55.657 18.2847C55.6482 18.3155 55.4232 18.4264 55.6382 18.4113C55.69 18.4077 56.0559 18.3389 55.7792 18.4287C55.7416 18.4408 55.6137 18.4705 55.5438 18.4921C55.3211 18.5608 55.771 18.4529 55.3935 18.5632C55.016 18.6734 54.7378 18.7737 55.0101 18.7443C55.0181 18.7436 55.3757 18.6621 55.3731 18.6753C55.3686 18.6965 55.3014 18.742 55.3087 18.7611C55.3123 18.7702 55.5314 18.708 55.5359 18.7086C55.6756 18.7404 55.4904 18.8355 55.4222 18.925C55.4093 18.9415 55.7193 18.9006 55.4875 18.9852C55.2338 19.0778 54.1435 19.3262 54.4171 19.3213C54.5265 19.3195 55.9088 19.0009 55.2079 19.226C55.4061 19.2665 55.0617 19.4381 55.3354 19.4596C55.3476 19.4606 55.7343 19.3752 55.7313 19.3856C55.7263 19.4011 55.5488 19.4541 55.5395 19.4667C55.4957 19.5206 55.6584 19.5184 55.6444 19.5632C55.6395 19.5801 55.4528 19.6221 55.4469 19.6423C55.4412 19.6624 55.6883 19.612 55.5764 19.6657C55.4911 19.7065 54.9967 19.8514 54.9446 19.89C55.437 19.7657 55.431 19.7847 55.5683 19.7807C55.595 19.7799 55.7648 19.7303 55.7862 19.7277C55.8772 19.716 55.7378 19.762 55.8365 19.7478C55.8602 19.7444 56.0283 19.7018 56.0572 19.6966C56.3091 19.6509 55.9383 19.7755 55.8737 19.7972C55.6284 19.8795 55.8493 19.8326 55.7545 19.8721C55.6597 19.9114 55.5312 19.9213 55.4757 19.9532C55.361 20.0194 55.3995 20.0571 55.4007 20.0944C55.4023 20.109 55.6242 20.0423 55.6296 20.0431C55.6939 20.0577 55.4627 20.1478 55.9138 20.0503C54.7633 20.3644 56.0303 20.0393 55.8096 20.1398C55.7917 20.1478 55.2463 20.291 55.1629 20.2988C55.0795 20.3066 55.2455 20.2441 55.116 20.2584C55.0856 20.2617 54.5675 20.3683 54.5357 20.373C54.2868 20.4093 55.1025 20.198 55.147 20.1853C55.6272 20.047 55.0682 20.1584 55.0281 20.1604C54.8446 20.17 54.9519 20.1112 54.8198 20.1137C54.7344 20.1151 54.199 20.2493 54.2116 20.2302C54.253 20.1666 54.9948 19.9595 54.3359 20.0771C54.1953 20.1022 53.6133 20.2609 54.0638 20.1079C54.0922 20.0983 54.5059 19.9645 54.236 20.0167C54.202 20.0233 54.0316 20.0667 54.0166 20.0678C53.9197 20.0742 54.0525 20.0282 53.9827 20.0261C53.913 20.0239 53.8104 20.0261 53.8627 19.99C53.894 19.9684 54.2072 19.8711 54.2834 19.8452C54.5029 19.7709 54.131 19.8456 54.3994 19.7659C54.6691 19.6857 55.0883 19.6017 55.2571 19.5284C54.8142 19.64 54.3592 19.7531 53.9136 19.8646C53.9133 19.7983 54.0409 19.7004 54.0054 19.6428C54.0005 19.6357 53.7646 19.7042 53.7533 19.6982C53.7065 19.6727 53.8684 19.5989 53.7915 19.5797C53.7312 19.565 53.4713 19.5982 53.4004 19.5849C53.9023 19.438 53.7192 19.438 53.7574 19.3945C53.7706 19.3793 53.9061 19.3456 53.9482 19.3265C54.1038 19.2551 53.6598 19.3829 53.5873 19.3927C53.2777 19.434 54.2901 19.1733 54.2545 19.1383C54.253 19.1363 53.7061 19.2469 53.6715 19.2517C53.4462 19.284 53.8585 19.2 53.8947 19.1752C53.9608 19.1298 54.085 19.0784 53.9188 19.0871C53.8696 19.0899 53.5274 19.1535 53.7833 19.0695C53.8167 19.0584 53.9956 19.0143 54.0056 19.0098C54.1711 18.9313 53.61 19.0731 53.4151 19.1019C53.2202 19.1307 53.5997 19.002 53.7098 18.9675C53.9944 18.8781 53.8363 18.9484 53.8648 18.9421C54.2045 18.8666 54.1409 18.8593 54.1651 18.8353C54.7145 18.693 54.6755 18.6779 54.188 18.8109C54.1348 18.8255 54.1894 18.8255 54.1651 18.8353C53.6218 18.9578 53.5461 18.9496 54.0431 18.7928C54.276 18.7193 54.5548 18.6619 54.4437 18.647C54.3935 18.6401 54.0166 18.7436 53.9093 18.7536C53.6643 18.7764 54.0052 18.6383 53.9399 18.6142C53.9161 18.6055 53.7123 18.6717 53.6889 18.6676C53.6263 18.6567 53.7761 18.5949 53.69 18.5899C53.682 18.5895 53.4664 18.6503 53.4616 18.6432C53.4213 18.59 53.5471 18.5027 53.5351 18.4395C53.5292 18.409 53.3959 18.3856 53.412 18.3484C53.4387 18.2841 53.7373 18.1374 53.6489 18.1108C53.5922 18.0932 53.3769 18.155 53.2257 18.1797C52.9328 18.2277 53.435 18.0531 53.513 18.027C53.5156 18.0261 53.5733 18.039 53.6812 17.9968C53.9113 17.9298 53.5141 18.027 53.513 18.027C53.5633 18.01 53.5995 17.9458 53.5554 17.9461C53.5313 17.9462 53.3264 18.0017 53.3178 18.0008C53.1162 17.9784 53.0463 17.9224 53.1246 17.8279C53.1284 17.8256 53.3589 17.7689 53.3651 17.7643C53.457 17.6977 53.169 17.7432 52.9935 17.7522C52.818 17.7612 52.8671 17.7204 53.2569 17.6002C53.2008 17.5876 53.3661 17.5069 53.4668 17.4591C53.5674 17.4113 53.1189 17.5223 53.1096 17.5227C52.8118 17.5375 53.0596 17.4393 53.0844 17.3698C53.0969 17.3365 53.0177 17.297 52.961 17.2789C52.9154 17.2648 53.0167 17.2235 52.9439 17.2183C52.9342 17.2176 52.7356 17.2714 52.7277 17.2724C52.4829 17.3082 52.9732 17.1962 53.059 17.1689C53.3708 17.0698 53.5364 17.0155 53.3794 17.0215C53.3434 17.0229 52.6363 17.18 52.5919 17.177C52.5354 17.1729 52.7886 17.1155 52.723 17.1127C52.7176 17.1125 52.5626 17.1522 52.5665 17.1393C52.583 17.0795 52.6588 16.9997 52.6295 16.9494C52.6261 16.9424 52.3824 17.0145 52.3734 17.0054C52.3314 16.9626 52.3265 16.9053 52.4293 16.8271C52.4554 16.8076 52.6296 16.7713 52.6801 16.7557C52.9856 16.6609 52.53 16.7526 52.5205 16.751C52.2815 16.7164 52.6712 16.5444 52.4542 16.5024C52.4415 16.5003 51.9496 16.5847 52.3588 16.4625C52.386 16.4543 52.8049 16.3298 52.5118 16.3885C52.4934 16.3921 52.2783 16.4581 52.2958 16.434C52.3133 16.4101 52.1603 16.4175 52.3932 16.3314C52.4666 16.3042 52.8839 16.178 52.5414 16.2398C52.5175 16.2442 51.7473 16.4009 52.2689 16.2542C52.3548 16.2301 52.9108 16.0911 52.6188 16.1351C52.5622 16.1437 52.4408 16.1851 52.3598 16.1904C52.235 16.1988 52.3763 16.1319 52.122 16.1679C52.077 16.1743 51.6949 16.2502 51.977 16.1614C52.0212 16.1475 52.2078 16.1051 52.2264 16.0913C52.3157 16.0257 52.1809 16.015 52.2988 15.9414C52.3402 15.9155 52.6419 15.8466 52.7184 15.8111C52.7949 15.7755 52.8644 15.7254 52.7234 15.7444C52.5823 15.7635 52.1089 15.9023 52.0646 15.8883C51.8724 15.8275 52.1267 15.6541 52.1415 15.5408C52.1438 15.524 51.976 15.5801 51.967 15.5585C51.9332 15.4788 51.7365 15.3764 52.0815 15.2121C52.3578 15.0804 52.5978 15.0966 52.705 15.0224C52.7561 14.9868 52.1947 15.1051 52.176 15.1044C51.9856 15.0995 52.2228 15.002 52.1358 14.9761C52.1178 14.9708 51.8949 15.0372 51.8821 15.032C51.8361 15.0149 51.9294 14.9608 51.9044 14.9396C51.8927 14.9303 51.7213 14.9761 51.7319 14.9621C51.7551 14.9289 51.8217 14.8879 51.9765 14.822C51.9906 14.816 52.2084 14.7769 52.2116 14.756C52.216 14.7223 52.3654 14.6438 52.1922 14.6504C52.1402 14.6525 51.7471 14.752 52.0128 14.6605C52.0682 14.6414 52.5417 14.5274 52.1273 14.6049C52.0584 14.6178 51.4972 14.7137 51.8463 14.6019C51.9381 14.5725 52.3206 14.4598 52.2567 14.4627C52.2466 14.4634 52.0372 14.5239 52.014 14.5188C51.9358 14.4996 51.9485 14.4554 51.8728 14.4345C51.8522 14.429 51.6375 14.4996 51.6138 14.4896C51.548 14.4624 51.5906 14.3968 51.6487 14.339C51.6705 14.3176 51.8541 14.2819 51.8735 14.2758C52.1894 14.1769 51.7544 14.2766 51.7277 14.2772C51.5677 14.2797 51.7638 14.2007 51.7016 14.1812C51.685 14.1757 51.4805 14.2346 51.4617 14.2375C51.2773 14.2643 51.6511 14.1842 51.6888 14.1619C51.7959 14.099 51.7698 14.0659 51.7349 14.0388C51.7217 14.0289 51.4862 14.1036 51.4772 14.0941C51.4192 14.0385 51.4247 13.9641 51.54 13.8661C51.5622 13.8476 51.7482 13.8084 51.7896 13.7952C52.0793 13.7029 51.6716 13.7794 51.6319 13.7833C51.4506 13.8009 51.6107 13.7492 51.5743 13.7333C51.3938 13.6565 51.4654 13.4867 51.5043 13.361C51.5539 13.1974 51.701 13.0428 51.6212 12.9191C51.6163 12.9112 51.3737 12.9822 51.3664 12.9761C51.283 12.8955 51.3547 12.777 51.2596 12.6991C51.2523 12.6926 51.023 12.763 51.0034 12.7546C50.9615 12.7376 50.9658 12.7016 51.0333 12.6566C51.0657 12.6348 51.2692 12.6012 51.2979 12.5803C51.3649 12.5313 51.3733 12.4951 51.3283 12.4738C51.3086 12.4649 51.0762 12.545 51.0692 12.5287C51.0161 12.4188 50.9463 12.3155 51.224 12.1202C51.243 12.1068 51.7237 11.9771 51.6269 11.9836C51.4926 12.0163 51.3351 12.0565 51.1919 12.0923C51.0719 11.9433 51.1967 11.7339 51.1796 11.5582C51.1788 11.5508 50.9263 11.6281 50.9235 11.6142C50.9069 11.5333 50.8164 11.4738 51.0497 11.3274C51.0725 11.313 51.5233 11.2028 51.4492 11.1962C51.4357 11.1951 51.3666 11.1744 51.2666 11.1899C51.2515 11.1924 51.0433 11.2524 51.0342 11.2423C50.9852 11.183 51.0152 11.1002 51.1263 11.0003C51.1447 10.9841 51.3711 10.9388 51.3862 10.9268C51.4909 10.8417 51.3058 10.8253 51.4954 10.7213C51.6231 10.6514 52.0129 10.5661 52.3885 10.4507C52.4415 10.4345 52.4445 10.4106 52.6655 10.3532C53.2213 10.2087 53.8333 10.0643 54.4254 9.90909C54.5529 9.87569 54.4079 9.88159 54.721 9.82029C54.742 9.81624 54.8498 9.81127 54.9559 9.78982C55.0292 9.77502 55.2526 9.71126 55.3472 9.69507C55.4417 9.67889 55.2551 9.73498 55.3671 9.71952C55.4805 9.70371 55.7352 9.63321 55.7717 9.64992ZM53.9163 17.2448C54.1264 17.1708 53.3382 17.3683 53.5319 17.3412C53.5422 17.3397 53.906 17.2485 53.9163 17.2448ZM54.635 19.5497C54.9759 19.4361 54.4607 19.5487 54.197 19.6348C53.9336 19.7207 54.5316 19.5842 54.635 19.5497ZM54.9551 19.747C55.2215 19.6478 54.1036 19.9272 54.3374 19.9014C54.3506 19.9 54.9397 19.7528 54.9551 19.747ZM52.5188 10.5097C52.5292 10.5067 52.5354 10.4885 52.5249 10.4908C52.2727 10.5461 52.2605 10.5824 52.5188 10.5097ZM55.2973 19.9366C55.446 19.889 55.2649 19.9068 55.0799 19.966C54.9312 20.0136 55.1123 19.9958 55.2973 19.9366ZM54.5006 16.0237C54.5122 16.0204 54.5199 16.0065 54.4537 16.0236C54.2402 16.0787 54.3045 16.0789 54.5006 16.0237ZM55.4224 20.3748C55.4479 20.2989 56.3603 20.0248 56.2743 20.1223C56.2587 20.1399 55.973 20.1694 55.894 20.2069C55.7501 20.2754 56.3344 20.148 56.0318 20.2575C55.9764 20.2775 55.4189 20.3797 55.4211 20.3751C55.4216 20.375 55.422 20.3749 55.4224 20.3748ZM54.8594 16.9931C54.8697 16.9901 54.8756 16.9721 54.8652 16.9743C54.6131 17.0295 54.601 17.0658 54.8594 16.9931ZM54.8213 15.2465C54.8433 15.24 54.8549 15.1988 54.8342 15.2028C54.4206 15.288 54.3959 15.3717 54.8213 15.2465ZM55.7011 17.8903C55.9569 17.8433 55.9917 17.856 55.6793 17.9498C55.6918 17.9287 55.6899 17.9112 55.7011 17.8903ZM40.5884 13.5116C40.6714 13.5509 40.617 13.6439 40.5307 13.726C40.504 13.7516 40.3621 13.7782 40.3374 13.7975C40.2892 13.8352 40.3633 13.8401 40.3047 13.8801C40.2846 13.8936 40.061 13.9401 40.045 13.9529C39.9587 14.0227 40.0259 14.051 39.9905 14.1085C39.8157 14.392 39.7889 14.6338 39.7459 14.8866C39.732 14.97 39.5545 15.1121 39.6619 15.1672C39.6747 15.1736 39.8673 15.1188 39.8838 15.1165C40.1355 15.0812 39.7415 15.1718 39.6939 15.2027C39.5061 15.3248 39.508 15.407 39.6 15.4552C39.6397 15.4756 40.0179 15.3489 39.8089 15.4327C39.7947 15.4384 39.5868 15.4836 39.5669 15.497C39.5219 15.5274 39.5674 15.5518 39.5545 15.5697C39.5288 15.6045 39.532 15.6084 39.536 15.6341C39.5398 15.6698 39.4477 15.7367 39.5038 15.7617C39.5164 15.7669 39.725 15.7027 39.7641 15.7061C39.8032 15.7096 39.7937 15.7473 39.7468 15.7712C39.6998 15.7951 39.5326 15.8326 39.495 15.8442C39.178 15.9422 39.6326 15.8675 39.6449 15.8697C39.8553 15.9122 39.6215 16.0539 39.6438 16.1384C39.6612 16.2024 39.7623 16.2498 39.7664 16.3139C39.7704 16.3904 39.6717 16.4812 39.7093 16.547C39.7131 16.554 39.9592 16.4821 39.9643 16.4905C40.0178 16.5801 40.0152 16.6832 39.8721 16.8223C39.8575 16.8363 39.6363 16.8793 39.6087 16.8966C39.4445 17.0014 39.0379 17.2046 39.9962 16.9982C39.9694 17.0478 39.9434 17.1062 39.7612 17.1907C39.6439 17.2452 39.4006 17.2831 39.5092 17.2858C39.5334 17.2864 39.7393 17.2252 39.7599 17.2302C39.8464 17.2513 39.79 17.3127 39.9077 17.3254C39.9321 17.3278 40.1179 17.2782 40.1521 17.272C40.4289 17.2222 39.9877 17.3688 39.9568 17.3841C39.7269 17.4996 39.8327 17.5144 39.8395 17.5658C39.8409 17.5777 40.0878 17.5004 40.0982 17.5096C40.1488 17.5583 40.1425 17.6236 40.0458 17.7084C40.0237 17.7275 39.8075 17.7701 39.786 17.782C39.6939 17.8337 40.0982 17.7371 40.0176 17.7847C40.0012 17.7946 39.8178 17.838 39.798 17.8441C39.4871 17.9395 39.9365 17.8393 39.9474 17.8407C40.0946 17.8563 39.637 18.0066 39.7152 18.038C39.725 18.0416 39.9528 17.9698 39.9663 17.9836C40.0575 18.0752 40.023 18.2054 39.8653 18.3591C39.8411 18.383 39.6646 18.4152 39.6434 18.4217C39.3135 18.5238 39.7642 18.4209 39.7824 18.422C39.9147 18.4338 39.5492 18.5692 40.0901 18.4625C39.9509 18.6904 40.2963 18.7941 39.8639 19.0949C39.859 19.0986 39.6373 19.1506 39.6284 19.1577C39.5185 19.244 39.8586 19.1463 40.2872 19.0759C40.3948 19.0582 39.8956 19.2147 39.8591 19.2266C39.7246 19.2704 39.3941 19.3446 39.3684 19.3543C39.1667 19.432 40.251 19.1519 40.2599 19.1853C40.2584 19.1868 40.0575 19.2332 40.0383 19.241C39.9782 19.2656 40.0598 19.2541 39.9932 19.2801C39.839 19.3401 39.3134 19.4812 39.6279 19.433C39.6687 19.4266 40.2829 19.2643 40.2614 19.3015C40.2523 19.3165 40.2763 19.3666 40.2402 19.3915C40.2041 19.4164 40.0031 19.4567 39.9948 19.4599C39.7425 19.5664 39.63 19.579 39.2466 19.6977C38.8648 19.816 39.7862 19.5758 39.8913 19.5577C39.9961 19.5397 39.787 19.6239 39.7136 19.6502C39.6402 19.6765 39.5118 19.6996 39.4708 19.7168C39.2033 19.8298 39.9336 19.6189 40.0837 19.5955C40.4388 19.5401 39.7609 19.7397 39.7015 19.7868C39.6854 19.7995 39.8396 19.7532 39.856 19.7568C39.919 19.7712 39.7098 19.8428 39.9139 19.8256C39.9472 19.8228 40.3654 19.7445 40.0677 19.8383C40.0248 19.8518 39.8525 19.8883 39.8174 19.9103C39.7647 19.9431 39.7358 19.9854 39.7978 19.9905C39.8436 19.9943 40.1205 19.9062 40.0378 19.9466C40.0009 19.9646 39.8326 19.9915 39.777 20.0218C39.7213 20.0521 39.7384 20.0889 39.7478 20.1022C39.7574 20.1154 39.9685 20.0532 39.9831 20.0507C40.0672 20.037 40.1772 20.039 40.1776 20.0416C40.2356 20.1606 39.9057 20.368 40.0558 20.4601C40.0673 20.4674 40.2904 20.4038 40.2945 20.4044C40.397 20.4133 39.7928 20.5394 39.5986 20.6132C40.0539 20.4939 39.9747 20.5284 40.0307 20.5389C40.058 20.5438 40.2331 20.4928 40.2514 20.4892C40.5239 20.4375 40.1803 20.5372 40.1102 20.5582C39.8522 20.6355 40.1633 20.5691 39.9909 20.6208C39.8198 20.6723 39.559 20.7204 39.5679 20.7418C39.7328 20.7064 40.1554 20.5814 40.2288 20.5807C40.5066 20.5778 40.202 20.7817 40.1802 20.8417C40.1585 20.9016 40.1928 20.9105 40.1413 20.9552C40.0483 21.0361 40.3599 20.9359 40.5133 20.9324C40.6667 20.929 39.8836 21.1109 39.7173 21.1583C39.5512 21.2056 39.7248 21.1669 39.6343 21.1962C39.5437 21.2254 39.4266 21.2417 39.3956 21.2643C39.3646 21.2868 39.672 21.2488 39.8483 21.2091C40.2219 21.1251 40.607 21.0091 40.4794 21.0803C40.4718 21.0845 40.2653 21.1298 40.2466 21.1431C40.1051 21.247 40.1122 21.3157 39.9889 21.4149C39.9717 21.4286 39.7418 21.4787 39.7292 21.4874C39.5969 21.5775 39.9763 21.4608 40.4106 21.3814C39.8409 21.5193 39.4975 21.6238 39.5043 21.6649C39.5083 21.6897 39.7553 21.6224 39.9341 21.5936C39.9881 21.5849 39.8221 21.6454 39.9395 21.6188C40.3235 21.5321 40.7463 21.4073 40.5869 21.4921C40.5793 21.496 40.369 21.5433 40.358 21.5528C40.2856 21.6146 40.6858 21.518 40.7453 21.5497C40.7919 21.5745 40.5643 21.6977 40.5347 21.7471C39.8959 21.9087 40.0516 21.9086 40.4957 21.8116C40.4842 21.8417 40.516 21.8629 40.4615 21.903C40.4429 21.9168 40.2565 21.9582 40.2368 21.9644C39.9276 22.0605 40.3588 21.9626 40.377 21.9638C40.5554 21.9819 40.2431 22.1131 40.5749 22.0893C40.5868 22.0884 41.0313 21.9789 40.7112 22.0765C40.6891 22.0831 40.4825 22.1157 40.4737 22.1464C40.4649 22.1772 40.2399 22.2881 40.4549 22.273C40.5067 22.2694 40.8726 22.2006 40.5959 22.2904C40.5583 22.3025 40.4304 22.3322 40.3605 22.3537C40.1378 22.4225 40.5878 22.3146 40.2102 22.4249C39.8327 22.5351 39.5545 22.6354 39.8269 22.606C39.8348 22.6053 40.1924 22.5238 40.1898 22.537C40.1853 22.5581 40.1181 22.6037 40.1254 22.6228C40.129 22.6318 40.3482 22.5697 40.3526 22.5703C40.4924 22.6021 40.3071 22.6972 40.2389 22.7866C40.226 22.8032 40.536 22.7623 40.3042 22.8469C40.0505 22.9395 38.9602 23.1879 39.2338 23.183C39.3432 23.1812 40.7256 22.8626 40.0247 23.0877C40.2228 23.1282 39.8784 23.2998 40.1521 23.3212C40.1643 23.3223 40.551 23.2369 40.5481 23.2472C40.543 23.2628 40.3656 23.3158 40.3562 23.3284C40.3124 23.3823 40.4752 23.3801 40.4612 23.4249C40.4562 23.4418 40.2695 23.4838 40.2636 23.504C40.2579 23.5241 40.505 23.4737 40.3931 23.5274C40.3078 23.5682 39.8134 23.7131 39.7613 23.7517C40.2537 23.6274 40.2478 23.6463 40.3851 23.6424C40.4117 23.6415 40.5815 23.592 40.6029 23.5893C40.6939 23.5776 40.5545 23.6237 40.6532 23.6095C40.6769 23.6061 40.845 23.5635 40.8739 23.5583C41.1258 23.5126 40.755 23.6372 40.6904 23.6589C40.4452 23.7412 40.666 23.6943 40.5712 23.7337C40.4764 23.7731 40.3479 23.783 40.2924 23.8149C40.1777 23.8811 40.2162 23.9188 40.2174 23.956C40.219 23.9706 40.4409 23.904 40.4463 23.9047C40.5106 23.9194 40.2795 24.0095 40.7305 23.912C39.5801 24.226 40.847 23.901 40.6263 24.0015C40.6084 24.0095 40.063 24.1526 39.9796 24.1605C39.8963 24.1683 40.0622 24.1057 39.9327 24.1201C39.9023 24.1234 39.3842 24.23 39.3524 24.2346C39.1036 24.271 39.9192 24.0597 39.9637 24.047C40.4439 23.9087 39.8849 24.02 39.8448 24.0221C39.6613 24.0317 39.7686 23.9729 39.6365 23.9754C39.5511 23.9768 39.0157 24.111 39.0283 24.0919C39.0698 24.0283 39.8115 23.8212 39.1526 23.9388C39.0121 23.9638 38.43 24.1225 38.8805 23.9696C38.9089 23.9599 39.3227 23.8262 39.0527 23.8784C39.0187 23.885 38.8483 23.9284 38.8334 23.9295C38.7364 23.9359 38.8692 23.8899 38.7995 23.8877C38.7297 23.8856 38.6271 23.8877 38.6794 23.8517C38.7107 23.8301 39.024 23.7328 39.1001 23.7069C39.3196 23.6326 38.9478 23.7073 39.2161 23.6276C39.4858 23.5474 39.905 23.4634 40.0739 23.3901C39.6309 23.5017 39.176 23.6148 38.7304 23.7263C38.7301 23.6599 38.8576 23.5621 38.8221 23.5045C38.8173 23.4974 38.5813 23.5659 38.57 23.5599C38.5232 23.5344 38.6851 23.4606 38.6083 23.4413C38.5479 23.4267 38.2881 23.4599 38.2171 23.4465C38.719 23.2997 38.536 23.2997 38.5742 23.2561C38.5873 23.2409 38.7228 23.2073 38.7649 23.1881C38.9206 23.1168 38.4765 23.2446 38.404 23.2543C38.0944 23.2957 39.1068 23.035 39.0712 22.9999C39.0697 22.998 38.5228 23.1085 38.4882 23.1134C38.263 23.1457 38.6752 23.0617 38.7114 23.0369C38.7775 22.9915 38.9017 22.9401 38.7355 22.9488C38.6863 22.9516 38.3441 23.0152 38.6 22.9311C38.6335 22.9201 38.8123 22.876 38.8223 22.8715C38.9879 22.793 38.4267 22.9348 38.2318 22.9636C38.0369 22.9923 38.4165 22.8637 38.5265 22.8292C38.8111 22.7397 38.653 22.8101 38.6815 22.8038C39.0213 22.7283 38.9576 22.721 38.9819 22.697C39.5312 22.5547 39.4922 22.5396 39.0047 22.6726C38.9515 22.6872 39.0061 22.6872 38.9819 22.697C38.4385 22.8195 38.3628 22.8112 38.8598 22.6545C39.0928 22.581 39.3715 22.5236 39.2604 22.5086C39.2102 22.5018 38.8333 22.6052 38.726 22.6153C38.481 22.6381 38.822 22.5 38.7566 22.4759C38.7328 22.4672 38.529 22.5334 38.5056 22.5293C38.443 22.5184 38.5929 22.4566 38.5068 22.4516C38.4987 22.4512 38.2831 22.512 38.2784 22.5048C38.238 22.4516 38.3638 22.3644 38.3518 22.3012C38.3459 22.2706 38.2126 22.2473 38.2287 22.21C38.2554 22.1458 38.554 21.9991 38.4657 21.9725C38.4089 21.9549 38.1936 22.0167 38.0424 22.0414C37.7495 22.0894 38.2517 21.9148 38.3297 21.8886C38.3323 21.8878 38.39 21.9007 38.4979 21.8585C38.728 21.7915 38.3308 21.8887 38.3297 21.8886C38.3801 21.8717 38.4162 21.8074 38.3721 21.8077C38.348 21.8079 38.1432 21.8633 38.1345 21.8624C37.9329 21.8401 37.863 21.7841 37.9413 21.6895C37.9452 21.6872 38.1756 21.6306 38.1818 21.626C38.2737 21.5593 37.9857 21.6049 37.8102 21.6139C37.6347 21.6229 37.6839 21.5821 38.0737 21.4619C38.0175 21.4493 38.1829 21.3686 38.2835 21.3208C38.3841 21.273 37.9356 21.384 37.9263 21.3844C37.6285 21.3992 37.8763 21.301 37.9011 21.2314C37.9137 21.1982 37.8345 21.1587 37.7777 21.1406C37.7322 21.1265 37.8334 21.0852 37.7606 21.08C37.7509 21.0793 37.5523 21.133 37.5444 21.1341C37.2996 21.1699 37.79 21.0579 37.8757 21.0306C38.1875 20.9315 38.3531 20.8772 38.1961 20.8832C38.1602 20.8845 37.453 21.0416 37.4086 21.0387C37.3521 21.0345 37.6053 20.9771 37.5397 20.9744C37.5344 20.9741 37.3793 21.0139 37.3833 21.0009C37.3997 20.9412 37.4755 20.8614 37.4462 20.8111C37.4428 20.8041 37.1991 20.8762 37.1901 20.8671C37.1482 20.8243 37.1433 20.767 37.246 20.6888C37.2721 20.6693 37.4463 20.633 37.4968 20.6174C37.8024 20.5226 37.3467 20.6143 37.3372 20.6127C37.0983 20.5781 37.4879 20.406 37.2709 20.3641C37.2583 20.362 36.7663 20.4464 37.1755 20.3241C37.2028 20.316 37.6216 20.1915 37.3285 20.2501C37.3102 20.2538 37.095 20.3197 37.1125 20.2957C37.13 20.2717 36.977 20.2792 37.21 20.1931C37.2833 20.1659 37.7006 20.0397 37.3581 20.1014C37.3342 20.1059 36.5641 20.2626 37.0856 20.1159C37.1715 20.0918 37.7275 19.9528 37.4355 19.9968C37.3789 20.0054 37.2575 20.0468 37.1765 20.0521C37.0517 20.0605 37.1931 19.9936 36.9388 20.0296C36.8938 20.036 36.5116 20.1119 36.7937 20.0231C36.8379 20.0091 37.0246 19.9668 37.0432 19.953C37.1325 19.8874 36.9977 19.8767 37.1156 19.8031C37.157 19.7771 37.4586 19.7083 37.5351 19.6728C37.6116 19.6372 37.6811 19.5871 37.5401 19.6061C37.399 19.6252 36.9256 19.764 36.8813 19.75C36.6891 19.6892 36.9434 19.5158 36.9582 19.4025C36.9605 19.3857 36.7927 19.4418 36.7838 19.4201C36.75 19.3405 36.5532 19.2381 36.8982 19.0737C37.1745 18.9421 37.4145 18.9583 37.5217 18.8841C37.5728 18.8485 37.0115 18.9668 36.9927 18.9661C36.8023 18.9611 37.0395 18.8637 36.9525 18.8378C36.9345 18.8325 36.7117 18.8989 36.6988 18.8937C36.6529 18.8765 36.7461 18.8225 36.7212 18.8013C36.7094 18.7919 36.538 18.8378 36.5486 18.8237C36.5719 18.7906 36.6384 18.7496 36.7932 18.6837C36.8073 18.6777 37.0251 18.6386 37.0283 18.6177C37.0328 18.5839 37.1821 18.5055 37.0089 18.512C36.9569 18.5142 36.5638 18.6137 36.8295 18.5222C36.885 18.5031 37.3584 18.3891 36.944 18.4666C36.8751 18.4794 36.314 18.5754 36.663 18.4636C36.7548 18.4342 37.1373 18.3215 37.0734 18.3243C37.0633 18.3251 36.854 18.3856 36.8307 18.3804C36.7525 18.3613 36.7652 18.3171 36.6895 18.2962C36.6689 18.2907 36.4543 18.3613 36.4305 18.3513C36.3648 18.3241 36.4073 18.2584 36.4654 18.2007C36.4872 18.1793 36.6708 18.1436 36.6902 18.1375C37.0061 18.0386 36.5711 18.1383 36.5445 18.1389C36.3844 18.1414 36.5805 18.0623 36.5183 18.0429C36.5017 18.0374 36.2972 18.0963 36.2784 18.0991C36.094 18.126 36.4678 18.0459 36.5055 18.0235C36.6126 17.9607 36.5865 17.9276 36.5516 17.9005C36.5384 17.8906 36.303 17.9653 36.2939 17.9557C36.236 17.9002 36.2414 17.8257 36.3568 17.7278C36.3789 17.7092 36.5649 17.6701 36.6063 17.6568C36.896 17.5646 36.4883 17.6411 36.4486 17.645C36.2673 17.6626 36.4274 17.6108 36.3911 17.595C36.2105 17.5181 36.2821 17.3484 36.321 17.2226C36.3707 17.059 36.5178 16.9045 36.4379 16.7808C36.4331 16.7729 36.1904 16.8438 36.1831 16.8378C36.0997 16.7572 36.1715 16.6387 36.0764 16.5608C36.069 16.5543 35.8398 16.6247 35.8201 16.6162C35.7782 16.5993 35.7825 16.5633 35.85 16.5183C35.8824 16.4964 36.086 16.4629 36.1146 16.4419C36.1816 16.393 36.19 16.3567 36.145 16.3355C36.1253 16.3265 35.8929 16.4067 35.8859 16.3903C35.8329 16.2805 35.763 16.1772 36.0407 15.9819C36.0598 15.9685 36.5405 15.8388 36.4436 15.8452C36.3094 15.878 36.1519 15.9181 36.0086 15.954C35.8886 15.805 36.0134 15.5955 35.9963 15.4199C35.9955 15.4125 35.743 15.4898 35.7402 15.4758C35.7237 15.395 35.6331 15.3354 35.8664 15.1891C35.8892 15.1747 36.34 15.0644 36.2659 15.0579C36.2524 15.0568 36.1833 15.0361 36.0833 15.0516C36.0683 15.0541 35.86 15.114 35.8509 15.104C35.8019 15.0447 35.8319 14.9619 35.943 14.862C35.9614 14.8458 36.1879 14.8005 36.2029 14.7885C36.3076 14.7034 36.1225 14.687 36.3121 14.5829C36.4399 14.5131 36.8296 14.4278 37.2052 14.3124C37.2582 14.2961 37.2612 14.2722 37.4822 14.2148C38.038 14.0704 38.65 13.926 39.2421 13.7708C39.3696 13.7374 39.2246 13.7433 39.5378 13.682C39.5587 13.6779 39.6666 13.6729 39.7726 13.6515C39.846 13.6367 40.0694 13.5729 40.1639 13.5567C40.2584 13.5406 40.0718 13.5967 40.1838 13.5812C40.2972 13.5654 40.5519 13.4949 40.5884 13.5116ZM38.733 21.1065C38.9431 21.0325 38.1549 21.2299 38.3486 21.2029C38.3589 21.2014 38.7227 21.1102 38.733 21.1065ZM39.4517 23.4114C39.7926 23.2978 39.2775 23.4104 39.0137 23.4965C38.7503 23.5824 39.3483 23.4459 39.4517 23.4114ZM39.7718 23.6087C40.0382 23.5095 38.9203 23.7889 39.1541 23.7631C39.1673 23.7617 39.7564 23.6145 39.7718 23.6087ZM37.3355 14.3713C37.3459 14.3684 37.3521 14.3502 37.3417 14.3525C37.0895 14.4078 37.0772 14.4441 37.3355 14.3713ZM40.114 23.7983C40.2627 23.7506 40.0816 23.7685 39.8967 23.8277C39.7479 23.8753 39.929 23.8575 40.114 23.7983ZM39.3173 19.8854C39.3289 19.8821 39.3367 19.8682 39.2704 19.8853C39.0569 19.9404 39.1212 19.9406 39.3173 19.8854ZM40.2392 24.2365C40.2646 24.1606 41.177 23.8864 41.091 23.9839C41.0754 24.0016 40.7898 24.031 40.7108 24.0686C40.5669 24.1371 41.1511 24.0096 40.8485 24.1192C40.7931 24.1391 40.2357 24.2414 40.2378 24.2367C40.2383 24.2367 40.2387 24.2366 40.2392 24.2365ZM39.6761 20.8548C39.6864 20.8518 39.6923 20.8338 39.6819 20.836C39.4298 20.8912 39.4177 20.9275 39.6761 20.8548ZM39.6381 19.1082C39.66 19.1017 39.6716 19.0605 39.6509 19.0645C39.2373 19.1497 39.2126 19.2334 39.6381 19.1082ZM40.5178 21.752C40.7736 21.705 40.8084 21.7177 40.496 21.8115C40.5085 21.7904 40.5067 21.7729 40.5178 21.752ZM35.4051 27.2746C35.4074 27.5132 35.2491 27.7776 35.0844 27.9653C35.0331 28.0242 34.9055 27.9483 34.8638 27.9871C34.7826 28.063 34.8246 28.169 34.7334 28.2408C34.7025 28.2644 34.4953 28.1614 34.4679 28.1876C34.3194 28.3318 34.3259 28.5123 34.2269 28.6738C33.7386 29.4691 33.4018 30.2938 33.04 31.1386C32.9209 31.4172 32.6174 31.7083 32.6148 32.0322C32.6147 32.07 32.8127 32.1068 32.8266 32.1182C33.0374 32.2945 32.6606 32.1439 32.5888 32.1962C32.3051 32.4042 32.1977 32.6979 32.1941 32.9789C32.1932 33.0986 32.6072 33.1025 32.3602 33.1492C32.3434 33.1526 32.1481 33.0636 32.1173 33.0872C32.048 33.1411 32.0454 33.2819 32.0133 33.3301C31.9505 33.4227 31.9475 33.4403 31.9162 33.5363C31.8716 33.6671 31.7232 33.794 31.7268 33.9497C31.7281 33.9831 31.949 34.0057 31.97 34.0646C31.991 34.1236 31.9349 34.2462 31.8728 34.2745C31.8106 34.3029 31.652 34.2353 31.6121 34.2317C31.2758 34.1992 31.6711 34.479 31.6763 34.5013C31.7575 34.9039 31.4178 35.1264 31.3208 35.4524C31.2477 35.7 31.2511 35.9892 31.1692 36.2211C31.0708 36.4972 30.8864 36.7009 30.8242 36.979C30.8174 37.0083 31.0729 37.0483 31.0651 37.0842C30.9818 37.4657 30.844 37.8281 30.5669 38.1497C30.5389 38.1819 30.3378 38.0693 30.2969 38.0976C30.0515 38.2723 29.5179 38.5051 30.4157 38.9218C30.3328 39.0652 30.2387 39.2412 30.0082 39.3225C29.8597 39.375 29.6509 39.2181 29.7183 39.3575C29.7332 39.3889 29.9484 39.4185 29.9553 39.4608C29.9838 39.6391 29.866 39.7892 29.926 39.9751C29.9387 40.013 30.1255 40.0597 30.156 40.0785C30.4024 40.2337 29.9209 40.2247 29.8806 40.2421C29.578 40.3761 29.6276 40.5551 29.5641 40.7454C29.5493 40.7895 29.8126 40.811 29.8072 40.8562C29.776 41.0892 29.6856 41.3133 29.5104 41.4982C29.4709 41.5391 29.2734 41.4313 29.2438 41.4477C29.1154 41.5204 29.5068 41.6625 29.3914 41.7346C29.3676 41.7499 29.1906 41.6842 29.1697 41.682C28.8409 41.6476 29.2664 41.831 29.2716 41.8491C29.347 42.0807 28.8501 42.0652 28.8597 42.27C28.8613 42.2946 29.1046 42.3131 29.0952 42.3782C29.0338 42.812 28.8395 43.2321 28.5337 43.588C28.4864 43.6434 28.3286 43.5464 28.3062 43.5441C27.9562 43.5105 28.3862 43.6856 28.3966 43.7115C28.4673 43.9117 28.0501 43.9538 28.5439 44.2236C28.1523 44.8644 28.2407 45.6457 27.5614 46.1939C27.5533 46.2011 27.34 46.12 27.3247 46.1345C27.1391 46.3085 27.4901 46.3696 27.8627 46.6334C27.9563 46.6997 27.4239 46.6565 27.3844 46.655C27.2389 46.6489 26.9252 46.5159 26.8956 46.5195C26.6614 46.5534 27.7388 46.8595 27.7005 46.9884C27.6975 46.9919 27.5052 46.9157 27.4823 46.9206C27.4106 46.9357 27.4791 46.9926 27.4012 47.005C27.2214 47.033 26.6921 46.9035 26.9611 47.1093C26.9961 47.1357 27.6112 47.296 27.548 47.4023C27.5223 47.4445 27.4719 47.6505 27.4154 47.6955C27.359 47.7405 27.1746 47.6427 27.1649 47.6442C26.8597 47.7195 26.7696 47.6292 26.3628 47.5908C25.9574 47.5527 26.8759 47.805 26.9683 47.8668C27.0604 47.9285 26.8129 47.9765 26.7302 47.9818C26.6476 47.987 26.5333 47.9153 26.4838 47.9272C26.16 48.0071 26.9152 48.1343 27.0439 48.2312C27.3488 48.4602 26.6429 48.3556 26.542 48.4513C26.5147 48.4772 26.6764 48.4979 26.6825 48.53C26.7045 48.6568 26.4735 48.6598 26.6294 48.8432C26.6548 48.8732 27.0311 49.0966 26.7129 49.0727C26.6671 49.0691 26.5065 48.9921 26.4546 49.0278C26.3769 49.081 26.3021 49.1964 26.3359 49.2887C26.3608 49.3569 26.6577 49.3764 26.5504 49.4206C26.5026 49.4402 26.3574 49.3338 26.281 49.3746C26.2047 49.4152 26.1672 49.5663 26.1558 49.6246C26.1446 49.6829 26.3646 49.7151 26.3774 49.7239C26.4504 49.776 26.5195 49.915 26.5164 49.9245C26.397 50.416 25.9081 50.7556 25.8843 51.2619C25.8822 51.3015 26.1117 51.3435 26.1137 51.3503C26.1688 51.5047 25.608 51.2278 25.3838 51.2569C25.8385 51.3793 25.7412 51.407 25.7639 51.511C25.7752 51.5612 25.9568 51.5902 25.9735 51.5994C26.2196 51.7427 25.8638 51.6843 25.7903 51.6747C25.5199 51.6396 25.8107 51.7769 25.6298 51.7539C25.4502 51.7313 25.2165 51.5893 25.1941 51.6757C25.3484 51.7481 25.7892 51.8111 25.838 51.8965C26.0232 52.219 25.5552 52.5768 25.4617 52.7634C25.3684 52.9496 25.3792 53.0221 25.2865 53.1191C25.119 53.2943 25.4547 53.3123 25.5594 53.4837C25.664 53.6555 24.9128 53.3619 24.7418 53.3308C24.5709 53.2994 24.7352 53.3703 24.6375 53.3656C24.5398 53.3609 24.4419 53.2784 24.3919 53.3211C24.3418 53.3639 24.5927 53.5972 24.7601 53.6679C25.1149 53.8176 25.5193 53.8677 25.342 53.9674C25.3315 53.9731 25.1369 53.8862 25.1072 53.9109C24.8777 54.1096 24.7916 54.3617 24.5802 54.5655C24.5509 54.5935 24.3347 54.4958 24.315 54.5113C24.1097 54.6724 24.5114 54.7132 24.8996 54.9517C24.3458 54.7582 23.9837 54.7171 23.9339 54.8712C23.9038 54.9638 24.1538 55.0213 24.3085 55.1334C24.3552 55.1671 24.167 55.1826 24.2788 55.2291C24.5981 55.3625 24.9752 55.4284 24.9202 55.5162C24.8851 55.7355 24.5866 55.9508 24.3804 56.0336C24.3656 56.0333 24.3458 56.0256 24.3201 56.0094C24.311 56.0032 24.2805 55.7887 24.2527 55.7823C24.0732 55.7398 24.1557 56.1436 23.9966 56.2355C23.8719 56.3075 23.5712 56.125 23.4082 56.1244C23.249 55.4849 23.1418 55.6679 23.1951 56.1231C23.0913 56.1303 22.9904 56.1825 22.879 56.146C22.8408 56.1337 22.8154 55.9433 22.8062 55.9243C22.6626 55.6272 22.7284 56.0665 22.7113 56.0888C22.5206 56.3111 22.2489 56.0345 22.108 56.4082C22.103 56.4216 22.2031 56.8684 22.0615 56.5596C22.052 56.5383 22.0738 56.3178 21.9656 56.3287C21.8574 56.3396 21.6004 56.1518 21.5079 56.3941C21.4855 56.4525 21.4885 56.8352 21.3458 56.5719C21.3267 56.5361 21.3047 56.4062 21.273 56.3389C21.1714 56.1246 21.2613 56.5791 21.1125 56.2114C20.9637 55.8437 20.783 55.5859 20.7039 55.8858C20.7012 55.8947 20.757 56.2588 20.7097 56.2649C20.6341 56.2742 20.5112 56.2267 20.4353 56.2484C20.399 56.259 20.4786 56.4737 20.4732 56.4794C20.2584 56.6657 20.033 56.5135 19.7474 56.4953C19.695 56.4915 19.6325 56.8277 19.4784 56.6137C19.3093 56.3794 19.1394 55.2691 18.9687 55.5873C18.8996 55.7148 19.1285 57.12 18.7761 56.4514C18.4887 56.7124 18.0888 56.4261 17.8197 56.7628C17.8076 56.7778 17.8577 57.1734 17.8212 57.1771C17.7667 57.1819 17.6924 57.01 17.6521 57.0076C17.4819 56.9934 17.3777 57.1832 17.2208 57.1977C17.1614 57.2036 17.1342 57.0132 17.0633 57.0202C16.9924 57.0274 17.009 57.283 16.8865 57.1887C16.7938 57.1166 16.597 56.6354 16.4895 56.6008C16.6111 57.0939 16.5449 57.0999 16.4647 57.2587C16.4494 57.2894 16.5163 57.4548 16.5113 57.4781C16.4918 57.5771 16.4169 57.445 16.4016 57.5512C16.3978 57.5767 16.4401 57.7449 16.4394 57.7753C16.4351 58.0399 16.2281 57.6901 16.1923 57.6291C16.0558 57.3976 16.0773 57.6249 15.9963 57.5407C15.9154 57.4564 15.9676 57.3121 15.8872 57.269C15.7205 57.1799 15.5536 57.2512 15.4143 57.2784C15.359 57.2903 15.4534 57.5052 15.4468 57.5121C15.348 57.5978 15.1727 57.3883 15.2235 57.8512C14.851 56.7156 15.1836 57.9806 14.9628 57.7905C14.9453 57.7751 14.7901 57.2328 14.8187 57.1401C14.8473 57.0475 14.965 57.1994 15.0012 57.057C15.0098 57.0236 14.9718 56.4881 14.9765 56.4539C15.0134 56.1864 15.235 56.9994 15.2516 57.0429C15.4339 57.5119 15.4062 56.9316 15.4262 56.886C15.5175 56.6768 15.6621 56.7623 15.7439 56.6087C15.7977 56.5093 15.6689 55.9725 15.7314 55.9741C15.939 55.9789 16.1964 56.7079 16.2145 56.0144C16.2186 55.8665 16.031 55.2917 16.2883 55.7158C16.3044 55.7425 16.5156 56.1365 16.5081 55.8552C16.5072 55.8198 16.4636 55.6494 16.4699 55.6326C16.5132 55.523 16.5923 55.6474 16.6486 55.5639C16.7048 55.4804 16.7677 55.3612 16.8655 55.3978C16.9244 55.4197 17.0694 55.7208 17.1131 55.7924C17.2378 55.999 17.217 55.6135 17.3279 55.8739C17.4395 56.1357 17.462 56.5705 17.6177 56.7183C17.5093 56.2746 17.4031 55.8179 17.2965 55.371C17.5435 55.3248 17.8191 55.4071 18.058 55.3255C18.0875 55.315 17.9961 55.0849 18.0261 55.0674C18.1533 54.9948 18.3158 55.1341 18.4405 55.0305C18.5367 54.9493 18.593 54.6668 18.6916 54.5741C18.8906 55.0628 19.0172 54.8475 19.1527 54.8623C19.2001 54.8673 19.2316 55.0033 19.2736 55.0396C19.4314 55.1733 19.2631 54.7395 19.2771 54.661C19.3374 54.3255 19.6068 55.3357 19.7617 55.2697C19.77 55.2665 19.737 54.6999 19.7429 54.6626C19.7785 54.4201 19.8058 54.8467 19.8731 54.8721C19.9961 54.9184 20.1015 55.029 20.1838 54.8396C20.2076 54.7837 20.2077 54.4253 20.3433 54.668C20.3611 54.6998 20.4014 54.8796 20.4114 54.8881C20.5887 55.0286 20.4496 54.4668 20.4772 54.2575C20.5049 54.0483 20.7208 54.4056 20.7731 54.5111C20.909 54.7839 20.7565 54.6467 20.7604 54.6759C20.8064 55.0231 20.8772 54.9433 20.9499 54.9551C21.0992 55.5027 21.1823 55.4464 21.0246 54.9652C21.0072 54.9127 20.9694 54.9769 20.9499 54.9551C20.87 54.401 20.953 54.3063 21.1923 54.7823C21.3044 55.0054 21.3253 55.2934 21.4576 55.1525C21.5177 55.0887 21.3936 54.7171 21.4306 54.5978C21.5152 54.3255 21.7928 54.631 21.9276 54.5374C21.9765 54.5035 21.8711 54.3096 21.9027 54.2792C21.9864 54.1981 22.1125 54.3316 22.1907 54.2269C22.1977 54.2171 22.1207 54.0057 22.1506 53.9951C22.3763 53.9109 22.6138 53.9985 22.8571 53.9407C22.9747 53.9127 23.1536 53.7397 23.281 53.7329C23.4402 53.7235 23.6611 53.851 23.8319 53.8767L22.7884 54.8769C22.8308 54.8255 22.8563 54.7728 22.8501 54.7171C22.8363 54.5867 22.6142 54.5478 22.4829 54.4544C22.2283 54.2737 22.7866 54.2564 22.872 54.2572C22.8748 54.2572 22.8955 54.372 23.0216 54.3519C23.2603 54.3898 22.8727 54.2586 22.872 54.2572C22.9273 54.2574 23.0356 54.073 23.0065 54.0212C22.9905 53.993 22.7837 53.944 22.7792 53.9305C22.6771 53.6098 22.7054 53.3277 22.8814 53.0863C22.8869 53.0828 23.1121 53.1581 23.1223 53.149C23.2702 53.0231 23.0221 52.8396 22.8957 52.6612C22.7693 52.4829 22.8552 52.3973 23.2683 52.438C23.2484 52.3261 23.4627 52.2383 23.5915 52.1894C23.7202 52.1406 23.2811 51.9967 23.2745 51.987C23.0605 51.6827 23.352 51.6313 23.4599 51.4146C23.512 51.3118 23.5125 51.0771 23.4994 50.9449C23.4883 50.8403 23.6088 50.8153 23.5682 50.7098C23.5628 50.6955 23.3622 50.6482 23.3557 50.6424C23.1487 50.4761 23.6165 50.6664 23.7085 50.6725C24.0428 50.6948 24.2226 50.7005 24.1122 50.5339C24.087 50.4956 23.4181 50.2053 23.393 50.1417C23.3616 50.0593 23.6026 50.1591 23.5634 50.071C23.5603 50.0635 23.4066 50.0188 23.4263 49.9776C23.5159 49.7856 23.6707 49.5935 23.718 49.3802C23.725 49.3513 23.4708 49.3149 23.4769 49.2718C23.5061 49.07 23.5786 48.8609 23.7489 48.7068C23.7916 48.6691 23.9532 48.7492 24.0068 48.7543C24.3313 48.7843 23.9129 48.5634 23.9088 48.5464C23.7985 48.1377 24.28 47.9946 24.1937 47.5859C24.1882 47.5634 23.7558 47.2733 24.1842 47.3302C24.2128 47.3338 24.6504 47.3943 24.3817 47.2511C24.3649 47.2422 24.1375 47.2181 24.1806 47.154C24.2237 47.0899 24.114 46.9331 24.3797 46.9069C24.4634 46.8985 24.9024 46.951 24.5974 46.7596C24.5759 46.7466 23.8665 46.3795 24.4004 46.4846C24.4883 46.502 25.0347 46.6752 24.7861 46.4813C24.7378 46.4441 24.6039 46.4453 24.544 46.3673C24.4514 46.2475 24.632 46.1798 24.4186 46.0026C24.3807 45.9716 24.0312 45.7828 24.3325 45.8058C24.3797 45.8094 24.5575 45.8828 24.5878 45.8563C24.7327 45.7306 24.6589 45.5313 24.8329 45.4118C24.8942 45.3694 25.182 45.4868 25.2788 45.4524C25.3756 45.418 25.4872 45.3237 25.37 45.2222C25.2528 45.1207 24.7606 45.0456 24.7502 44.943C24.705 44.4972 25.0999 44.1875 25.2591 43.8036C25.2828 43.7467 25.0992 43.7447 25.122 43.6572C25.2051 43.3343 25.2119 42.7359 25.654 42.5666C26.0081 42.431 26.1433 42.7759 26.3112 42.6414C26.3916 42.5764 25.8691 42.3232 25.8577 42.2983C25.74 42.0527 26.0234 41.9916 26.0009 41.7955C25.9962 41.755 25.7631 41.7235 25.7615 41.6897C25.7542 41.5739 25.8864 41.4941 25.8981 41.3891C25.9028 41.3418 25.7304 41.2991 25.7558 41.2619C25.8148 41.1723 25.9123 41.1067 26.1004 41.0586C26.1175 41.0542 26.3112 41.1766 26.3409 41.1061C26.3884 40.9919 26.5894 40.8928 26.4678 40.7086C26.431 40.6538 26.0431 40.5357 26.3372 40.5297C26.3987 40.5284 26.8582 40.6914 26.4854 40.4698C26.4235 40.4328 25.9306 40.1006 26.3059 40.1226C26.4047 40.1284 26.8031 40.187 26.7577 40.1206C26.7501 40.1112 26.5335 40.0749 26.5252 40.0287C26.4995 39.867 26.5661 39.7257 26.5443 39.561C26.5381 39.5169 26.3049 39.5099 26.3024 39.4462C26.2955 39.271 26.4099 39.0892 26.5241 38.9542C26.5666 38.9045 26.7336 38.9977 26.7543 38.9994C27.0909 39.0273 26.6755 38.8596 26.6573 38.8299C26.5496 38.6468 26.7819 38.6017 26.767 38.4583C26.7634 38.4189 26.5522 38.3828 26.5361 38.3703C26.3804 38.2445 26.7301 38.4083 26.7842 38.3744C26.937 38.2799 26.9637 38.1314 26.9767 37.9934C26.9812 37.9426 26.7288 37.9255 26.7356 37.8807C26.7711 37.6144 26.8729 37.357 27.0775 37.1481C27.1164 37.1089 27.2895 37.1928 27.334 37.1956C27.6448 37.2157 27.2778 36.9985 27.2468 36.9645C27.1052 36.81 27.278 36.8183 27.2752 36.7184C27.2588 36.2299 27.5296 35.7141 27.7211 35.315C27.9694 34.7947 28.2695 34.4231 28.3806 33.8892C28.3879 33.8553 28.1359 33.8161 28.1391 33.786C28.1912 33.4004 28.3944 33.0663 28.4351 32.6765C28.4389 32.6447 28.1964 32.6195 28.1947 32.566C28.1897 32.4559 28.2401 32.3334 28.3435 32.2546C28.3936 32.2161 28.5706 32.341 28.617 32.301C28.7253 32.208 28.7787 32.0894 28.7774 31.9601C28.7764 31.9049 28.5189 31.9105 28.5359 31.8442C28.6463 31.3915 28.7372 30.9415 29.1761 30.5822C29.2062 30.5576 29.6912 30.6735 29.6194 30.5804C29.4886 30.5358 29.3328 30.4893 29.192 30.4448C29.3104 29.773 29.6684 29.1803 29.8891 28.5372C29.8983 28.51 29.6315 28.4817 29.6481 28.4288C29.744 28.1224 29.7636 27.8029 30.109 27.5637C30.1429 27.5399 30.5826 27.6892 30.543 27.5771C30.5356 27.5572 30.5178 27.4009 30.4321 27.3362C30.419 27.327 30.2039 27.29 30.2113 27.2436C30.2575 26.9748 30.3864 26.7172 30.5908 26.4964C30.6242 26.4608 30.8318 26.5716 30.8575 26.5468C31.0381 26.3709 30.939 26.0909 31.2001 25.9494C31.3756 25.8549 31.7426 26.0194 32.14 26.0604C32.1961 26.0662 32.2296 25.9851 32.4496 26.0463C33.003 26.2002 33.5931 26.4213 34.1843 26.5805C34.3117 26.6149 34.2092 26.4621 34.4945 26.6199C34.5135 26.6307 34.5905 26.7422 34.688 26.7933C34.7554 26.8286 34.9854 26.8703 35.0685 26.9262C35.1515 26.982 34.9556 26.9573 35.0492 27.0367C35.144 27.1164 35.4033 27.1716 35.4051 27.2746ZM24.1678 51.9683C24.4026 51.9578 23.6275 51.7134 23.7896 51.8496C23.7984 51.8565 24.1562 51.9691 24.1678 51.9683ZM17.9688 56.0015C18.1555 56.3238 18.0928 55.796 17.9553 55.5453C17.8178 55.295 17.9121 55.9038 17.9688 56.0015ZM17.0139 56.5143C17.1984 56.759 16.9325 55.6377 16.8668 55.8947C16.8629 55.9093 17.0031 56.5001 17.0139 56.5143ZM32.1473 26.4252C32.1579 26.4273 32.186 26.3702 32.1762 26.3657C31.9386 26.2596 31.8826 26.3738 32.1473 26.4252ZM16.0725 57.0477C16.1468 57.1896 16.2057 56.989 16.1134 56.8125C16.039 56.6705 15.98 56.8712 16.0725 57.0477ZM26.1611 48.3405C26.1731 48.3428 26.1965 48.3028 26.1306 48.284C25.9186 48.2236 25.9602 48.3015 26.1611 48.3405ZM14.3564 57.4979C14.6211 57.4753 15.0097 58.3586 14.7066 58.3248C14.6518 58.3187 14.7398 58.0032 14.6549 57.9363C14.4997 57.8144 14.5695 58.4133 14.3715 58.1332C14.3355 58.0819 14.3408 57.4971 14.3565 57.4965C14.3565 57.4969 14.3564 57.4974 14.3564 57.4979ZM25.1155 52.2059C25.1262 52.2075 25.1539 52.1508 25.1441 52.1463C24.9067 52.0399 24.8508 52.1541 25.1155 52.2059ZM27.3964 45.9705C27.4193 45.9738 27.4814 45.8415 27.4625 45.831C27.0801 45.6376 26.9535 45.9046 27.3964 45.9705ZM23.4015 56.1079C23.3996 56.3762 23.3284 56.4258 23.1955 56.1234C23.2652 56.1235 23.3317 56.1092 23.4015 56.1079ZM65.4758 16.7712C65.6875 16.8814 65.8463 17.1455 65.9343 17.3792C65.9621 17.4521 65.8351 17.529 65.8498 17.584C65.8785 17.6914 65.9918 17.7043 66.0122 17.8185C66.0185 17.8568 65.83 17.9912 65.8403 18.0277C65.8976 18.2266 66.06 18.3057 66.1558 18.4691C66.6277 19.2741 67.1969 19.9593 67.7719 20.676C67.9616 20.9122 68.0756 21.3169 68.3602 21.4716C68.3935 21.4895 68.5192 21.3321 68.5357 21.3252C68.7905 21.2221 68.4803 21.4838 68.4927 21.5717C68.5426 21.9199 68.7512 22.1528 68.9975 22.2882C69.1026 22.3454 69.3009 21.9819 69.2258 22.2218C69.2209 22.2382 69.0505 22.3686 69.0569 22.4069C69.0717 22.4935 69.1947 22.562 69.2222 22.613C69.2744 22.712 69.2884 22.7229 69.3584 22.7957C69.4528 22.8966 69.4949 23.0872 69.634 23.1573C69.6641 23.1718 69.7879 22.9876 69.8498 22.9968C69.9117 23.006 69.9935 23.1132 69.9893 23.1813C69.985 23.2495 69.8508 23.3577 69.8288 23.3912C69.6419 23.6726 70.0748 23.4555 70.0969 23.4614C70.4903 23.5792 70.5267 23.9836 70.7687 24.2225C70.9528 24.4035 71.2095 24.5366 71.3756 24.718C71.5729 24.9347 71.6658 25.1932 71.8819 25.379C71.9045 25.3988 72.0601 25.1921 72.0881 25.2159C72.3855 25.4689 72.6403 25.761 72.7937 26.1568C72.8089 26.1967 72.6149 26.3211 72.6206 26.3705C72.6592 26.6693 72.6136 27.2496 73.4037 26.6535C73.4912 26.7941 73.6022 26.9599 73.5654 27.2016C73.5419 27.3573 73.3052 27.4678 73.4599 27.4739C73.4946 27.4755 73.622 27.2995 73.6626 27.3134C73.8333 27.372 73.9102 27.5466 74.1025 27.5811C74.142 27.5878 74.2711 27.4449 74.3021 27.4268C74.5549 27.2825 74.3204 27.7031 74.3167 27.7469C74.2926 28.0768 74.4738 28.1173 74.6118 28.2629C74.6438 28.2967 74.7867 28.0746 74.824 28.1005C75.0149 28.2378 75.17 28.4229 75.2507 28.6644C75.2682 28.7186 75.0802 28.8421 75.0807 28.876C75.0845 29.0234 75.394 28.7449 75.4033 28.8807C75.4056 28.9089 75.2643 29.0341 75.2525 29.0516C75.0675 29.3255 75.4295 29.0364 75.4479 29.0403C75.6878 29.0827 75.4402 29.5139 75.6254 29.6017C75.6479 29.6119 75.7788 29.4059 75.8317 29.4448C76.1856 29.7031 76.4647 30.0722 76.6348 30.5095C76.6615 30.5773 76.5016 30.6709 76.489 30.6896C76.2947 30.9826 76.6515 30.6856 76.6792 30.6886C76.8892 30.7204 76.73 31.1083 77.2004 30.7996C77.5814 31.4466 78.3123 31.7362 78.4764 32.5935C78.4789 32.604 78.3069 32.7541 78.3126 32.7743C78.3787 33.02 78.5979 32.739 79.0059 32.5344C79.1084 32.483 78.8198 32.9325 78.7998 32.9666C78.726 33.0921 78.461 33.3063 78.4503 33.3342C78.3699 33.5567 79.1471 32.7501 79.2428 32.8445C79.2444 32.8488 79.0867 32.9827 79.0803 33.0052C79.0599 33.0756 79.1422 33.0419 79.1166 33.1164C79.0567 33.2882 78.6933 33.6943 79.0015 33.5539C79.0412 33.5354 79.4721 33.068 79.5362 33.1738C79.5613 33.2164 79.7193 33.3578 79.7325 33.4288C79.7456 33.4997 79.5726 33.6164 79.5693 33.6257C79.4921 33.9304 79.3701 33.9674 79.1447 34.3083C78.9203 34.6481 79.5751 33.9563 79.6732 33.9039C79.771 33.8516 79.6968 34.0927 79.6626 34.168C79.6283 34.2434 79.5112 34.3105 79.4984 34.3598C79.4166 34.6831 79.8842 34.0766 80.0303 34.0086C80.3758 33.8473 79.9513 34.4209 79.9882 34.555C79.9982 34.5913 80.0926 34.4583 80.1238 34.4681C80.246 34.5083 80.1399 34.7135 80.3752 34.6623C80.4136 34.654 80.7877 34.4271 80.6169 34.6966C80.5922 34.7353 80.4487 34.8408 80.4557 34.9033C80.4661 34.9969 80.5327 35.1172 80.6301 35.1309C80.702 35.141 80.8589 34.8881 80.8474 35.0036C80.8422 35.0551 80.6799 35.1331 80.68 35.2197C80.68 35.3061 80.7956 35.4103 80.8417 35.4478C80.8878 35.4851 81.0198 35.3062 81.0336 35.299C81.1139 35.2591 81.269 35.2636 81.2759 35.2708C81.6534 35.6074 81.7229 36.1985 82.1584 36.4577C82.1924 36.4782 82.3375 36.2954 82.3443 36.2969C82.5065 36.3209 81.9983 36.6854 81.9185 36.897C82.2405 36.5534 82.2191 36.6522 82.3215 36.6811C82.3712 36.6948 82.4822 36.5482 82.4982 36.5378C82.7404 36.3881 82.5214 36.6746 82.4784 36.7349C82.3202 36.9569 82.5781 36.765 82.4727 36.9138C82.3683 37.0616 82.133 37.2009 82.1987 37.2614C82.3351 37.1594 82.5982 36.8001 82.6965 36.7971C83.0681 36.7855 83.1636 37.3668 83.2843 37.537C83.4047 37.707 83.4736 37.7315 83.5156 37.859C83.5914 38.0892 83.7652 37.8015 83.9657 37.7897C84.1665 37.7783 83.554 38.3029 83.4461 38.4392C83.3379 38.5752 83.4778 38.4636 83.4277 38.5476C83.3775 38.6316 83.2587 38.6791 83.2728 38.7434C83.2871 38.8077 83.6109 38.6961 83.7521 38.5816C84.0511 38.3391 84.2856 38.0058 84.2902 38.2092C84.2903 38.2211 84.122 38.3519 84.1299 38.3897C84.1972 38.6857 84.379 38.8803 84.4594 39.1627C84.4702 39.2017 84.2823 39.3465 84.2867 39.3711C84.3322 39.6281 84.5573 39.293 84.9504 39.0626C84.519 39.4602 84.3124 39.7603 84.4249 39.8768C84.4924 39.9469 84.6608 39.7534 84.8325 39.6696C84.8842 39.6443 84.8093 39.8176 84.9029 39.7409C85.1743 39.519 85.4126 39.2124 85.46 39.3137L84.7398 39.1173C84.7541 39.1188 84.7726 39.1265 84.796 39.1412C84.8051 39.1475 84.8356 39.362 84.8634 39.3684C85.0429 39.4108 84.9604 39.0071 85.1194 38.9152C85.2441 38.8431 85.5448 39.0256 85.7078 39.0263C85.867 39.6658 85.9742 39.4828 85.9208 39.0276C86.0246 39.0204 86.1255 38.9682 86.2369 39.0047C86.2752 39.017 86.3005 39.2074 86.3097 39.2264C86.4533 39.5235 86.3875 39.0842 86.4046 39.0619C86.5953 38.8396 86.867 39.1162 87.0078 38.7425C87.0128 38.7291 86.9127 38.2823 87.0543 38.5911C87.0638 38.6125 87.042 38.8329 87.1502 38.822C87.2584 38.8111 87.5154 38.999 87.6078 38.7566C87.6302 38.6982 87.6272 38.3156 87.7699 38.5788C87.7891 38.6146 87.8111 38.7445 87.8427 38.8118C87.9443 39.0262 87.8544 38.5717 88.0032 38.9394C88.1521 39.307 88.3327 39.5648 88.4118 39.2649C88.4145 39.2561 88.3586 38.8919 88.4059 38.8859C88.4816 38.8765 88.6044 38.9241 88.6803 38.9023C88.7166 38.8918 88.6371 38.6771 88.6424 38.6714C88.8572 38.4851 89.0825 38.6373 89.3681 38.6555C89.4206 38.6593 89.483 38.323 89.6371 38.5371C89.8062 38.7714 89.9761 39.8817 90.1468 39.5635C90.2158 39.436 89.9869 38.0308 90.3393 38.6994C90.6266 38.4384 91.0266 38.7247 91.2956 38.3881C91.3077 38.3731 91.2575 37.9774 91.2941 37.9737C91.3485 37.9689 91.4228 38.1409 91.4632 38.1432C91.6333 38.1574 91.7375 37.9676 91.8944 37.9531C91.9538 37.9472 91.981 38.1377 92.0519 38.1307C92.1228 38.1235 92.1062 37.8678 92.2287 37.9622C92.3214 38.0343 92.5181 38.5155 92.6256 38.5501C92.504 38.057 92.5703 38.0509 92.6504 37.8922C92.6657 37.8615 92.5988 37.6961 92.6039 37.6728C92.6233 37.5738 92.6982 37.7059 92.7135 37.5997C92.7173 37.5742 92.675 37.406 92.6757 37.3756C92.68 37.111 92.887 37.4609 92.9227 37.5218C93.0593 37.7533 93.0378 37.526 93.1187 37.6102C93.1996 37.6945 93.1474 37.8388 93.2278 37.8819C93.3945 37.9711 93.5614 37.8997 93.7007 37.8725C93.756 37.8606 93.6616 37.6458 93.6682 37.6389C93.767 37.5531 93.9423 37.7626 93.8915 37.2998C94.2639 38.4353 93.9313 37.1703 94.1521 37.3604C94.1696 37.3759 94.3249 37.9182 94.2963 38.0109C94.2677 38.1035 94.1499 37.9516 94.1138 38.0939C94.1051 38.1273 94.1432 38.6628 94.1385 38.6971C94.1016 38.9645 93.88 38.1515 93.8633 38.108C93.6811 37.639 93.7088 38.2193 93.6888 38.265C93.5975 38.4741 93.4529 38.3886 93.3711 38.5422C93.3174 38.6416 93.4462 39.1784 93.3837 39.1768C93.1761 39.172 92.9187 38.443 92.9006 39.1365C92.8965 39.2844 93.0841 39.8591 92.8269 39.4351C92.8107 39.4084 92.5996 39.0143 92.607 39.2957C92.608 39.3311 92.6516 39.5014 92.6452 39.5183C92.602 39.6279 92.5229 39.5035 92.4666 39.587C92.4104 39.6705 92.3475 39.7897 92.2497 39.753C92.1909 39.7312 92.0459 39.4301 92.0021 39.3585C91.8775 39.1518 91.8983 39.5374 91.7874 39.2769C91.6758 39.0152 91.6532 38.5804 91.4975 38.4325C91.606 38.8762 91.7121 39.333 91.8188 39.7798C91.5718 39.826 91.2962 39.7437 91.0574 39.8253C91.0279 39.8359 91.1193 40.066 91.0893 40.0834C90.9621 40.156 90.7996 40.0167 90.675 40.1204C90.5787 40.2015 90.5225 40.484 90.4238 40.5767C90.2249 40.088 90.0983 40.3033 89.9628 40.2885C89.9154 40.2835 89.8839 40.1475 89.8419 40.1112C89.6841 39.9775 89.8524 40.4113 89.8385 40.4898C89.7782 40.8252 89.5088 39.8151 89.3539 39.8811C89.3456 39.8843 89.3786 40.4509 89.3727 40.4882C89.3371 40.7307 89.3098 40.304 89.2425 40.2787C89.1195 40.2323 89.0141 40.1218 88.9319 40.3111C88.9081 40.3671 88.908 40.7255 88.7724 40.4828C88.7546 40.451 88.7143 40.2712 88.7042 40.2626C88.527 40.1222 88.6661 40.684 88.6385 40.8932C88.6108 41.1025 88.3949 40.7451 88.3427 40.6396C88.2068 40.3668 88.3592 40.5041 88.3554 40.4749C88.3094 40.1276 88.2385 40.2074 88.1659 40.1956C88.0165 39.648 87.9335 39.7043 88.0911 40.1855C88.1085 40.238 88.1463 40.1738 88.1659 40.1956C88.2457 40.7498 88.1628 40.8445 87.9235 40.3685C87.8114 40.1453 87.7905 39.8573 87.6582 39.9983C87.5981 40.062 87.7221 40.4336 87.6852 40.5529C87.6006 40.8252 87.3231 40.5197 87.1883 40.6133C87.1394 40.6472 87.2448 40.8411 87.2132 40.8715C87.1294 40.9526 87.0034 40.8191 86.9252 40.9238C86.9182 40.9336 86.9952 41.145 86.9653 41.1556C86.7396 41.2398 86.5022 41.1522 86.2588 41.21C86.1413 41.238 85.9624 41.4109 85.835 41.4177C85.6771 41.4271 85.4586 41.3017 85.2885 41.2746C84.8615 41.3245 84.1548 41.2345 83.8924 40.894C83.8669 40.8306 83.832 40.7817 83.7788 40.7606C83.6573 40.7114 83.5185 40.8891 83.3743 40.9609C83.095 41.1005 83.3425 40.5998 83.3834 40.5248C83.3848 40.5224 83.4958 40.5581 83.5373 40.4374C83.6831 40.2447 83.3849 40.5249 83.3834 40.5248C83.4096 40.4762 83.2979 40.2938 83.2385 40.2951C83.2061 40.296 83.0656 40.4554 83.0515 40.453C82.7206 40.3922 82.485 40.2345 82.3548 39.9656C82.3543 39.9591 82.5268 39.7959 82.5235 39.7826C82.482 39.5928 82.2034 39.7254 81.9865 39.753C81.7697 39.7806 81.7346 39.6646 81.9649 39.3192C81.8568 39.2842 81.8802 39.0538 81.8977 38.9171C81.9152 38.7806 81.5816 39.1003 81.5699 39.1016C81.2008 39.1472 81.2926 38.8659 81.1522 38.6687C81.086 38.5743 80.8791 38.4635 80.7564 38.4129C80.6588 38.3734 80.6935 38.2554 80.5813 38.2415C80.5662 38.2396 80.43 38.3942 80.4218 38.3973C80.1777 38.5017 80.5658 38.1785 80.6144 38.1002C80.7914 37.8157 80.8811 37.6597 80.6822 37.6788C80.6365 37.683 80.0656 38.1366 79.9976 38.1288C79.9102 38.1178 80.1117 37.9521 80.0155 37.9452C80.0074 37.9444 79.8956 38.059 79.8685 38.0222C79.7413 37.8528 79.6447 37.6258 79.4787 37.4838C79.4565 37.464 79.3048 37.6711 79.2697 37.6455C79.1053 37.5248 78.9549 37.3624 78.8992 37.1397C78.886 37.0843 79.0327 36.9794 79.0625 36.9345C79.2417 36.6623 78.8499 36.9275 78.833 36.9231C78.4204 36.8281 78.5208 36.336 78.1196 36.2198C78.0971 36.214 77.6377 36.4591 77.8895 36.1079C77.9062 36.0844 78.1655 35.7267 77.9127 35.8964C77.8969 35.907 77.7686 36.0964 77.7324 36.0282C77.6961 35.96 77.5062 35.983 77.6081 35.7363C77.6401 35.6584 77.8929 35.2958 77.5805 35.4749C77.559 35.4877 76.9012 35.9409 77.2452 35.5192C77.3019 35.4499 77.7119 35.0493 77.4238 35.1775C77.3682 35.2025 77.3063 35.3212 77.2093 35.3374C77.0601 35.3627 77.0853 35.1715 76.8286 35.2765C76.7833 35.2953 76.4523 35.5148 76.6144 35.2598C76.6398 35.2198 76.7882 35.0975 76.7791 35.0583C76.7364 34.8713 76.5258 34.8427 76.5023 34.6329C76.4937 34.5588 76.7327 34.3602 76.7479 34.2586C76.7632 34.157 76.7324 34.0142 76.5878 34.0698C76.443 34.1254 76.1452 34.5244 76.0498 34.4853C75.6352 34.3154 75.5477 33.8213 75.284 33.5002C75.2449 33.4525 75.1568 33.6136 75.0903 33.5523C74.8445 33.327 74.3197 33.0395 74.3785 32.5698C74.4255 32.1935 74.7934 32.2365 74.7538 32.0251C74.7342 31.9236 74.265 32.2655 74.2376 32.2638C73.9655 32.2521 74.045 31.9733 73.8614 31.9009C73.8235 31.886 73.6859 32.0768 73.6554 32.0623C73.5498 32.0143 73.5416 31.8601 73.4544 31.8004C73.415 31.774 73.2961 31.906 73.2753 31.866C73.224 31.7719 73.212 31.655 73.2581 31.4664C73.2623 31.4492 73.4614 31.3358 73.4132 31.2765C73.3348 31.1809 73.342 30.9569 73.1222 30.9776C73.0565 30.9842 72.7697 31.2709 72.9029 31.0086C72.9306 30.9537 73.2907 30.625 72.9198 30.8497C72.858 30.8869 72.333 31.1654 72.5291 30.8447C72.5806 30.7602 72.8198 30.4362 72.7399 30.4451C72.728 30.4474 72.594 30.6214 72.5494 30.607C72.3946 30.5536 72.3013 30.4283 72.1457 30.3701C72.1039 30.3548 71.9879 30.5573 71.9306 30.5295C71.7728 30.4532 71.6662 30.2667 71.6008 30.1024C71.577 30.0415 71.7378 29.9381 71.749 29.9206C71.9321 29.6367 71.5886 29.9243 71.5538 29.9264C71.3417 29.9353 71.4112 29.7092 71.2776 29.6548C71.2412 29.6394 71.1099 29.8088 71.0913 29.8171C70.907 29.8953 71.2161 29.6638 71.2117 29.6001C71.2002 29.4208 71.0818 29.3274 70.9661 29.251C70.9234 29.2231 70.7896 29.4378 70.7533 29.4107C70.535 29.2541 70.3559 29.0432 70.2678 28.7644C70.2516 28.7116 70.4071 28.5983 70.4304 28.5604C70.5944 28.2956 70.2301 28.5172 70.1855 28.5286C69.9825 28.5808 70.0712 28.4322 69.9818 28.3877C69.5431 28.1724 69.2154 27.6907 68.9534 27.3341C68.6112 26.8701 68.4246 26.4305 68.0059 26.0813C67.9794 26.0589 67.8262 26.2628 67.8012 26.2458C67.4855 26.0184 67.2864 25.6819 66.9616 25.4626C66.9353 25.4443 66.799 25.6464 66.751 25.6227C66.6515 25.5753 66.5671 25.4733 66.5463 25.3449C66.5358 25.2826 66.7294 25.1852 66.7159 25.1255C66.6848 24.9861 66.6053 24.8832 66.4906 24.8235C66.4414 24.7985 66.3252 25.0282 66.2747 24.9821C65.9272 24.6717 65.5731 24.3798 65.4626 23.8235C65.455 23.7853 65.7855 23.4119 65.6696 23.4314C65.5687 23.5259 65.4544 23.6415 65.3488 23.7447C64.8119 23.3242 64.4574 22.7295 63.9939 22.2322C63.9743 22.2112 63.8237 22.4334 63.7848 22.3938C63.5597 22.165 63.287 21.9974 63.2385 21.5801C63.2335 21.539 63.5721 21.2213 63.4546 21.2035C63.4335 21.2007 63.2873 21.1428 63.1898 21.188C63.1755 21.1952 63.0417 21.3676 63.0042 21.3393C62.7888 21.172 62.6222 20.9371 62.5236 20.6528C62.5079 20.6066 62.7033 20.4756 62.6936 20.4413C62.6234 20.1992 62.3297 20.1549 62.3277 19.8579C62.327 19.6585 62.6448 19.4122 62.868 19.0808C62.8995 19.034 62.8437 18.9663 63.0013 18.801C63.3975 18.3851 63.8703 17.9685 64.289 17.5217C64.3792 17.4256 64.1962 17.4441 64.4697 17.2666C64.4882 17.2549 64.6228 17.2395 64.7137 17.1774C64.7767 17.1346 64.9216 16.9513 65.01 16.9043C65.0984 16.8573 64.9844 17.0185 65.0984 16.9733C65.2134 16.9271 65.3841 16.7243 65.4758 16.7712ZM81.9739 38.3046C82.075 38.0925 81.4947 38.6613 81.6911 38.5824C81.7013 38.5779 81.969 38.3152 81.9739 38.3046ZM91.1465 39.1494C90.9599 38.827 91.0225 39.3549 91.1601 39.6055C91.2976 39.8558 91.2033 39.247 91.1465 39.1494ZM92.1013 38.6365C91.9168 38.3919 92.1827 39.5132 92.2484 39.2562C92.2523 39.2416 92.1121 38.6507 92.1013 38.6365ZM63.1933 19.246C63.2002 19.2376 63.163 19.1859 63.1544 19.1925C62.949 19.3522 63.0234 19.4553 63.1933 19.246ZM93.0426 38.1032C92.9683 37.9613 92.9094 38.1619 93.0017 38.3384C93.076 38.4804 93.135 38.2797 93.0426 38.1032ZM79.7112 34.8389C79.7189 34.8294 79.6946 34.79 79.6471 34.8393C79.494 34.9979 79.5822 34.9978 79.7112 34.8389ZM94.7585 37.6531C94.4938 37.6757 94.1052 36.7924 94.4082 36.8261C94.4631 36.8322 94.3751 37.1477 94.46 37.2147C94.6152 37.3365 94.5453 36.7377 94.7433 37.0177C94.7793 37.0691 94.7741 37.6539 94.7583 37.6545C94.7584 37.654 94.7584 37.6536 94.7585 37.6531ZM82.6295 37.5802C82.6359 37.5715 82.5989 37.5204 82.5903 37.5269C82.3847 37.6864 82.4592 37.7894 82.6295 37.5802ZM78.2016 32.6339C78.2153 32.6152 78.1278 32.4983 78.1096 32.5099C77.759 32.7564 77.935 32.9937 78.2016 32.6339ZM85.7145 39.0427C85.7164 38.7745 85.7876 38.7248 85.9204 39.0273C85.8507 39.0272 85.7842 39.0415 85.7145 39.0427Z" fill="#5C49FF"/>
<path d="M51.8526 58.338C52.2193 56.4488 52.7206 54.2081 53.2295 52.0651C53.7415 49.6257 56.2307 49.0104 57.875 50.8836C58.7303 51.9111 59.555 52.9193 60.286 53.8251C60.8928 54.5765 60.4642 54.3009 60.8782 54.8238C61.688 55.8464 62.5353 56.7188 63.3269 57.7368C63.5887 58.0746 63.0688 57.8218 63.3472 58.1726C63.8914 58.8572 64.4398 59.5158 64.9922 60.1666C65.1011 60.2901 65.3185 60.6768 65.3727 60.8323C65.8534 62.2977 66.3558 63.7441 66.8381 65.2692C70.5284 76.9387 74.2975 88.3618 78.1639 100.13C79.4389 104.01 80.832 108.78 82.2681 112.747C82.4359 113.211 82.5316 112.868 82.5772 112.952C83.287 114.263 82.7476 113.93 83.0039 114.856C83.9812 118.384 85.2533 122.228 86.4561 125.58L84.9717 124.773C85.1151 124.733 85.2576 124.694 85.3992 124.655C86.902 124.238 85.2889 124.238 86.8654 124.067C86.9748 124.055 86.6438 124.359 87.0638 124.275C88.0162 124.086 89.7898 123.595 90.5223 123.426C91.9343 123.102 92.166 123.041 93.4943 122.706C95.3106 122.249 97.4954 121.802 99.4309 121.26C99.8439 121.144 99.2399 121.073 99.8936 120.868C100.548 120.664 102.308 120.235 102.912 120.134C103.517 120.034 103.307 120.264 103.422 120.275C104.365 120.377 106.282 119.416 106.541 119.338C111.256 117.939 115.405 117.154 119.876 116.016C120.06 115.969 120.244 115.922 120.428 115.875L119.634 117.315C118.594 114.145 117.433 110.82 116.469 107.818C115.257 104.038 114.329 100.801 113.118 97.1389C112.99 96.7523 112.894 97.2852 112.737 96.8132C111.077 91.7989 109.482 86.8017 108.022 81.7464C107.875 81.2393 108.299 81.8163 108.166 81.3056C107.345 78.1801 106.19 73.1878 104.666 71.6682C104.027 69.5779 103.244 67.0424 102.828 65.122C102.559 63.8838 103.171 64.9725 102.593 63.5321C102.463 63.2071 102.399 63.7054 102.219 63.2131C101.463 61.1401 100.785 58.8273 100.005 56.7869C99.8462 56.3721 99.7007 56.5467 99.6289 56.4379C99.0356 55.5197 98.933 53.7035 98.8465 53.3284C98.1831 50.4738 97.4301 48.4764 96.5953 45.8876C96.4017 45.2867 96.3866 46.0762 96.1914 45.501C95.1827 42.5164 94.1953 39.406 93.3511 36.4369C93.1639 35.7763 93.5682 36.3084 93.4895 35.9892C93.1397 34.5828 92.6453 34.4064 92.3023 33.06C92.2294 32.7763 92.4595 32.8747 92.4627 32.8176C92.5137 31.9236 91.8519 31.3762 91.7759 31.1752C90.8048 28.6359 90.7254 26.8369 89.8501 24.3633C89.7449 24.0676 89.7369 24.8142 89.4551 23.9783C87.5765 18.4099 85.7181 12.4789 84.1018 6.88793C83.8502 6.01876 84.2201 6.57739 84.2235 6.51647C84.2649 5.52774 83.6399 5.09974 83.5322 4.8247C83.2572 4.11137 83.0398 3.39667 82.836 2.71119L83.6822 3.17762C82.2546 3.50254 80.953 3.77829 80.0149 4.3985C70.4193 6.6419 60.9908 9.35889 51.3996 11.2894C51.2778 11.3145 51.4375 11.039 51.1947 11.09C48.2709 11.7018 48.9135 11.9034 47.1064 12.8094C46.6511 13.0373 45.0558 12.9041 44.9166 12.9C44.409 12.8835 44.8159 12.4306 44.6508 12.4444C43.288 12.5696 43.7775 13.6006 42.0104 14.0505C41.9546 14.0627 42.136 13.8039 41.9826 13.8217C41.506 13.8766 41.0692 14.0722 40.6008 14.1181C39.5283 14.2214 39.0266 13.7875 37.5284 14.4954C37.339 14.586 37.8003 15.1241 36.2151 15.4964C35.583 15.6442 32.8014 16.3629 32.011 16.5215C31.2214 16.6799 31.7061 16.3454 31.6483 16.3509C29.4816 16.6227 30.2503 16.3114 29.0994 16.1906C27.949 16.0712 28.4754 16.9199 28.0727 17.132C27.6693 17.344 26.0745 17.5191 25.677 17.5401C25.2797 17.561 25.7193 17.315 25.3722 17.3579C23.0718 17.6467 24.5101 18.0649 23.8127 18.3982C22.1688 19.1856 20.6457 18.8443 19.043 19.1805C18.6093 19.2715 18.9991 19.3383 18.6208 19.4501C17.1218 19.8906 16.1574 19.9085 14.4858 20.5421C14.2123 20.6457 12.9253 21.4111 11.9477 21.3382C11.809 21.3271 12.1282 21.0644 11.4735 21.1902C10.4957 21.3779 8.75041 21.7821 7.72933 22.1025C7.70937 22.1087 7.6906 22.1149 7.67295 22.1209L7.91594 21.7409C8.09461 22.4025 8.21046 21.5353 8.30105 22.5017C8.34221 22.9429 8.02585 22.1699 8.1171 22.9962C8.20757 23.8182 8.60056 25.8899 8.75307 26.6777C8.90544 27.464 9.04151 26.9927 9.06792 27.0537C9.22301 27.4232 9.60842 28.915 9.633 29.0486C10.9125 35.7795 11.7035 42.0588 13.0442 48.5946C13.1491 49.1075 13.3134 48.7223 13.3318 48.8001C13.7551 50.5442 12.8903 49.2679 12.9164 50.5364C13.346 50.2725 13.3974 51.0146 13.679 52.2463C13.8151 52.8397 13.9337 52.4807 13.9622 52.5318C14.3994 53.3681 14.1627 54.0511 14.1204 54.2235C13.9652 54.8601 14.3966 55.4412 14.2942 55.8738C14.193 56.3059 13.7618 55.435 13.9866 56.6246C14.2143 56.9276 14.4828 55.9634 14.7211 56.8541C15.6208 60.2144 16.4652 66.6424 16.94 69.3905C17.4137 72.1331 17.6087 73.0112 17.8454 74.6167C18.2729 77.5167 18.3978 76.4015 18.8775 78.1624C19.3581 79.9285 18.4056 79.2036 18.2837 79.493C18.161 79.7777 18.3872 80.0215 18.3524 80.3537C18.3175 80.6848 18.0756 80.027 18.1778 80.7715C18.2802 81.5164 18.9578 83.4789 19.1842 83.7076C19.6634 84.1909 19.8891 83.2077 20.1138 85.1873C20.1265 85.3011 19.8509 84.9752 19.9099 85.4093C20.3857 88.8564 21.0362 92.4085 21.5297 95.848C21.5972 96.3209 21.288 95.9443 21.3247 96.2201C21.7061 99.0924 21.9067 98.003 22.6297 99.4816C21.9884 99.2387 21.7962 100.167 22.1945 102.326C22.4337 103.625 22.6438 103.354 22.9773 104.161C23.0777 104.403 23.0757 105.353 23.225 105.498C23.714 105.974 23.9862 105.029 24.2278 107.287C24.2378 107.386 23.9682 107.115 24.0181 107.454C24.34 109.651 24.7932 109.837 25.2809 112.186C25.6632 114.027 26.0279 117.36 26.3793 119.472C25.7232 119.548 26.2414 121.508 26.8381 122.232C27.0739 123.601 27.3735 125.071 27.5574 126.403C27.6208 126.861 27.3777 126.598 27.3681 126.659C27.2136 127.596 27.7587 128.109 27.8305 128.401C28.5905 131.565 28.7455 134.229 29.6346 137.219C29.6663 137.325 30.149 137.417 29.972 138.293C29.9592 138.35 29.5671 137.381 29.8181 138.818C29.8789 139.166 29.9403 139.591 30.0066 140.063L29.5058 139.742C30.9664 139.439 32.8833 139.057 34.3318 138.522C34.7944 138.352 35.9045 137.686 36.9406 137.722C37.0788 137.728 36.9706 137.891 37.174 137.914C37.831 137.988 38.0444 137.456 38.846 137.658C39.6476 137.859 41.1862 137.772 43.0993 137.005C43.1605 136.982 43.5388 136.507 44.1629 136.354C45.1593 136.111 46.5892 135.826 47.6265 135.56C48.1231 135.432 47.7489 135.292 47.8341 135.266C51.144 134.293 53.5721 133.885 57.1733 133.06C57.8336 132.909 59.6427 132.128 60.9735 132.043C62.4346 131.949 61.2768 133.397 64.4173 132.323C64.6838 132.232 64.9512 132.081 65.2307 131.9C65.6362 131.802 65.888 131.402 65.8205 130.99C65.2247 129.892 64.2248 128.592 64.4718 126.627C63.4952 122.077 63.1284 117.775 62.0728 113.225C62.0255 113.021 61.5219 112.435 61.4426 111.949C61.3258 111.226 61.4392 110.799 61.3616 110.282C61.041 108.114 60.5416 106.167 60.2038 104.083C60.0752 103.292 60.3117 103.535 60.1584 102.591C60.0049 101.648 59.6475 101.063 59.5454 99.7669C59.4691 98.7875 59.8087 97.736 59.6453 96.4469C59.1365 96.4852 58.994 95.6051 58.5902 94.067C58.5124 93.7714 58.3942 94.1234 58.3484 93.9851C58.1582 93.4231 58.2095 92.8633 58.0163 92.3318C57.9696 92.2024 57.7977 92.2259 57.7499 92.1218C57.3368 91.238 57.4552 89.6429 57.4765 89.3688C57.5556 88.3186 57.2516 87.8872 57.2174 87.0982C57.1834 86.3104 57.5089 87.4405 57.4131 86.5301C57.2141 84.643 56.7695 82.2513 56.4477 80.3556C56.3182 79.5994 56.1799 80.1547 56.1561 80.0474C55.8263 78.4946 55.7938 76.8718 55.1887 76.0843C56.1748 74.7962 54.9108 75.1616 54.7572 72.8866C54.7456 72.7073 55.2621 72.3868 55.4613 73.0482C55.6603 73.7097 55.6649 74.7644 55.9552 75.6796C56.0236 75.8964 56.7654 77.0774 56.8271 77.2454C57.3101 78.5615 56.5135 78.8986 56.4804 78.9784C56.1302 79.8794 56.9614 81.3357 57.0713 81.7381C57.5746 83.5792 57.7346 85.19 58.1338 86.7336C58.3939 87.7434 58.9551 87.749 59.0784 88.556C59.4885 91.2386 58.8923 92.3036 59.9884 94.7081C60.2226 95.2238 60.7235 94.5836 60.593 96.6003C60.5847 96.727 60.4072 98.2382 60.822 99.0213C60.8743 99.1197 61.0469 99.0862 61.0854 99.2212C61.3399 100.126 61.3088 100.765 61.5496 101.757C61.7903 102.75 62.0989 103.939 62.2396 105.096C62.3246 105.793 62.1562 106.735 62.1347 107.079C62.0696 108.053 62.6169 108.989 62.4419 109.615C62.2665 110.246 61.6474 109.179 61.7346 110.74C62.1944 110.718 62.6789 110.768 63.1473 110.78C63.7147 114.135 64.1431 117.458 64.7482 120.818C64.8236 121.234 64.9913 120.766 65.0785 121.211C65.445 123.09 65.5592 124.767 65.9682 126.711C66.2439 128.017 66.6912 129.407 67.0267 130.78C67.1977 131.823 66.5597 132.836 65.5325 133.087C65.329 133.154 65.1257 133.218 64.923 133.278C63.8431 133.014 61.5763 133.773 59.886 134.154C59.294 134.287 59.2989 134.142 58.8695 134.204C57.2505 134.442 58.1036 134.702 57.689 134.882C55.9101 135.655 55.4936 134.682 53.3125 135.263C53.1968 135.294 51.9176 136.194 51.731 136.278C50.547 136.812 51.478 136.142 50.692 136.299C49.2568 136.587 48.2396 136.708 46.6178 137.289C46.1451 137.459 45.0682 138.091 44.0608 138.07C43.9283 138.068 43.9513 137.872 43.849 137.887C42.0009 138.171 42.0961 138.744 41.1136 139.196C40.1309 139.648 38.4402 139.666 38.0877 139.637C37.1665 139.564 38.706 139.348 38.7447 139.308C39.1982 138.834 38.0517 139.188 37.1571 139.385C36.8887 138.867 35.6562 139.216 36.2303 139.591C36.295 139.632 36.9725 139.405 37.1571 139.385C36.5154 140.122 35.1692 140.538 33.5347 140.417C32.7695 140.36 33.366 139.915 31.2497 140.561C30.2937 140.852 30.7568 141.134 29.941 141.454C29.1455 141.648 28.4126 141.192 28.2708 140.386C28.2696 140.382 28.2683 140.378 28.2671 140.374C27.6583 138.43 27.536 135.78 27.0983 133.741C26.9394 133.001 26.8639 133.765 26.7481 133.26C26.44 131.922 26.3764 130.703 26.0435 129.363C26.0131 129.241 25.8488 129.582 25.7676 129.161C25.1478 125.972 24.7713 123.164 24.1548 119.828C23.8568 118.216 23.1994 115.358 22.9133 113.684C22.416 110.783 22.074 107.164 21.5364 104.707C21.1867 103.104 21.0324 103.499 20.7539 102.836C20.2151 101.557 20.297 99.1012 20.3186 98.7684C20.3195 98.7582 20.6294 100.136 20.6047 99.3746C20.7602 98.9004 20.3225 98.7839 20.3186 98.7684C20.3319 98.5501 19.8663 95.7698 19.7219 95.2274C19.6433 94.9327 19.4658 95.1387 19.4288 94.9844C18.5528 91.3137 17.8092 87.6118 17.2076 83.8355C17.1995 83.7686 17.4514 83.8248 17.4294 83.668C17.1284 81.473 16.5838 80.133 16.0806 78.3701C15.5774 76.6076 15.3695 75.1742 15.5724 74.0377C15.2702 72.6934 15.0859 70.7183 14.9855 69.5807C14.885 68.4432 14.4018 68.3717 14.3746 68.275C13.5166 65.2615 13.4467 63.4401 12.8952 60.2507C12.6338 58.7342 12.0097 55.7457 11.6553 54.117C11.3745 52.8299 11.3359 52.0303 11.0459 50.8502C11.0068 50.6905 10.8349 50.8911 10.818 50.8433C10.3284 49.5571 10.9417 50.1049 10.9789 49.8137C11.1146 48.7575 11.1711 48.1101 10.7029 46.4334C10.5952 46.0467 9.67026 45.0337 9.49529 44.3247C9.26911 43.4026 9.58969 43.7069 9.34635 42.7426C9.32577 42.66 9.17159 42.7067 9.0665 42.1032C8.5766 39.3021 8.1012 36.2373 7.545 33.3353C7.46963 32.9387 7.3146 33.4939 7.20159 32.9218C6.67151 30.237 6.13219 27.2866 5.76147 24.6439C5.67101 23.9933 5.92106 24.3652 5.94691 24.2155C6.06924 23.4868 5.66409 22.6218 5.46868 22.1962C5.27076 21.0707 5.94923 19.9792 7.05937 19.7085C7.16644 19.6506 7.24482 19.6088 7.28527 19.5966C11.9607 18.1773 15.6846 17.6636 20.4568 16.2435C20.7163 16.1654 22.6139 15.1694 23.6203 15.3537C23.689 15.3655 24.6884 15.5619 25.4033 15.072C25.4476 15.0415 24.8366 14.965 25.8119 14.7405C26.7872 14.5161 28.3108 13.9737 29.7046 13.874C30.1457 13.8421 31.2504 14.0105 32.4236 13.3539C32.4997 13.3095 34.2494 12.0545 35.0765 12.403C35.2109 12.4608 35.2345 13.0462 36.6645 12.3793C36.9374 12.2511 36.3848 12.2597 37.1214 11.99C38.2497 11.5761 39.8227 11.3344 41.1841 10.7247C41.4213 10.6177 42.3828 9.9718 43.3037 10.0422C43.4479 10.0533 43.2427 10.3029 43.6959 10.2097C45.8512 9.76756 48.05 9.07627 50.2452 8.65454C51.0227 8.5048 50.7073 8.9042 51.5262 8.78147C52.3453 8.65865 53.9737 8.32672 54.7745 7.9772C55.5754 7.62757 54.5409 7.38198 55.7832 7.0253C61.1842 5.47483 66.6476 4.38371 72.0932 3.04233C72.9009 2.84343 72.1891 2.84243 73.3763 2.53704C75.9273 1.88034 79.5465 0.898558 82.8929 0.0742838C84.1759 -0.238603 85.4857 0.461726 85.8814 1.72161C86.6259 4.07304 87.2809 6.29034 87.6377 7.89439C88.3231 10.9754 86.8838 7.28552 87.5096 9.60677C87.8122 10.7267 88.7447 11.7417 88.8483 12.0021C89.867 14.544 90.2124 16.4284 91.0465 18.7432C91.2188 19.2212 91.2858 18.6757 91.43 19.0833C91.9246 20.4749 92.3054 21.9826 92.7594 23.3184C92.9636 23.9175 93.0963 23.7518 93.2633 24.3098C93.6647 25.6445 93.9746 26.8395 94.2362 28.1828C94.26 28.3052 93.7921 27.5794 94.1029 28.5624C94.6065 30.1532 95.0905 32.1736 95.8449 33.947C96.0694 34.4729 96.462 34.3688 96.574 35.6198C96.5978 35.8822 96.0334 35.721 96.8743 36.9474C97.0149 37.1539 98.295 39.2571 98.3105 40.4883C98.3148 40.8131 98.1805 41.6891 98.4517 42.3212C98.4899 42.4065 98.5821 41.9852 98.7777 42.5185C99.4635 44.3989 100.089 46.3999 100.789 48.3332C100.977 48.8494 100.938 48.0024 101.211 48.7739C101.96 50.8954 102.773 53.5837 103.386 55.6973C103.611 56.4766 103.26 56.0013 103.259 56.0637C103.238 57.0682 103.836 57.4639 103.958 57.7553C104.711 59.5698 104.973 61.053 105.584 62.7528C105.752 63.222 105.845 62.8203 105.893 62.9088C106.387 63.8297 105.787 63.2191 105.949 63.8513C106.399 65.6227 107.043 67.551 107.639 69.2967C107.858 69.9379 107.858 69.1375 108.052 69.7138C109.204 73.123 110.338 76.6881 111.294 80.0701C111.473 80.7071 111.164 80.3701 111.165 80.5146C111.17 81.5117 111.994 82.7078 112.131 83.0003C112.752 84.3298 112.767 84.9197 113.195 86.1333C115.285 92.0609 117.577 99.4738 119.344 105.136C120.609 109.185 121.686 112.746 122.784 116.292C123.179 117.549 122.524 118.773 121.244 119.085C118.276 119.796 115.318 120.523 112.1 121.363C111.647 121.481 112.167 121.61 111.777 121.715C106.739 123.059 101.741 124.228 96.6962 125.586C96.2821 125.698 96.94 125.777 96.2773 125.963C94.9186 126.347 93.1828 126.775 91.7811 127.052C91.0975 127.188 91.9515 126.759 91.2645 126.9C89.6646 127.227 87.9658 127.641 86.3514 128.092C85.6761 128.28 86.731 128.257 85.9135 128.476C84.6046 128.795 83.255 128.083 82.8363 126.803C82.8315 126.789 82.8266 126.775 82.8216 126.76C80.7777 120.787 78.7531 114.927 77.0115 108.781C76.8922 108.36 77.241 107.837 76.8529 106.986C76.6995 106.964 76.5468 107.02 76.3971 107.038C73.3799 98.3567 70.6317 89.6835 67.7069 80.9437C67.5836 80.5752 67.5486 81.2959 67.3085 80.5829C65.9185 76.4567 64.4958 72.4744 63.3186 68.1711C63.2015 67.7442 63.7137 67.8105 63.2303 66.5992C63.1447 66.3857 62.4582 64.5474 62.2005 64.0992C62.1641 64.0388 62.0734 64.4472 61.8651 63.8504C61.6762 63.3073 61.4878 62.7595 61.3003 62.2082L61.7399 62.9773C59.6842 60.6079 57.6171 58.1355 55.6795 55.7228C55.309 55.2608 55.8956 55.5868 55.6333 55.2565C55.2562 54.7823 54.8629 54.308 54.4612 53.8339L57.638 53.026C57.0936 55.4123 56.6308 57.9005 55.9824 60.0911C55.4374 61.9294 55.1986 61.1528 54.5988 62.062C54.5141 62.1906 54.2533 63.3457 54.0172 63.3569C53.4227 63.3882 52.9304 62.6939 52.2823 62.7935C52.1429 62.814 51.944 64.3937 51.8326 63.4085C51.8258 63.3399 51.9673 62.194 51.922 61.8943C51.891 61.6858 51.5884 61.9834 51.5806 61.57C51.5729 61.1567 51.8572 60.7663 51.8894 60.0908C51.9202 59.4152 51.5997 59.6454 51.8526 58.338ZM14.5296 64.4593C14.5552 63.3839 13.7279 63.3798 14.1273 64.4635C14.1475 64.5158 14.5288 64.5146 14.5296 64.4593ZM63.536 117.545C63.4188 118.962 64.0994 119.799 64.2057 118.795C64.3117 117.792 63.5711 117.113 63.536 117.545ZM60.8319 103.531C60.8292 105.164 62.0078 105.216 61.4831 103.559C61.4529 103.463 60.832 103.436 60.8319 103.531ZM55.493 57.434C55.4794 57.4459 55.2879 58.2753 55.294 58.2975C55.4496 58.7953 55.8324 57.1368 55.493 57.434ZM58.1238 89.63C58.0563 90.1513 58.4814 91.5446 58.5654 90.8968C58.6329 90.3754 58.2076 88.9807 58.1238 89.63ZM18.9024 18.807C18.9215 18.8146 19.5155 18.6748 19.4868 18.6115C19.3923 18.4081 18.5846 18.6777 18.9024 18.807ZM53.985 65.9223C54.5518 69.4328 53.9837 71.7199 53.4257 67.8867C53.3246 67.1926 53.9838 69.3235 53.9153 68.4295C53.7894 66.7939 53.0147 65.828 53.0445 64.1313C53.0505 63.824 53.9547 65.7217 53.9874 65.9283C53.9866 65.9263 53.9858 65.9243 53.985 65.9223ZM15.3783 63.6849C15.385 63.6622 15.2405 62.8298 15.2263 62.8119C14.8891 62.4093 15.18 64.0862 15.3783 63.6849ZM53.5355 10.5169C53.5863 10.5276 55.4915 10.0652 55.5483 10.029C56.4354 9.36805 52.5833 10.3018 53.5355 10.5169ZM26.3682 119.508C26.7919 120.367 27.0236 121.446 26.8376 122.227C26.6871 121.324 26.5209 120.417 26.3682 119.508Z" fill="#5C49FF"/>
</svg>
