<svg width="512" height="512" viewBox="0 0 512 512" fill="none" xmlns="http://www.w3.org/2000/svg">
<g clip-path="url(#clip0_56_4299)">
<rect width="512" height="512" rx="60" fill="#CAF264"/>
<rect x="238.59" y="379.123" width="26.5391" height="26.8916" fill="#FC98CA"/>
<rect x="147.832" y="246.578" width="20.332" height="46.3372" rx="10.166" fill="#FC98CA"/>
<path d="M157.5 191.025C157.5 179.98 166.454 171.025 177.5 171.025H321.098C332.143 171.025 341.098 179.98 341.098 191.025V293.855C341.098 344.554 299.998 385.654 249.299 385.654C198.6 385.654 157.5 344.554 157.5 293.855V191.025Z" fill="#FFBEDF"/>
<path d="M249.297 339.538C259.776 342.37 284.132 342.426 297.727 319.996" stroke="white" stroke-width="10" stroke-linecap="round"/>
<rect x="135.188" y="406.014" width="233.344" height="243.688" rx="46" fill="#644292"/>
<path d="M94.168 202.597H103.576L112.92 232.549L122.392 202.597H131.736L141.144 232.421L150.488 202.597H159.832L145.816 247.397H136.408L127.064 217.445L117.592 247.397H108.248L94.168 202.597Z" fill="#222222"/>
<path d="M163.951 247.397V202.597H200.943V210.853H172.911V220.837H199.919V229.093H172.911V239.077H200.943V247.397H163.951Z" fill="#222222"/>
<path d="M204.979 247.397L227.443 202.597H236.467L259.059 247.397H249.075L243.763 236.837H219.251L213.939 247.397H204.979ZM223.347 228.645H239.603L231.475 212.517L223.347 228.645Z" fill="#222222"/>
<path d="M271.007 247.397V210.853H255.135V202.597H295.711V210.853H279.967V247.397H271.007Z" fill="#222222"/>
<path d="M301.139 247.397V202.597H310.099V220.837H334.611V202.597H343.571V247.397H334.611V229.093H310.099V247.397H301.139Z" fill="#222222"/>
<path d="M351.639 247.397V202.597H388.631V210.853H360.599V220.837H387.607V229.093H360.599V239.077H388.631V247.397H351.639Z" fill="#222222"/>
<path d="M427.866 247.397L417.946 234.341H405.786V247.397H396.826V202.597H419.866C429.466 202.597 437.402 208.933 437.402 218.469C437.402 224.741 433.306 229.989 427.738 232.613L439.002 247.397H427.866ZM428.442 218.469C428.442 214.053 424.858 210.853 419.866 210.853H405.786V225.957H419.866C424.794 225.957 428.442 222.693 428.442 218.469Z" fill="#222222"/>
<path d="M213.88 291.397H205.944L205.048 287.173C201.784 290.437 197.112 292.357 191.672 292.357C181.048 292.357 173.048 285.125 173.048 275.461C173.048 265.669 180.984 258.437 191.672 258.437C196.984 258.437 201.656 260.293 204.92 263.493L204.979 247.397H213.939L213.88 291.397ZM182.008 275.461C182.008 280.645 186.872 284.421 193.592 284.421C200.376 284.421 204.92 280.773 204.92 275.461C204.92 270.085 200.312 266.309 193.592 266.309C186.872 266.309 182.008 270.149 182.008 275.461Z" fill="#222222"/>
<path d="M252.303 274.886V259.974H261.263V291.974H253.199L252.367 286.662C249.551 290.566 245.327 292.934 240.335 292.934C230.735 292.934 224.015 285.51 224.015 274.886V259.974H232.975V274.886C232.975 280.646 237.007 284.614 242.703 284.614C248.335 284.614 252.303 280.582 252.303 274.886Z" fill="#222222"/>
<path d="M310.095 291.397H302.159L301.263 287.173C297.999 290.437 293.327 292.357 287.887 292.357C277.263 292.357 269.263 285.125 269.263 275.461C269.263 265.669 277.199 258.437 287.887 258.437C293.199 258.437 297.871 260.293 301.135 263.493V246.597H310.095V291.397ZM278.223 275.461C278.223 280.645 283.087 284.421 289.807 284.421C296.591 284.421 301.135 280.773 301.135 275.461C301.135 270.085 296.527 266.309 289.807 266.309C283.087 266.309 278.223 270.149 278.223 275.461Z" fill="#222222"/>
<path d="M356.518 277.637H327.462C328.422 282.245 332.518 285.317 337.894 285.317C341.734 285.317 344.806 283.909 346.47 281.605H355.558C353.126 288.133 346.278 292.357 337.51 292.357C326.502 292.357 318.246 285.125 318.246 275.461C318.246 265.669 326.438 258.437 337.51 258.437C348.454 258.437 356.646 265.285 356.646 275.461C356.646 276.165 356.646 276.933 356.518 277.637ZM327.462 273.157H347.43C346.534 268.613 342.758 265.669 337.51 265.669C332.326 265.669 328.422 268.677 327.462 273.157Z" fill="#222222"/>
<path fill-rule="evenodd" clip-rule="evenodd" d="M218.398 75.5342C232.162 75.5342 244.297 82.5028 251.47 93.1035C260.86 82.505 274.57 75.8223 289.844 75.8223C309.992 75.8223 327.423 87.4485 335.799 104.357C337.525 104.083 339.295 103.939 341.098 103.939C359.623 103.939 374.641 118.957 374.641 137.482C374.641 150.17 367.595 161.211 357.204 166.91C354.931 179.261 344.109 188.618 331.102 188.618C328.026 188.618 325.073 188.093 322.326 187.131C316.412 192.356 308.642 195.529 300.129 195.529C287.724 195.529 276.892 188.795 271.089 178.782C263.853 188.92 251.994 195.529 238.59 195.529C227.628 195.529 217.7 191.108 210.488 183.953C201.818 191.18 190.666 195.529 178.496 195.529C150.882 195.529 128.496 173.144 128.496 145.529C128.496 117.915 150.882 95.5293 178.496 95.5293C180.24 95.5293 181.963 95.6188 183.66 95.793C190.515 83.6974 203.503 75.5342 218.398 75.5342Z" fill="#644292"/>
</g>
<defs>
<clipPath id="clip0_56_4299">
<rect width="512" height="512" rx="60" fill="white"/>
</clipPath>
</defs>
</svg>
