<svg xmlns="http://www.w3.org/2000/svg" viewBox="-40 -40 874 874" fill="none"><g class="dudes-ring"><g class="q-pink"><g clip-path="url(#pink-a)"><path fill="#ff86ce" d="M390.604.053C171.375 3.586-3.481 184.17.053 403.398l151.071-2.434c-2.189-135.795 106.12-247.652 241.914-249.84l-1.092-67.764s-39.565 27.323-40.12-7.127 39.87-8.416 39.87-8.416z"/><path stroke="#000" stroke-width="3" d="M390.152 65.146a86 86 0 0 0-4.09-2.199c-3.83-1.927-8.994-4.167-14.188-5.306-5.14-1.128-10.644-1.252-14.868 1.484-4.325 2.801-6.823 8.26-6.68 17.132.143 8.871 2.815 14.247 7.229 16.908 4.31 2.598 9.807 2.297 14.908 1.004 5.154-1.306 10.243-3.71 14.01-5.76a86 86 0 0 0 4.016-2.33l1.026 63.573c-135.42 2.987-243.289 114.39-241.911 249.835l-148.07 2.387C-1.162 184.651 171.93 5.889 389.126 1.581z"/><rect width="17" height="37" x="193.5" y="101.5" fill="#ec87c8" stroke="#000" rx="8.5"/><rect width="17" height="37" x="55.5" y="101.5" fill="#ec87c8" stroke="#000" rx="8.5"/><path fill="#f3badc" stroke="#000" d="M201.5 75.5V125c0 37.832-30.668 68.5-68.5 68.5S64.5 162.832 64.5 125V75.5z"/><mask id="pink-b" fill="#fff"><path d="M133 0a69 69 0 0 1 63.748 42.595c1.856 4.48 3.228 11.997 4.105 19.405H233.5a8.5 8.5 0 0 1 0 17H64c0-9.061 1.784-28.034 5.252-36.405a69 69 0 0 1 37.343-37.343A69 69 0 0 1 133 0"/></mask><path fill="#5947f1" d="M133 0a69 69 0 0 1 63.748 42.595c1.856 4.48 3.228 11.997 4.105 19.405H233.5a8.5 8.5 0 0 1 0 17H64c0-9.061 1.784-28.034 5.252-36.405a69 69 0 0 1 37.343-37.343A69 69 0 0 1 133 0"/><path fill="#000" d="M133 0v1zm26.405 5.252.383-.924zM181.79 20.21l.707-.707zm14.958 22.385.924-.383zM200.853 62l-.994.117.105.883h.889zM233.5 79v1zM64 79h-1v1h1zm5.252-36.405-.924-.383zM84.21 20.21l-.707-.707zm22.385-14.958-.383-.924zM133 0v1c8.93 0 17.772 1.759 26.023 5.176l.382-.924.383-.924A70 70 0 0 0 133-1zm26.405 5.252-.382.924a68 68 0 0 1 22.06 14.741l.707-.707.707-.707a70 70 0 0 0-22.709-15.175zM181.79 20.21l-.707.707a68 68 0 0 1 14.741 22.06l.924-.382.924-.383a70 70 0 0 0-15.175-22.71zm14.958 22.385-.924.382c1.798 4.341 3.16 11.736 4.035 19.14l.994-.117.993-.117c-.877-7.413-2.261-15.052-4.174-19.671zM200.853 62v1H233.5v-2h-32.647zm32.647 0v1a7.5 7.5 0 0 1 7.5 7.5h2a9.5 9.5 0 0 0-9.5-9.5zm8.5 8.5h-1a7.5 7.5 0 0 1-7.5 7.5v2a9.5 9.5 0 0 0 9.5-9.5zm-8.5 8.5v-1H64v2h169.5zM64 79h1c0-4.48.442-11.446 1.318-18.335.878-6.916 2.18-13.635 3.858-17.688l-.924-.382-.924-.383c-1.789 4.32-3.114 11.272-3.994 18.2C63.45 67.369 63 74.42 63 79zm5.252-36.405.924.382a68 68 0 0 1 14.741-22.06l-.707-.707-.707-.707a70 70 0 0 0-15.175 22.709zM84.21 20.21l.707.707a68 68 0 0 1 22.06-14.741l-.382-.924-.383-.924a70 70 0 0 0-22.71 15.175zm22.385-14.958.382.924A68 68 0 0 1 133 1v-2a70 70 0 0 0-26.788 5.328z" mask="url(#pink-b)"/><rect width="10" height="25" x="98" y="101" fill="#271b25" rx="5"/><rect width="10" height="25" x="146" y="101" fill="#271b25" rx="5"/><path stroke="#fff" stroke-linecap="round" stroke-width="10" d="M134 167c10 1.167 31.3-2 36.5-24"/></g><defs><clipPath id="pink-a"><path fill="#fff" d="M0 0h794v794H0z"/></clipPath></defs></g><g class="q-lime"><path fill="#caf264" d="M793.95 390.604C790.416 171.375 609.832-3.481 390.604.053l1.092 67.764s-40.425-26.034-39.87 8.416 40.12 7.127 40.12 7.127l1.092 67.764c135.795-2.189 247.652 106.12 249.84 241.914z"/><path stroke="#000" stroke-width="3" d="M392.127 1.533C609.351-1.16 788.113 171.93 792.421 389.127l-148.072 2.388c-2.987-135.421-114.389-243.289-249.835-241.911l-1.068-66.268-.045-2.804-2.307 1.593-.004.004-.019.013-.079.052-.317.213c-.281.186-.697.456-1.228.79a83 83 0 0 1-4.408 2.576c-3.669 1.997-8.507 4.27-13.313 5.488-4.86 1.231-9.359 1.302-12.622-.665-3.161-1.906-5.643-6.034-5.778-14.387s2.213-12.56 5.311-14.566c3.199-2.072 7.698-2.146 12.594-1.072 4.843 1.063 9.752 3.179 13.483 5.056a83 83 0 0 1 4.49 2.434 62 62 0 0 1 1.576.95l.08.052.019.012.004.002.001.001 2.357 1.518-.046-2.804z"/><path fill="#fbe667" stroke="#000" stroke-linecap="round" d="M629.926 13.136c16.788-9.302 34.975-3.876 41.971 0 6.271-4.555 29.187-5.993 41.127 0s44.72 19.42 40.764 72.645c-3.955 53.226 10.493 73.085 18.212 76.362-22.674 25.773-52.464 17.022-60.785 13.786-8.322-3.237-32.283-14.306-39.318-21.458 0 2.557-7.84 10.429-39.197 21.458s-52.866-4.596-59.7-13.786c12.784-11.508 18.814-37.402 17.126-76.361-1.689-38.96 18.814-61.018 39.8-72.646Z"/><rect width="17" height="37" x="732.5" y="104.5" fill="#ec87c8" stroke="#000" rx="8.5"/><rect width="17" height="37" x="594.5" y="104.5" fill="#ec87c8" stroke="#000" rx="8.5"/><path fill="#f3badc" stroke="#000" d="M740.5 52.5V128c0 37.832-30.668 68.5-68.5 68.5s-68.5-30.668-68.5-68.5V52.5z"/><rect width="10" height="25" x="637" y="104" fill="#271b25" rx="5"/><path stroke="#fff" stroke-linecap="round" stroke-width="10" d="M673 170c10 1.167 31.3-2 36.5-24"/><path fill="#fbe667" d="M749.747 57.232c-1.706 4.587-8.007 15.283-11.394 18.847a37.2 37.2 0 0 1-12.026 8.428 38.6 38.6 0 0 1-14.507 3.225 39.5 39.5 0 0 1-14.781-2.469 39.5 39.5 0 0 1-12.803-7.787 38.6 38.6 0 0 1-8.876-11.92 37.2 37.2 0 0 1-3.599-14.236c-.235-4.912 2.316-16.133 4.021-20.72l39.72 6.9z"/><path fill="#fbe667" d="M593.793 57.232c1.706 4.587 8.007 15.283 11.394 18.847a37.2 37.2 0 0 0 12.026 8.428c4.553 2 9.482 3.096 14.507 3.225 5.026.13 10.048-.709 14.781-2.469a39.5 39.5 0 0 0 12.803-7.787 38.6 38.6 0 0 0 8.876-11.92 37.2 37.2 0 0 0 3.599-14.236c.235-4.912-2.316-16.133-4.021-20.72l-39.72 6.9z"/><path fill="#222" d="M660.298 104c3.38 0 6.194 2.779 5.39 6.063a25.514 25.514 0 0 1-15.014 17.501 25.504 25.504 0 0 1-34.536-17.501c-.803-3.284 2.01-6.063 5.391-6.063h38.769M719.47 104c3.38 0 6.194 2.779 5.39 6.063a25.482 25.482 0 0 1-6.74 11.972 25.5 25.5 0 0 1-27.795 5.529 25.5 25.5 0 0 1-13.804-13.803 25.5 25.5 0 0 1-1.211-3.698c-.803-3.284 2.01-6.063 5.391-6.063h38.769"/><path stroke="#000" stroke-width="2" d="M663.015 107.401c2.381 2.38 8.842 5.713 15.644 0"/><path stroke="#fff" stroke-linecap="round" d="M623.523 109c-.166 1.833.5 5.9 4.5 7.5M683.523 109c-.166 1.833.5 5.9 4.5 7.5"/></g><g class="q-blue"><g clip-path="url(#blue-a)"><path fill="#5c49ff" d="M403.398 793.95c219.229-3.534 394.085-184.118 390.552-403.346l-151.072 2.434c2.189 135.795-106.12 247.652-241.914 249.84l1.092 67.764s38.628-23.398 40.12 7.127c1.492 30.526-39.87 8.417-39.87 8.417z"/><path stroke="#000" stroke-width="3" d="M792.469 392.127c2.694 217.224-170.397 395.987-387.595 400.294l-1.028-63.796a92 92 0 0 0 4.326 1.924c3.903 1.616 9.145 3.472 14.38 4.354 5.177.873 10.66.848 14.801-1.658 4.297-2.601 6.71-7.581 6.321-15.549s-3.246-12.806-7.676-15.233c-4.301-2.357-9.705-2.214-14.745-1.173-5.086 1.051-10.082 3.076-13.777 4.816a84 84 0 0 0-3.961 1.996l-1.028-63.753c135.421-2.987 243.289-114.389 241.91-249.835z"/><path fill="#fff" d="M563.21 681.998q-2.47-2.388-6.15-6.239a3258 3258 0 0 0-7.559-7.881 831 831 0 0 0-7.248-7.744q-3.481-3.67-5.529-5.965a16 16 0 0 1-1.893-2.226q-.744-1.256-1.048-2.04-.885-2.616-.373-4.617.624-2.043 2.19-2.65 1.23-.477 2.422.605a28 28 0 0 1 2.359 2.432 244 244 0 0 0 5.832 6.749l6.74 7.426q3.481 3.67 6.565 6.979 3.04 3.198 4.872 4.933l3.751-35.816q.276-2.938 1.547-4.975 1.381-2.079 3.283-2.817 1.12-.433 2.243.804 1.079 1.127 1.556 2.357.52 1.342.258 2.989-.151 1.603-1.07 6.206-.544 2.913-1.618 7.448-.962 4.491-1.529 11.661a809 809 0 0 1-1.219 11.797q-.767 6.99-1.334 14.159a212 212 0 0 0-.457 13.433q.111 6.262 1.455 9.732.78 2.013.555 4.418-.116 2.361-1.793 3.011-.672.261-1.784.048a15 15 0 0 1-2.242-.804 8.6 8.6 0 0 1-2.036-1.27q-.907-.678-1.254-1.573-.52-1.343-.759-3.953a183 183 0 0 1-.342-5.53q.01-2.964.131-5.971t.504-5.343zm31.461-32.353q-4.736-5.893-6.454-11.286-1.719-5.394-1.13-10.024.514-4.724 2.885-8.477 2.297-3.848 5.663-6.554 7.763-6.24 16.802-3.807 8.964 2.34 16.933 12.254 3.76 4.677 5.345 9.714 1.512 4.944 1.335 9.705-.252 4.667-2.228 8.72-1.884 3.976-5.157 6.609-3.554 2.856-8.238 3.542-4.665.517-9.503-.521a33 33 0 0 1-9.079-3.633q-4.317-2.688-7.174-6.242m27.135-.72a15.7 15.7 0 0 0 3.813-4.451 15.5 15.5 0 0 0 1.823-5.776q.424-3.113-.502-6.371-.926-3.26-3.482-6.439-2.331-2.9-5.034-4.729t-5.366-2.461q-2.738-.725-5.267-.232a10.4 10.4 0 0 0-4.586 2.148q-2.432 1.955-4.28 4.826a16.7 16.7 0 0 0-2.516 5.872q-.762 3.075-.116 6.559.663 3.317 3.145 6.402 2.03 2.526 4.995 4.299a20.7 20.7 0 0 0 6.059 2.366q3.168.686 6.204.248 2.96-.532 5.11-2.261m53.033-38.4q-3.345 5.125-7.89 6.6-4.581 1.31-9.348.491a33.8 33.8 0 0 1-9.216-3.006q-4.482-2.353-7.698-4.452a151 151 0 0 1-6.702-4.661q-3.522-2.728-6.278-5.53-2.858-2.868-4.346-5.416-1.424-2.65-.309-4.358.918-1.406 2.15-1.319 1.299-.012 2.806.972t3.254 2.697a212 212 0 0 1 3.661 3.393 387 387 0 0 0 4.098 3.821 47 47 0 0 0 4.627 3.45q1.91 1.245 4.92 2.781a29.3 29.3 0 0 0 6.213 2.336q3.103.735 6.127.273 2.924-.528 4.826-3.442 1.509-2.312 1.785-4.71.241-2.566-.182-4.991a21.3 21.3 0 0 0-1.611-4.777 377 377 0 0 0-2.008-4.607 400 400 0 0 0-5.23-3.844 136 136 0 0 0-4.225-3.187l-12.731-8.596q-2.312-1.51-2.328-3.239-.018-1.73.573-2.635t2.085-1.219 3.304.867l36.385 24.608q2.547 1.806 2.993 3.1.444 1.293-.539 2.801-.59.904-1.351 1.411-.66.572-1.626.515-1.066-.123-2.604-.84-1.639-.783-4.05-2.357l-1.809-1.181q-1.005-.656-2.045-1.478a20.1 20.1 0 0 1 3.577 5.058q1.424 2.649 1.917 5.406.558 2.658.282 5.057t-1.457 4.208"/></g><defs><clipPath id="blue-a"><path fill="#fff" d="M0 0h794v794H0z"/></clipPath></defs></g><g class="q-yellow" transform="rotate(-0.924 397 397)"><path fill="#fbe667" d="M0 397c0 219.257 177.743 397 397 397v-67.773s41 22.773 40-7.772-40-7.773-40-7.773v-67.773c-135.812 0-245.909-110.097-245.909-245.909z"/><path stroke="#000" stroke-width="3" d="M149.596 398.5C150.4 533.95 260.05 643.6 395.5 644.404v68.891l2.257-1.317.004-.003q.005-.004.017-.01l.077-.045.314-.176c.276-.154.685-.379 1.208-.654a79 79 0 0 1 4.35-2.122c3.62-1.635 8.405-3.474 13.178-4.38 4.819-.915 9.35-.826 12.681 1.069 3.203 1.823 5.676 5.548 5.915 12.847s-2.018 10.966-5.085 12.756c-3.226 1.882-7.805 1.979-12.768 1.06-4.904-.908-9.882-2.752-13.662-4.388a89 89 0 0 1-4.552-2.125c-.579-.276-.979-.502-1.27-.657l-.33-.176-.082-.045-.019-.01-.004-.003-2.229-1.237v68.816C178.261 791.689 2.312 615.739 1.505 398.5z"/><path fill="#f3badc" stroke="#000" d="M226.5 630.5V697c0 37.832-30.668 68.5-68.5 68.5S89.5 734.832 89.5 697v-66.5z"/><mask id="yellow-a" fill="#fff"><path d="M138.5 561c11.587 0 21.756 6.065 27.511 15.192A22.44 22.44 0 0 1 182.5 569c12.271 0 22.246 9.823 22.493 22.035C222.249 591.816 236 606.051 236 623.5c0 17.949-14.551 32.5-32.5 32.5-12.876 0-24.002-7.488-29.264-18.347A26 26 0 0 1 170 638c-3.808 0-7.425-.819-10.685-2.29-4.662 5.094-11.365 8.29-18.815 8.29-1.562 0-3.091-.142-4.576-.411C130.079 652.848 119.759 659 108 659c-18.225 0-33-14.775-33-33 0-17.555 13.709-31.907 31.005-32.938C106.24 575.314 120.697 561 138.5 561"/></mask><path fill="#5c49ff" d="M138.5 561c11.587 0 21.756 6.065 27.511 15.192A22.44 22.44 0 0 1 182.5 569c12.271 0 22.246 9.823 22.493 22.035C222.249 591.816 236 606.051 236 623.5c0 17.949-14.551 32.5-32.5 32.5-12.876 0-24.002-7.488-29.264-18.347A26 26 0 0 1 170 638c-3.808 0-7.425-.819-10.685-2.29-4.662 5.094-11.365 8.29-18.815 8.29-1.562 0-3.091-.142-4.576-.411C130.079 652.848 119.759 659 108 659c-18.225 0-33-14.775-33-33 0-17.555 13.709-31.907 31.005-32.938C106.24 575.314 120.697 561 138.5 561"/><path fill="#000" d="m166.011 576.192-.846.534.693 1.1.885-.953zm38.982 14.843-1 .02.019.937.936.042zm-30.757 46.618.9-.436-.325-.671-.736.12zm-14.921-1.943.412-.911-.66-.298-.489.534zm-23.391 7.879.178-.984-.664-.12-.36.57zm-29.919-50.527.059.998.929-.056.012-.929zM138.5 561v1c11.229 0 21.086 5.876 26.665 14.726l.846-.534.846-.533C160.927 566.253 150.445 560 138.5 560zm27.511 15.192.732.681A21.44 21.44 0 0 1 182.5 570v-2c-6.803 0-12.932 2.893-17.222 7.512zM182.5 569v1c11.725 0 21.257 9.387 21.493 21.055l1-.02 1-.02C205.734 578.26 195.317 568 182.5 568zm22.493 22.035-.045.999C221.672 592.79 235 606.588 235 623.5h2c0-17.986-14.174-32.659-31.962-33.464zM236 623.5h-1c0 17.397-14.103 31.5-31.5 31.5v2c18.502 0 33.5-14.998 33.5-33.5zM203.5 656v-1c-12.478 0-23.263-7.256-28.364-17.783l-.9.436-.9.436C178.759 649.28 190.226 657 203.5 657zm-29.264-18.347-.161-.987A25 25 0 0 1 170 637v2c1.499 0 2.968-.125 4.398-.36zM170 638v-1c-3.664 0-7.141-.788-10.273-2.201l-.412.911-.411.911A26.9 26.9 0 0 0 170 639zm-10.685-2.29-.737-.675c-4.481 4.896-10.92 7.965-18.078 7.965v2c7.742 0 14.709-3.322 19.553-8.615zM140.5 644v-1c-1.502 0-2.971-.137-4.398-.395l-.178.984-.178.984c1.542.279 3.131.427 4.754.427zm-4.576-.411-.846-.534C129.409 652.037 119.401 658 108 658v2c12.117 0 22.749-6.34 28.769-15.877zM108 659v-1c-17.673 0-32-14.327-32-32h-2c0 18.778 15.222 34 34 34zm-33-33h1c0-17.023 13.293-30.94 30.064-31.94l-.059-.998-.06-.999C88.124 593.126 74 607.912 74 626zm31.005-32.938 1 .013C107.232 575.874 121.245 562 138.5 562v-2c-18.351 0-33.253 14.755-33.495 33.048z" mask="url(#yellow-a)"/><mask id="yellow-b" fill="#fff"><path d="M236 659.5a80.499 80.499 0 1 0-161 0h12.88a67.62 67.62 0 1 1 135.241 0z"/></mask><path fill="#caf264" stroke="#000" stroke-width="2" d="M236 659.5a80.499 80.499 0 1 0-161 0h12.88a67.62 67.62 0 1 1 135.241 0z" mask="url(#yellow-b)"/><rect width="10" height="25" x="123" y="656" fill="#271b25" rx="5"/><rect width="10" height="25" x="171" y="656" fill="#271b25" rx="5"/><path stroke="#fff" stroke-linecap="round" stroke-width="10" d="M159 734c10 1.167 31.3-2 36.5-24"/><mask id="yellow-c" fill="#fff"><path d="M230 699c6.63 0 12.989-2.634 17.678-7.322a25.004 25.004 0 0 0 0-35.356A25 25 0 0 0 230 649v50"/></mask><path fill="#caf264" stroke="#000" stroke-width="2" d="M230 699c6.63 0 12.989-2.634 17.678-7.322a25.004 25.004 0 0 0 0-35.356A25 25 0 0 0 230 649v50Z" mask="url(#yellow-c)"/><mask id="yellow-d" fill="#fff"><path d="M86 699a25.001 25.001 0 0 1-17.678-42.678A25 25 0 0 1 86 649v50"/></mask><path fill="#caf264" stroke="#000" stroke-width="2" d="M86 699a25.001 25.001 0 0 1-17.678-42.678A25 25 0 0 1 86 649v50Z" mask="url(#yellow-d)"/><rect width="17" height="55" x="218.5" y="646.5" fill="#caf264" stroke="#000" rx="8.5"/><rect width="17" height="55" x="-.5" y=".5" fill="#caf264" stroke="#000" rx="8.5" transform="matrix(-1 0 0 1 97 646)"/></g></g><g class="center-fg" transform="translate(-39.50 174.00)"><path fill="#222" d="M56.535 289.449H75.38q11.707 0 20.559-1.998 9.137-1.999 15.418-7.139 6.568-5.425 9.709-14.847 3.426-9.423 3.426-24.271 0-15.132-5.996-25.126-5.71-10.28-16.847-15.419-10.85-5.14-26.269-5.14H56.536zm110.501-47.969q0 31.694-12.849 49.397-12.563 17.418-35.977 24.27T63.103 322H17.132V161.246h45.971q31.694 0 55.107 9.137 23.414 8.851 35.977 26.554 12.849 17.703 12.849 44.543m99.936 84.517q-35.976 0-54.536-18.845-18.274-19.13-18.274-53.68v-92.226h42.83v91.941q0 11.993 3.14 19.13 3.141 6.853 7.71 10.28 4.854 3.426 9.993 4.568 5.14.857 9.137.857 6.568 0 13.42-1.999 7.139-1.999 11.993-9.423t4.854-23.413v-91.941h42.83v92.226q0 35.12-18.275 53.966-17.988 18.56-54.822 18.559m143.411-36.548h18.845q11.707 0 20.558-1.998 9.137-1.999 15.419-7.139 6.567-5.425 9.708-14.847 3.426-9.423 3.427-24.271 0-15.132-5.997-25.126-5.71-10.28-16.846-15.419-10.85-5.14-26.269-5.14h-18.845zm110.501-47.969q0 31.694-12.849 49.397-12.564 17.418-35.977 24.27T416.95 322h-45.97V161.246h45.97q31.695 0 55.108 9.137 23.413 8.851 35.977 26.554 12.849 17.703 12.849 44.543M546.582 322V161.246h121.636v33.978H585.7v29.41h61.389v31.979H585.7v33.693h85.659V322zm215.701 2.855q-13.705 0-26.84-3.141t-23.699-9.993q-10.565-7.138-17.132-18.274-6.282-11.136-6.282-26.84h39.975q0 1.428.571 3.997.857 2.57 3.141 5.711t6.282 5.996q3.997 2.856 10.564 4.854 6.853 1.713 16.561 1.713 3.997 0 8.281-.285 4.567-.571 8.28-1.713 3.712-1.428 5.996-3.998t2.284-6.853q0-5.996-5.71-9.422-5.425-3.426-14.562-5.425-8.852-2.284-19.702-4.569a218 218 0 0 1-21.129-5.71q-10.566-3.427-19.417-9.137-8.566-5.996-13.42-15.134-4.568-9.422-3.712-23.413 1.143-13.992 9.709-23.985t24.27-15.419q15.704-5.425 37.69-5.425 17.703 0 33.122 6.282 15.704 6.282 25.412 19.131 9.994 12.849 9.994 32.55h-38.547q0-6.567-3.427-10.564-3.426-4.284-8.851-6.282a38.7 38.7 0 0 0-11.421-2.856q-5.997-.856-10.851-.856-10.565 0-17.703 2.57-6.852 2.57-6.852 9.993 0 6.567 5.71 10.279 5.711 3.427 14.848 5.711 9.137 1.999 19.987 4.283a217 217 0 0 1 21.986 5.14q10.851 3.14 19.416 8.851 8.852 5.425 13.706 14.562 5.14 9.137 3.997 23.414-.856 13.99-10.279 23.985-9.137 9.708-25.127 15.133-15.703 5.139-37.119 5.139"/><mask id="wordmark-a" width="823" height="172" x="15" y="156" maskUnits="userSpaceOnUse" style="mask-type:luminance"><path fill="#fff" d="M838 156H15v172h823z"/><path fill="#000" d="M56.535 289.449H75.38q11.707 0 20.559-1.998 9.137-1.999 15.418-7.139 6.568-5.425 9.709-14.847 3.426-9.423 3.426-24.271 0-15.132-5.996-25.126-5.71-10.28-16.847-15.419-10.85-5.14-26.269-5.14H56.536zm110.501-47.969q0 31.694-12.849 49.397-12.563 17.418-35.977 24.27T63.103 322H17.132V161.246h45.971q31.694 0 55.107 9.137 23.414 8.851 35.977 26.554 12.849 17.703 12.849 44.543m99.936 84.517q-35.976 0-54.536-18.845-18.274-19.13-18.274-53.68v-92.226h42.83v91.941q0 11.993 3.14 19.13 3.141 6.853 7.71 10.28 4.854 3.426 9.993 4.568 5.14.857 9.137.857 6.568 0 13.42-1.999 7.139-1.999 11.993-9.423t4.854-23.413v-91.941h42.83v92.226q0 35.12-18.275 53.966-17.988 18.56-54.822 18.559m143.411-36.548h18.845q11.707 0 20.558-1.998 9.137-1.999 15.419-7.139 6.567-5.425 9.708-14.847 3.426-9.423 3.427-24.271 0-15.132-5.997-25.126-5.71-10.28-16.846-15.419-10.85-5.14-26.269-5.14h-18.845zm110.501-47.969q0 31.694-12.849 49.397-12.564 17.418-35.977 24.27T416.95 322h-45.97V161.246h45.97q31.695 0 55.108 9.137 23.413 8.851 35.977 26.554 12.849 17.703 12.849 44.543M546.582 322V161.246h121.636v33.978H585.7v29.41h61.389v31.979H585.7v33.693h85.659V322zm215.701 2.855q-13.705 0-26.84-3.141t-23.699-9.993q-10.565-7.138-17.132-18.274-6.282-11.136-6.282-26.84h39.975q0 1.428.571 3.997.857 2.57 3.141 5.711t6.282 5.996q3.997 2.856 10.564 4.854 6.853 1.713 16.561 1.713 3.997 0 8.281-.285 4.567-.571 8.28-1.713 3.712-1.428 5.996-3.998t2.284-6.853q0-5.996-5.71-9.422-5.425-3.426-14.562-5.425-8.852-2.284-19.702-4.569a218 218 0 0 1-21.129-5.71q-10.566-3.427-19.417-9.137-8.566-5.996-13.42-15.134-4.568-9.422-3.712-23.413 1.143-13.992 9.709-23.985t24.27-15.419q15.704-5.425 37.69-5.425 17.703 0 33.122 6.282 15.704 6.282 25.412 19.131 9.994 12.849 9.994 32.55h-38.547q0-6.567-3.427-10.564-3.426-4.284-8.851-6.282a38.7 38.7 0 0 0-11.421-2.856q-5.997-.856-10.851-.856-10.565 0-17.703 2.57-6.852 2.57-6.852 9.993 0 6.567 5.71 10.279 5.711 3.427 14.848 5.711 9.137 1.999 19.987 4.283a217 217 0 0 1 21.986 5.14q10.851 3.14 19.416 8.851 8.852 5.425 13.706 14.562 5.14 9.137 3.997 23.414-.856 13.99-10.279 23.985-9.137 9.708-25.127 15.133-15.703 5.139-37.119 5.139"/></mask><g mask="url(#wordmark-a)"><path fill="#000" d="M56.535 289.449h-2v2h2zm39.404-1.998-.428-1.954-.013.003zm15.418-7.139 1.267 1.548.007-.006zm9.709-14.847-1.88-.684-.009.026-.009.025zm-2.57-49.397-1.749.971.017.029.017.029zm-16.847-15.419-.856 1.807.009.005.009.004zm-45.114-5.14v-2h-2v2zm97.652 95.368-1.618-1.175-.004.005zM17.132 322h-2v2h2zm0-160.754v-2h-2v2zm101.078 9.137-.727 1.863.01.004.01.003zm35.977 26.554-1.631 1.158.006.008.007.009zm-97.652 92.512v2H69.1v-4H56.535zm12.564 0v2h6.282v-4h-6.282zm6.281 0v2c7.913 0 14.92-.675 21-2.047l-.441-1.951-.44-1.951c-5.722 1.292-12.422 1.949-20.118 1.949zm20.559-1.998.427 1.953c6.352-1.389 11.792-3.889 16.258-7.544l-1.267-1.548-1.266-1.548c-3.909 3.199-8.749 5.457-14.58 6.733zm15.418-7.139 1.274 1.542c4.713-3.893 8.139-9.18 10.332-15.757l-1.897-.632-1.898-.633c-1.995 5.986-5.04 10.598-9.084 13.938zm9.709-14.847 1.879.683c2.393-6.579 3.547-14.923 3.547-24.954h-4c0 9.767-1.13 17.603-3.306 23.587zm3.426-24.271h2c0-10.345-2.049-19.102-6.281-26.155l-1.715 1.029-1.715 1.029c3.763 6.271 5.711 14.265 5.711 24.097zm-5.996-25.126 1.748-.972c-4.022-7.24-9.965-12.667-17.757-16.263l-.838 1.816-.838 1.816c7.056 3.257 12.345 8.109 15.936 14.574zm-16.847-15.419.857-1.808c-7.566-3.583-16.631-5.332-27.126-5.332v4c10.065 0 18.512 1.678 25.413 4.947zm-26.269-5.14v-2H56.536v4h18.846zm-18.845 0h-2v93.94h4v-93.94zm110.501 45.971h-2c0 20.889-4.238 36.884-12.467 48.222l1.618 1.175 1.619 1.175c8.903-12.266 13.23-29.202 13.23-50.572zm-12.849 49.397-1.622-1.17c-8.08 11.203-19.673 19.059-34.917 23.521l.562 1.919.562 1.92c15.975-4.676 28.367-12.999 37.037-25.02zm-35.977 24.27-.562-1.919C102.267 317.73 84.095 320 63.103 320v4c21.266 0 39.832-2.298 55.669-6.933zM63.103 322v-2H47.398v4h15.705zm-15.705 0v-2H17.132v4h30.266zm-30.266 0h2V161.246h-4V322zm0-160.754v2h31.123v-4H17.132zm31.123 0v2h14.848v-4H48.255zm14.848 0v2c20.943 0 39.055 3.019 54.38 9l.727-1.863.727-1.864c-15.892-6.202-34.519-9.273-55.834-9.273zm55.107 9.137-.707 1.87c15.296 5.783 26.942 14.411 35.053 25.842l1.631-1.158 1.631-1.157c-8.639-12.174-20.978-21.249-36.901-27.268zm35.977 26.554-1.618 1.175c8.266 11.389 12.467 25.799 12.467 43.368h4c0-18.218-4.365-33.503-13.23-45.718zm58.249 110.215-1.446 1.382.01.011.011.011zm-18.274-145.906v-2h-2v2zm42.83 0h2v-2h-2zm3.14 111.071-1.83.806.006.014.006.014zm7.71 10.28-1.2 1.6.023.017.023.017zm9.993 4.568-.434 1.952.053.012.053.009zm22.557-1.142-.539-1.926-.01.003-.011.003zm16.847-124.777v-2h-2v2zm42.83 0h2v-2h-2zm-18.275 146.192-1.435-1.392h-.001zm-54.822 18.559v-2c-23.647 0-41.234-6.188-53.111-18.248l-1.425 1.403-1.425 1.404c12.868 13.066 31.639 19.441 55.961 19.441zm-54.536-18.845 1.446-1.381c-11.729-12.279-17.72-29.618-17.72-52.299h-4c0 23.385 6.191 41.833 18.828 55.062zm-18.274-53.68h2v-92.226h-4v92.226zm0-92.226v2h42.83v-4h-42.83zm42.83 0h-2v91.941h4v-91.941zm0 91.941h-2c0 8.138 1.06 14.824 3.31 19.936l1.83-.806 1.831-.805c-1.939-4.406-2.971-10.474-2.971-18.325zm3.14 19.13-1.818.834c2.19 4.778 4.944 8.507 8.328 11.046l1.2-1.6 1.2-1.6c-2.707-2.031-5.094-5.154-7.092-9.513zm7.71 10.28-1.154 1.634c3.425 2.417 6.997 4.061 10.713 4.886l.434-1.952.434-1.952c-3.136-.697-6.227-2.099-9.274-4.25zm9.993 4.568-.328 1.973c3.504.584 6.663.884 9.465.884v-4c-2.527 0-5.459-.272-8.808-.83zm9.137.857v2c4.584 0 9.246-.698 13.98-2.079l-.56-1.92-.56-1.92c-4.402 1.284-8.687 1.919-12.86 1.919zm13.42-1.999.54 1.926c5.313-1.488 9.68-4.983 13.127-10.254l-1.674-1.095-1.674-1.094c-3.026 4.627-6.654 7.414-10.858 8.591zm11.993-9.423 1.674 1.095c3.559-5.444 5.18-13.73 5.18-24.508h-4c0 10.541-1.616 17.865-4.528 22.319zm4.854-23.413h2v-91.941h-4v91.941zm0-91.941v2h42.83v-4h-42.83zm42.83 0h-2v92.226h4v-92.226zm0 92.226h-2c0 23.075-5.998 40.495-17.71 52.574l1.435 1.392 1.436 1.392c12.653-13.048 18.839-31.605 18.839-55.358zm-18.275 53.966-1.436-1.392c-11.479 11.844-29.138 17.951-53.386 17.951v4c24.864 0 43.752-6.265 56.258-19.167zm88.589-17.989h-2v2h2zm39.403-1.998-.427-1.954-.013.003zm15.419-7.139 1.267 1.548.007-.006zm9.708-14.847-1.879-.684-.01.026-.008.025zm-2.57-49.397-1.748.971.016.029.017.029zm-16.846-15.419-.856 1.807.009.005.009.004zm-45.114-5.14v-2h-2v2zm97.652 95.368-1.619-1.175-.003.005zM370.98 322h-2v2h2zm0-160.754v-2h-2v2zm101.078 9.137-.727 1.863.01.004.01.003zm35.977 26.554-1.631 1.158.006.008.006.009zm-97.652 92.512v2h12.563v-4h-12.563zm12.563 0v2h6.282v-4h-6.282zm6.282 0v2c7.913 0 14.919-.675 20.999-2.047l-.441-1.951-.44-1.951c-5.722 1.292-12.421 1.949-20.118 1.949zm20.558-1.998.428 1.953c6.352-1.389 11.791-3.889 16.258-7.544l-1.267-1.548-1.266-1.548c-3.91 3.199-8.749 5.457-14.58 6.733zm15.419-7.139 1.274 1.542c4.712-3.893 8.139-9.18 10.332-15.757l-1.898-.632-1.897-.633c-1.996 5.986-5.041 10.598-9.085 13.938zm9.708-14.847 1.88.683c2.392-6.579 3.547-14.923 3.547-24.954h-4c0 9.767-1.13 17.603-3.306 23.587zm3.427-24.271h2c0-10.345-2.05-19.102-6.282-26.155l-1.715 1.029-1.715 1.029c3.764 6.271 5.712 14.265 5.712 24.097zm-5.997-25.126 1.749-.972c-4.023-7.24-9.965-12.667-17.757-16.263l-.838 1.816-.838 1.816c7.056 3.257 12.344 8.109 15.936 14.574zm-16.846-15.419.856-1.808c-7.566-3.583-16.631-5.332-27.125-5.332v4c10.064 0 18.512 1.678 25.413 4.947zm-26.269-5.14v-2h-18.845v4h18.845zm-18.845 0h-2v93.94h4v-93.94zm110.501 45.971h-2c0 20.889-4.238 36.884-12.468 48.222l1.619 1.175 1.619 1.175c8.902-12.266 13.23-29.202 13.23-50.572zm-12.849 49.397-1.622-1.17c-8.081 11.203-19.674 19.059-34.917 23.521l.562 1.919.562 1.92c15.975-4.676 28.366-12.999 37.037-25.02zm-35.977 24.27-.562-1.919C456.115 317.73 437.943 320 416.95 320v4c21.266 0 39.833-2.298 55.67-6.933zM416.95 322v-2h-15.704v4h15.704zm-15.704 0v-2H370.98v4h30.266zm-30.266 0h2V161.246h-4V322zm0-160.754v2h31.123v-4H370.98zm31.123 0v2h14.847v-4h-14.847zm14.847 0v2c20.943 0 39.055 3.019 54.381 9l.727-1.863.727-1.864c-15.893-6.202-34.519-9.273-55.835-9.273zm55.108 9.137-.707 1.87c15.295 5.783 26.941 14.411 35.053 25.842l1.631-1.158 1.631-1.157c-8.64-12.174-20.978-21.249-36.901-27.268zm35.977 26.554-1.619 1.175c8.267 11.389 12.468 25.799 12.468 43.368h4c0-18.218-4.365-33.503-13.23-45.718zM546.582 322h-2v2h2zm0-160.754v-2h-2v2zm121.636 0h2v-2h-2zm0 33.978v2h2v-2zm-82.518 0v-2h-2v2zm0 29.41h-2v2h2zm61.389 0h2v-2h-2zm0 31.979v2h2v-2zm-61.389 0v-2h-2v2zm0 33.693h-2v2h2zm85.659 0h2v-2h-2zm0 31.694v2h2v-2zm-124.777 0h2V161.246h-4V322zm0-160.754v2h121.636v-4H546.582zm121.636 0h-2v33.978h4v-33.978zm0 33.978v-2H585.7v4h82.518zm-82.518 0h-2v29.41h4v-29.41zm0 29.41v2h61.389v-4H585.7zm61.389 0h-2v31.979h4v-31.979zm0 31.979v-2H585.7v4h61.389zm-61.389 0h-2v33.693h4v-33.693zm0 33.693v2h85.659v-4H585.7zm85.659 0h-2V322h4v-31.694zm0 31.694v-2H546.582v4h124.777zm40.385-10.279-1.12 1.657.016.011.016.01zm-17.132-18.274-1.742.982.01.017.009.017zm-6.281-26.84v-2h-2v2zm39.974 0h2v-2h-2zm.571 3.997-1.952.434.022.101.033.098zm19.987 16.561-.582 1.913.048.015.049.012zm24.842 1.428.133 1.995.057-.004.058-.007zm8.28-1.713.588 1.911.066-.02.064-.025zm2.57-20.273-1.068 1.691.019.012.02.012zm-14.562-5.425-.5 1.936.036.01.036.007zm-19.702-4.569-.423 1.955.011.002zm-40.546-14.847-1.147 1.638.031.022.032.02zm-13.42-15.134-1.799.873.016.033.017.033zm-3.712-23.413-1.993-.163-.002.02-.001.02zm104.791-38.547-.755 1.852.012.005zm25.412 19.131-1.596 1.205.009.011.008.011zm9.994 32.55v2h2v-2zm-38.547 0h-2v2h2zm-3.427-10.564-1.561 1.249.021.026.022.026zm-8.851-6.282-.776 1.843.042.018.043.015zm-11.421-2.856-.283 1.98.046.007.047.004zm-28.554 1.714-.677-1.882-.012.004-.013.005zm-1.142 20.272-1.09 1.677.031.02.03.018zm14.848 5.711-.485 1.94.029.008.029.006zm19.987 4.283-.412 1.957.029.006.03.006zm41.402 13.991-1.109 1.664.032.021.032.02zm13.706 14.562-1.766.939.011.021.012.021zm3.997 23.414-1.993-.16-.002.019-.001.019zm-10.279 23.985-1.455-1.372-.001.001zm-25.127 15.133.622 1.901.011-.004.01-.003zm-37.119 5.139v-2q-13.472 0-26.375-3.086l-.465 1.945-.465 1.946q13.367 3.195 27.305 3.195zm-26.84-3.141.465-1.945c-8.551-2.044-16.237-5.29-23.076-9.726l-1.088 1.678-1.088 1.678c7.247 4.701 15.36 8.118 24.322 10.261zm-23.699-9.993 1.12-1.657c-6.794-4.591-12.3-10.462-16.529-17.633l-1.723 1.016-1.723 1.016c4.527 7.676 10.443 13.987 17.735 18.915zm-17.132-18.274 1.742-.983c-3.984-7.063-6.023-15.654-6.023-25.857h-4c0 10.736 2.148 20.037 6.539 27.822zm-6.281-26.84v2h39.974v-4h-39.974zm39.974 0h-2c0 1.172.228 2.673.619 4.431l1.952-.434 1.952-.434c-.37-1.668-.523-2.832-.523-3.563zm.571 3.997-1.897.633c.657 1.972 1.825 4.06 3.42 6.254l1.618-1.176 1.617-1.176c-1.449-1.994-2.376-3.713-2.861-5.167zm3.141 5.711-1.618 1.176c1.678 2.307 3.941 4.451 6.737 6.448l1.163-1.628 1.162-1.627c-2.534-1.811-4.459-3.664-5.827-5.545zm6.282 5.996-1.163 1.628c2.896 2.068 6.635 3.767 11.145 5.139l.582-1.913.583-1.913c-4.247-1.293-7.551-2.83-9.985-4.568zm10.564 4.854-.485 1.94c4.774 1.194 10.467 1.773 17.046 1.773v-4c-6.365 0-11.712-.562-16.076-1.653zm16.561 1.713v2q4.069 0 8.414-.29l-.133-1.995-.134-1.996q-4.22.282-8.147.281zm8.281-.285.248 1.984q4.712-.586 8.62-1.786l-.588-1.911-.588-1.912c-2.346.722-4.99 1.271-7.941 1.64zm8.28-1.713.718 1.866c2.726-1.048 5.007-2.548 6.773-4.535l-1.495-1.329-1.495-1.329c-1.279 1.44-2.996 2.605-5.219 3.46zm5.996-3.998 1.495 1.329c1.923-2.163 2.789-4.962 2.789-8.182h-4c0 2.491-.656 4.261-1.779 5.524zm2.284-6.853h2c0-4.788-2.352-8.539-6.681-11.137l-1.029 1.715-1.029 1.715c3.284 1.971 4.739 4.501 4.739 7.707zm-5.71-9.422 1.068-1.691c-3.882-2.452-8.979-4.327-15.203-5.688l-.427 1.954-.428 1.953c5.959 1.304 10.57 3.046 13.922 5.163zm-14.562-5.425.499-1.937q-8.903-2.297-19.789-4.589l-.412 1.957-.412 1.957q10.814 2.277 19.614 4.548zm-19.702-4.569.423-1.955A215 215 0 0 1 729.779 249l-.617 1.903-.617 1.902a219 219 0 0 0 21.323 5.763zm-21.129-5.71.617-1.903q-10.33-3.352-18.949-8.915l-1.085 1.681-1.084 1.68c6.054 3.906 12.685 7.024 19.884 9.359zm-19.417-9.137 1.147-1.639c-5.454-3.818-9.714-8.624-12.8-14.433l-1.767.938-1.766.939c3.386 6.373 8.073 11.656 14.039 15.833zm-13.42-15.134 1.8-.872c-2.853-5.885-4.072-13.323-3.515-22.419l-1.997-.122-1.996-.123c-.585 9.559.671 17.731 3.909 24.409zm-3.712-23.413 1.994.162c.729-8.936 3.815-16.525 9.233-22.845l-1.518-1.302-1.519-1.302c-6.004 7.005-9.39 15.406-10.183 25.124zm9.709-23.985 1.518 1.302c5.426-6.331 13.184-11.3 23.405-14.83l-.653-1.891-.653-1.89c-10.719 3.703-19.141 9.013-25.136 16.007zm24.27-15.419.653 1.891c10.204-3.525 22.534-5.316 37.037-5.316v-4c-14.812 0-27.608 1.826-38.343 5.535zm37.69-5.425v2c11.56 0 22.342 2.05 32.367 6.134l.755-1.852.754-1.852c-10.533-4.292-21.832-6.43-33.876-6.43zm33.122 6.282-.743 1.857c10.149 4.059 18.318 10.219 24.559 18.479l1.596-1.205 1.596-1.206c-6.703-8.872-15.475-15.466-26.266-19.782zm25.412 19.131-1.579 1.227c6.336 8.146 9.573 18.537 9.573 31.323h4c0-13.483-3.426-24.792-10.415-33.778zm9.994 32.55v-2h-38.547v4h38.547zm-38.547 0h2c0-4.733-1.242-8.756-3.908-11.866l-1.519 1.302-1.518 1.301c1.902 2.22 2.945 5.24 2.945 9.263zm-3.427-10.564 1.562-1.25c-2.524-3.155-5.782-5.458-9.722-6.909l-.691 1.877-.691 1.876c3.294 1.214 5.937 3.1 7.981 5.655zm-8.851-6.282.776-1.843q-5.714-2.405-12.008-3.004l-.189 1.991-.19 1.991q5.698.544 10.835 2.708zm-11.421-2.856.282-1.979q-6.105-.875-11.133-.877v4c3.122 0 6.642.276 10.568.836zm-10.851-.856v-2c-7.19 0-13.337.872-18.38 2.688l.677 1.882.678 1.881c4.475-1.61 10.129-2.451 17.025-2.451zm-17.703 2.57-.702-1.873c-2.587.97-4.668 2.456-6.087 4.525-1.417 2.067-2.063 4.555-2.063 7.341h4c0-2.163.496-3.815 1.362-5.079.866-1.262 2.211-2.299 4.193-3.042zm-6.852 9.993h-2c0 5.085 2.271 9.129 6.62 11.956l1.09-1.677 1.09-1.676c-3.265-2.123-4.8-4.931-4.8-8.603zm5.71 10.279-1.029 1.715c4.031 2.419 9.182 4.384 15.392 5.936l.485-1.94.485-1.94c-5.972-1.493-10.72-3.335-14.304-5.486zm14.848 5.711-.427 1.954a2624 2624 0 0 0 20.002 4.286l.412-1.957.412-1.957a2632 2632 0 0 1-19.972-4.28zm19.987 4.283-.353 1.969a215 215 0 0 1 21.783 5.092l.556-1.921.556-1.921a218 218 0 0 0-22.188-5.187zm21.986 5.14-.556 1.921c7.056 2.042 13.338 4.911 18.863 8.594l1.109-1.664 1.11-1.664c-5.897-3.931-12.559-6.963-19.97-9.108zm19.416 8.851-1.045 1.705c5.598 3.431 9.917 8.021 12.985 13.796l1.766-.939 1.766-.938c-3.404-6.408-8.222-11.526-14.426-15.329zm13.706 14.562-1.743.981c3.172 5.639 4.488 13.011 3.747 22.273l1.993.16 1.994.159c.782-9.773-.567-18.01-4.248-24.553zm3.997 23.414-1.996-.122c-.543 8.87-3.784 16.42-9.738 22.735l1.455 1.372 1.455 1.372c6.61-7.011 10.222-15.451 10.821-25.235zm-10.279 23.985-1.456-1.371c-5.815 6.178-13.883 11.071-24.313 14.61l.642 1.894.643 1.894c10.889-3.695 19.573-8.891 25.941-15.657zm-25.127 15.133-.622-1.901c-10.219 3.344-22.372 5.04-36.497 5.04v4c14.429 0 27.022-1.73 37.741-5.238z"/></g><path fill="#fff" d="M66.535 270.449H85.38q11.707 0 20.559-1.998 9.137-1.999 15.418-7.139 6.568-5.425 9.709-14.847 3.426-9.423 3.426-24.271 0-15.132-5.996-25.126-5.71-10.28-16.847-15.419-10.85-5.14-26.269-5.14H66.536zm110.501-47.969q0 31.694-12.849 49.397-12.563 17.418-35.977 24.27T73.103 303H27.132V142.246h45.971q31.694 0 55.107 9.137 23.414 8.851 35.977 26.554 12.849 17.703 12.849 44.543m99.936 84.517q-35.976 0-54.536-18.845-18.274-19.13-18.274-53.68v-92.226h42.83v91.941q0 11.993 3.14 19.13 3.141 6.853 7.71 10.28 4.854 3.426 9.993 4.568 5.14.857 9.137.857 6.568 0 13.42-1.999 7.139-1.999 11.993-9.423t4.854-23.413v-91.941h42.83v92.226q0 35.12-18.275 53.966-17.988 18.56-54.822 18.559m143.411-36.548h18.845q11.707 0 20.558-1.998 9.137-1.999 15.419-7.139 6.567-5.425 9.708-14.847 3.426-9.423 3.427-24.271 0-15.132-5.997-25.126-5.71-10.28-16.846-15.419-10.85-5.14-26.269-5.14h-18.845zm110.501-47.969q0 31.694-12.849 49.397-12.564 17.418-35.977 24.27T426.95 303h-45.97V142.246h45.97q31.695 0 55.108 9.137 23.413 8.851 35.977 26.554 12.849 17.703 12.849 44.543M556.582 303V142.246h121.636v33.978H595.7v29.41h61.389v31.979H595.7v33.693h85.659V303zm215.701 2.855q-13.705 0-26.84-3.141t-23.699-9.993q-10.565-7.138-17.132-18.274-6.282-11.136-6.282-26.84h39.975q0 1.428.571 3.997.857 2.57 3.141 5.711t6.282 5.996q3.997 2.856 10.564 4.854 6.853 1.713 16.561 1.713 3.997 0 8.281-.285 4.567-.571 8.28-1.713 3.712-1.428 5.996-3.998t2.284-6.853q0-5.996-5.71-9.422-5.425-3.426-14.562-5.425-8.852-2.285-19.702-4.569a218 218 0 0 1-21.129-5.71q-10.566-3.427-19.417-9.137-8.566-5.996-13.42-15.134-4.568-9.422-3.712-23.413 1.143-13.992 9.709-23.985t24.27-15.419q15.704-5.425 37.69-5.425 17.703 0 33.122 6.282 15.704 6.282 25.412 19.131 9.994 12.849 9.994 32.55h-38.547q0-6.567-3.427-10.564-3.426-4.284-8.851-6.282a38.7 38.7 0 0 0-11.421-2.856q-5.997-.856-10.851-.856-10.565 0-17.703 2.57-6.852 2.57-6.852 9.993 0 6.567 5.71 10.279 5.711 3.427 14.848 5.711 9.137 1.999 19.987 4.283a217 217 0 0 1 21.986 5.14q10.851 3.14 19.416 8.851 8.852 5.425 13.706 14.562 5.14 9.138 3.997 23.414-.856 13.99-10.279 23.985-9.137 9.708-25.127 15.133-15.703 5.139-37.119 5.139"/><mask id="wordmark-b" width="823" height="172" x="25" y="137" maskUnits="userSpaceOnUse" style="mask-type:luminance"><path fill="#fff" d="M848 137H25v172h823z"/><path fill="#000" d="M66.535 270.449H85.38q11.707 0 20.559-1.998 9.137-1.999 15.418-7.139 6.568-5.425 9.709-14.847 3.426-9.423 3.426-24.271 0-15.132-5.996-25.126-5.71-10.28-16.847-15.419-10.85-5.14-26.269-5.14H66.536zm110.501-47.969q0 31.694-12.849 49.397-12.563 17.418-35.977 24.27T73.103 303H27.132V142.246h45.971q31.694 0 55.107 9.137 23.414 8.851 35.977 26.554 12.849 17.703 12.849 44.543m99.936 84.517q-35.976 0-54.536-18.845-18.274-19.13-18.274-53.68v-92.226h42.83v91.941q0 11.993 3.14 19.13 3.141 6.853 7.71 10.28 4.854 3.426 9.993 4.568 5.14.857 9.137.857 6.568 0 13.42-1.999 7.139-1.999 11.993-9.423t4.854-23.413v-91.941h42.83v92.226q0 35.12-18.275 53.966-17.988 18.56-54.822 18.559m143.411-36.548h18.845q11.707 0 20.558-1.998 9.137-1.999 15.419-7.139 6.567-5.425 9.708-14.847 3.426-9.423 3.427-24.271 0-15.132-5.997-25.126-5.71-10.28-16.846-15.419-10.85-5.14-26.269-5.14h-18.845zm110.501-47.969q0 31.694-12.849 49.397-12.564 17.418-35.977 24.27T426.95 303h-45.97V142.246h45.97q31.695 0 55.108 9.137 23.413 8.851 35.977 26.554 12.849 17.703 12.849 44.543M556.582 303V142.246h121.636v33.978H595.7v29.41h61.389v31.979H595.7v33.693h85.659V303zm215.701 2.855q-13.705 0-26.84-3.141t-23.699-9.993q-10.565-7.138-17.132-18.274-6.282-11.136-6.282-26.84h39.975q0 1.428.571 3.997.857 2.57 3.141 5.711t6.282 5.996q3.997 2.856 10.564 4.854 6.853 1.713 16.561 1.713 3.997 0 8.281-.285 4.567-.571 8.28-1.713 3.712-1.428 5.996-3.998t2.284-6.853q0-5.996-5.71-9.422-5.425-3.426-14.562-5.425-8.852-2.285-19.702-4.569a218 218 0 0 1-21.129-5.71q-10.566-3.427-19.417-9.137-8.566-5.996-13.42-15.134-4.568-9.422-3.712-23.413 1.143-13.992 9.709-23.985t24.27-15.419q15.704-5.425 37.69-5.425 17.703 0 33.122 6.282 15.704 6.282 25.412 19.131 9.994 12.849 9.994 32.55h-38.547q0-6.567-3.427-10.564-3.426-4.284-8.851-6.282a38.7 38.7 0 0 0-11.421-2.856q-5.997-.856-10.851-.856-10.565 0-17.703 2.57-6.852 2.57-6.852 9.993 0 6.567 5.71 10.279 5.711 3.427 14.848 5.711 9.137 1.999 19.987 4.283a217 217 0 0 1 21.986 5.14q10.851 3.14 19.416 8.851 8.852 5.425 13.706 14.562 5.14 9.138 3.997 23.414-.856 13.99-10.279 23.985-9.137 9.708-25.127 15.133-15.703 5.139-37.119 5.139"/></mask><g mask="url(#wordmark-b)"><path fill="#000" d="M66.535 270.449h-2v2h2zm39.404-1.998-.428-1.954-.013.003zm15.418-7.139 1.267 1.548.007-.006zm9.709-14.847-1.88-.684-.009.026-.009.025zm-2.57-49.397-1.749.971.017.029.017.029zm-16.847-15.419-.856 1.807.009.005.009.004zm-45.114-5.14v-2h-2v2zm97.652 95.368-1.618-1.175-.004.005zM27.132 303h-2v2h2zm0-160.754v-2h-2v2zm101.078 9.137-.727 1.863.01.004.01.003zm35.977 26.554-1.631 1.158.006.008.007.009zm-97.652 92.512v2H79.1v-4H66.535zm12.564 0v2h6.282v-4h-6.282zm6.281 0v2c7.913 0 14.919-.675 20.999-2.047l-.44-1.951-.441-1.951c-5.722 1.292-12.42 1.949-20.118 1.949zm20.559-1.998.427 1.953c6.352-1.389 11.792-3.889 16.258-7.544l-1.267-1.548-1.266-1.548c-3.909 3.199-8.749 5.457-14.58 6.733zm15.418-7.139 1.274 1.542c4.713-3.893 8.139-9.18 10.332-15.757l-1.897-.632-1.898-.633c-1.995 5.986-5.04 10.598-9.084 13.938zm9.709-14.847 1.879.683c2.393-6.579 3.547-14.923 3.547-24.954h-4c0 9.767-1.13 17.603-3.306 23.587zm3.426-24.271h2c0-10.345-2.049-19.102-6.281-26.155l-1.715 1.029-1.715 1.029c3.763 6.271 5.711 14.265 5.711 24.097zm-5.996-25.126 1.748-.972c-4.022-7.24-9.965-12.667-17.757-16.263l-.838 1.816-.838 1.816c7.056 3.257 12.345 8.109 15.936 14.574zm-16.847-15.419.857-1.808c-7.566-3.583-16.631-5.332-27.126-5.332v4c10.065 0 18.512 1.678 25.413 4.947zm-26.269-5.14v-2H66.536v4h18.846zm-18.845 0h-2v93.94h4v-93.94zm110.501 45.971h-2c0 20.889-4.238 36.884-12.467 48.222l1.618 1.175 1.619 1.175c8.903-12.266 13.23-29.202 13.23-50.572zm-12.849 49.397-1.622-1.17c-8.08 11.203-19.673 19.059-34.917 23.521l.562 1.919.562 1.92c15.975-4.676 28.367-12.999 37.037-25.02zm-35.977 24.27-.562-1.919C112.267 298.73 94.095 301 73.103 301v4c21.266 0 39.832-2.298 55.669-6.933zM73.103 303v-2H57.398v4h15.705zm-15.705 0v-2H27.132v4h30.266zm-30.266 0h2V142.246h-4V303zm0-160.754v2h31.123v-4H27.132zm31.123 0v2h14.848v-4H58.255zm14.848 0v2c20.943 0 39.055 3.019 54.38 9l.727-1.863.727-1.864c-15.892-6.202-34.519-9.273-55.834-9.273zm55.107 9.137-.707 1.87c15.296 5.783 26.942 14.411 35.053 25.842l1.631-1.158 1.631-1.157c-8.639-12.174-20.978-21.249-36.901-27.268zm35.977 26.554-1.618 1.175c8.266 11.389 12.467 25.799 12.467 43.368h4c0-18.218-4.365-33.503-13.23-45.718zm58.249 110.215-1.446 1.382.01.011.011.011zm-18.274-145.906v-2h-2v2zm42.83 0h2v-2h-2zm3.14 111.071-1.83.806.006.014.006.014zm7.71 10.28-1.2 1.6.023.017.023.017zm9.993 4.568-.434 1.952.053.012.053.009zm22.557-1.142-.539-1.926-.01.003-.011.003zm16.847-124.777v-2h-2v2zm42.83 0h2v-2h-2zm-18.275 146.192-1.435-1.392h-.001zm-54.822 18.559v-2c-23.647 0-41.234-6.188-53.111-18.248l-1.425 1.403-1.425 1.404c12.868 13.066 31.639 19.441 55.961 19.441zm-54.536-18.845 1.446-1.381c-11.729-12.279-17.72-29.618-17.72-52.299h-4c0 23.385 6.191 41.833 18.828 55.062zm-18.274-53.68h2v-92.226h-4v92.226zm0-92.226v2h42.83v-4h-42.83zm42.83 0h-2v91.941h4v-91.941zm0 91.941h-2c0 8.138 1.06 14.824 3.31 19.936l1.83-.806 1.831-.805c-1.939-4.406-2.971-10.474-2.971-18.325zm3.14 19.13-1.818.834c2.19 4.778 4.944 8.507 8.328 11.046l1.2-1.6 1.2-1.6c-2.707-2.031-5.094-5.154-7.092-9.513zm7.71 10.28-1.154 1.634c3.425 2.417 6.997 4.061 10.713 4.886l.434-1.952.434-1.952c-3.136-.697-6.227-2.099-9.274-4.25zm9.993 4.568-.328 1.973c3.504.584 6.663.884 9.465.884v-4c-2.527 0-5.459-.272-8.808-.83zm9.137.857v2c4.584 0 9.246-.698 13.98-2.079l-.56-1.92-.56-1.92c-4.402 1.284-8.687 1.919-12.86 1.919zm13.42-1.999.54 1.926c5.313-1.488 9.68-4.983 13.127-10.254l-1.674-1.095-1.674-1.094c-3.026 4.627-6.654 7.414-10.858 8.591zm11.993-9.423 1.674 1.095c3.559-5.444 5.18-13.73 5.18-24.508h-4c0 10.541-1.616 17.865-4.528 22.319zm4.854-23.413h2v-91.941h-4v91.941zm0-91.941v2h42.83v-4h-42.83zm42.83 0h-2v92.226h4v-92.226zm0 92.226h-2c0 23.075-5.998 40.495-17.71 52.574l1.435 1.392 1.436 1.392c12.653-13.048 18.839-31.605 18.839-55.358zm-18.275 53.966-1.436-1.392c-11.479 11.844-29.138 17.951-53.386 17.951v4c24.864 0 43.752-6.265 56.258-19.167zm88.589-17.989h-2v2h2zm39.403-1.998-.427-1.954-.013.003zm15.419-7.139 1.267 1.548.007-.006zm9.708-14.847-1.879-.684-.01.026-.008.025zm-2.57-49.397-1.748.971.016.029.017.029zm-16.846-15.419-.856 1.807.009.005.009.004zm-45.114-5.14v-2h-2v2zm97.652 95.368-1.619-1.175-.003.005zM380.98 303h-2v2h2zm0-160.754v-2h-2v2zm101.078 9.137-.727 1.863.01.004.01.003zm35.977 26.554-1.631 1.158.006.008.006.009zm-97.652 92.512v2h12.563v-4h-12.563zm12.563 0v2h6.282v-4h-6.282zm6.282 0v2c7.913 0 14.919-.675 20.999-2.047l-.441-1.951-.44-1.951c-5.722 1.292-12.421 1.949-20.118 1.949zm20.558-1.998.428 1.953c6.352-1.389 11.791-3.889 16.258-7.544l-1.267-1.548-1.266-1.548c-3.91 3.199-8.749 5.457-14.58 6.733zm15.419-7.139 1.274 1.542c4.712-3.893 8.139-9.18 10.332-15.757l-1.898-.632-1.897-.633c-1.996 5.986-5.041 10.598-9.085 13.938zm9.708-14.847 1.88.683c2.392-6.579 3.547-14.923 3.547-24.954h-4c0 9.767-1.13 17.603-3.306 23.587zm3.427-24.271h2c0-10.345-2.05-19.102-6.282-26.155l-1.715 1.029-1.715 1.029c3.764 6.271 5.712 14.265 5.712 24.097zm-5.997-25.126 1.749-.972c-4.023-7.24-9.965-12.667-17.757-16.263l-.838 1.816-.838 1.816c7.056 3.257 12.344 8.109 15.936 14.574zm-16.846-15.419.856-1.808c-7.566-3.583-16.631-5.332-27.125-5.332v4c10.064 0 18.512 1.678 25.413 4.947zm-26.269-5.14v-2h-18.845v4h18.845zm-18.845 0h-2v93.94h4v-93.94zm110.501 45.971h-2c0 20.889-4.238 36.884-12.468 48.222l1.619 1.175 1.619 1.175c8.902-12.266 13.23-29.202 13.23-50.572zm-12.849 49.397-1.622-1.17c-8.081 11.203-19.674 19.059-34.917 23.521l.562 1.919.562 1.92c15.975-4.676 28.366-12.999 37.037-25.02zm-35.977 24.27-.562-1.919C466.115 298.73 447.943 301 426.95 301v4c21.266 0 39.833-2.298 55.67-6.933zM426.95 303v-2h-15.704v4h15.704zm-15.704 0v-2H380.98v4h30.266zm-30.266 0h2V142.246h-4V303zm0-160.754v2h31.123v-4H380.98zm31.123 0v2h14.847v-4h-14.847zm14.847 0v2c20.943 0 39.055 3.019 54.381 9l.727-1.863.727-1.864c-15.893-6.202-34.519-9.273-55.835-9.273zm55.108 9.137-.707 1.87c15.295 5.783 26.941 14.411 35.053 25.842l1.631-1.158 1.631-1.157c-8.64-12.174-20.978-21.249-36.901-27.268zm35.977 26.554-1.619 1.175c8.267 11.389 12.468 25.799 12.468 43.368h4c0-18.218-4.365-33.503-13.23-45.718zM556.582 303h-2v2h2zm0-160.754v-2h-2v2zm121.636 0h2v-2h-2zm0 33.978v2h2v-2zm-82.518 0v-2h-2v2zm0 29.41h-2v2h2zm61.389 0h2v-2h-2zm0 31.979v2h2v-2zm-61.389 0v-2h-2v2zm0 33.693h-2v2h2zm85.659 0h2v-2h-2zm0 31.694v2h2v-2zm-124.777 0h2V142.246h-4V303zm0-160.754v2h121.636v-4H556.582zm121.636 0h-2v33.978h4v-33.978zm0 33.978v-2H595.7v4h82.518zm-82.518 0h-2v29.41h4v-29.41zm0 29.41v2h61.389v-4H595.7zm61.389 0h-2v31.979h4v-31.979zm0 31.979v-2H595.7v4h61.389zm-61.389 0h-2v33.693h4v-33.693zm0 33.693v2h85.659v-4H595.7zm85.659 0h-2V303h4v-31.694zm0 31.694v-2H556.582v4h124.777zm40.385-10.279-1.12 1.657.016.011.016.01zm-17.132-18.274-1.742.982.01.017.009.017zm-6.281-26.84v-2h-2v2zm39.974 0h2v-2h-2zm.571 3.997-1.952.434.022.101.033.098zm19.987 16.561-.582 1.913.048.015.049.012zm24.842 1.428.133 1.995.057-.004.058-.007zm8.28-1.713.588 1.911.066-.02.064-.025zm2.57-20.273-1.068 1.691.019.012.02.012zm-14.562-5.425-.5 1.936.036.01.036.007zm-19.702-4.569-.423 1.955.011.002zm-40.546-14.847-1.147 1.638.031.022.032.02zm-13.42-15.134-1.799.873.016.033.017.033zm-3.712-23.413-1.993-.163-.002.02-.001.02zm104.791-38.547-.755 1.852.012.005zm25.412 19.131-1.596 1.205.009.011.008.011zm9.994 32.55v2h2v-2zm-38.547 0h-2v2h2zm-3.427-10.564-1.561 1.249.021.026.022.026zm-8.851-6.282-.776 1.843.042.018.043.015zm-11.421-2.856-.283 1.98.046.007.047.004zm-28.554 1.714-.677-1.882-.012.004-.013.005zm-1.142 20.272-1.09 1.677.031.02.03.018zm14.848 5.711-.485 1.94.029.008.029.006zm19.987 4.283-.412 1.957.029.006.03.006zm41.402 13.991-1.109 1.664.032.021.032.02zm13.706 14.562-1.766.939.011.021.012.021zm3.997 23.414-1.993-.16-.002.019-.001.019zm-10.279 23.985-1.455-1.372-.001.001zm-25.127 15.133.622 1.901.011-.004.01-.003zm-37.119 5.139v-2q-13.472 0-26.375-3.086l-.465 1.945-.465 1.946q13.367 3.195 27.305 3.195zm-26.84-3.141.465-1.945c-8.551-2.044-16.237-5.29-23.076-9.726l-1.088 1.678-1.088 1.678c7.247 4.701 15.36 8.118 24.322 10.261zm-23.699-9.993 1.12-1.657c-6.794-4.591-12.3-10.462-16.529-17.633l-1.723 1.016-1.723 1.016c4.527 7.676 10.443 13.987 17.735 18.915zm-17.132-18.274 1.742-.983c-3.984-7.063-6.023-15.654-6.023-25.857h-4c0 10.736 2.148 20.037 6.539 27.822zm-6.281-26.84v2h39.974v-4h-39.974zm39.974 0h-2c0 1.172.228 2.673.619 4.431l1.952-.434 1.952-.434c-.37-1.668-.523-2.832-.523-3.563zm.571 3.997-1.897.633c.657 1.972 1.825 4.06 3.42 6.254l1.618-1.176 1.617-1.176c-1.449-1.994-2.376-3.713-2.861-5.167zm3.141 5.711-1.618 1.176c1.678 2.307 3.941 4.451 6.737 6.448l1.163-1.628 1.162-1.627c-2.534-1.811-4.459-3.664-5.827-5.545zm6.282 5.996-1.163 1.628c2.896 2.068 6.635 3.767 11.145 5.139l.582-1.913.583-1.913c-4.247-1.293-7.551-2.83-9.985-4.568zm10.564 4.854-.485 1.94c4.774 1.194 10.467 1.773 17.046 1.773v-4c-6.365 0-11.712-.562-16.076-1.653zm16.561 1.713v2q4.069 0 8.414-.29l-.133-1.995-.134-1.996q-4.22.282-8.147.281zm8.281-.285.248 1.984q4.712-.586 8.62-1.786l-.588-1.911-.588-1.912c-2.346.722-4.99 1.271-7.941 1.64zm8.28-1.713.718 1.866c2.726-1.048 5.007-2.548 6.773-4.535l-1.495-1.329-1.495-1.329c-1.279 1.44-2.996 2.605-5.219 3.46zm5.996-3.998 1.495 1.329c1.923-2.163 2.789-4.962 2.789-8.182h-4c0 2.491-.656 4.261-1.779 5.524zm2.284-6.853h2c0-4.788-2.352-8.539-6.681-11.137l-1.029 1.715-1.029 1.715c3.284 1.971 4.739 4.501 4.739 7.707zm-5.71-9.422 1.068-1.691c-3.882-2.452-8.979-4.327-15.203-5.688l-.427 1.954-.428 1.953c5.959 1.304 10.57 3.046 13.922 5.163zm-14.562-5.425.499-1.937q-8.903-2.298-19.789-4.589l-.412 1.957-.412 1.957q10.814 2.277 19.614 4.548zm-19.702-4.569.423-1.955A215 215 0 0 1 739.779 230l-.617 1.903-.617 1.902a219 219 0 0 0 21.323 5.763zm-21.129-5.71.617-1.903q-10.33-3.352-18.949-8.915l-1.085 1.681-1.084 1.68c6.054 3.906 12.685 7.024 19.884 9.359zm-19.417-9.137 1.147-1.639c-5.454-3.818-9.714-8.624-12.8-14.433l-1.767.938-1.766.939c3.386 6.373 8.073 11.656 14.039 15.833zm-13.42-15.134 1.8-.872c-2.853-5.885-4.072-13.323-3.515-22.419l-1.997-.122-1.996-.123c-.585 9.559.671 17.731 3.909 24.409zm-3.712-23.413 1.994.162c.729-8.936 3.815-16.525 9.233-22.845l-1.518-1.302-1.519-1.302c-6.004 7.005-9.39 15.406-10.183 25.124zm9.709-23.985 1.518 1.302c5.426-6.331 13.184-11.3 23.405-14.83l-.653-1.891-.653-1.89c-10.719 3.703-19.141 9.013-25.136 16.007zm24.27-15.419.653 1.891c10.204-3.525 22.534-5.316 37.037-5.316v-4c-14.812 0-27.608 1.826-38.343 5.535zm37.69-5.425v2c11.56 0 22.342 2.05 32.367 6.134l.755-1.852.754-1.852c-10.533-4.292-21.832-6.43-33.876-6.43zm33.122 6.282-.743 1.857c10.149 4.059 18.318 10.219 24.559 18.479l1.596-1.205 1.596-1.206c-6.703-8.872-15.475-15.466-26.266-19.782zm25.412 19.131-1.579 1.227c6.336 8.146 9.573 18.537 9.573 31.323h4c0-13.483-3.426-24.792-10.415-33.778zm9.994 32.55v-2h-38.547v4h38.547zm-38.547 0h2c0-4.733-1.242-8.756-3.908-11.866l-1.519 1.302-1.518 1.301c1.902 2.22 2.945 5.24 2.945 9.263zm-3.427-10.564 1.562-1.25c-2.524-3.155-5.782-5.458-9.722-6.909l-.691 1.877-.691 1.876c3.294 1.214 5.937 3.1 7.981 5.655zm-8.851-6.282.776-1.843q-5.714-2.405-12.008-3.004l-.189 1.991-.19 1.991q5.698.544 10.835 2.708zm-11.421-2.856.282-1.979q-6.105-.875-11.133-.877v4c3.122 0 6.642.276 10.568.836zm-10.851-.856v-2c-7.19 0-13.337.872-18.38 2.688l.677 1.882.678 1.881c4.475-1.61 10.129-2.451 17.025-2.451zm-17.703 2.57-.702-1.873c-2.587.97-4.668 2.456-6.087 4.525-1.417 2.067-2.063 4.555-2.063 7.341h4c0-2.163.496-3.815 1.362-5.079.866-1.262 2.211-2.299 4.193-3.042zm-6.852 9.993h-2c0 5.085 2.271 9.129 6.62 11.956l1.09-1.677 1.09-1.676c-3.265-2.123-4.8-4.931-4.8-8.603zm5.71 10.279-1.029 1.715c4.031 2.419 9.182 4.384 15.392 5.936l.485-1.94.485-1.94c-5.972-1.493-10.72-3.335-14.304-5.486zm14.848 5.711-.427 1.954a2624 2624 0 0 0 20.002 4.286l.412-1.957.412-1.957a2632 2632 0 0 1-19.972-4.28zm19.987 4.283-.353 1.969a215 215 0 0 1 21.783 5.092l.556-1.921.556-1.921a218 218 0 0 0-22.188-5.187zm21.986 5.14-.556 1.921c7.056 2.042 13.338 4.911 18.863 8.594l1.109-1.664 1.11-1.664c-5.897-3.931-12.559-6.963-19.97-9.108zm19.416 8.851-1.045 1.705c5.598 3.431 9.917 8.021 12.985 13.796l1.766-.939 1.766-.938c-3.404-6.408-8.222-11.526-14.426-15.329zm13.706 14.562-1.743.981c3.172 5.639 4.488 13.011 3.747 22.273l1.993.16 1.994.159c.782-9.773-.567-18.01-4.248-24.553zm3.997 23.414-1.996-.122c-.543 8.87-3.784 16.42-9.738 22.735l1.455 1.372 1.455 1.372c6.61-7.011 10.222-15.451 10.821-25.235zm-10.279 23.985-1.456-1.371c-5.815 6.178-13.883 11.071-24.313 14.61l.642 1.894.643 1.894c10.889-3.695 19.573-8.891 25.941-15.657zm-25.127 15.133-.622-1.901c-10.219 3.344-22.372 5.04-36.497 5.04v4c14.429 0 27.022-1.73 37.741-5.238z"/></g><mask id="wordmark-c" width="823" height="172" x="25" y="137" maskUnits="userSpaceOnUse" style="mask-type:luminance"><path fill="#fff" d="M848 137H25v172h823z"/><path fill="#000" d="M66.535 270.449H85.38q11.707 0 20.559-1.998 9.137-1.999 15.418-7.139 6.568-5.425 9.709-14.847 3.426-9.423 3.426-24.271 0-15.132-5.996-25.126-5.71-10.28-16.847-15.419-10.85-5.14-26.269-5.14H66.536zm110.501-47.969q0 31.694-12.849 49.397-12.563 17.418-35.977 24.27T73.103 303H27.132V142.246h45.971q31.694 0 55.107 9.137 23.414 8.851 35.977 26.554 12.849 17.703 12.849 44.543m99.936 84.517q-35.976 0-54.536-18.845-18.274-19.13-18.274-53.68v-92.226h42.83v91.941q0 11.993 3.14 19.13 3.141 6.853 7.71 10.28 4.854 3.426 9.993 4.568 5.14.857 9.137.857 6.568 0 13.42-1.999 7.139-1.999 11.993-9.423t4.854-23.413v-91.941h42.83v92.226q0 35.12-18.275 53.966-17.988 18.56-54.822 18.559m143.411-36.548h18.845q11.707 0 20.558-1.998 9.137-1.999 15.419-7.139 6.567-5.425 9.708-14.847 3.426-9.423 3.427-24.271 0-15.132-5.997-25.126-5.71-10.28-16.846-15.419-10.85-5.14-26.269-5.14h-18.845zm110.501-47.969q0 31.694-12.849 49.397-12.564 17.418-35.977 24.27T426.95 303h-45.97V142.246h45.97q31.695 0 55.108 9.137 23.413 8.851 35.977 26.554 12.849 17.703 12.849 44.543M556.582 303V142.246h121.636v33.978H595.7v29.41h61.389v31.979H595.7v33.693h85.659V303zm215.701 2.855q-13.705 0-26.84-3.141t-23.699-9.993q-10.565-7.138-17.132-18.274-6.282-11.136-6.282-26.84h39.975q0 1.428.571 3.997.857 2.57 3.141 5.711t6.282 5.996q3.997 2.856 10.564 4.854 6.853 1.713 16.561 1.713 3.997 0 8.281-.285 4.567-.571 8.28-1.713 3.712-1.428 5.996-3.998t2.284-6.853q0-5.996-5.71-9.422-5.425-3.426-14.562-5.425-8.852-2.285-19.702-4.569a218 218 0 0 1-21.129-5.71q-10.566-3.427-19.417-9.137-8.566-5.996-13.42-15.134-4.568-9.422-3.712-23.413 1.143-13.992 9.709-23.985t24.27-15.419q15.704-5.425 37.69-5.425 17.703 0 33.122 6.282 15.704 6.282 25.412 19.131 9.994 12.849 9.994 32.55h-38.547q0-6.567-3.427-10.564-3.426-4.284-8.851-6.282a38.7 38.7 0 0 0-11.421-2.856q-5.997-.856-10.851-.856-10.565 0-17.703 2.57-6.852 2.57-6.852 9.993 0 6.567 5.71 10.279 5.711 3.427 14.848 5.711 9.137 1.999 19.987 4.283a217 217 0 0 1 21.986 5.14q10.851 3.14 19.416 8.851 8.852 5.425 13.706 14.562 5.14 9.138 3.997 23.414-.856 13.99-10.279 23.985-9.137 9.708-25.127 15.133-15.703 5.139-37.119 5.139"/></mask><g mask="url(#wordmark-c)"><path fill="#000" d="M66.535 270.449h-2v2h2zm39.404-1.998-.428-1.954-.013.003zm15.418-7.139 1.267 1.548.007-.006zm9.709-14.847-1.88-.684-.009.026-.009.025zm-2.57-49.397-1.749.971.017.029.017.029zm-16.847-15.419-.856 1.807.009.005.009.004zm-45.114-5.14v-2h-2v2zm97.652 95.368-1.618-1.175-.004.005zM27.132 303h-2v2h2zm0-160.754v-2h-2v2zm101.078 9.137-.727 1.863.01.004.01.003zm35.977 26.554-1.631 1.158.006.008.007.009zm-97.652 92.512v2H79.1v-4H66.535zm12.564 0v2h6.282v-4h-6.282zm6.281 0v2c7.913 0 14.919-.675 20.999-2.047l-.44-1.951-.441-1.951c-5.722 1.292-12.42 1.949-20.118 1.949zm20.559-1.998.427 1.953c6.352-1.389 11.792-3.889 16.258-7.544l-1.267-1.548-1.266-1.548c-3.909 3.199-8.749 5.457-14.58 6.733zm15.418-7.139 1.274 1.542c4.713-3.893 8.139-9.18 10.332-15.757l-1.897-.632-1.898-.633c-1.995 5.986-5.04 10.598-9.084 13.938zm9.709-14.847 1.879.683c2.393-6.579 3.547-14.923 3.547-24.954h-4c0 9.767-1.13 17.603-3.306 23.587zm3.426-24.271h2c0-10.345-2.049-19.102-6.281-26.155l-1.715 1.029-1.715 1.029c3.763 6.271 5.711 14.265 5.711 24.097zm-5.996-25.126 1.748-.972c-4.022-7.24-9.965-12.667-17.757-16.263l-.838 1.816-.838 1.816c7.056 3.257 12.345 8.109 15.936 14.574zm-16.847-15.419.857-1.808c-7.566-3.583-16.631-5.332-27.126-5.332v4c10.065 0 18.512 1.678 25.413 4.947zm-26.269-5.14v-2H66.536v4h18.846zm-18.845 0h-2v93.94h4v-93.94zm110.501 45.971h-2c0 20.889-4.238 36.884-12.467 48.222l1.618 1.175 1.619 1.175c8.903-12.266 13.23-29.202 13.23-50.572zm-12.849 49.397-1.622-1.17c-8.08 11.203-19.673 19.059-34.917 23.521l.562 1.919.562 1.92c15.975-4.676 28.367-12.999 37.037-25.02zm-35.977 24.27-.562-1.919C112.267 298.73 94.095 301 73.103 301v4c21.266 0 39.832-2.298 55.669-6.933zM73.103 303v-2H57.398v4h15.705zm-15.705 0v-2H27.132v4h30.266zm-30.266 0h2V142.246h-4V303zm0-160.754v2h31.123v-4H27.132zm31.123 0v2h14.848v-4H58.255zm14.848 0v2c20.943 0 39.055 3.019 54.38 9l.727-1.863.727-1.864c-15.892-6.202-34.519-9.273-55.834-9.273zm55.107 9.137-.707 1.87c15.296 5.783 26.942 14.411 35.053 25.842l1.631-1.158 1.631-1.157c-8.639-12.174-20.978-21.249-36.901-27.268zm35.977 26.554-1.618 1.175c8.266 11.389 12.467 25.799 12.467 43.368h4c0-18.218-4.365-33.503-13.23-45.718zm58.249 110.215-1.446 1.382.01.011.011.011zm-18.274-145.906v-2h-2v2zm42.83 0h2v-2h-2zm3.14 111.071-1.83.806.006.014.006.014zm7.71 10.28-1.2 1.6.023.017.023.017zm9.993 4.568-.434 1.952.053.012.053.009zm22.557-1.142-.539-1.926-.01.003-.011.003zm16.847-124.777v-2h-2v2zm42.83 0h2v-2h-2zm-18.275 146.192-1.435-1.392h-.001zm-54.822 18.559v-2c-23.647 0-41.234-6.188-53.111-18.248l-1.425 1.403-1.425 1.404c12.868 13.066 31.639 19.441 55.961 19.441zm-54.536-18.845 1.446-1.381c-11.729-12.279-17.72-29.618-17.72-52.299h-4c0 23.385 6.191 41.833 18.828 55.062zm-18.274-53.68h2v-92.226h-4v92.226zm0-92.226v2h42.83v-4h-42.83zm42.83 0h-2v91.941h4v-91.941zm0 91.941h-2c0 8.138 1.06 14.824 3.31 19.936l1.83-.806 1.831-.805c-1.939-4.406-2.971-10.474-2.971-18.325zm3.14 19.13-1.818.834c2.19 4.778 4.944 8.507 8.328 11.046l1.2-1.6 1.2-1.6c-2.707-2.031-5.094-5.154-7.092-9.513zm7.71 10.28-1.154 1.634c3.425 2.417 6.997 4.061 10.713 4.886l.434-1.952.434-1.952c-3.136-.697-6.227-2.099-9.274-4.25zm9.993 4.568-.328 1.973c3.504.584 6.663.884 9.465.884v-4c-2.527 0-5.459-.272-8.808-.83zm9.137.857v2c4.584 0 9.246-.698 13.98-2.079l-.56-1.92-.56-1.92c-4.402 1.284-8.687 1.919-12.86 1.919zm13.42-1.999.54 1.926c5.313-1.488 9.68-4.983 13.127-10.254l-1.674-1.095-1.674-1.094c-3.026 4.627-6.654 7.414-10.858 8.591zm11.993-9.423 1.674 1.095c3.559-5.444 5.18-13.73 5.18-24.508h-4c0 10.541-1.616 17.865-4.528 22.319zm4.854-23.413h2v-91.941h-4v91.941zm0-91.941v2h42.83v-4h-42.83zm42.83 0h-2v92.226h4v-92.226zm0 92.226h-2c0 23.075-5.998 40.495-17.71 52.574l1.435 1.392 1.436 1.392c12.653-13.048 18.839-31.605 18.839-55.358zm-18.275 53.966-1.436-1.392c-11.479 11.844-29.138 17.951-53.386 17.951v4c24.864 0 43.752-6.265 56.258-19.167zm88.589-17.989h-2v2h2zm39.403-1.998-.427-1.954-.013.003zm15.419-7.139 1.267 1.548.007-.006zm9.708-14.847-1.879-.684-.01.026-.008.025zm-2.57-49.397-1.748.971.016.029.017.029zm-16.846-15.419-.856 1.807.009.005.009.004zm-45.114-5.14v-2h-2v2zm97.652 95.368-1.619-1.175-.003.005zM380.98 303h-2v2h2zm0-160.754v-2h-2v2zm101.078 9.137-.727 1.863.01.004.01.003zm35.977 26.554-1.631 1.158.006.008.006.009zm-97.652 92.512v2h12.563v-4h-12.563zm12.563 0v2h6.282v-4h-6.282zm6.282 0v2c7.913 0 14.919-.675 20.999-2.047l-.441-1.951-.44-1.951c-5.722 1.292-12.421 1.949-20.118 1.949zm20.558-1.998.428 1.953c6.352-1.389 11.791-3.889 16.258-7.544l-1.267-1.548-1.266-1.548c-3.91 3.199-8.749 5.457-14.58 6.733zm15.419-7.139 1.274 1.542c4.712-3.893 8.139-9.18 10.332-15.757l-1.898-.632-1.897-.633c-1.996 5.986-5.041 10.598-9.085 13.938zm9.708-14.847 1.88.683c2.392-6.579 3.547-14.923 3.547-24.954h-4c0 9.767-1.13 17.603-3.306 23.587zm3.427-24.271h2c0-10.345-2.05-19.102-6.282-26.155l-1.715 1.029-1.715 1.029c3.764 6.271 5.712 14.265 5.712 24.097zm-5.997-25.126 1.749-.972c-4.023-7.24-9.965-12.667-17.757-16.263l-.838 1.816-.838 1.816c7.056 3.257 12.344 8.109 15.936 14.574zm-16.846-15.419.856-1.808c-7.566-3.583-16.631-5.332-27.125-5.332v4c10.064 0 18.512 1.678 25.413 4.947zm-26.269-5.14v-2h-18.845v4h18.845zm-18.845 0h-2v93.94h4v-93.94zm110.501 45.971h-2c0 20.889-4.238 36.884-12.468 48.222l1.619 1.175 1.619 1.175c8.902-12.266 13.23-29.202 13.23-50.572zm-12.849 49.397-1.622-1.17c-8.081 11.203-19.674 19.059-34.917 23.521l.562 1.919.562 1.92c15.975-4.676 28.366-12.999 37.037-25.02zm-35.977 24.27-.562-1.919C466.115 298.73 447.943 301 426.95 301v4c21.266 0 39.833-2.298 55.67-6.933zM426.95 303v-2h-15.704v4h15.704zm-15.704 0v-2H380.98v4h30.266zm-30.266 0h2V142.246h-4V303zm0-160.754v2h31.123v-4H380.98zm31.123 0v2h14.847v-4h-14.847zm14.847 0v2c20.943 0 39.055 3.019 54.381 9l.727-1.863.727-1.864c-15.893-6.202-34.519-9.273-55.835-9.273zm55.108 9.137-.707 1.87c15.295 5.783 26.941 14.411 35.053 25.842l1.631-1.158 1.631-1.157c-8.64-12.174-20.978-21.249-36.901-27.268zm35.977 26.554-1.619 1.175c8.267 11.389 12.468 25.799 12.468 43.368h4c0-18.218-4.365-33.503-13.23-45.718zM556.582 303h-2v2h2zm0-160.754v-2h-2v2zm121.636 0h2v-2h-2zm0 33.978v2h2v-2zm-82.518 0v-2h-2v2zm0 29.41h-2v2h2zm61.389 0h2v-2h-2zm0 31.979v2h2v-2zm-61.389 0v-2h-2v2zm0 33.693h-2v2h2zm85.659 0h2v-2h-2zm0 31.694v2h2v-2zm-124.777 0h2V142.246h-4V303zm0-160.754v2h121.636v-4H556.582zm121.636 0h-2v33.978h4v-33.978zm0 33.978v-2H595.7v4h82.518zm-82.518 0h-2v29.41h4v-29.41zm0 29.41v2h61.389v-4H595.7zm61.389 0h-2v31.979h4v-31.979zm0 31.979v-2H595.7v4h61.389zm-61.389 0h-2v33.693h4v-33.693zm0 33.693v2h85.659v-4H595.7zm85.659 0h-2V303h4v-31.694zm0 31.694v-2H556.582v4h124.777zm40.385-10.279-1.12 1.657.016.011.016.01zm-17.132-18.274-1.742.982.01.017.009.017zm-6.281-26.84v-2h-2v2zm39.974 0h2v-2h-2zm.571 3.997-1.952.434.022.101.033.098zm19.987 16.561-.582 1.913.048.015.049.012zm24.842 1.428.133 1.995.057-.004.058-.007zm8.28-1.713.588 1.911.066-.02.064-.025zm2.57-20.273-1.068 1.691.019.012.02.012zm-14.562-5.425-.5 1.936.036.01.036.007zm-19.702-4.569-.423 1.955.011.002zm-40.546-14.847-1.147 1.638.031.022.032.02zm-13.42-15.134-1.799.873.016.033.017.033zm-3.712-23.413-1.993-.163-.002.02-.001.02zm104.791-38.547-.755 1.852.012.005zm25.412 19.131-1.596 1.205.009.011.008.011zm9.994 32.55v2h2v-2zm-38.547 0h-2v2h2zm-3.427-10.564-1.561 1.249.021.026.022.026zm-8.851-6.282-.776 1.843.042.018.043.015zm-11.421-2.856-.283 1.98.046.007.047.004zm-28.554 1.714-.677-1.882-.012.004-.013.005zm-1.142 20.272-1.09 1.677.031.02.03.018zm14.848 5.711-.485 1.94.029.008.029.006zm19.987 4.283-.412 1.957.029.006.03.006zm41.402 13.991-1.109 1.664.032.021.032.02zm13.706 14.562-1.766.939.011.021.012.021zm3.997 23.414-1.993-.16-.002.019-.001.019zm-10.279 23.985-1.455-1.372-.001.001zm-25.127 15.133.622 1.901.011-.004.01-.003zm-37.119 5.139v-2q-13.472 0-26.375-3.086l-.465 1.945-.465 1.946q13.367 3.195 27.305 3.195zm-26.84-3.141.465-1.945c-8.551-2.044-16.237-5.29-23.076-9.726l-1.088 1.678-1.088 1.678c7.247 4.701 15.36 8.118 24.322 10.261zm-23.699-9.993 1.12-1.657c-6.794-4.591-12.3-10.462-16.529-17.633l-1.723 1.016-1.723 1.016c4.527 7.676 10.443 13.987 17.735 18.915zm-17.132-18.274 1.742-.983c-3.984-7.063-6.023-15.654-6.023-25.857h-4c0 10.736 2.148 20.037 6.539 27.822zm-6.281-26.84v2h39.974v-4h-39.974zm39.974 0h-2c0 1.172.228 2.673.619 4.431l1.952-.434 1.952-.434c-.37-1.668-.523-2.832-.523-3.563zm.571 3.997-1.897.633c.657 1.972 1.825 4.06 3.42 6.254l1.618-1.176 1.617-1.176c-1.449-1.994-2.376-3.713-2.861-5.167zm3.141 5.711-1.618 1.176c1.678 2.307 3.941 4.451 6.737 6.448l1.163-1.628 1.162-1.627c-2.534-1.811-4.459-3.664-5.827-5.545zm6.282 5.996-1.163 1.628c2.896 2.068 6.635 3.767 11.145 5.139l.582-1.913.583-1.913c-4.247-1.293-7.551-2.83-9.985-4.568zm10.564 4.854-.485 1.94c4.774 1.194 10.467 1.773 17.046 1.773v-4c-6.365 0-11.712-.562-16.076-1.653zm16.561 1.713v2q4.069 0 8.414-.29l-.133-1.995-.134-1.996q-4.22.282-8.147.281zm8.281-.285.248 1.984q4.712-.586 8.62-1.786l-.588-1.911-.588-1.912c-2.346.722-4.99 1.271-7.941 1.64zm8.28-1.713.718 1.866c2.726-1.048 5.007-2.548 6.773-4.535l-1.495-1.329-1.495-1.329c-1.279 1.44-2.996 2.605-5.219 3.46zm5.996-3.998 1.495 1.329c1.923-2.163 2.789-4.962 2.789-8.182h-4c0 2.491-.656 4.261-1.779 5.524zm2.284-6.853h2c0-4.788-2.352-8.539-6.681-11.137l-1.029 1.715-1.029 1.715c3.284 1.971 4.739 4.501 4.739 7.707zm-5.71-9.422 1.068-1.691c-3.882-2.452-8.979-4.327-15.203-5.688l-.427 1.954-.428 1.953c5.959 1.304 10.57 3.046 13.922 5.163zm-14.562-5.425.499-1.937q-8.903-2.298-19.789-4.589l-.412 1.957-.412 1.957q10.814 2.277 19.614 4.548zm-19.702-4.569.423-1.955A215 215 0 0 1 739.779 230l-.617 1.903-.617 1.902a219 219 0 0 0 21.323 5.763zm-21.129-5.71.617-1.903q-10.33-3.352-18.949-8.915l-1.085 1.681-1.084 1.68c6.054 3.906 12.685 7.024 19.884 9.359zm-19.417-9.137 1.147-1.639c-5.454-3.818-9.714-8.624-12.8-14.433l-1.767.938-1.766.939c3.386 6.373 8.073 11.656 14.039 15.833zm-13.42-15.134 1.8-.872c-2.853-5.885-4.072-13.323-3.515-22.419l-1.997-.122-1.996-.123c-.585 9.559.671 17.731 3.909 24.409zm-3.712-23.413 1.994.162c.729-8.936 3.815-16.525 9.233-22.845l-1.518-1.302-1.519-1.302c-6.004 7.005-9.39 15.406-10.183 25.124zm9.709-23.985 1.518 1.302c5.426-6.331 13.184-11.3 23.405-14.83l-.653-1.891-.653-1.89c-10.719 3.703-19.141 9.013-25.136 16.007zm24.27-15.419.653 1.891c10.204-3.525 22.534-5.316 37.037-5.316v-4c-14.812 0-27.608 1.826-38.343 5.535zm37.69-5.425v2c11.56 0 22.342 2.05 32.367 6.134l.755-1.852.754-1.852c-10.533-4.292-21.832-6.43-33.876-6.43zm33.122 6.282-.743 1.857c10.149 4.059 18.318 10.219 24.559 18.479l1.596-1.205 1.596-1.206c-6.703-8.872-15.475-15.466-26.266-19.782zm25.412 19.131-1.579 1.227c6.336 8.146 9.573 18.537 9.573 31.323h4c0-13.483-3.426-24.792-10.415-33.778zm9.994 32.55v-2h-38.547v4h38.547zm-38.547 0h2c0-4.733-1.242-8.756-3.908-11.866l-1.519 1.302-1.518 1.301c1.902 2.22 2.945 5.24 2.945 9.263zm-3.427-10.564 1.562-1.25c-2.524-3.155-5.782-5.458-9.722-6.909l-.691 1.877-.691 1.876c3.294 1.214 5.937 3.1 7.981 5.655zm-8.851-6.282.776-1.843q-5.714-2.405-12.008-3.004l-.189 1.991-.19 1.991q5.698.544 10.835 2.708zm-11.421-2.856.282-1.979q-6.105-.875-11.133-.877v4c3.122 0 6.642.276 10.568.836zm-10.851-.856v-2c-7.19 0-13.337.872-18.38 2.688l.677 1.882.678 1.881c4.475-1.61 10.129-2.451 17.025-2.451zm-17.703 2.57-.702-1.873c-2.587.97-4.668 2.456-6.087 4.525-1.417 2.067-2.063 4.555-2.063 7.341h4c0-2.163.496-3.815 1.362-5.079.866-1.262 2.211-2.299 4.193-3.042zm-6.852 9.993h-2c0 5.085 2.271 9.129 6.62 11.956l1.09-1.677 1.09-1.676c-3.265-2.123-4.8-4.931-4.8-8.603zm5.71 10.279-1.029 1.715c4.031 2.419 9.182 4.384 15.392 5.936l.485-1.94.485-1.94c-5.972-1.493-10.72-3.335-14.304-5.486zm14.848 5.711-.427 1.954a2624 2624 0 0 0 20.002 4.286l.412-1.957.412-1.957a2632 2632 0 0 1-19.972-4.28zm19.987 4.283-.353 1.969a215 215 0 0 1 21.783 5.092l.556-1.921.556-1.921a218 218 0 0 0-22.188-5.187zm21.986 5.14-.556 1.921c7.056 2.042 13.338 4.911 18.863 8.594l1.109-1.664 1.11-1.664c-5.897-3.931-12.559-6.963-19.97-9.108zm19.416 8.851-1.045 1.705c5.598 3.431 9.917 8.021 12.985 13.796l1.766-.939 1.766-.938c-3.404-6.408-8.222-11.526-14.426-15.329zm13.706 14.562-1.743.981c3.172 5.639 4.488 13.011 3.747 22.273l1.993.16 1.994.159c.782-9.773-.567-18.01-4.248-24.553zm3.997 23.414-1.996-.122c-.543 8.87-3.784 16.42-9.738 22.735l1.455 1.372 1.455 1.372c6.61-7.011 10.222-15.451 10.821-25.235zm-10.279 23.985-1.456-1.371c-5.815 6.178-13.883 11.071-24.313 14.61l.642 1.894.643 1.894c10.889-3.695 19.573-8.891 25.941-15.657zm-25.127 15.133-.622-1.901c-10.219 3.344-22.372 5.04-36.497 5.04v4c14.429 0 27.022-1.73 37.741-5.238z"/></g></g><circle class="click-hit-area" cx="397" cy="397" r="259.9" fill="transparent"/></svg>