<svg width="173" height="173" viewBox="0 0 173 173" fill="none" xmlns="http://www.w3.org/2000/svg">
<g clip-path="url(#clip0_101_5886)">
<rect width="173" height="173" rx="20.2734" fill="#CAF264"/>
<rect x="80.6168" y="128.102" width="8.9673" height="9.08642" fill="#FF86CE"/>
<rect x="49.951" y="83.3164" width="6.87" height="15.6569" rx="3.435" fill="#FF86CE"/>
<path d="M53.0478 73.6602C53.0478 56.4919 66.9654 42.5742 84.1337 42.5742C101.302 42.5742 115.22 56.4919 115.22 73.6602V99.3398C115.22 116.508 101.302 130.426 84.1337 130.426C66.9654 130.426 53.0478 116.508 53.0478 99.3398V73.6602Z" fill="#FFBEDF"/>
<path d="M84.2352 114.727C87.7759 115.684 96.0056 115.703 100.599 108.124" stroke="white" stroke-width="3.37891" stroke-linecap="round"/>
<rect x="45.6163" y="137.188" width="78.8447" height="82.3399" rx="15.543" fill="#644292"/>
<path d="M51.0225 52.7109C51.0225 51.218 52.2328 50.0078 53.7256 50.0078H61.835V69.9434C61.835 75.7283 57.1454 80.418 51.3604 80.418H51.0225V52.7109Z" fill="#5C49FF"/>
<path d="M116.91 52.7109C116.91 51.218 115.7 50.0078 114.207 50.0078H106.098V69.9434C106.098 75.7283 110.787 80.418 116.572 80.418H116.91V52.7109Z" fill="#5C49FF"/>
<path d="M31.8185 68.4555H34.9974L38.1547 78.576L41.3552 68.4555H44.5124L47.6913 78.5327L50.8485 68.4555H54.0058L49.2699 83.593H46.091L42.9338 73.4725L39.7333 83.593H36.576L31.8185 68.4555Z" fill="#222222"/>
<path d="M55.3977 83.593V68.4555H67.897V71.2451H58.4252V74.6186H67.551V77.4082H58.4252V80.7817H67.897V83.593H55.3977Z" fill="#222222"/>
<path d="M69.2605 83.593L76.8509 68.4555H79.9L87.5337 83.593H84.1602L82.3653 80.0249H74.0829L72.288 83.593H69.2605ZM75.4669 77.2569H80.9597L78.2133 71.8074L75.4669 77.2569Z" fill="#222222"/>
<path d="M91.571 83.593V71.2451H86.208V68.4555H99.9182V71.2451H94.5984V83.593H91.571Z" fill="#222222"/>
<path d="M101.752 83.593V68.4555H104.78V74.6186H113.062V68.4555H116.089V83.593H113.062V77.4082H104.78V83.593H101.752Z" fill="#222222"/>
<path d="M118.816 83.593V68.4555H131.315V71.2451H121.843V74.6186H130.969V77.4082H121.843V80.7817H131.315V83.593H118.816Z" fill="#222222"/>
<path d="M144.572 83.593L141.22 79.1815H137.112V83.593H134.084V68.4555H141.869C145.113 68.4555 147.794 70.5964 147.794 73.8185C147.794 75.9377 146.41 77.711 144.529 78.5976L148.335 83.593H144.572ZM144.767 73.8185C144.767 72.3264 143.556 71.2451 141.869 71.2451H137.112V76.3486H141.869C143.534 76.3486 144.767 75.2457 144.767 73.8185Z" fill="#222222"/>
<path d="M72.2681 98.4602H69.5866L69.2839 97.0329C68.181 98.1358 66.6024 98.7845 64.7643 98.7845C61.1745 98.7845 58.4714 96.3409 58.4714 93.0755C58.4714 89.7669 61.1529 87.3233 64.7643 87.3233C66.5591 87.3233 68.1378 87.9504 69.2406 89.0317L69.2605 83.593H72.288L72.2681 98.4602ZM61.4989 93.0755C61.4989 94.8272 63.1424 96.103 65.413 96.103C67.7053 96.103 69.2406 94.8704 69.2406 93.0755C69.2406 91.259 67.6836 89.9832 65.413 89.9832C63.1424 89.9832 61.4989 91.2807 61.4989 93.0755Z" fill="#222222"/>
<path d="M85.2507 92.8813V87.8427H88.2782V98.6552H85.5535L85.2724 96.8603C84.3209 98.1794 82.8936 98.9795 81.2069 98.9795C77.9631 98.9795 75.6925 96.471 75.6925 92.8813V87.8427H78.72V92.8813C78.72 94.8275 80.0824 96.1683 82.007 96.1683C83.91 96.1683 85.2507 94.8059 85.2507 92.8813Z" fill="#222222"/>
<path d="M104.778 98.4602H102.097L101.794 97.0329C100.691 98.1358 99.1125 98.7845 97.2744 98.7845C93.6847 98.7845 90.9815 96.3409 90.9815 93.0755C90.9815 89.7669 93.663 87.3233 97.2744 87.3233C99.0693 87.3233 100.648 87.9504 101.751 89.0317V83.3227H104.778V98.4602ZM94.009 93.0755C94.009 94.8272 95.6525 96.103 97.9232 96.103C100.215 96.103 101.751 94.8704 101.751 93.0755C101.751 91.259 100.194 89.9832 97.9232 89.9832C95.6525 89.9832 94.009 91.2807 94.009 93.0755Z" fill="#222222"/>
<path d="M120.464 93.8108H110.646C110.971 95.3678 112.355 96.4058 114.171 96.4058C115.469 96.4058 116.507 95.93 117.069 95.1515H120.14C119.318 97.3573 117.004 98.7845 114.041 98.7845C110.322 98.7845 107.532 96.3409 107.532 93.0755C107.532 89.7669 110.3 87.3233 114.041 87.3233C117.739 87.3233 120.507 89.6372 120.507 93.0755C120.507 93.3134 120.507 93.5729 120.464 93.8108ZM110.646 92.297H117.393C117.091 90.7617 115.815 89.7669 114.041 89.7669C112.29 89.7669 110.971 90.7833 110.646 92.297Z" fill="#222222"/>
<rect x="51.0225" y="42.5742" width="60.4824" height="19.9355" rx="6.75781" fill="#5C49FF"/>
<circle cx="106.098" cy="45.6152" r="16.8945" fill="#5C49FF"/>
<circle cx="83.7969" cy="42.5742" r="16.8945" fill="#5C49FF"/>
<circle cx="66.0576" cy="43.0811" r="9.29199" fill="#5C49FF"/>
</g>
<defs>
<clipPath id="clip0_101_5886">
<rect width="173" height="173" rx="20.2734" fill="white"/>
</clipPath>
</defs>
</svg>
