<svg xmlns="http://www.w3.org/2000/svg" width="794" height="794" fill="none" viewBox="0 0 794 794"><g clip-path="url(#a)"><path fill="#5c49ff" d="M403.398 793.95c219.229-3.534 394.085-184.118 390.552-403.346l-151.072 2.434c2.189 135.795-106.12 247.652-241.914 249.84l1.092 67.764s38.628-23.398 40.12 7.127c1.492 30.526-39.87 8.417-39.87 8.417z"/><path stroke="#000" stroke-width="3" d="M792.469 392.127c2.694 217.224-170.397 395.987-387.595 400.294l-1.028-63.796a92 92 0 0 0 4.326 1.924c3.903 1.616 9.145 3.472 14.38 4.354 5.177.873 10.66.848 14.801-1.658 4.297-2.601 6.71-7.581 6.321-15.549s-3.246-12.806-7.676-15.233c-4.301-2.357-9.705-2.214-14.745-1.173-5.086 1.051-10.082 3.076-13.777 4.816a84 84 0 0 0-3.961 1.996l-1.028-63.753c135.421-2.987 243.289-114.389 241.91-249.835z"/><path fill="#fff" d="M563.21 681.998q-2.47-2.388-6.15-6.239a3258 3258 0 0 0-7.559-7.881 831 831 0 0 0-7.248-7.744q-3.481-3.67-5.529-5.965a16 16 0 0 1-1.893-2.226q-.744-1.256-1.048-2.04-.885-2.616-.373-4.617.624-2.043 2.19-2.65 1.23-.477 2.422.605a28 28 0 0 1 2.359 2.432 244 244 0 0 0 5.832 6.749l6.74 7.426q3.481 3.67 6.565 6.979 3.04 3.198 4.872 4.933l3.751-35.816q.276-2.938 1.547-4.975 1.381-2.079 3.283-2.817 1.12-.433 2.243.804 1.079 1.127 1.556 2.357.52 1.342.258 2.989-.151 1.603-1.07 6.206-.544 2.913-1.618 7.448-.962 4.491-1.529 11.661a809 809 0 0 1-1.219 11.797q-.767 6.99-1.334 14.159a212 212 0 0 0-.457 13.433q.111 6.262 1.455 9.732.78 2.013.555 4.418-.116 2.361-1.793 3.011-.672.261-1.784.048a15 15 0 0 1-2.242-.804 8.6 8.6 0 0 1-2.036-1.27q-.907-.678-1.254-1.573-.52-1.343-.759-3.953a183 183 0 0 1-.342-5.53q.01-2.964.131-5.971t.504-5.343zm31.461-32.353q-4.736-5.893-6.454-11.286-1.719-5.394-1.13-10.024.514-4.724 2.885-8.477 2.297-3.848 5.663-6.554 7.763-6.24 16.802-3.807 8.964 2.34 16.933 12.254 3.76 4.677 5.345 9.714 1.512 4.944 1.335 9.705-.252 4.667-2.228 8.72-1.884 3.976-5.157 6.609-3.554 2.856-8.238 3.542-4.665.517-9.503-.521a33 33 0 0 1-9.079-3.633q-4.317-2.688-7.174-6.242m27.135-.72a15.7 15.7 0 0 0 3.813-4.451 15.5 15.5 0 0 0 1.823-5.776q.424-3.113-.502-6.371-.926-3.26-3.482-6.439-2.331-2.9-5.034-4.729t-5.366-2.461q-2.738-.725-5.267-.232a10.4 10.4 0 0 0-4.586 2.148q-2.432 1.955-4.28 4.826a16.7 16.7 0 0 0-2.516 5.872q-.762 3.075-.116 6.559.663 3.317 3.145 6.402 2.03 2.526 4.995 4.299a20.7 20.7 0 0 0 6.059 2.366q3.168.686 6.204.248 2.96-.532 5.11-2.261m53.033-38.4q-3.345 5.125-7.89 6.6-4.581 1.31-9.348.491a33.8 33.8 0 0 1-9.216-3.006q-4.482-2.353-7.698-4.452a151 151 0 0 1-6.702-4.661q-3.522-2.728-6.278-5.53-2.858-2.868-4.346-5.416-1.424-2.65-.309-4.358.918-1.406 2.15-1.319 1.299-.012 2.806.972t3.254 2.697a212 212 0 0 1 3.661 3.393 387 387 0 0 0 4.098 3.821 47 47 0 0 0 4.627 3.45q1.91 1.245 4.92 2.781a29.3 29.3 0 0 0 6.213 2.336q3.103.735 6.127.273 2.924-.528 4.826-3.442 1.509-2.312 1.785-4.71.241-2.566-.182-4.991a21.3 21.3 0 0 0-1.611-4.777 377 377 0 0 0-2.008-4.607 400 400 0 0 0-5.23-3.844 136 136 0 0 0-4.225-3.187l-12.731-8.596q-2.312-1.51-2.328-3.239-.018-1.73.573-2.635t2.085-1.219 3.304.867l36.385 24.608q2.547 1.806 2.993 3.1.444 1.293-.539 2.801-.59.904-1.351 1.411-.66.572-1.626.515-1.066-.123-2.604-.84-1.639-.783-4.05-2.357l-1.809-1.181q-1.005-.656-2.045-1.478a20.1 20.1 0 0 1 3.577 5.058q1.424 2.649 1.917 5.406.558 2.658.282 5.057t-1.457 4.208"/></g><defs><clipPath id="a"><path fill="#fff" d="M0 0h794v794H0z"/></clipPath></defs></svg>