<svg xmlns="http://www.w3.org/2000/svg" width="823" height="172" fill="none" viewBox="0 0 823 172"><mask id="a" width="823" height="172" x="0" y="0" maskUnits="userSpaceOnUse" style="mask-type:luminance"><path fill="#fff" d="M823 0H0v172h823z"/><path fill="#000" d="M41.535 133.449h18.846q11.706 0 20.558-1.998 9.137-1.999 15.418-7.139 6.568-5.425 9.709-14.847 3.426-9.423 3.426-24.271 0-15.132-5.996-25.126-5.71-10.28-16.847-15.419-10.85-5.14-26.269-5.14H41.536zM152.036 85.48q0 31.694-12.849 49.397-12.563 17.418-35.977 24.27T48.103 166H2.132V5.246h45.971q31.694 0 55.107 9.137 23.414 8.851 35.977 26.554 12.849 17.703 12.849 44.543m99.936 84.517q-35.976 0-54.536-18.845-18.274-19.13-18.274-53.68V5.246h42.83v91.941q0 11.993 3.14 19.13 3.141 6.853 7.71 10.28 4.854 3.426 9.993 4.568 5.14.857 9.137.857 6.568 0 13.42-1.999 7.139-1.999 11.993-9.423t4.854-23.413V5.246h42.83v92.226q0 35.12-18.275 53.966-17.988 18.56-54.822 18.559m143.411-36.548h18.845q11.707 0 20.558-1.998 9.137-1.999 15.419-7.139 6.567-5.425 9.708-14.847 3.426-9.423 3.427-24.271 0-15.132-5.997-25.126-5.71-10.28-16.846-15.419-10.85-5.14-26.269-5.14h-18.845zM505.884 85.48q0 31.694-12.849 49.397-12.564 17.418-35.977 24.27T401.95 166h-45.97V5.246h45.97q31.695 0 55.108 9.137 23.413 8.851 35.977 26.554 12.849 17.703 12.849 44.543M531.582 166V5.246h121.636v33.978H570.7v29.41h61.389v31.979H570.7v33.693h85.659V166zm215.701 2.855q-13.705 0-26.84-3.141t-23.699-9.993q-10.565-7.138-17.132-18.274-6.282-11.136-6.282-26.84h39.975q0 1.428.571 3.997.857 2.57 3.141 5.711t6.282 5.996q3.997 2.856 10.564 4.854 6.853 1.713 16.561 1.713 3.997 0 8.281-.285 4.567-.571 8.28-1.713 3.712-1.428 5.996-3.998t2.284-6.853q0-5.996-5.71-9.422-5.425-3.427-14.562-5.425-8.852-2.284-19.702-4.569a218 218 0 0 1-21.129-5.71q-10.566-3.427-19.417-9.137-8.566-5.996-13.42-15.134-4.568-9.422-3.712-23.413 1.143-13.992 9.709-23.985t24.27-15.419q15.704-5.424 37.69-5.425 17.703 0 33.122 6.282 15.704 6.282 25.412 19.131 9.994 12.849 9.994 32.55h-38.547q0-6.567-3.427-10.564-3.426-4.284-8.851-6.282a38.7 38.7 0 0 0-11.421-2.856q-5.997-.856-10.851-.856-10.565 0-17.703 2.57-6.852 2.57-6.852 9.993 0 6.567 5.71 10.279 5.711 3.427 14.848 5.711 9.137 1.999 19.987 4.283a217 217 0 0 1 21.986 5.14q10.851 3.14 19.416 8.851 8.852 5.425 13.706 14.562 5.14 9.137 3.997 23.414-.856 13.99-10.279 23.985-9.137 9.708-25.127 15.133-15.703 5.139-37.119 5.139"/></mask><g mask="url(#a)"><path fill="#000" d="M41.535 133.449h-2v2h2zm39.404-1.998-.428-1.954-.013.003zm15.418-7.139 1.267 1.548.007-.006zm9.709-14.847-1.88-.684-.009.026-.009.025zm-2.57-49.397-1.749.971.017.029.017.029zM86.649 44.649l-.856 1.807.01.005.008.004zm-45.114-5.14v-2h-2v2zm97.652 95.368-1.618-1.175-.004.005zM2.132 166h-2v2h2zm0-160.754v-2h-2v2zm101.078 9.137-.727 1.863.01.004.01.003zm35.977 26.554-1.631 1.158.006.008.007.009zm-97.652 92.512v2H54.1v-4H41.535zm12.564 0v2h6.281v-4H54.1zm6.282 0v2c7.912 0 14.918-.675 20.998-2.047l-.44-1.951-.44-1.951c-5.722 1.292-12.422 1.949-20.118 1.949zm20.558-1.998.427 1.953c6.352-1.389 11.792-3.889 16.258-7.544l-1.267-1.548-1.266-1.548c-3.909 3.199-8.749 5.457-14.58 6.733zm15.418-7.139 1.274 1.542c4.713-3.893 8.139-9.18 10.332-15.757l-1.897-.632-1.898-.633c-1.995 5.986-5.04 10.598-9.084 13.938zm9.709-14.847 1.879.683c2.393-6.579 3.547-14.923 3.547-24.954h-4c0 9.767-1.13 17.603-3.306 23.587zm3.426-24.271h2c0-10.345-2.049-19.102-6.281-26.155l-1.715 1.029-1.715 1.029c3.763 6.271 5.711 14.265 5.711 24.097zm-5.996-25.126 1.748-.972c-4.022-7.24-9.965-12.667-17.757-16.263l-.838 1.816-.838 1.816c7.056 3.257 12.345 8.109 15.936 14.574zM86.649 44.649l.857-1.808c-7.566-3.583-16.631-5.332-27.126-5.332v4c10.065 0 18.512 1.678 25.413 4.947zm-26.269-5.14v-2H41.536v4h18.846zm-18.845 0h-2v93.94h4v-93.94zM152.036 85.48h-2c0 20.889-4.238 36.884-12.467 48.222l1.618 1.175 1.619 1.175c8.903-12.266 13.23-29.202 13.23-50.572zm-12.849 49.397-1.622-1.17c-8.08 11.203-19.673 19.059-34.917 23.521l.562 1.919.562 1.92c15.975-4.676 28.367-12.999 37.037-25.02zm-35.977 24.27-.562-1.919C87.268 161.73 69.095 164 48.103 164v4c21.266 0 39.832-2.298 55.669-6.933zM48.103 166v-2H32.398v4h15.705zm-15.705 0v-2H2.132v4h30.266zm-30.266 0h2V5.246h-4V166zm0-160.754v2h31.123v-4H2.132zm31.123 0v2h14.848v-4H33.255zm14.848 0v2c20.943 0 39.055 3.019 54.38 9l.727-1.863.727-1.864C88.045 6.317 69.418 3.246 48.103 3.246zm55.107 9.137-.707 1.87c15.296 5.783 26.942 14.411 35.053 25.842l1.631-1.158 1.631-1.157c-8.639-12.174-20.978-21.249-36.901-27.268zm35.977 26.554-1.618 1.175c8.266 11.389 12.467 25.799 12.467 43.368h4c0-18.218-4.365-33.503-13.23-45.718zm58.249 110.215-1.446 1.382.01.011.011.011zM179.162 5.246v-2h-2v2zm42.83 0h2v-2h-2zm3.14 111.071-1.83.806.006.014.006.014zm7.71 10.28-1.2 1.6.023.017.023.017zm9.993 4.568-.434 1.952.053.012.053.009zm22.557-1.142-.539-1.926-.01.003-.011.003zM282.239 5.246v-2h-2v2zm42.83 0h2v-2h-2zm-18.275 146.192-1.435-1.392h-.001zm-54.822 18.559v-2c-23.647 0-41.234-6.188-53.111-18.248l-1.425 1.403-1.425 1.404c12.868 13.066 31.639 19.441 55.961 19.441zm-54.536-18.845 1.446-1.381c-11.729-12.279-17.72-29.618-17.72-52.299h-4c0 23.385 6.191 41.833 18.828 55.062zm-18.274-53.68h2V5.246h-4v92.226zm0-92.226v2h42.83v-4h-42.83zm42.83 0h-2v91.941h4V5.246zm0 91.941h-2c0 8.138 1.06 14.824 3.31 19.936l1.83-.806 1.831-.805c-1.939-4.406-2.971-10.474-2.971-18.325zm3.14 19.13-1.818.834c2.19 4.778 4.944 8.507 8.328 11.046l1.2-1.6 1.2-1.6c-2.707-2.031-5.094-5.154-7.092-9.513zm7.71 10.28-1.154 1.634c3.425 2.417 6.997 4.061 10.713 4.886l.434-1.952.434-1.952c-3.136-.697-6.227-2.099-9.274-4.25zm9.993 4.568-.328 1.973c3.504.584 6.663.884 9.465.884v-4c-2.527 0-5.459-.272-8.808-.83zm9.137.857v2c4.584 0 9.246-.698 13.98-2.079l-.56-1.92-.56-1.92c-4.402 1.284-8.687 1.919-12.86 1.919zm13.42-1.999.54 1.926c5.313-1.488 9.68-4.983 13.127-10.254l-1.674-1.095-1.674-1.094c-3.026 4.627-6.654 7.414-10.858 8.591zm11.993-9.423 1.674 1.095c3.559-5.444 5.18-13.73 5.18-24.508h-4c0 10.541-1.616 17.865-4.528 22.319zm4.854-23.413h2V5.246h-4v91.941zm0-91.941v2h42.83v-4h-42.83zm42.83 0h-2v92.226h4V5.246zm0 92.226h-2c0 23.075-5.998 40.495-17.71 52.574l1.435 1.392 1.436 1.392c12.653-13.048 18.839-31.605 18.839-55.358zm-18.275 53.966-1.436-1.392c-11.479 11.844-29.138 17.951-53.386 17.951v4c24.864 0 43.752-6.265 56.258-19.167zm88.589-17.989h-2v2h2zm39.403-1.998-.427-1.954-.013.003zm15.419-7.139 1.267 1.548.007-.006zm9.708-14.847-1.879-.684-.01.026-.008.025zm-2.57-49.397-1.748.971.016.029.017.029zm-16.846-15.419-.856 1.807.009.005.009.004zm-45.114-5.14v-2h-2v2zm97.652 95.368-1.619-1.175-.003.005zM355.98 166h-2v2h2zm0-160.754v-2h-2v2zm101.078 9.137-.727 1.863.01.004.01.003zm35.977 26.554-1.631 1.158.006.008.006.009zm-97.652 92.512v2h12.563v-4h-12.563zm12.563 0v2h6.282v-4h-6.282zm6.282 0v2c7.913 0 14.919-.675 20.999-2.047l-.441-1.951-.44-1.951c-5.722 1.292-12.421 1.949-20.118 1.949zm20.558-1.998.428 1.953c6.352-1.389 11.791-3.889 16.258-7.544l-1.267-1.548-1.266-1.548c-3.91 3.199-8.749 5.457-14.58 6.733zm15.419-7.139 1.274 1.542c4.712-3.893 8.139-9.18 10.332-15.757l-1.898-.632-1.897-.633c-1.996 5.986-5.041 10.598-9.085 13.938zm9.708-14.847 1.88.683c2.392-6.579 3.547-14.923 3.547-24.954h-4c0 9.767-1.13 17.603-3.306 23.587zm3.427-24.271h2c0-10.345-2.05-19.102-6.282-26.155l-1.715 1.029-1.715 1.029c3.764 6.271 5.712 14.265 5.712 24.097zm-5.997-25.126 1.749-.972c-4.023-7.24-9.965-12.667-17.757-16.263l-.838 1.816-.838 1.816c7.056 3.257 12.344 8.109 15.936 14.574zm-16.846-15.419.856-1.808c-7.566-3.583-16.631-5.332-27.125-5.332v4c10.064 0 18.512 1.678 25.413 4.947zm-26.269-5.14v-2h-18.845v4h18.845zm-18.845 0h-2v93.94h4v-93.94zM505.884 85.48h-2c0 20.889-4.238 36.884-12.468 48.222l1.619 1.175 1.619 1.175c8.902-12.266 13.23-29.202 13.23-50.572zm-12.849 49.397-1.622-1.17c-8.081 11.203-19.674 19.059-34.917 23.521l.562 1.919.562 1.92c15.975-4.676 28.366-12.999 37.037-25.02zm-35.977 24.27-.562-1.919C441.115 161.73 422.943 164 401.95 164v4c21.266 0 39.833-2.298 55.67-6.933zM401.95 166v-2h-15.704v4h15.704zm-15.704 0v-2H355.98v4h30.266zm-30.266 0h2V5.246h-4V166zm0-160.754v2h31.123v-4H355.98zm31.123 0v2h14.847v-4h-14.847zm14.847 0v2c20.943 0 39.055 3.019 54.381 9l.727-1.863.727-1.864c-15.893-6.202-34.519-9.273-55.835-9.273zm55.108 9.137-.707 1.87c15.295 5.783 26.941 14.411 35.053 25.842l1.631-1.158 1.631-1.157c-8.64-12.174-20.978-21.249-36.901-27.268zm35.977 26.554-1.619 1.175c8.267 11.389 12.468 25.799 12.468 43.368h4c0-18.218-4.365-33.503-13.23-45.718zM531.582 166h-2v2h2zm0-160.754v-2h-2v2zm121.636 0h2v-2h-2zm0 33.978v2h2v-2zm-82.518 0v-2h-2v2zm0 29.41h-2v2h2zm61.389 0h2v-2h-2zm0 31.979v2h2v-2zm-61.389 0v-2h-2v2zm0 33.693h-2v2h2zm85.659 0h2v-2h-2zm0 31.694v2h2v-2zm-124.777 0h2V5.246h-4V166zm0-160.754v2h121.636v-4H531.582zm121.636 0h-2v33.978h4V5.246zm0 33.978v-2H570.7v4h82.518zm-82.518 0h-2v29.41h4v-29.41zm0 29.41v2h61.389v-4H570.7zm61.389 0h-2v31.979h4V68.634zm0 31.979v-2H570.7v4h61.389zm-61.389 0h-2v33.693h4v-33.693zm0 33.693v2h85.659v-4H570.7zm85.659 0h-2V166h4v-31.694zm0 31.694v-2H531.582v4h124.777zm40.385-10.279-1.12 1.657.016.011.016.01zm-17.132-18.274-1.742.982.01.017.009.017zm-6.281-26.84v-2h-2v2zm39.974 0h2v-2h-2zm.571 3.997-1.952.434.022.101.033.098zm19.987 16.561-.582 1.913.048.015.049.012zm24.842 1.428.133 1.995.057-.004.058-.007zm8.28-1.713.588 1.911.066-.02.064-.025zm2.57-20.273-1.068 1.691.019.012.02.012zm-14.562-5.425-.5 1.936.036.01.036.007zm-19.702-4.569-.423 1.955.011.002zm-40.546-14.847-1.147 1.638.031.022.032.02zm-13.42-15.134-1.799.873.016.033.017.033zm-3.712-23.413-1.993-.163-.002.02-.001.02zM782.404 8.672l-.755 1.852.012.005zm25.412 19.131-1.596 1.205.009.011.008.011zm9.994 32.55v2h2v-2zm-38.547 0h-2v2h2zm-3.427-10.564-1.561 1.249.021.026.022.026zm-8.851-6.282-.776 1.843.042.018.043.015zm-11.421-2.856-.283 1.98.046.007.047.004zm-28.554 1.714-.677-1.882-.012.004-.013.005zm-1.142 20.272-1.09 1.677.031.02.03.018zm14.848 5.711-.485 1.94.029.008.029.006zm19.987 4.283-.412 1.957.029.006.03.006zm41.402 13.991-1.109 1.664.032.021.032.02zm13.706 14.562-1.766.939.011.021.012.021zm3.997 23.414-1.993-.16-.002.019-.001.019zm-10.279 23.985-1.455-1.372-.001.001zm-25.127 15.133.622 1.901.011-.004.01-.003zm-37.119 5.139v-2q-13.472 0-26.375-3.086l-.465 1.945-.465 1.946q13.367 3.195 27.305 3.195zm-26.84-3.141.465-1.945c-8.551-2.044-16.237-5.29-23.076-9.726l-1.088 1.678-1.088 1.678c7.247 4.701 15.36 8.118 24.322 10.261zm-23.699-9.993 1.12-1.657c-6.794-4.591-12.3-10.462-16.529-17.633l-1.723 1.016-1.723 1.016c4.527 7.676 10.443 13.987 17.735 18.915zm-17.132-18.274 1.742-.983c-3.984-7.063-6.023-15.654-6.023-25.857h-4c0 10.736 2.148 20.037 6.539 27.822zm-6.281-26.84v2h39.974v-4h-39.974zm39.974 0h-2c0 1.172.228 2.673.619 4.431l1.952-.434 1.952-.434c-.37-1.668-.523-2.832-.523-3.563zm.571 3.997-1.897.633c.657 1.972 1.825 4.06 3.42 6.254l1.618-1.176 1.617-1.176c-1.449-1.994-2.376-3.713-2.861-5.167zm3.141 5.711-1.618 1.176c1.678 2.307 3.941 4.451 6.737 6.448l1.163-1.628 1.162-1.627c-2.534-1.811-4.459-3.664-5.827-5.545zm6.282 5.996-1.163 1.628c2.896 2.068 6.635 3.767 11.145 5.139l.582-1.913.583-1.913c-4.247-1.293-7.551-2.83-9.985-4.568zm10.564 4.854-.485 1.94c4.774 1.194 10.467 1.773 17.046 1.773v-4c-6.365 0-11.712-.562-16.076-1.653zm16.561 1.713v2q4.069 0 8.414-.29l-.133-1.995-.134-1.996q-4.22.281-8.147.281zm8.281-.285.248 1.984q4.712-.586 8.62-1.786l-.588-1.911-.588-1.912c-2.346.722-4.99 1.271-7.941 1.64zm8.28-1.713.718 1.866c2.726-1.048 5.007-2.548 6.773-4.535l-1.495-1.329-1.495-1.329c-1.279 1.44-2.996 2.605-5.219 3.46zm5.996-3.998 1.495 1.329c1.923-2.163 2.789-4.962 2.789-8.182h-4c0 2.491-.656 4.261-1.779 5.524zm2.284-6.853h2c0-4.788-2.352-8.539-6.681-11.137l-1.029 1.715-1.029 1.715c3.284 1.971 4.739 4.501 4.739 7.707zm-5.71-9.422 1.068-1.691c-3.882-2.452-8.979-4.327-15.203-5.688l-.427 1.954-.428 1.953c5.959 1.304 10.57 3.046 13.922 5.163zm-14.562-5.425.499-1.937q-8.903-2.297-19.789-4.589l-.412 1.957-.412 1.957q10.814 2.277 19.614 4.548zm-19.702-4.569.423-1.955A215 215 0 0 1 714.779 93l-.617 1.903-.617 1.902a219 219 0 0 0 21.323 5.763zm-21.129-5.71.617-1.903q-10.33-3.352-18.949-8.915l-1.085 1.681-1.084 1.68c6.054 3.906 12.685 7.024 19.884 9.359zm-19.417-9.137 1.147-1.639c-5.454-3.818-9.714-8.624-12.8-14.433l-1.767.938-1.766.939c3.386 6.373 8.073 11.656 14.039 15.833zm-13.42-15.134 1.8-.872c-2.853-5.885-4.072-13.323-3.515-22.419l-1.997-.122-1.996-.123c-.585 9.559.671 17.731 3.909 24.409zm-3.712-23.413 1.994.162c.729-8.936 3.815-16.525 9.233-22.845l-1.518-1.302-1.519-1.302c-6.004 7.005-9.39 15.406-10.183 25.124zm9.709-23.985 1.518 1.302c5.426-6.331 13.184-11.3 23.405-14.83l-.653-1.891-.653-1.89c-10.719 3.703-19.141 9.013-25.136 16.007zm24.27-15.419.653 1.891c10.204-3.525 22.534-5.316 37.037-5.316v-4c-14.812 0-27.608 1.826-38.343 5.535zm37.69-5.425v2c11.56 0 22.342 2.05 32.367 6.134l.755-1.852.754-1.852C772.625 2.528 761.326.39 749.282.39zm33.122 6.282-.743 1.857c10.149 4.059 18.318 10.219 24.559 18.479l1.596-1.205 1.596-1.206c-6.703-8.872-15.475-15.466-26.266-19.782zm25.412 19.131-1.579 1.227c6.336 8.146 9.573 18.537 9.573 31.323h4c0-13.483-3.426-24.792-10.415-33.778zm9.994 32.55v-2h-38.547v4h38.547zm-38.547 0h2c0-4.733-1.242-8.756-3.908-11.866l-1.519 1.302-1.518 1.301c1.902 2.22 2.945 5.24 2.945 9.263zm-3.427-10.564 1.562-1.25c-2.524-3.155-5.782-5.458-9.722-6.909l-.691 1.877-.691 1.876c3.294 1.214 5.937 3.1 7.981 5.655zm-8.851-6.282.776-1.843q-5.714-2.405-12.008-3.004l-.189 1.991-.19 1.991q5.698.544 10.835 2.708zm-11.421-2.856.282-1.979q-6.105-.875-11.133-.877v4q4.681-.002 10.568.836zm-10.851-.856v-2c-7.19 0-13.337.872-18.38 2.688l.677 1.882.678 1.881c4.475-1.61 10.129-2.451 17.025-2.451zm-17.703 2.57-.702-1.873c-2.587.97-4.668 2.456-6.087 4.525-1.417 2.067-2.063 4.555-2.063 7.341h4c0-2.163.496-3.815 1.362-5.079.866-1.262 2.211-2.299 4.193-3.042zm-6.852 9.993h-2c0 5.085 2.271 9.129 6.62 11.956l1.09-1.677 1.09-1.676c-3.265-2.123-4.8-4.931-4.8-8.603zm5.71 10.279-1.029 1.715c4.031 2.419 9.182 4.384 15.392 5.936l.485-1.94.485-1.94c-5.972-1.493-10.72-3.335-14.304-5.486zm14.848 5.711-.427 1.954a2624 2624 0 0 0 20.002 4.286l.412-1.957.412-1.957a2632 2632 0 0 1-19.972-4.28zm19.987 4.283-.353 1.969a215 215 0 0 1 21.783 5.092l.556-1.921.556-1.921a218 218 0 0 0-22.188-5.187zm21.986 5.14-.556 1.921c7.056 2.042 13.338 4.911 18.863 8.594l1.109-1.664 1.11-1.664c-5.897-3.931-12.559-6.963-19.97-9.108zm19.416 8.851-1.045 1.705c5.598 3.431 9.917 8.021 12.985 13.796l1.766-.939 1.766-.938c-3.404-6.408-8.222-11.526-14.426-15.329zm13.706 14.562-1.743.981c3.172 5.639 4.488 13.011 3.747 22.273l1.993.16 1.994.159c.782-9.773-.567-18.01-4.248-24.553zm3.997 23.414-1.996-.122c-.543 8.87-3.784 16.42-9.738 22.735l1.455 1.372 1.455 1.372c6.61-7.011 10.222-15.451 10.821-25.235zm-10.279 23.985-1.456-1.371c-5.815 6.178-13.883 11.071-24.313 14.61l.642 1.894.643 1.894c10.889-3.695 19.573-8.891 25.941-15.657zm-25.127 15.133-.622-1.901c-10.219 3.344-22.372 5.04-36.497 5.04v4c14.429 0 27.022-1.73 37.741-5.238z"/></g></svg>