<svg xmlns="http://www.w3.org/2000/svg" width="794" height="794" fill="none" viewBox="0 0 794 794"><path fill="#caf264" d="M793.95 390.604C790.416 171.375 609.832-3.481 390.604.053l1.092 67.764s-40.425-26.034-39.87 8.416 40.12 7.127 40.12 7.127l1.092 67.764c135.795-2.189 247.652 106.12 249.84 241.914z"/><path stroke="#000" stroke-width="3" d="M392.127 1.533C609.351-1.16 788.113 171.93 792.421 389.127l-148.072 2.388c-2.987-135.421-114.389-243.289-249.835-241.911l-1.068-66.268-.045-2.804-2.307 1.593-.004.004-.019.013-.079.052-.317.213c-.281.186-.697.456-1.228.79a83 83 0 0 1-4.408 2.576c-3.669 1.997-8.507 4.27-13.313 5.488-4.86 1.231-9.359 1.302-12.622-.665-3.161-1.906-5.643-6.034-5.778-14.387s2.213-12.56 5.311-14.566c3.199-2.072 7.698-2.146 12.594-1.072 4.843 1.063 9.752 3.179 13.483 5.056a83 83 0 0 1 4.49 2.434 62 62 0 0 1 1.576.95l.08.052.019.012.004.002.001.001 2.357 1.518-.046-2.804z"/><path fill="#fbe667" stroke="#000" stroke-linecap="round" d="M629.926 13.136c16.788-9.302 34.975-3.876 41.971 0 6.271-4.555 29.187-5.993 41.127 0s44.72 19.42 40.764 72.645c-3.955 53.226 10.493 73.085 18.212 76.362-22.674 25.773-52.464 17.022-60.785 13.786-8.322-3.237-32.283-14.306-39.318-21.458 0 2.557-7.84 10.429-39.197 21.458s-52.866-4.596-59.7-13.786c12.784-11.508 18.814-37.402 17.126-76.361-1.689-38.96 18.814-61.018 39.8-72.646Z"/><rect width="17" height="37" x="732.5" y="104.5" fill="#ec87c8" stroke="#000" rx="8.5"/><rect width="17" height="37" x="594.5" y="104.5" fill="#ec87c8" stroke="#000" rx="8.5"/><path fill="#f3badc" stroke="#000" d="M740.5 52.5V128c0 37.832-30.668 68.5-68.5 68.5s-68.5-30.668-68.5-68.5V52.5z"/><rect width="10" height="25" x="637" y="104" fill="#271b25" rx="5"/><path stroke="#fff" stroke-linecap="round" stroke-width="10" d="M673 170c10 1.167 31.3-2 36.5-24"/><path fill="#fbe667" d="M749.747 57.232c-1.706 4.587-8.007 15.283-11.394 18.847a37.2 37.2 0 0 1-12.026 8.428 38.6 38.6 0 0 1-14.507 3.225 39.5 39.5 0 0 1-14.781-2.469 39.5 39.5 0 0 1-12.803-7.787 38.6 38.6 0 0 1-8.876-11.92 37.2 37.2 0 0 1-3.599-14.236c-.235-4.912 2.316-16.133 4.021-20.72l39.72 6.9z"/><path fill="#fbe667" d="M593.793 57.232c1.706 4.587 8.007 15.283 11.394 18.847a37.2 37.2 0 0 0 12.026 8.428c4.553 2 9.482 3.096 14.507 3.225 5.026.13 10.048-.709 14.781-2.469a39.5 39.5 0 0 0 12.803-7.787 38.6 38.6 0 0 0 8.876-11.92 37.2 37.2 0 0 0 3.599-14.236c.235-4.912-2.316-16.133-4.021-20.72l-39.72 6.9z"/><path fill="#222" d="M660.298 104c3.38 0 6.194 2.779 5.39 6.063a25.514 25.514 0 0 1-15.014 17.501 25.504 25.504 0 0 1-34.536-17.501c-.803-3.284 2.01-6.063 5.391-6.063h38.769M719.47 104c3.38 0 6.194 2.779 5.39 6.063a25.482 25.482 0 0 1-6.74 11.972 25.5 25.5 0 0 1-27.795 5.529 25.5 25.5 0 0 1-13.804-13.803 25.5 25.5 0 0 1-1.211-3.698c-.803-3.284 2.01-6.063 5.391-6.063h38.769"/><path stroke="#000" stroke-width="2" d="M663.015 107.401c2.381 2.38 8.842 5.713 15.644 0"/><path stroke="#fff" stroke-linecap="round" d="M623.523 109c-.166 1.833.5 5.9 4.5 7.5M683.523 109c-.166 1.833.5 5.9 4.5 7.5"/></svg>