<svg xmlns="http://www.w3.org/2000/svg" width="794" height="794" fill="none" viewBox="0 0 794 794"><g clip-path="url(#a)"><path fill="#ff86ce" d="M390.604.053C171.375 3.586-3.481 184.17.053 403.398l151.071-2.434c-2.189-135.795 106.12-247.652 241.914-249.84l-1.092-67.764s-39.565 27.323-40.12-7.127 39.87-8.416 39.87-8.416z"/><path stroke="#000" stroke-width="3" d="M390.152 65.146a86 86 0 0 0-4.09-2.199c-3.83-1.927-8.994-4.167-14.188-5.306-5.14-1.128-10.644-1.252-14.868 1.484-4.325 2.801-6.823 8.26-6.68 17.132.143 8.871 2.815 14.247 7.229 16.908 4.31 2.598 9.807 2.297 14.908 1.004 5.154-1.306 10.243-3.71 14.01-5.76a86 86 0 0 0 4.016-2.33l1.026 63.573c-135.42 2.987-243.289 114.39-241.911 249.835l-148.07 2.387C-1.162 184.651 171.93 5.889 389.126 1.581z"/><rect width="17" height="37" x="193.5" y="101.5" fill="#ec87c8" stroke="#000" rx="8.5"/><rect width="17" height="37" x="55.5" y="101.5" fill="#ec87c8" stroke="#000" rx="8.5"/><path fill="#f3badc" stroke="#000" d="M201.5 75.5V125c0 37.832-30.668 68.5-68.5 68.5S64.5 162.832 64.5 125V75.5z"/><mask id="b" fill="#fff"><path d="M133 0a69 69 0 0 1 63.748 42.595c1.856 4.48 3.228 11.997 4.105 19.405H233.5a8.5 8.5 0 0 1 0 17H64c0-9.061 1.784-28.034 5.252-36.405a69 69 0 0 1 37.343-37.343A69 69 0 0 1 133 0"/></mask><path fill="#5947f1" d="M133 0a69 69 0 0 1 63.748 42.595c1.856 4.48 3.228 11.997 4.105 19.405H233.5a8.5 8.5 0 0 1 0 17H64c0-9.061 1.784-28.034 5.252-36.405a69 69 0 0 1 37.343-37.343A69 69 0 0 1 133 0"/><path fill="#000" d="M133 0v1zm26.405 5.252.383-.924zM181.79 20.21l.707-.707zm14.958 22.385.924-.383zM200.853 62l-.994.117.105.883h.889zM233.5 79v1zM64 79h-1v1h1zm5.252-36.405-.924-.383zM84.21 20.21l-.707-.707zm22.385-14.958-.383-.924zM133 0v1c8.93 0 17.772 1.759 26.023 5.176l.382-.924.383-.924A70 70 0 0 0 133-1zm26.405 5.252-.382.924a68 68 0 0 1 22.06 14.741l.707-.707.707-.707a70 70 0 0 0-22.709-15.175zM181.79 20.21l-.707.707a68 68 0 0 1 14.741 22.06l.924-.382.924-.383a70 70 0 0 0-15.175-22.71zm14.958 22.385-.924.382c1.798 4.341 3.16 11.736 4.035 19.14l.994-.117.993-.117c-.877-7.413-2.261-15.052-4.174-19.671zM200.853 62v1H233.5v-2h-32.647zm32.647 0v1a7.5 7.5 0 0 1 7.5 7.5h2a9.5 9.5 0 0 0-9.5-9.5zm8.5 8.5h-1a7.5 7.5 0 0 1-7.5 7.5v2a9.5 9.5 0 0 0 9.5-9.5zm-8.5 8.5v-1H64v2h169.5zM64 79h1c0-4.48.442-11.446 1.318-18.335.878-6.916 2.18-13.635 3.858-17.688l-.924-.382-.924-.383c-1.789 4.32-3.114 11.272-3.994 18.2C63.45 67.369 63 74.42 63 79zm5.252-36.405.924.382a68 68 0 0 1 14.741-22.06l-.707-.707-.707-.707a70 70 0 0 0-15.175 22.709zM84.21 20.21l.707.707a68 68 0 0 1 22.06-14.741l-.382-.924-.383-.924a70 70 0 0 0-22.71 15.175zm22.385-14.958.382.924A68 68 0 0 1 133 1v-2a70 70 0 0 0-26.788 5.328z" mask="url(#b)"/><rect width="10" height="25" x="98" y="101" fill="#271b25" rx="5"/><rect width="10" height="25" x="146" y="101" fill="#271b25" rx="5"/><path stroke="#fff" stroke-linecap="round" stroke-width="10" d="M134 167c10 1.167 31.3-2 36.5-24"/></g><defs><clipPath id="a"><path fill="#fff" d="M0 0h794v794H0z"/></clipPath></defs></svg>