<svg xmlns="http://www.w3.org/2000/svg" width="794" height="794" fill="none" viewBox="0 0 794 794"><path fill="#fbe667" d="M0 397c0 219.257 177.743 397 397 397v-67.773s41 22.773 40-7.772-40-7.773-40-7.773v-67.773c-135.812 0-245.909-110.097-245.909-245.909z"/><path stroke="#000" stroke-width="3" d="M149.596 398.5C150.4 533.95 260.05 643.6 395.5 644.404v68.891l2.257-1.317.004-.003q.005-.004.017-.01l.077-.045.314-.176c.276-.154.685-.379 1.208-.654a79 79 0 0 1 4.35-2.122c3.62-1.635 8.405-3.474 13.178-4.38 4.819-.915 9.35-.826 12.681 1.069 3.203 1.823 5.676 5.548 5.915 12.847s-2.018 10.966-5.085 12.756c-3.226 1.882-7.805 1.979-12.768 1.06-4.904-.908-9.882-2.752-13.662-4.388a89 89 0 0 1-4.552-2.125c-.579-.276-.979-.502-1.27-.657l-.33-.176-.082-.045-.019-.01-.004-.003-2.229-1.237v68.816C178.261 791.689 2.312 615.739 1.505 398.5z"/><path fill="#f3badc" stroke="#000" d="M226.5 630.5V697c0 37.832-30.668 68.5-68.5 68.5S89.5 734.832 89.5 697v-66.5z"/><mask id="a" fill="#fff"><path d="M138.5 561c11.587 0 21.756 6.065 27.511 15.192A22.44 22.44 0 0 1 182.5 569c12.271 0 22.246 9.823 22.493 22.035C222.249 591.816 236 606.051 236 623.5c0 17.949-14.551 32.5-32.5 32.5-12.876 0-24.002-7.488-29.264-18.347A26 26 0 0 1 170 638c-3.808 0-7.425-.819-10.685-2.29-4.662 5.094-11.365 8.29-18.815 8.29-1.562 0-3.091-.142-4.576-.411C130.079 652.848 119.759 659 108 659c-18.225 0-33-14.775-33-33 0-17.555 13.709-31.907 31.005-32.938C106.24 575.314 120.697 561 138.5 561"/></mask><path fill="#5c49ff" d="M138.5 561c11.587 0 21.756 6.065 27.511 15.192A22.44 22.44 0 0 1 182.5 569c12.271 0 22.246 9.823 22.493 22.035C222.249 591.816 236 606.051 236 623.5c0 17.949-14.551 32.5-32.5 32.5-12.876 0-24.002-7.488-29.264-18.347A26 26 0 0 1 170 638c-3.808 0-7.425-.819-10.685-2.29-4.662 5.094-11.365 8.29-18.815 8.29-1.562 0-3.091-.142-4.576-.411C130.079 652.848 119.759 659 108 659c-18.225 0-33-14.775-33-33 0-17.555 13.709-31.907 31.005-32.938C106.24 575.314 120.697 561 138.5 561"/><path fill="#000" d="m166.011 576.192-.846.534.693 1.1.885-.953zm38.982 14.843-1 .02.019.937.936.042zm-30.757 46.618.9-.436-.325-.671-.736.12zm-14.921-1.943.412-.911-.66-.298-.489.534zm-23.391 7.879.178-.984-.664-.12-.36.57zm-29.919-50.527.059.998.929-.056.012-.929zM138.5 561v1c11.229 0 21.086 5.876 26.665 14.726l.846-.534.846-.533C160.927 566.253 150.445 560 138.5 560zm27.511 15.192.732.681A21.44 21.44 0 0 1 182.5 570v-2c-6.803 0-12.932 2.893-17.222 7.512zM182.5 569v1c11.725 0 21.257 9.387 21.493 21.055l1-.02 1-.02C205.734 578.26 195.317 568 182.5 568zm22.493 22.035-.045.999C221.672 592.79 235 606.588 235 623.5h2c0-17.986-14.174-32.659-31.962-33.464zM236 623.5h-1c0 17.397-14.103 31.5-31.5 31.5v2c18.502 0 33.5-14.998 33.5-33.5zM203.5 656v-1c-12.478 0-23.263-7.256-28.364-17.783l-.9.436-.9.436C178.759 649.28 190.226 657 203.5 657zm-29.264-18.347-.161-.987A25 25 0 0 1 170 637v2c1.499 0 2.968-.125 4.398-.36zM170 638v-1c-3.664 0-7.141-.788-10.273-2.201l-.412.911-.411.911A26.9 26.9 0 0 0 170 639zm-10.685-2.29-.737-.675c-4.481 4.896-10.92 7.965-18.078 7.965v2c7.742 0 14.709-3.322 19.553-8.615zM140.5 644v-1c-1.502 0-2.971-.137-4.398-.395l-.178.984-.178.984c1.542.279 3.131.427 4.754.427zm-4.576-.411-.846-.534C129.409 652.037 119.401 658 108 658v2c12.117 0 22.749-6.34 28.769-15.877zM108 659v-1c-17.673 0-32-14.327-32-32h-2c0 18.778 15.222 34 34 34zm-33-33h1c0-17.023 13.293-30.94 30.064-31.94l-.059-.998-.06-.999C88.124 593.126 74 607.912 74 626zm31.005-32.938 1 .013C107.232 575.874 121.245 562 138.5 562v-2c-18.351 0-33.253 14.755-33.495 33.048z" mask="url(#a)"/><mask id="b" fill="#fff"><path d="M236 659.5a80.499 80.499 0 1 0-161 0h12.88a67.62 67.62 0 1 1 135.241 0z"/></mask><path fill="#caf264" stroke="#000" stroke-width="2" d="M236 659.5a80.499 80.499 0 1 0-161 0h12.88a67.62 67.62 0 1 1 135.241 0z" mask="url(#b)"/><rect width="10" height="25" x="123" y="656" fill="#271b25" rx="5"/><rect width="10" height="25" x="171" y="656" fill="#271b25" rx="5"/><path stroke="#fff" stroke-linecap="round" stroke-width="10" d="M159 734c10 1.167 31.3-2 36.5-24"/><mask id="c" fill="#fff"><path d="M230 699c6.63 0 12.989-2.634 17.678-7.322a25.004 25.004 0 0 0 0-35.356A25 25 0 0 0 230 649v50"/></mask><path fill="#caf264" stroke="#000" stroke-width="2" d="M230 699c6.63 0 12.989-2.634 17.678-7.322a25.004 25.004 0 0 0 0-35.356A25 25 0 0 0 230 649v50Z" mask="url(#c)"/><mask id="d" fill="#fff"><path d="M86 699a25.001 25.001 0 0 1-17.678-42.678A25 25 0 0 1 86 649v50"/></mask><path fill="#caf264" stroke="#000" stroke-width="2" d="M86 699a25.001 25.001 0 0 1-17.678-42.678A25 25 0 0 1 86 649v50Z" mask="url(#d)"/><rect width="17" height="55" x="218.5" y="646.5" fill="#caf264" stroke="#000" rx="8.5"/><rect width="17" height="55" x="-.5" y=".5" fill="#caf264" stroke="#000" rx="8.5" transform="matrix(-1 0 0 1 97 646)"/></svg>